  0
SECTION
  2
HEADER
  9
$ACADVER
  1
AC1009
  9
$FILLMODE
 70
1
  9
$EXTMIN
 10
-12.8410
 20
-1.8297
 30
0.0000
  9
$EXTMAX
 10
53.2996
 20
40.1583
 30
0.0000
  0
ENDSEC
  0
SECTION
  2
TABLES
  0
TABLE
  2
LTYPE
 70
1
  0
LTYPE
  2
CONTINUOUS
 70
64
  3
Solid line
 72
65
 73
0
 40
0
  0
ENDTAB
  0
TABLE
  2
LAYER
 70
255
  0
LAYER
  2
21
 70
64
 62
251
  6
CONTINUOUS
  0
ENDTAB
  0
ENDSEC
  0
SECTION
  2
BLOCKS
  0
BLOCK
  8
0
  2
RECT
 70
64
 10
0.0000
 20
0.0000
 30
0.0000
  3
RECT
  0
SOLID
  8
0
 10
-0.5000
 20
-0.5000
 30
0.0000
 11
0.5000
 21
-0.5000
 31
0.0000
 12
-0.5000
 22
0.5000
 32
0.0000
 13
0.5000
 23
0.5000
 33
0.0000
  0
ENDBLK
  8
0
  0
BLOCK
  8
0
  2
PIE
 70
64
 10
0.0000
 20
0.0000
 30
0.0000
  3
PIE
  0
POLYLINE
  8
0
 66
1
 10
0.0000
 20
0.0000
 30
0.0000
 40
0.5000
 41
0.5000
 70
0
  0
VERTEX
  8
0
 10
0.0000
 20
-0.2500
 30
0.0000
 42
1.0000
  0
VERTEX
  8
0
 10
0.0000
 20
0.2500
 30
0.0000
 42
1.0000
  0
VERTEX
  8
0
 10
0.0000
 20
-0.2500
 30
0.0000
  0
SEQEND
  8
0
  0
ENDBLK
  8
0
  0
BLOCK
  8
0
  2
OCTAGONP
 70
64
 10
0.0000
 20
0.0000
 30
0.0000
  3
OCTAGONP
  0
POLYLINE
  8
0
 66
1
 10
0.0000
 20
0.0000
 30
0.0000
 40
0.5000
 41
0.5000
 70
0
  0
VERTEX
  8
0
 10
-0.2500
 20
-0.1036
 30
0.0000
  0
VERTEX
  8
0
 10
-0.2500
 20
0.1036
 30
0.0000
  0
VERTEX
  8
0
 10
-0.1036
 20
0.2500
 30
0.0000
  0
VERTEX
  8
0
 10
0.1036
 20
0.2500
 30
0.0000
  0
VERTEX
  8
0
 10
0.2500
 20
0.1036
 30
0.0000
  0
VERTEX
  8
0
 10
0.2500
 20
-0.1036
 30
0.0000
  0
VERTEX
  8
0
 10
0.1036
 20
-0.2500
 30
0.0000
  0
VERTEX
  8
0
 10
-0.1036
 20
-0.2500
 30
0.0000
  0
VERTEX
  8
0
 10
-0.2500
 20
-0.1036
 30
0.0000
  0
VERTEX
  8
0
 10
-0.2500
 20
0.1036
 30
0.0000
  0
SEQEND
  8
0
  0
ENDBLK
  8
0
  0
BLOCK
  8
0
  2
SQUAREP
 70
64
 10
0.0000
 20
0.0000
 30
0.0000
  3
SQUAREP
  0
SOLID
  8
0
 10
-0.5000
 20
-0.5000
 30
0.0000
 11
0.5000
 21
-0.5000
 31
0.0000
 12
-0.5000
 22
0.5000
 32
0.0000
 13
0.5000
 23
0.5000
 33
0.0000
  0
ENDBLK
  8
0
  0
BLOCK
  8
0
  2
ROUNDP
 70
64
 10
0.0000
 20
0.0000
 30
0.0000
  3
ROUNDP
  0
POLYLINE
  8
0
 66
1
 10
0.0000
 20
0.0000
 30
0.0000
 40
0.5000
 41
0.5000
 70
0
  0
VERTEX
  8
0
 10
0.0000
 20
-0.2500
 30
0.0000
 42
1.0000
  0
VERTEX
  8
0
 10
0.0000
 20
0.2500
 30
0.0000
 42
1.0000
  0
VERTEX
  8
0
 10
0.0000
 20
-0.2500
 30
0.0000
  0
SEQEND
  8
0
  0
ENDBLK
  8
0
  0
BLOCK
  8
0
  2
ANNULUSP
 70
64
 10
0.0000
 20
0.0000
 30
0.0000
  3
ANNULUSP
  0
POLYLINE
  8
0
 66
1
 10
0.0000
 20
0.0000
 30
0.0000
 40
0.5000
 41
0.5000
 70
0
  0
VERTEX
  8
0
 10
0.0000
 20
-0.2500
 30
0.0000
 42
1.0000
  0
VERTEX
  8
0
 10
0.0000
 20
0.2500
 30
0.0000
 42
1.0000
  0
VERTEX
  8
0
 10
0.0000
 20
-0.2500
 30
0.0000
  0
SEQEND
  8
0
  0
ENDBLK
  8
0
  0
BLOCK
  8
0
  2
THERMALP
 70
64
 10
0.0000
 20
0.0000
 30
0.0000
  3
THERMALP
  0
POLYLINE
  8
0
 66
1
 10
0.0000
 20
0.0000
 30
0.0000
 40
0.1000
 41
0.1000
 70
0
  0
VERTEX
  8
0
 10
-0.2379
 20
0.4500
 30
0.0000
  0
VERTEX
  8
0
 10
0.2379
 20
0.4500
 30
0.0000
  0
SEQEND
  8
0
  0
POLYLINE
  8
0
 66
1
 10
0.0000
 20
0.0000
 30
0.0000
 40
0.0500
 41
0.0500
 70
0
  0
VERTEX
  8
0
 10
0.2379
 20
0.4250
 30
0.0000
 42
1.0000
  0
VERTEX
  8
0
 10
0.2379
 20
0.4750
 30
0.0000
  0
SEQEND
  8
0
  0
POLYLINE
  8
0
 66
1
 10
0.0000
 20
0.0000
 30
0.0000
 40
0.0500
 41
0.0500
 70
0
  0
VERTEX
  8
0
 10
-0.2379
 20
0.4750
 30
0.0000
 42
1.0000
  0
VERTEX
  8
0
 10
-0.2379
 20
0.4250
 30
0.0000
  0
SEQEND
  8
0
  0
POLYLINE
  8
0
 66
1
 10
0.0000
 20
0.0000
 30
0.0000
 40
0.1000
 41
0.1000
 70
0
  0
VERTEX
  8
0
 10
0.4500
 20
0.2379
 30
0.0000
  0
VERTEX
  8
0
 10
0.4500
 20
-0.2379
 30
0.0000
  0
SEQEND
  8
0
  0
POLYLINE
  8
0
 66
1
 10
0.0000
 20
0.0000
 30
0.0000
 40
0.0500
 41
0.0500
 70
0
  0
VERTEX
  8
0
 10
0.4250
 20
-0.2379
 30
0.0000
 42
1.0000
  0
VERTEX
  8
0
 10
0.4750
 20
-0.2379
 30
0.0000
  0
SEQEND
  8
0
  0
POLYLINE
  8
0
 66
1
 10
0.0000
 20
0.0000
 30
0.0000
 40
0.0500
 41
0.0500
 70
0
  0
VERTEX
  8
0
 10
0.4750
 20
0.2379
 30
0.0000
 42
1.0000
  0
VERTEX
  8
0
 10
0.4250
 20
0.2379
 30
0.0000
  0
SEQEND
  8
0
  0
POLYLINE
  8
0
 66
1
 10
0.0000
 20
0.0000
 30
0.0000
 40
0.1000
 41
0.1000
 70
0
  0
VERTEX
  8
0
 10
0.2379
 20
-0.4500
 30
0.0000
  0
VERTEX
  8
0
 10
-0.2379
 20
-0.4500
 30
0.0000
  0
SEQEND
  8
0
  0
POLYLINE
  8
0
 66
1
 10
0.0000
 20
0.0000
 30
0.0000
 40
0.0500
 41
0.0500
 70
0
  0
VERTEX
  8
0
 10
-0.2379
 20
-0.4250
 30
0.0000
 42
1.0000
  0
VERTEX
  8
0
 10
-0.2379
 20
-0.4750
 30
0.0000
  0
SEQEND
  8
0
  0
POLYLINE
  8
0
 66
1
 10
0.0000
 20
0.0000
 30
0.0000
 40
0.0500
 41
0.0500
 70
0
  0
VERTEX
  8
0
 10
0.2379
 20
-0.4750
 30
0.0000
 42
1.0000
  0
VERTEX
  8
0
 10
0.2379
 20
-0.4250
 30
0.0000
  0
SEQEND
  8
0
  0
POLYLINE
  8
0
 66
1
 10
0.0000
 20
0.0000
 30
0.0000
 40
0.1000
 41
0.1000
 70
0
  0
VERTEX
  8
0
 10
-0.4500
 20
-0.2379
 30
0.0000
  0
VERTEX
  8
0
 10
-0.4500
 20
0.2379
 30
0.0000
  0
SEQEND
  8
0
  0
POLYLINE
  8
0
 66
1
 10
0.0000
 20
0.0000
 30
0.0000
 40
0.0500
 41
0.0500
 70
0
  0
VERTEX
  8
0
 10
-0.4250
 20
0.2379
 30
0.0000
 42
1.0000
  0
VERTEX
  8
0
 10
-0.4750
 20
0.2379
 30
0.0000
  0
SEQEND
  8
0
  0
POLYLINE
  8
0
 66
1
 10
0.0000
 20
0.0000
 30
0.0000
 40
0.0500
 41
0.0500
 70
0
  0
VERTEX
  8
0
 10
-0.4750
 20
-0.2379
 30
0.0000
 42
1.0000
  0
VERTEX
  8
0
 10
-0.4250
 20
-0.2379
 30
0.0000
  0
SEQEND
  8
0
  0
ENDBLK
  8
0
  0
BLOCK
  8
0
  2
OCTAGONV
 70
64
 10
0.0000
 20
0.0000
 30
0.0000
  3
OCTAGONV
  0
POLYLINE
  8
0
 66
1
 10
0.0000
 20
0.0000
 30
0.0000
 40
0.5000
 41
0.5000
 70
0
  0
VERTEX
  8
0
 10
-0.2500
 20
-0.1036
 30
0.0000
  0
VERTEX
  8
0
 10
-0.2500
 20
0.1036
 30
0.0000
  0
VERTEX
  8
0
 10
-0.1036
 20
0.2500
 30
0.0000
  0
VERTEX
  8
0
 10
0.1036
 20
0.2500
 30
0.0000
  0
VERTEX
  8
0
 10
0.2500
 20
0.1036
 30
0.0000
  0
VERTEX
  8
0
 10
0.2500
 20
-0.1036
 30
0.0000
  0
VERTEX
  8
0
 10
0.1036
 20
-0.2500
 30
0.0000
  0
VERTEX
  8
0
 10
-0.1036
 20
-0.2500
 30
0.0000
  0
VERTEX
  8
0
 10
-0.2500
 20
-0.1036
 30
0.0000
  0
VERTEX
  8
0
 10
-0.2500
 20
0.1036
 30
0.0000
  0
SEQEND
  8
0
  0
ENDBLK
  8
0
  0
BLOCK
  8
0
  2
SQUAREV
 70
64
 10
0.0000
 20
0.0000
 30
0.0000
  3
SQUAREV
  0
SOLID
  8
0
 10
-0.5000
 20
-0.5000
 30
0.0000
 11
0.5000
 21
-0.5000
 31
0.0000
 12
-0.5000
 22
0.5000
 32
0.0000
 13
0.5000
 23
0.5000
 33
0.0000
  0
ENDBLK
  8
0
  0
BLOCK
  8
0
  2
ROUNDV
 70
64
 10
0.0000
 20
0.0000
 30
0.0000
  3
ROUNDV
  0
POLYLINE
  8
0
 66
1
 10
0.0000
 20
0.0000
 30
0.0000
 40
0.5000
 41
0.5000
 70
0
  0
VERTEX
  8
0
 10
0.0000
 20
-0.2500
 30
0.0000
 42
1.0000
  0
VERTEX
  8
0
 10
0.0000
 20
0.2500
 30
0.0000
 42
1.0000
  0
VERTEX
  8
0
 10
0.0000
 20
-0.2500
 30
0.0000
  0
SEQEND
  8
0
  0
ENDBLK
  8
0
  0
BLOCK
  8
0
  2
ANNULUSV
 70
64
 10
0.0000
 20
0.0000
 30
0.0000
  3
ANNULUSV
  0
POLYLINE
  8
0
 66
1
 10
0.0000
 20
0.0000
 30
0.0000
 40
0.5000
 41
0.5000
 70
0
  0
VERTEX
  8
0
 10
0.0000
 20
-0.2500
 30
0.0000
 42
1.0000
  0
VERTEX
  8
0
 10
0.0000
 20
0.2500
 30
0.0000
 42
1.0000
  0
VERTEX
  8
0
 10
0.0000
 20
-0.2500
 30
0.0000
  0
SEQEND
  8
0
  0
ENDBLK
  8
0
  0
BLOCK
  8
0
  2
THERMALV
 70
64
 10
0.0000
 20
0.0000
 30
0.0000
  3
THERMALV
  0
POLYLINE
  8
0
 66
1
 10
0.0000
 20
0.0000
 30
0.0000
 40
0.1000
 41
0.1000
 70
0
  0
VERTEX
  8
0
 10
-0.2379
 20
0.4500
 30
0.0000
  0
VERTEX
  8
0
 10
0.2379
 20
0.4500
 30
0.0000
  0
SEQEND
  8
0
  0
POLYLINE
  8
0
 66
1
 10
0.0000
 20
0.0000
 30
0.0000
 40
0.0500
 41
0.0500
 70
0
  0
VERTEX
  8
0
 10
0.2379
 20
0.4250
 30
0.0000
 42
1.0000
  0
VERTEX
  8
0
 10
0.2379
 20
0.4750
 30
0.0000
  0
SEQEND
  8
0
  0
POLYLINE
  8
0
 66
1
 10
0.0000
 20
0.0000
 30
0.0000
 40
0.0500
 41
0.0500
 70
0
  0
VERTEX
  8
0
 10
-0.2379
 20
0.4750
 30
0.0000
 42
1.0000
  0
VERTEX
  8
0
 10
-0.2379
 20
0.4250
 30
0.0000
  0
SEQEND
  8
0
  0
POLYLINE
  8
0
 66
1
 10
0.0000
 20
0.0000
 30
0.0000
 40
0.1000
 41
0.1000
 70
0
  0
VERTEX
  8
0
 10
0.4500
 20
0.2379
 30
0.0000
  0
VERTEX
  8
0
 10
0.4500
 20
-0.2379
 30
0.0000
  0
SEQEND
  8
0
  0
POLYLINE
  8
0
 66
1
 10
0.0000
 20
0.0000
 30
0.0000
 40
0.0500
 41
0.0500
 70
0
  0
VERTEX
  8
0
 10
0.4250
 20
-0.2379
 30
0.0000
 42
1.0000
  0
VERTEX
  8
0
 10
0.4750
 20
-0.2379
 30
0.0000
  0
SEQEND
  8
0
  0
POLYLINE
  8
0
 66
1
 10
0.0000
 20
0.0000
 30
0.0000
 40
0.0500
 41
0.0500
 70
0
  0
VERTEX
  8
0
 10
0.4750
 20
0.2379
 30
0.0000
 42
1.0000
  0
VERTEX
  8
0
 10
0.4250
 20
0.2379
 30
0.0000
  0
SEQEND
  8
0
  0
POLYLINE
  8
0
 66
1
 10
0.0000
 20
0.0000
 30
0.0000
 40
0.1000
 41
0.1000
 70
0
  0
VERTEX
  8
0
 10
0.2379
 20
-0.4500
 30
0.0000
  0
VERTEX
  8
0
 10
-0.2379
 20
-0.4500
 30
0.0000
  0
SEQEND
  8
0
  0
POLYLINE
  8
0
 66
1
 10
0.0000
 20
0.0000
 30
0.0000
 40
0.0500
 41
0.0500
 70
0
  0
VERTEX
  8
0
 10
-0.2379
 20
-0.4250
 30
0.0000
 42
1.0000
  0
VERTEX
  8
0
 10
-0.2379
 20
-0.4750
 30
0.0000
  0
SEQEND
  8
0
  0
POLYLINE
  8
0
 66
1
 10
0.0000
 20
0.0000
 30
0.0000
 40
0.0500
 41
0.0500
 70
0
  0
VERTEX
  8
0
 10
0.2379
 20
-0.4750
 30
0.0000
 42
1.0000
  0
VERTEX
  8
0
 10
0.2379
 20
-0.4250
 30
0.0000
  0
SEQEND
  8
0
  0
POLYLINE
  8
0
 66
1
 10
0.0000
 20
0.0000
 30
0.0000
 40
0.1000
 41
0.1000
 70
0
  0
VERTEX
  8
0
 10
-0.4500
 20
-0.2379
 30
0.0000
  0
VERTEX
  8
0
 10
-0.4500
 20
0.2379
 30
0.0000
  0
SEQEND
  8
0
  0
POLYLINE
  8
0
 66
1
 10
0.0000
 20
0.0000
 30
0.0000
 40
0.0500
 41
0.0500
 70
0
  0
VERTEX
  8
0
 10
-0.4250
 20
0.2379
 30
0.0000
 42
1.0000
  0
VERTEX
  8
0
 10
-0.4750
 20
0.2379
 30
0.0000
  0
SEQEND
  8
0
  0
POLYLINE
  8
0
 66
1
 10
0.0000
 20
0.0000
 30
0.0000
 40
0.0500
 41
0.0500
 70
0
  0
VERTEX
  8
0
 10
-0.4750
 20
-0.2379
 30
0.0000
 42
1.0000
  0
VERTEX
  8
0
 10
-0.4250
 20
-0.2379
 30
0.0000
  0
SEQEND
  8
0
  0
ENDBLK
  8
0
  0
BLOCK
  8
0
  2
LONGP100
 70
64
 10
0.0000
 20
0.0000
 30
0.0000
  3
LONGP100
  0
POLYLINE
  8
0
 66
1
 10
0.0000
 20
0.0000
 30
0.0000
 40
1.0000
 41
1.0000
 70
0
  0
VERTEX
  8
0
 10
-0.5000
 20
0.0000
 30
0.0000
  0
VERTEX
  8
0
 10
0.5000
 20
0.0000
 30
0.0000
  0
SEQEND
  8
0
  0
POLYLINE
  8
0
 66
1
 10
0.0000
 20
0.0000
 30
0.0000
 40
0.5000
 41
0.5000
 70
0
  0
VERTEX
  8
0
 10
0.5000
 20
-0.2500
 30
0.0000
 42
1.0000
  0
VERTEX
  8
0
 10
0.5000
 20
0.2500
 30
0.0000
  0
SEQEND
  8
0
  0
POLYLINE
  8
0
 66
1
 10
0.0000
 20
0.0000
 30
0.0000
 40
0.5000
 41
0.5000
 70
0
  0
VERTEX
  8
0
 10
-0.5000
 20
0.2500
 30
0.0000
 42
1.0000
  0
VERTEX
  8
0
 10
-0.5000
 20
-0.2500
 30
0.0000
  0
SEQEND
  8
0
  0
ENDBLK
  8
0
  0
ENDSEC
  0
SECTION
  2
ENTITIES
  0
POLYLINE
  8
21
 66
1
 10
0.0000
 20
0.0000
 30
0.0000
 40
0.5080
 41
0.5080
 70
0
  0
VERTEX
  8
21
 10
20.6500
 20
27.4970
 30
0.0000
  0
VERTEX
  8
21
 10
20.6500
 20
27.2430
 30
0.0000
  0
SEQEND
  8
0
  0
POLYLINE
  8
21
 66
1
 10
0.0000
 20
0.0000
 30
0.0000
 40
0.2540
 41
0.2540
 70
0
  0
VERTEX
  8
21
 10
20.5230
 20
27.2430
 30
0.0000
 42
1.0000
  0
VERTEX
  8
21
 10
20.7770
 20
27.2430
 30
0.0000
  0
SEQEND
  8
0
  0
POLYLINE
  8
21
 66
1
 10
0.0000
 20
0.0000
 30
0.0000
 40
0.2540
 41
0.2540
 70
0
  0
VERTEX
  8
21
 10
20.7770
 20
27.4970
 30
0.0000
 42
1.0000
  0
VERTEX
  8
21
 10
20.5230
 20
27.4970
 30
0.0000
  0
SEQEND
  8
0
  0
POLYLINE
  8
21
 66
1
 10
0.0000
 20
0.0000
 30
0.0000
 40
0.5080
 41
0.5080
 70
0
  0
VERTEX
  8
21
 10
2.7593
 20
36.3418
 30
0.0000
  0
VERTEX
  8
21
 10
3.0133
 20
36.3418
 30
0.0000
  0
SEQEND
  8
0
  0
POLYLINE
  8
21
 66
1
 10
0.0000
 20
0.0000
 30
0.0000
 40
0.2540
 41
0.2540
 70
0
  0
VERTEX
  8
21
 10
3.0133
 20
36.2148
 30
0.0000
 42
1.0000
  0
VERTEX
  8
21
 10
3.0133
 20
36.4688
 30
0.0000
  0
SEQEND
  8
0
  0
POLYLINE
  8
21
 66
1
 10
0.0000
 20
0.0000
 30
0.0000
 40
0.2540
 41
0.2540
 70
0
  0
VERTEX
  8
21
 10
2.7593
 20
36.4688
 30
0.0000
 42
1.0000
  0
VERTEX
  8
21
 10
2.7593
 20
36.2148
 30
0.0000
  0
SEQEND
  8
0
  0
POLYLINE
  8
21
 66
1
 10
0.0000
 20
0.0000
 30
0.0000
 40
0.3048
 41
0.3048
 70
0
  0
VERTEX
  8
21
 10
25.1352
 20
37.1950
 30
0.0000
  0
VERTEX
  8
21
 10
25.1352
 20
36.5600
 30
0.0000
  0
SEQEND
  8
0
  0
POLYLINE
  8
21
 66
1
 10
0.0000
 20
0.0000
 30
0.0000
 40
0.1524
 41
0.1524
 70
0
  0
VERTEX
  8
21
 10
25.0590
 20
36.5600
 30
0.0000
 42
1.0000
  0
VERTEX
  8
21
 10
25.2114
 20
36.5600
 30
0.0000
  0
SEQEND
  8
0
  0
POLYLINE
  8
21
 66
1
 10
0.0000
 20
0.0000
 30
0.0000
 40
0.1524
 41
0.1524
 70
0
  0
VERTEX
  8
21
 10
25.2114
 20
37.1950
 30
0.0000
 42
1.0000
  0
VERTEX
  8
21
 10
25.0590
 20
37.1950
 30
0.0000
  0
SEQEND
  8
0
  0
POLYLINE
  8
21
 66
1
 10
0.0000
 20
0.0000
 30
0.0000
 40
0.3048
 41
0.3048
 70
0
  0
VERTEX
  8
21
 10
25.1352
 20
36.5600
 30
0.0000
  0
VERTEX
  8
21
 10
25.1352
 20
35.9250
 30
0.0000
  0
SEQEND
  8
0
  0
POLYLINE
  8
21
 66
1
 10
0.0000
 20
0.0000
 30
0.0000
 40
0.1524
 41
0.1524
 70
0
  0
VERTEX
  8
21
 10
25.0590
 20
35.9250
 30
0.0000
 42
1.0000
  0
VERTEX
  8
21
 10
25.2114
 20
35.9250
 30
0.0000
  0
SEQEND
  8
0
  0
POLYLINE
  8
21
 66
1
 10
0.0000
 20
0.0000
 30
0.0000
 40
0.1524
 41
0.1524
 70
0
  0
VERTEX
  8
21
 10
25.2114
 20
36.5600
 30
0.0000
 42
1.0000
  0
VERTEX
  8
21
 10
25.0590
 20
36.5600
 30
0.0000
  0
SEQEND
  8
0
  0
POLYLINE
  8
21
 66
1
 10
0.0000
 20
0.0000
 30
0.0000
 40
0.1524
 41
0.1524
 70
0
  0
VERTEX
  8
21
 10
25.1352
 20
36.5600
 30
0.0000
  0
VERTEX
  8
21
 10
23.9160
 20
36.5600
 30
0.0000
  0
SEQEND
  8
0
  0
POLYLINE
  8
21
 66
1
 10
0.0000
 20
0.0000
 30
0.0000
 40
0.0762
 41
0.0762
 70
0
  0
VERTEX
  8
21
 10
23.9160
 20
36.5981
 30
0.0000
 42
1.0000
  0
VERTEX
  8
21
 10
23.9160
 20
36.5219
 30
0.0000
  0
SEQEND
  8
0
  0
POLYLINE
  8
21
 66
1
 10
0.0000
 20
0.0000
 30
0.0000
 40
0.0762
 41
0.0762
 70
0
  0
VERTEX
  8
21
 10
25.1352
 20
36.5219
 30
0.0000
 42
1.0000
  0
VERTEX
  8
21
 10
25.1352
 20
36.5981
 30
0.0000
  0
SEQEND
  8
0
  0
POLYLINE
  8
21
 66
1
 10
0.0000
 20
0.0000
 30
0.0000
 40
0.3048
 41
0.3048
 70
0
  0
VERTEX
  8
21
 10
25.7702
 20
37.1950
 30
0.0000
  0
VERTEX
  8
21
 10
25.7702
 20
36.5600
 30
0.0000
  0
SEQEND
  8
0
  0
POLYLINE
  8
21
 66
1
 10
0.0000
 20
0.0000
 30
0.0000
 40
0.1524
 41
0.1524
 70
0
  0
VERTEX
  8
21
 10
25.6940
 20
36.5600
 30
0.0000
 42
1.0000
  0
VERTEX
  8
21
 10
25.8464
 20
36.5600
 30
0.0000
  0
SEQEND
  8
0
  0
POLYLINE
  8
21
 66
1
 10
0.0000
 20
0.0000
 30
0.0000
 40
0.1524
 41
0.1524
 70
0
  0
VERTEX
  8
21
 10
25.8464
 20
37.1950
 30
0.0000
 42
1.0000
  0
VERTEX
  8
21
 10
25.6940
 20
37.1950
 30
0.0000
  0
SEQEND
  8
0
  0
POLYLINE
  8
21
 66
1
 10
0.0000
 20
0.0000
 30
0.0000
 40
0.3048
 41
0.3048
 70
0
  0
VERTEX
  8
21
 10
25.7702
 20
36.5600
 30
0.0000
  0
VERTEX
  8
21
 10
25.7702
 20
35.9250
 30
0.0000
  0
SEQEND
  8
0
  0
POLYLINE
  8
21
 66
1
 10
0.0000
 20
0.0000
 30
0.0000
 40
0.1524
 41
0.1524
 70
0
  0
VERTEX
  8
21
 10
25.6940
 20
35.9250
 30
0.0000
 42
1.0000
  0
VERTEX
  8
21
 10
25.8464
 20
35.9250
 30
0.0000
  0
SEQEND
  8
0
  0
POLYLINE
  8
21
 66
1
 10
0.0000
 20
0.0000
 30
0.0000
 40
0.1524
 41
0.1524
 70
0
  0
VERTEX
  8
21
 10
25.8464
 20
36.5600
 30
0.0000
 42
1.0000
  0
VERTEX
  8
21
 10
25.6940
 20
36.5600
 30
0.0000
  0
SEQEND
  8
0
  0
POLYLINE
  8
21
 66
1
 10
0.0000
 20
0.0000
 30
0.0000
 40
0.1524
 41
0.1524
 70
0
  0
VERTEX
  8
21
 10
25.7702
 20
36.5600
 30
0.0000
  0
VERTEX
  8
21
 10
26.9640
 20
36.5600
 30
0.0000
  0
SEQEND
  8
0
  0
POLYLINE
  8
21
 66
1
 10
0.0000
 20
0.0000
 30
0.0000
 40
0.0762
 41
0.0762
 70
0
  0
VERTEX
  8
21
 10
26.9640
 20
36.5219
 30
0.0000
 42
1.0000
  0
VERTEX
  8
21
 10
26.9640
 20
36.5981
 30
0.0000
  0
SEQEND
  8
0
  0
POLYLINE
  8
21
 66
1
 10
0.0000
 20
0.0000
 30
0.0000
 40
0.0762
 41
0.0762
 70
0
  0
VERTEX
  8
21
 10
25.7702
 20
36.5981
 30
0.0000
 42
1.0000
  0
VERTEX
  8
21
 10
25.7702
 20
36.5219
 30
0.0000
  0
SEQEND
  8
0
  0
POLYLINE
  8
21
 66
1
 10
0.0000
 20
0.0000
 30
0.0000
 40
0.1524
 41
0.1524
 70
0
  0
VERTEX
  8
21
 10
21.7570
 20
37.8300
 30
0.0000
  0
VERTEX
  8
21
 10
21.7570
 20
35.2900
 30
0.0000
  0
SEQEND
  8
0
  0
POLYLINE
  8
21
 66
1
 10
0.0000
 20
0.0000
 30
0.0000
 40
0.0762
 41
0.0762
 70
0
  0
VERTEX
  8
21
 10
21.7189
 20
35.2900
 30
0.0000
 42
1.0000
  0
VERTEX
  8
21
 10
21.7951
 20
35.2900
 30
0.0000
  0
SEQEND
  8
0
  0
POLYLINE
  8
21
 66
1
 10
0.0000
 20
0.0000
 30
0.0000
 40
0.0762
 41
0.0762
 70
0
  0
VERTEX
  8
21
 10
21.7951
 20
37.8300
 30
0.0000
 42
1.0000
  0
VERTEX
  8
21
 10
21.7189
 20
37.8300
 30
0.0000
  0
SEQEND
  8
0
  0
POLYLINE
  8
21
 66
1
 10
0.0000
 20
0.0000
 30
0.0000
 40
0.1524
 41
0.1524
 70
0
  0
VERTEX
  8
21
 10
22.0110
 20
35.0360
 30
0.0000
  0
VERTEX
  8
21
 10
28.8690
 20
35.0360
 30
0.0000
  0
SEQEND
  8
0
  0
POLYLINE
  8
21
 66
1
 10
0.0000
 20
0.0000
 30
0.0000
 40
0.0762
 41
0.0762
 70
0
  0
VERTEX
  8
21
 10
28.8690
 20
34.9979
 30
0.0000
 42
1.0000
  0
VERTEX
  8
21
 10
28.8690
 20
35.0741
 30
0.0000
  0
SEQEND
  8
0
  0
POLYLINE
  8
21
 66
1
 10
0.0000
 20
0.0000
 30
0.0000
 40
0.0762
 41
0.0762
 70
0
  0
VERTEX
  8
21
 10
22.0110
 20
35.0741
 30
0.0000
 42
1.0000
  0
VERTEX
  8
21
 10
22.0110
 20
34.9979
 30
0.0000
  0
SEQEND
  8
0
  0
POLYLINE
  8
21
 66
1
 10
0.0000
 20
0.0000
 30
0.0000
 40
0.1524
 41
0.1524
 70
0
  0
VERTEX
  8
21
 10
29.1230
 20
35.2900
 30
0.0000
  0
VERTEX
  8
21
 10
29.1230
 20
37.8300
 30
0.0000
  0
SEQEND
  8
0
  0
POLYLINE
  8
21
 66
1
 10
0.0000
 20
0.0000
 30
0.0000
 40
0.0762
 41
0.0762
 70
0
  0
VERTEX
  8
21
 10
29.1611
 20
37.8300
 30
0.0000
 42
1.0000
  0
VERTEX
  8
21
 10
29.0849
 20
37.8300
 30
0.0000
  0
SEQEND
  8
0
  0
POLYLINE
  8
21
 66
1
 10
0.0000
 20
0.0000
 30
0.0000
 40
0.0762
 41
0.0762
 70
0
  0
VERTEX
  8
21
 10
29.0849
 20
35.2900
 30
0.0000
 42
1.0000
  0
VERTEX
  8
21
 10
29.1611
 20
35.2900
 30
0.0000
  0
SEQEND
  8
0
  0
POLYLINE
  8
21
 66
1
 10
0.0000
 20
0.0000
 30
0.0000
 40
0.1524
 41
0.1524
 70
0
  0
VERTEX
  8
21
 10
28.8690
 20
38.0840
 30
0.0000
  0
VERTEX
  8
21
 10
22.0110
 20
38.0840
 30
0.0000
  0
SEQEND
  8
0
  0
POLYLINE
  8
21
 66
1
 10
0.0000
 20
0.0000
 30
0.0000
 40
0.0762
 41
0.0762
 70
0
  0
VERTEX
  8
21
 10
22.0110
 20
38.1221
 30
0.0000
 42
1.0000
  0
VERTEX
  8
21
 10
22.0110
 20
38.0459
 30
0.0000
  0
SEQEND
  8
0
  0
POLYLINE
  8
21
 66
1
 10
0.0000
 20
0.0000
 30
0.0000
 40
0.0762
 41
0.0762
 70
0
  0
VERTEX
  8
21
 10
28.8690
 20
38.0459
 30
0.0000
 42
1.0000
  0
VERTEX
  8
21
 10
28.8690
 20
38.1221
 30
0.0000
  0
SEQEND
  8
0
  0
POLYLINE
  8
21
 66
1
 10
0.0000
 20
0.0000
 30
0.0000
 40
0.1524
 41
0.1524
 70
0
  0
VERTEX
  8
21
 10
29.1230
 20
37.8300
 30
0.0000
 42
0.4142
  0
VERTEX
  8
21
 10
28.8690
 20
38.0840
 30
0.0000
  0
SEQEND
  8
0
  0
POLYLINE
  8
21
 66
1
 10
0.0000
 20
0.0000
 30
0.0000
 40
0.0762
 41
0.0762
 70
0
  0
VERTEX
  8
21
 10
29.0849
 20
37.8300
 30
0.0000
 42
1.0000
  0
VERTEX
  8
21
 10
29.1611
 20
37.8300
 30
0.0000
  0
SEQEND
  8
0
  0
POLYLINE
  8
21
 66
1
 10
0.0000
 20
0.0000
 30
0.0000
 40
0.0762
 41
0.0762
 70
0
  0
VERTEX
  8
21
 10
28.8690
 20
38.1221
 30
0.0000
 42
1.0000
  0
VERTEX
  8
21
 10
28.8690
 20
38.0459
 30
0.0000
  0
SEQEND
  8
0
  0
POLYLINE
  8
21
 66
1
 10
0.0000
 20
0.0000
 30
0.0000
 40
0.1524
 41
0.1524
 70
0
  0
VERTEX
  8
21
 10
28.8690
 20
35.0360
 30
0.0000
 42
0.4142
  0
VERTEX
  8
21
 10
29.1230
 20
35.2900
 30
0.0000
  0
SEQEND
  8
0
  0
POLYLINE
  8
21
 66
1
 10
0.0000
 20
0.0000
 30
0.0000
 40
0.0762
 41
0.0762
 70
0
  0
VERTEX
  8
21
 10
28.8690
 20
35.0741
 30
0.0000
 42
1.0000
  0
VERTEX
  8
21
 10
28.8690
 20
34.9979
 30
0.0000
  0
SEQEND
  8
0
  0
POLYLINE
  8
21
 66
1
 10
0.0000
 20
0.0000
 30
0.0000
 40
0.0762
 41
0.0762
 70
0
  0
VERTEX
  8
21
 10
29.1611
 20
35.2900
 30
0.0000
 42
1.0000
  0
VERTEX
  8
21
 10
29.0849
 20
35.2900
 30
0.0000
  0
SEQEND
  8
0
  0
POLYLINE
  8
21
 66
1
 10
0.0000
 20
0.0000
 30
0.0000
 40
0.1524
 41
0.1524
 70
0
  0
VERTEX
  8
21
 10
21.7570
 20
35.2900
 30
0.0000
 42
0.4142
  0
VERTEX
  8
21
 10
22.0110
 20
35.0360
 30
0.0000
  0
SEQEND
  8
0
  0
POLYLINE
  8
21
 66
1
 10
0.0000
 20
0.0000
 30
0.0000
 40
0.0762
 41
0.0762
 70
0
  0
VERTEX
  8
21
 10
21.7951
 20
35.2900
 30
0.0000
 42
1.0000
  0
VERTEX
  8
21
 10
21.7189
 20
35.2900
 30
0.0000
  0
SEQEND
  8
0
  0
POLYLINE
  8
21
 66
1
 10
0.0000
 20
0.0000
 30
0.0000
 40
0.0762
 41
0.0762
 70
0
  0
VERTEX
  8
21
 10
22.0110
 20
34.9979
 30
0.0000
 42
1.0000
  0
VERTEX
  8
21
 10
22.0110
 20
35.0741
 30
0.0000
  0
SEQEND
  8
0
  0
POLYLINE
  8
21
 66
1
 10
0.0000
 20
0.0000
 30
0.0000
 40
0.1524
 41
0.1524
 70
0
  0
VERTEX
  8
21
 10
22.0110
 20
38.0840
 30
0.0000
 42
0.4142
  0
VERTEX
  8
21
 10
21.7570
 20
37.8300
 30
0.0000
  0
SEQEND
  8
0
  0
POLYLINE
  8
21
 66
1
 10
0.0000
 20
0.0000
 30
0.0000
 40
0.0762
 41
0.0762
 70
0
  0
VERTEX
  8
21
 10
22.0110
 20
38.0459
 30
0.0000
 42
1.0000
  0
VERTEX
  8
21
 10
22.0110
 20
38.1221
 30
0.0000
  0
SEQEND
  8
0
  0
POLYLINE
  8
21
 66
1
 10
0.0000
 20
0.0000
 30
0.0000
 40
0.0762
 41
0.0762
 70
0
  0
VERTEX
  8
21
 10
21.7189
 20
37.8300
 30
0.0000
 42
1.0000
  0
VERTEX
  8
21
 10
21.7951
 20
37.8300
 30
0.0000
  0
SEQEND
  8
0
  0
POLYLINE
  8
21
 66
1
 10
0.0000
 20
0.0000
 30
0.0000
 40
0.3048
 41
0.3048
 70
0
  0
VERTEX
  8
21
 10
9.2452
 20
37.1950
 30
0.0000
  0
VERTEX
  8
21
 10
9.2452
 20
36.5600
 30
0.0000
  0
SEQEND
  8
0
  0
POLYLINE
  8
21
 66
1
 10
0.0000
 20
0.0000
 30
0.0000
 40
0.1524
 41
0.1524
 70
0
  0
VERTEX
  8
21
 10
9.1690
 20
36.5600
 30
0.0000
 42
1.0000
  0
VERTEX
  8
21
 10
9.3214
 20
36.5600
 30
0.0000
  0
SEQEND
  8
0
  0
POLYLINE
  8
21
 66
1
 10
0.0000
 20
0.0000
 30
0.0000
 40
0.1524
 41
0.1524
 70
0
  0
VERTEX
  8
21
 10
9.3214
 20
37.1950
 30
0.0000
 42
1.0000
  0
VERTEX
  8
21
 10
9.1690
 20
37.1950
 30
0.0000
  0
SEQEND
  8
0
  0
POLYLINE
  8
21
 66
1
 10
0.0000
 20
0.0000
 30
0.0000
 40
0.3048
 41
0.3048
 70
0
  0
VERTEX
  8
21
 10
9.2452
 20
36.5600
 30
0.0000
  0
VERTEX
  8
21
 10
9.2452
 20
35.9250
 30
0.0000
  0
SEQEND
  8
0
  0
POLYLINE
  8
21
 66
1
 10
0.0000
 20
0.0000
 30
0.0000
 40
0.1524
 41
0.1524
 70
0
  0
VERTEX
  8
21
 10
9.1690
 20
35.9250
 30
0.0000
 42
1.0000
  0
VERTEX
  8
21
 10
9.3214
 20
35.9250
 30
0.0000
  0
SEQEND
  8
0
  0
POLYLINE
  8
21
 66
1
 10
0.0000
 20
0.0000
 30
0.0000
 40
0.1524
 41
0.1524
 70
0
  0
VERTEX
  8
21
 10
9.3214
 20
36.5600
 30
0.0000
 42
1.0000
  0
VERTEX
  8
21
 10
9.1690
 20
36.5600
 30
0.0000
  0
SEQEND
  8
0
  0
POLYLINE
  8
21
 66
1
 10
0.0000
 20
0.0000
 30
0.0000
 40
0.1524
 41
0.1524
 70
0
  0
VERTEX
  8
21
 10
9.2452
 20
36.5600
 30
0.0000
  0
VERTEX
  8
21
 10
8.0260
 20
36.5600
 30
0.0000
  0
SEQEND
  8
0
  0
POLYLINE
  8
21
 66
1
 10
0.0000
 20
0.0000
 30
0.0000
 40
0.0762
 41
0.0762
 70
0
  0
VERTEX
  8
21
 10
8.0260
 20
36.5981
 30
0.0000
 42
1.0000
  0
VERTEX
  8
21
 10
8.0260
 20
36.5219
 30
0.0000
  0
SEQEND
  8
0
  0
POLYLINE
  8
21
 66
1
 10
0.0000
 20
0.0000
 30
0.0000
 40
0.0762
 41
0.0762
 70
0
  0
VERTEX
  8
21
 10
9.2452
 20
36.5219
 30
0.0000
 42
1.0000
  0
VERTEX
  8
21
 10
9.2452
 20
36.5981
 30
0.0000
  0
SEQEND
  8
0
  0
POLYLINE
  8
21
 66
1
 10
0.0000
 20
0.0000
 30
0.0000
 40
0.3048
 41
0.3048
 70
0
  0
VERTEX
  8
21
 10
9.8802
 20
37.1950
 30
0.0000
  0
VERTEX
  8
21
 10
9.8802
 20
36.5600
 30
0.0000
  0
SEQEND
  8
0
  0
POLYLINE
  8
21
 66
1
 10
0.0000
 20
0.0000
 30
0.0000
 40
0.1524
 41
0.1524
 70
0
  0
VERTEX
  8
21
 10
9.8040
 20
36.5600
 30
0.0000
 42
1.0000
  0
VERTEX
  8
21
 10
9.9564
 20
36.5600
 30
0.0000
  0
SEQEND
  8
0
  0
POLYLINE
  8
21
 66
1
 10
0.0000
 20
0.0000
 30
0.0000
 40
0.1524
 41
0.1524
 70
0
  0
VERTEX
  8
21
 10
9.9564
 20
37.1950
 30
0.0000
 42
1.0000
  0
VERTEX
  8
21
 10
9.8040
 20
37.1950
 30
0.0000
  0
SEQEND
  8
0
  0
POLYLINE
  8
21
 66
1
 10
0.0000
 20
0.0000
 30
0.0000
 40
0.3048
 41
0.3048
 70
0
  0
VERTEX
  8
21
 10
9.8802
 20
36.5600
 30
0.0000
  0
VERTEX
  8
21
 10
9.8802
 20
35.9250
 30
0.0000
  0
SEQEND
  8
0
  0
POLYLINE
  8
21
 66
1
 10
0.0000
 20
0.0000
 30
0.0000
 40
0.1524
 41
0.1524
 70
0
  0
VERTEX
  8
21
 10
9.8040
 20
35.9250
 30
0.0000
 42
1.0000
  0
VERTEX
  8
21
 10
9.9564
 20
35.9250
 30
0.0000
  0
SEQEND
  8
0
  0
POLYLINE
  8
21
 66
1
 10
0.0000
 20
0.0000
 30
0.0000
 40
0.1524
 41
0.1524
 70
0
  0
VERTEX
  8
21
 10
9.9564
 20
36.5600
 30
0.0000
 42
1.0000
  0
VERTEX
  8
21
 10
9.8040
 20
36.5600
 30
0.0000
  0
SEQEND
  8
0
  0
POLYLINE
  8
21
 66
1
 10
0.0000
 20
0.0000
 30
0.0000
 40
0.1524
 41
0.1524
 70
0
  0
VERTEX
  8
21
 10
9.8802
 20
36.5600
 30
0.0000
  0
VERTEX
  8
21
 10
11.0740
 20
36.5600
 30
0.0000
  0
SEQEND
  8
0
  0
POLYLINE
  8
21
 66
1
 10
0.0000
 20
0.0000
 30
0.0000
 40
0.0762
 41
0.0762
 70
0
  0
VERTEX
  8
21
 10
11.0740
 20
36.5219
 30
0.0000
 42
1.0000
  0
VERTEX
  8
21
 10
11.0740
 20
36.5981
 30
0.0000
  0
SEQEND
  8
0
  0
POLYLINE
  8
21
 66
1
 10
0.0000
 20
0.0000
 30
0.0000
 40
0.0762
 41
0.0762
 70
0
  0
VERTEX
  8
21
 10
9.8802
 20
36.5981
 30
0.0000
 42
1.0000
  0
VERTEX
  8
21
 10
9.8802
 20
36.5219
 30
0.0000
  0
SEQEND
  8
0
  0
POLYLINE
  8
21
 66
1
 10
0.0000
 20
0.0000
 30
0.0000
 40
0.1524
 41
0.1524
 70
0
  0
VERTEX
  8
21
 10
5.8670
 20
37.8300
 30
0.0000
  0
VERTEX
  8
21
 10
5.8670
 20
35.2900
 30
0.0000
  0
SEQEND
  8
0
  0
POLYLINE
  8
21
 66
1
 10
0.0000
 20
0.0000
 30
0.0000
 40
0.0762
 41
0.0762
 70
0
  0
VERTEX
  8
21
 10
5.8289
 20
35.2900
 30
0.0000
 42
1.0000
  0
VERTEX
  8
21
 10
5.9051
 20
35.2900
 30
0.0000
  0
SEQEND
  8
0
  0
POLYLINE
  8
21
 66
1
 10
0.0000
 20
0.0000
 30
0.0000
 40
0.0762
 41
0.0762
 70
0
  0
VERTEX
  8
21
 10
5.9051
 20
37.8300
 30
0.0000
 42
1.0000
  0
VERTEX
  8
21
 10
5.8289
 20
37.8300
 30
0.0000
  0
SEQEND
  8
0
  0
POLYLINE
  8
21
 66
1
 10
0.0000
 20
0.0000
 30
0.0000
 40
0.1524
 41
0.1524
 70
0
  0
VERTEX
  8
21
 10
6.1210
 20
35.0360
 30
0.0000
  0
VERTEX
  8
21
 10
12.9790
 20
35.0360
 30
0.0000
  0
SEQEND
  8
0
  0
POLYLINE
  8
21
 66
1
 10
0.0000
 20
0.0000
 30
0.0000
 40
0.0762
 41
0.0762
 70
0
  0
VERTEX
  8
21
 10
12.9790
 20
34.9979
 30
0.0000
 42
1.0000
  0
VERTEX
  8
21
 10
12.9790
 20
35.0741
 30
0.0000
  0
SEQEND
  8
0
  0
POLYLINE
  8
21
 66
1
 10
0.0000
 20
0.0000
 30
0.0000
 40
0.0762
 41
0.0762
 70
0
  0
VERTEX
  8
21
 10
6.1210
 20
35.0741
 30
0.0000
 42
1.0000
  0
VERTEX
  8
21
 10
6.1210
 20
34.9979
 30
0.0000
  0
SEQEND
  8
0
  0
POLYLINE
  8
21
 66
1
 10
0.0000
 20
0.0000
 30
0.0000
 40
0.1524
 41
0.1524
 70
0
  0
VERTEX
  8
21
 10
13.2330
 20
35.2900
 30
0.0000
  0
VERTEX
  8
21
 10
13.2330
 20
37.8300
 30
0.0000
  0
SEQEND
  8
0
  0
POLYLINE
  8
21
 66
1
 10
0.0000
 20
0.0000
 30
0.0000
 40
0.0762
 41
0.0762
 70
0
  0
VERTEX
  8
21
 10
13.2711
 20
37.8300
 30
0.0000
 42
1.0000
  0
VERTEX
  8
21
 10
13.1949
 20
37.8300
 30
0.0000
  0
SEQEND
  8
0
  0
POLYLINE
  8
21
 66
1
 10
0.0000
 20
0.0000
 30
0.0000
 40
0.0762
 41
0.0762
 70
0
  0
VERTEX
  8
21
 10
13.1949
 20
35.2900
 30
0.0000
 42
1.0000
  0
VERTEX
  8
21
 10
13.2711
 20
35.2900
 30
0.0000
  0
SEQEND
  8
0
  0
POLYLINE
  8
21
 66
1
 10
0.0000
 20
0.0000
 30
0.0000
 40
0.1524
 41
0.1524
 70
0
  0
VERTEX
  8
21
 10
12.9790
 20
38.0840
 30
0.0000
  0
VERTEX
  8
21
 10
6.1210
 20
38.0840
 30
0.0000
  0
SEQEND
  8
0
  0
POLYLINE
  8
21
 66
1
 10
0.0000
 20
0.0000
 30
0.0000
 40
0.0762
 41
0.0762
 70
0
  0
VERTEX
  8
21
 10
6.1210
 20
38.1221
 30
0.0000
 42
1.0000
  0
VERTEX
  8
21
 10
6.1210
 20
38.0459
 30
0.0000
  0
SEQEND
  8
0
  0
POLYLINE
  8
21
 66
1
 10
0.0000
 20
0.0000
 30
0.0000
 40
0.0762
 41
0.0762
 70
0
  0
VERTEX
  8
21
 10
12.9790
 20
38.0459
 30
0.0000
 42
1.0000
  0
VERTEX
  8
21
 10
12.9790
 20
38.1221
 30
0.0000
  0
SEQEND
  8
0
  0
POLYLINE
  8
21
 66
1
 10
0.0000
 20
0.0000
 30
0.0000
 40
0.1524
 41
0.1524
 70
0
  0
VERTEX
  8
21
 10
13.2330
 20
37.8300
 30
0.0000
 42
0.4142
  0
VERTEX
  8
21
 10
12.9790
 20
38.0840
 30
0.0000
  0
SEQEND
  8
0
  0
POLYLINE
  8
21
 66
1
 10
0.0000
 20
0.0000
 30
0.0000
 40
0.0762
 41
0.0762
 70
0
  0
VERTEX
  8
21
 10
13.1949
 20
37.8300
 30
0.0000
 42
1.0000
  0
VERTEX
  8
21
 10
13.2711
 20
37.8300
 30
0.0000
  0
SEQEND
  8
0
  0
POLYLINE
  8
21
 66
1
 10
0.0000
 20
0.0000
 30
0.0000
 40
0.0762
 41
0.0762
 70
0
  0
VERTEX
  8
21
 10
12.9790
 20
38.1221
 30
0.0000
 42
1.0000
  0
VERTEX
  8
21
 10
12.9790
 20
38.0459
 30
0.0000
  0
SEQEND
  8
0
  0
POLYLINE
  8
21
 66
1
 10
0.0000
 20
0.0000
 30
0.0000
 40
0.1524
 41
0.1524
 70
0
  0
VERTEX
  8
21
 10
12.9790
 20
35.0360
 30
0.0000
 42
0.4142
  0
VERTEX
  8
21
 10
13.2330
 20
35.2900
 30
0.0000
  0
SEQEND
  8
0
  0
POLYLINE
  8
21
 66
1
 10
0.0000
 20
0.0000
 30
0.0000
 40
0.0762
 41
0.0762
 70
0
  0
VERTEX
  8
21
 10
12.9790
 20
35.0741
 30
0.0000
 42
1.0000
  0
VERTEX
  8
21
 10
12.9790
 20
34.9979
 30
0.0000
  0
SEQEND
  8
0
  0
POLYLINE
  8
21
 66
1
 10
0.0000
 20
0.0000
 30
0.0000
 40
0.0762
 41
0.0762
 70
0
  0
VERTEX
  8
21
 10
13.2711
 20
35.2900
 30
0.0000
 42
1.0000
  0
VERTEX
  8
21
 10
13.1949
 20
35.2900
 30
0.0000
  0
SEQEND
  8
0
  0
POLYLINE
  8
21
 66
1
 10
0.0000
 20
0.0000
 30
0.0000
 40
0.1524
 41
0.1524
 70
0
  0
VERTEX
  8
21
 10
5.8670
 20
35.2900
 30
0.0000
 42
0.4142
  0
VERTEX
  8
21
 10
6.1210
 20
35.0360
 30
0.0000
  0
SEQEND
  8
0
  0
POLYLINE
  8
21
 66
1
 10
0.0000
 20
0.0000
 30
0.0000
 40
0.0762
 41
0.0762
 70
0
  0
VERTEX
  8
21
 10
5.9051
 20
35.2900
 30
0.0000
 42
1.0000
  0
VERTEX
  8
21
 10
5.8289
 20
35.2900
 30
0.0000
  0
SEQEND
  8
0
  0
POLYLINE
  8
21
 66
1
 10
0.0000
 20
0.0000
 30
0.0000
 40
0.0762
 41
0.0762
 70
0
  0
VERTEX
  8
21
 10
6.1210
 20
34.9979
 30
0.0000
 42
1.0000
  0
VERTEX
  8
21
 10
6.1210
 20
35.0741
 30
0.0000
  0
SEQEND
  8
0
  0
POLYLINE
  8
21
 66
1
 10
0.0000
 20
0.0000
 30
0.0000
 40
0.1524
 41
0.1524
 70
0
  0
VERTEX
  8
21
 10
6.1210
 20
38.0840
 30
0.0000
 42
0.4142
  0
VERTEX
  8
21
 10
5.8670
 20
37.8300
 30
0.0000
  0
SEQEND
  8
0
  0
POLYLINE
  8
21
 66
1
 10
0.0000
 20
0.0000
 30
0.0000
 40
0.0762
 41
0.0762
 70
0
  0
VERTEX
  8
21
 10
6.1210
 20
38.0459
 30
0.0000
 42
1.0000
  0
VERTEX
  8
21
 10
6.1210
 20
38.1221
 30
0.0000
  0
SEQEND
  8
0
  0
POLYLINE
  8
21
 66
1
 10
0.0000
 20
0.0000
 30
0.0000
 40
0.0762
 41
0.0762
 70
0
  0
VERTEX
  8
21
 10
5.8289
 20
37.8300
 30
0.0000
 42
1.0000
  0
VERTEX
  8
21
 10
5.9051
 20
37.8300
 30
0.0000
  0
SEQEND
  8
0
  0
POLYLINE
  8
21
 66
1
 10
0.0000
 20
0.0000
 30
0.0000
 40
0.3048
 41
0.3048
 70
0
  0
VERTEX
  8
21
 10
17.1852
 20
37.0450
 30
0.0000
  0
VERTEX
  8
21
 10
17.1852
 20
36.4100
 30
0.0000
  0
SEQEND
  8
0
  0
POLYLINE
  8
21
 66
1
 10
0.0000
 20
0.0000
 30
0.0000
 40
0.1524
 41
0.1524
 70
0
  0
VERTEX
  8
21
 10
17.1090
 20
36.4100
 30
0.0000
 42
1.0000
  0
VERTEX
  8
21
 10
17.2614
 20
36.4100
 30
0.0000
  0
SEQEND
  8
0
  0
POLYLINE
  8
21
 66
1
 10
0.0000
 20
0.0000
 30
0.0000
 40
0.1524
 41
0.1524
 70
0
  0
VERTEX
  8
21
 10
17.2614
 20
37.0450
 30
0.0000
 42
1.0000
  0
VERTEX
  8
21
 10
17.1090
 20
37.0450
 30
0.0000
  0
SEQEND
  8
0
  0
POLYLINE
  8
21
 66
1
 10
0.0000
 20
0.0000
 30
0.0000
 40
0.3048
 41
0.3048
 70
0
  0
VERTEX
  8
21
 10
17.1852
 20
36.4100
 30
0.0000
  0
VERTEX
  8
21
 10
17.1852
 20
35.7750
 30
0.0000
  0
SEQEND
  8
0
  0
POLYLINE
  8
21
 66
1
 10
0.0000
 20
0.0000
 30
0.0000
 40
0.1524
 41
0.1524
 70
0
  0
VERTEX
  8
21
 10
17.1090
 20
35.7750
 30
0.0000
 42
1.0000
  0
VERTEX
  8
21
 10
17.2614
 20
35.7750
 30
0.0000
  0
SEQEND
  8
0
  0
POLYLINE
  8
21
 66
1
 10
0.0000
 20
0.0000
 30
0.0000
 40
0.1524
 41
0.1524
 70
0
  0
VERTEX
  8
21
 10
17.2614
 20
36.4100
 30
0.0000
 42
1.0000
  0
VERTEX
  8
21
 10
17.1090
 20
36.4100
 30
0.0000
  0
SEQEND
  8
0
  0
POLYLINE
  8
21
 66
1
 10
0.0000
 20
0.0000
 30
0.0000
 40
0.1524
 41
0.1524
 70
0
  0
VERTEX
  8
21
 10
17.1852
 20
36.4100
 30
0.0000
  0
VERTEX
  8
21
 10
15.9660
 20
36.4100
 30
0.0000
  0
SEQEND
  8
0
  0
POLYLINE
  8
21
 66
1
 10
0.0000
 20
0.0000
 30
0.0000
 40
0.0762
 41
0.0762
 70
0
  0
VERTEX
  8
21
 10
15.9660
 20
36.4481
 30
0.0000
 42
1.0000
  0
VERTEX
  8
21
 10
15.9660
 20
36.3719
 30
0.0000
  0
SEQEND
  8
0
  0
POLYLINE
  8
21
 66
1
 10
0.0000
 20
0.0000
 30
0.0000
 40
0.0762
 41
0.0762
 70
0
  0
VERTEX
  8
21
 10
17.1852
 20
36.3719
 30
0.0000
 42
1.0000
  0
VERTEX
  8
21
 10
17.1852
 20
36.4481
 30
0.0000
  0
SEQEND
  8
0
  0
POLYLINE
  8
21
 66
1
 10
0.0000
 20
0.0000
 30
0.0000
 40
0.3048
 41
0.3048
 70
0
  0
VERTEX
  8
21
 10
17.8202
 20
37.0450
 30
0.0000
  0
VERTEX
  8
21
 10
17.8202
 20
36.4100
 30
0.0000
  0
SEQEND
  8
0
  0
POLYLINE
  8
21
 66
1
 10
0.0000
 20
0.0000
 30
0.0000
 40
0.1524
 41
0.1524
 70
0
  0
VERTEX
  8
21
 10
17.7440
 20
36.4100
 30
0.0000
 42
1.0000
  0
VERTEX
  8
21
 10
17.8964
 20
36.4100
 30
0.0000
  0
SEQEND
  8
0
  0
POLYLINE
  8
21
 66
1
 10
0.0000
 20
0.0000
 30
0.0000
 40
0.1524
 41
0.1524
 70
0
  0
VERTEX
  8
21
 10
17.8964
 20
37.0450
 30
0.0000
 42
1.0000
  0
VERTEX
  8
21
 10
17.7440
 20
37.0450
 30
0.0000
  0
SEQEND
  8
0
  0
POLYLINE
  8
21
 66
1
 10
0.0000
 20
0.0000
 30
0.0000
 40
0.3048
 41
0.3048
 70
0
  0
VERTEX
  8
21
 10
17.8202
 20
36.4100
 30
0.0000
  0
VERTEX
  8
21
 10
17.8202
 20
35.7750
 30
0.0000
  0
SEQEND
  8
0
  0
POLYLINE
  8
21
 66
1
 10
0.0000
 20
0.0000
 30
0.0000
 40
0.1524
 41
0.1524
 70
0
  0
VERTEX
  8
21
 10
17.7440
 20
35.7750
 30
0.0000
 42
1.0000
  0
VERTEX
  8
21
 10
17.8964
 20
35.7750
 30
0.0000
  0
SEQEND
  8
0
  0
POLYLINE
  8
21
 66
1
 10
0.0000
 20
0.0000
 30
0.0000
 40
0.1524
 41
0.1524
 70
0
  0
VERTEX
  8
21
 10
17.8964
 20
36.4100
 30
0.0000
 42
1.0000
  0
VERTEX
  8
21
 10
17.7440
 20
36.4100
 30
0.0000
  0
SEQEND
  8
0
  0
POLYLINE
  8
21
 66
1
 10
0.0000
 20
0.0000
 30
0.0000
 40
0.1524
 41
0.1524
 70
0
  0
VERTEX
  8
21
 10
17.8202
 20
36.4100
 30
0.0000
  0
VERTEX
  8
21
 10
19.0140
 20
36.4100
 30
0.0000
  0
SEQEND
  8
0
  0
POLYLINE
  8
21
 66
1
 10
0.0000
 20
0.0000
 30
0.0000
 40
0.0762
 41
0.0762
 70
0
  0
VERTEX
  8
21
 10
19.0140
 20
36.3719
 30
0.0000
 42
1.0000
  0
VERTEX
  8
21
 10
19.0140
 20
36.4481
 30
0.0000
  0
SEQEND
  8
0
  0
POLYLINE
  8
21
 66
1
 10
0.0000
 20
0.0000
 30
0.0000
 40
0.0762
 41
0.0762
 70
0
  0
VERTEX
  8
21
 10
17.8202
 20
36.4481
 30
0.0000
 42
1.0000
  0
VERTEX
  8
21
 10
17.8202
 20
36.3719
 30
0.0000
  0
SEQEND
  8
0
  0
POLYLINE
  8
21
 66
1
 10
0.0000
 20
0.0000
 30
0.0000
 40
0.1524
 41
0.1524
 70
0
  0
VERTEX
  8
21
 10
13.8070
 20
37.6800
 30
0.0000
  0
VERTEX
  8
21
 10
13.8070
 20
35.1400
 30
0.0000
  0
SEQEND
  8
0
  0
POLYLINE
  8
21
 66
1
 10
0.0000
 20
0.0000
 30
0.0000
 40
0.0762
 41
0.0762
 70
0
  0
VERTEX
  8
21
 10
13.7689
 20
35.1400
 30
0.0000
 42
1.0000
  0
VERTEX
  8
21
 10
13.8451
 20
35.1400
 30
0.0000
  0
SEQEND
  8
0
  0
POLYLINE
  8
21
 66
1
 10
0.0000
 20
0.0000
 30
0.0000
 40
0.0762
 41
0.0762
 70
0
  0
VERTEX
  8
21
 10
13.8451
 20
37.6800
 30
0.0000
 42
1.0000
  0
VERTEX
  8
21
 10
13.7689
 20
37.6800
 30
0.0000
  0
SEQEND
  8
0
  0
POLYLINE
  8
21
 66
1
 10
0.0000
 20
0.0000
 30
0.0000
 40
0.1524
 41
0.1524
 70
0
  0
VERTEX
  8
21
 10
14.0610
 20
34.8860
 30
0.0000
  0
VERTEX
  8
21
 10
20.9190
 20
34.8860
 30
0.0000
  0
SEQEND
  8
0
  0
POLYLINE
  8
21
 66
1
 10
0.0000
 20
0.0000
 30
0.0000
 40
0.0762
 41
0.0762
 70
0
  0
VERTEX
  8
21
 10
20.9190
 20
34.8479
 30
0.0000
 42
1.0000
  0
VERTEX
  8
21
 10
20.9190
 20
34.9241
 30
0.0000
  0
SEQEND
  8
0
  0
POLYLINE
  8
21
 66
1
 10
0.0000
 20
0.0000
 30
0.0000
 40
0.0762
 41
0.0762
 70
0
  0
VERTEX
  8
21
 10
14.0610
 20
34.9241
 30
0.0000
 42
1.0000
  0
VERTEX
  8
21
 10
14.0610
 20
34.8479
 30
0.0000
  0
SEQEND
  8
0
  0
POLYLINE
  8
21
 66
1
 10
0.0000
 20
0.0000
 30
0.0000
 40
0.1524
 41
0.1524
 70
0
  0
VERTEX
  8
21
 10
21.1730
 20
35.1400
 30
0.0000
  0
VERTEX
  8
21
 10
21.1730
 20
37.6800
 30
0.0000
  0
SEQEND
  8
0
  0
POLYLINE
  8
21
 66
1
 10
0.0000
 20
0.0000
 30
0.0000
 40
0.0762
 41
0.0762
 70
0
  0
VERTEX
  8
21
 10
21.2111
 20
37.6800
 30
0.0000
 42
1.0000
  0
VERTEX
  8
21
 10
21.1349
 20
37.6800
 30
0.0000
  0
SEQEND
  8
0
  0
POLYLINE
  8
21
 66
1
 10
0.0000
 20
0.0000
 30
0.0000
 40
0.0762
 41
0.0762
 70
0
  0
VERTEX
  8
21
 10
21.1349
 20
35.1400
 30
0.0000
 42
1.0000
  0
VERTEX
  8
21
 10
21.2111
 20
35.1400
 30
0.0000
  0
SEQEND
  8
0
  0
POLYLINE
  8
21
 66
1
 10
0.0000
 20
0.0000
 30
0.0000
 40
0.1524
 41
0.1524
 70
0
  0
VERTEX
  8
21
 10
20.9190
 20
37.9340
 30
0.0000
  0
VERTEX
  8
21
 10
14.0610
 20
37.9340
 30
0.0000
  0
SEQEND
  8
0
  0
POLYLINE
  8
21
 66
1
 10
0.0000
 20
0.0000
 30
0.0000
 40
0.0762
 41
0.0762
 70
0
  0
VERTEX
  8
21
 10
14.0610
 20
37.9721
 30
0.0000
 42
1.0000
  0
VERTEX
  8
21
 10
14.0610
 20
37.8959
 30
0.0000
  0
SEQEND
  8
0
  0
POLYLINE
  8
21
 66
1
 10
0.0000
 20
0.0000
 30
0.0000
 40
0.0762
 41
0.0762
 70
0
  0
VERTEX
  8
21
 10
20.9190
 20
37.8959
 30
0.0000
 42
1.0000
  0
VERTEX
  8
21
 10
20.9190
 20
37.9721
 30
0.0000
  0
SEQEND
  8
0
  0
POLYLINE
  8
21
 66
1
 10
0.0000
 20
0.0000
 30
0.0000
 40
0.1524
 41
0.1524
 70
0
  0
VERTEX
  8
21
 10
21.1730
 20
37.6800
 30
0.0000
 42
0.4142
  0
VERTEX
  8
21
 10
20.9190
 20
37.9340
 30
0.0000
  0
SEQEND
  8
0
  0
POLYLINE
  8
21
 66
1
 10
0.0000
 20
0.0000
 30
0.0000
 40
0.0762
 41
0.0762
 70
0
  0
VERTEX
  8
21
 10
21.1349
 20
37.6800
 30
0.0000
 42
1.0000
  0
VERTEX
  8
21
 10
21.2111
 20
37.6800
 30
0.0000
  0
SEQEND
  8
0
  0
POLYLINE
  8
21
 66
1
 10
0.0000
 20
0.0000
 30
0.0000
 40
0.0762
 41
0.0762
 70
0
  0
VERTEX
  8
21
 10
20.9190
 20
37.9721
 30
0.0000
 42
1.0000
  0
VERTEX
  8
21
 10
20.9190
 20
37.8959
 30
0.0000
  0
SEQEND
  8
0
  0
POLYLINE
  8
21
 66
1
 10
0.0000
 20
0.0000
 30
0.0000
 40
0.1524
 41
0.1524
 70
0
  0
VERTEX
  8
21
 10
20.9190
 20
34.8860
 30
0.0000
 42
0.4142
  0
VERTEX
  8
21
 10
21.1730
 20
35.1400
 30
0.0000
  0
SEQEND
  8
0
  0
POLYLINE
  8
21
 66
1
 10
0.0000
 20
0.0000
 30
0.0000
 40
0.0762
 41
0.0762
 70
0
  0
VERTEX
  8
21
 10
20.9190
 20
34.9241
 30
0.0000
 42
1.0000
  0
VERTEX
  8
21
 10
20.9190
 20
34.8479
 30
0.0000
  0
SEQEND
  8
0
  0
POLYLINE
  8
21
 66
1
 10
0.0000
 20
0.0000
 30
0.0000
 40
0.0762
 41
0.0762
 70
0
  0
VERTEX
  8
21
 10
21.2111
 20
35.1400
 30
0.0000
 42
1.0000
  0
VERTEX
  8
21
 10
21.1349
 20
35.1400
 30
0.0000
  0
SEQEND
  8
0
  0
POLYLINE
  8
21
 66
1
 10
0.0000
 20
0.0000
 30
0.0000
 40
0.1524
 41
0.1524
 70
0
  0
VERTEX
  8
21
 10
13.8070
 20
35.1400
 30
0.0000
 42
0.4142
  0
VERTEX
  8
21
 10
14.0610
 20
34.8860
 30
0.0000
  0
SEQEND
  8
0
  0
POLYLINE
  8
21
 66
1
 10
0.0000
 20
0.0000
 30
0.0000
 40
0.0762
 41
0.0762
 70
0
  0
VERTEX
  8
21
 10
13.8451
 20
35.1400
 30
0.0000
 42
1.0000
  0
VERTEX
  8
21
 10
13.7689
 20
35.1400
 30
0.0000
  0
SEQEND
  8
0
  0
POLYLINE
  8
21
 66
1
 10
0.0000
 20
0.0000
 30
0.0000
 40
0.0762
 41
0.0762
 70
0
  0
VERTEX
  8
21
 10
14.0610
 20
34.8479
 30
0.0000
 42
1.0000
  0
VERTEX
  8
21
 10
14.0610
 20
34.9241
 30
0.0000
  0
SEQEND
  8
0
  0
POLYLINE
  8
21
 66
1
 10
0.0000
 20
0.0000
 30
0.0000
 40
0.1524
 41
0.1524
 70
0
  0
VERTEX
  8
21
 10
14.0610
 20
37.9340
 30
0.0000
 42
0.4142
  0
VERTEX
  8
21
 10
13.8070
 20
37.6800
 30
0.0000
  0
SEQEND
  8
0
  0
POLYLINE
  8
21
 66
1
 10
0.0000
 20
0.0000
 30
0.0000
 40
0.0762
 41
0.0762
 70
0
  0
VERTEX
  8
21
 10
14.0610
 20
37.8959
 30
0.0000
 42
1.0000
  0
VERTEX
  8
21
 10
14.0610
 20
37.9721
 30
0.0000
  0
SEQEND
  8
0
  0
POLYLINE
  8
21
 66
1
 10
0.0000
 20
0.0000
 30
0.0000
 40
0.0762
 41
0.0762
 70
0
  0
VERTEX
  8
21
 10
13.7689
 20
37.6800
 30
0.0000
 42
1.0000
  0
VERTEX
  8
21
 10
13.8451
 20
37.6800
 30
0.0000
  0
SEQEND
  8
0
  0
POLYLINE
  8
21
 66
1
 10
0.0000
 20
0.0000
 30
0.0000
 40
0.2032
 41
0.2032
 70
0
  0
VERTEX
  8
21
 10
23.8190
 20
14.1503
 30
0.0000
  0
VERTEX
  8
21
 10
23.8190
 20
12.6503
 30
0.0000
  0
SEQEND
  8
0
  0
POLYLINE
  8
21
 66
1
 10
0.0000
 20
0.0000
 30
0.0000
 40
0.1016
 41
0.1016
 70
0
  0
VERTEX
  8
21
 10
23.7682
 20
12.6503
 30
0.0000
 42
1.0000
  0
VERTEX
  8
21
 10
23.8698
 20
12.6503
 30
0.0000
  0
SEQEND
  8
0
  0
POLYLINE
  8
21
 66
1
 10
0.0000
 20
0.0000
 30
0.0000
 40
0.1016
 41
0.1016
 70
0
  0
VERTEX
  8
21
 10
23.8698
 20
14.1503
 30
0.0000
 42
1.0000
  0
VERTEX
  8
21
 10
23.7682
 20
14.1503
 30
0.0000
  0
SEQEND
  8
0
  0
POLYLINE
  8
21
 66
1
 10
0.0000
 20
0.0000
 30
0.0000
 40
0.2032
 41
0.2032
 70
0
  0
VERTEX
  8
21
 10
23.8190
 20
12.6503
 30
0.0000
  0
VERTEX
  8
21
 10
21.4190
 20
12.6503
 30
0.0000
  0
SEQEND
  8
0
  0
POLYLINE
  8
21
 66
1
 10
0.0000
 20
0.0000
 30
0.0000
 40
0.1016
 41
0.1016
 70
0
  0
VERTEX
  8
21
 10
21.4190
 20
12.7011
 30
0.0000
 42
1.0000
  0
VERTEX
  8
21
 10
21.4190
 20
12.5995
 30
0.0000
  0
SEQEND
  8
0
  0
POLYLINE
  8
21
 66
1
 10
0.0000
 20
0.0000
 30
0.0000
 40
0.1016
 41
0.1016
 70
0
  0
VERTEX
  8
21
 10
23.8190
 20
12.5995
 30
0.0000
 42
1.0000
  0
VERTEX
  8
21
 10
23.8190
 20
12.7011
 30
0.0000
  0
SEQEND
  8
0
  0
POLYLINE
  8
21
 66
1
 10
0.0000
 20
0.0000
 30
0.0000
 40
0.2032
 41
0.2032
 70
0
  0
VERTEX
  8
21
 10
21.4190
 20
12.6503
 30
0.0000
  0
VERTEX
  8
21
 10
21.4190
 20
14.1503
 30
0.0000
  0
SEQEND
  8
0
  0
POLYLINE
  8
21
 66
1
 10
0.0000
 20
0.0000
 30
0.0000
 40
0.1016
 41
0.1016
 70
0
  0
VERTEX
  8
21
 10
21.4698
 20
14.1503
 30
0.0000
 42
1.0000
  0
VERTEX
  8
21
 10
21.3682
 20
14.1503
 30
0.0000
  0
SEQEND
  8
0
  0
POLYLINE
  8
21
 66
1
 10
0.0000
 20
0.0000
 30
0.0000
 40
0.1016
 41
0.1016
 70
0
  0
VERTEX
  8
21
 10
21.3682
 20
12.6503
 30
0.0000
 42
1.0000
  0
VERTEX
  8
21
 10
21.4698
 20
12.6503
 30
0.0000
  0
SEQEND
  8
0
  0
POLYLINE
  8
21
 66
1
 10
0.0000
 20
0.0000
 30
0.0000
 40
0.2032
 41
0.2032
 70
0
  0
VERTEX
  8
21
 10
23.8190
 20
16.1503
 30
0.0000
  0
VERTEX
  8
21
 10
23.8190
 20
17.2503
 30
0.0000
  0
SEQEND
  8
0
  0
POLYLINE
  8
21
 66
1
 10
0.0000
 20
0.0000
 30
0.0000
 40
0.1016
 41
0.1016
 70
0
  0
VERTEX
  8
21
 10
23.8698
 20
17.2503
 30
0.0000
 42
1.0000
  0
VERTEX
  8
21
 10
23.7682
 20
17.2503
 30
0.0000
  0
SEQEND
  8
0
  0
POLYLINE
  8
21
 66
1
 10
0.0000
 20
0.0000
 30
0.0000
 40
0.1016
 41
0.1016
 70
0
  0
VERTEX
  8
21
 10
23.7682
 20
16.1503
 30
0.0000
 42
1.0000
  0
VERTEX
  8
21
 10
23.8698
 20
16.1503
 30
0.0000
  0
SEQEND
  8
0
  0
POLYLINE
  8
21
 66
1
 10
0.0000
 20
0.0000
 30
0.0000
 40
0.2032
 41
0.2032
 70
0
  0
VERTEX
  8
21
 10
23.8190
 20
17.2503
 30
0.0000
  0
VERTEX
  8
21
 10
23.4190
 20
17.6503
 30
0.0000
  0
SEQEND
  8
0
  0
POLYLINE
  8
21
 66
1
 10
0.0000
 20
0.0000
 30
0.0000
 40
0.1016
 41
0.1016
 70
0
  0
VERTEX
  8
21
 10
23.4549
 20
17.6862
 30
0.0000
 42
1.0000
  0
VERTEX
  8
21
 10
23.3831
 20
17.6144
 30
0.0000
  0
SEQEND
  8
0
  0
POLYLINE
  8
21
 66
1
 10
0.0000
 20
0.0000
 30
0.0000
 40
0.1016
 41
0.1016
 70
0
  0
VERTEX
  8
21
 10
23.7831
 20
17.2144
 30
0.0000
 42
1.0000
  0
VERTEX
  8
21
 10
23.8549
 20
17.2862
 30
0.0000
  0
SEQEND
  8
0
  0
POLYLINE
  8
21
 66
1
 10
0.0000
 20
0.0000
 30
0.0000
 40
0.2032
 41
0.2032
 70
0
  0
VERTEX
  8
21
 10
23.4190
 20
17.6503
 30
0.0000
  0
VERTEX
  8
21
 10
21.8190
 20
17.6503
 30
0.0000
  0
SEQEND
  8
0
  0
POLYLINE
  8
21
 66
1
 10
0.0000
 20
0.0000
 30
0.0000
 40
0.1016
 41
0.1016
 70
0
  0
VERTEX
  8
21
 10
21.8190
 20
17.7011
 30
0.0000
 42
1.0000
  0
VERTEX
  8
21
 10
21.8190
 20
17.5995
 30
0.0000
  0
SEQEND
  8
0
  0
POLYLINE
  8
21
 66
1
 10
0.0000
 20
0.0000
 30
0.0000
 40
0.1016
 41
0.1016
 70
0
  0
VERTEX
  8
21
 10
23.4190
 20
17.5995
 30
0.0000
 42
1.0000
  0
VERTEX
  8
21
 10
23.4190
 20
17.7011
 30
0.0000
  0
SEQEND
  8
0
  0
POLYLINE
  8
21
 66
1
 10
0.0000
 20
0.0000
 30
0.0000
 40
0.2032
 41
0.2032
 70
0
  0
VERTEX
  8
21
 10
21.8190
 20
17.6503
 30
0.0000
  0
VERTEX
  8
21
 10
21.4190
 20
17.2503
 30
0.0000
  0
SEQEND
  8
0
  0
POLYLINE
  8
21
 66
1
 10
0.0000
 20
0.0000
 30
0.0000
 40
0.1016
 41
0.1016
 70
0
  0
VERTEX
  8
21
 10
21.3831
 20
17.2862
 30
0.0000
 42
1.0000
  0
VERTEX
  8
21
 10
21.4549
 20
17.2144
 30
0.0000
  0
SEQEND
  8
0
  0
POLYLINE
  8
21
 66
1
 10
0.0000
 20
0.0000
 30
0.0000
 40
0.1016
 41
0.1016
 70
0
  0
VERTEX
  8
21
 10
21.8549
 20
17.6144
 30
0.0000
 42
1.0000
  0
VERTEX
  8
21
 10
21.7831
 20
17.6862
 30
0.0000
  0
SEQEND
  8
0
  0
POLYLINE
  8
21
 66
1
 10
0.0000
 20
0.0000
 30
0.0000
 40
0.2032
 41
0.2032
 70
0
  0
VERTEX
  8
21
 10
21.4190
 20
17.2503
 30
0.0000
  0
VERTEX
  8
21
 10
21.4190
 20
16.1503
 30
0.0000
  0
SEQEND
  8
0
  0
POLYLINE
  8
21
 66
1
 10
0.0000
 20
0.0000
 30
0.0000
 40
0.1016
 41
0.1016
 70
0
  0
VERTEX
  8
21
 10
21.3682
 20
16.1503
 30
0.0000
 42
1.0000
  0
VERTEX
  8
21
 10
21.4698
 20
16.1503
 30
0.0000
  0
SEQEND
  8
0
  0
POLYLINE
  8
21
 66
1
 10
0.0000
 20
0.0000
 30
0.0000
 40
0.1016
 41
0.1016
 70
0
  0
VERTEX
  8
21
 10
21.4698
 20
17.2503
 30
0.0000
 42
1.0000
  0
VERTEX
  8
21
 10
21.3682
 20
17.2503
 30
0.0000
  0
SEQEND
  8
0
  0
POLYLINE
  8
21
 66
1
 10
0.0000
 20
0.0000
 30
0.0000
 40
0.1524
 41
0.1524
 70
0
  0
VERTEX
  8
21
 10
26.6569
 20
17.2443
 30
0.0000
  0
VERTEX
  8
21
 10
26.0569
 20
17.2443
 30
0.0000
  0
SEQEND
  8
0
  0
POLYLINE
  8
21
 66
1
 10
0.0000
 20
0.0000
 30
0.0000
 40
0.0762
 41
0.0762
 70
0
  0
VERTEX
  8
21
 10
26.0569
 20
17.2824
 30
0.0000
 42
1.0000
  0
VERTEX
  8
21
 10
26.0569
 20
17.2062
 30
0.0000
  0
SEQEND
  8
0
  0
POLYLINE
  8
21
 66
1
 10
0.0000
 20
0.0000
 30
0.0000
 40
0.0762
 41
0.0762
 70
0
  0
VERTEX
  8
21
 10
26.6569
 20
17.2062
 30
0.0000
 42
1.0000
  0
VERTEX
  8
21
 10
26.6569
 20
17.2824
 30
0.0000
  0
SEQEND
  8
0
  0
POLYLINE
  8
21
 66
1
 10
0.0000
 20
0.0000
 30
0.0000
 40
0.1524
 41
0.1524
 70
0
  0
VERTEX
  8
21
 10
26.6569
 20
18.4443
 30
0.0000
  0
VERTEX
  8
21
 10
26.0569
 20
18.4443
 30
0.0000
  0
SEQEND
  8
0
  0
POLYLINE
  8
21
 66
1
 10
0.0000
 20
0.0000
 30
0.0000
 40
0.0762
 41
0.0762
 70
0
  0
VERTEX
  8
21
 10
26.0569
 20
18.4824
 30
0.0000
 42
1.0000
  0
VERTEX
  8
21
 10
26.0569
 20
18.4062
 30
0.0000
  0
SEQEND
  8
0
  0
POLYLINE
  8
21
 66
1
 10
0.0000
 20
0.0000
 30
0.0000
 40
0.0762
 41
0.0762
 70
0
  0
VERTEX
  8
21
 10
26.6569
 20
18.4062
 30
0.0000
 42
1.0000
  0
VERTEX
  8
21
 10
26.6569
 20
18.4824
 30
0.0000
  0
SEQEND
  8
0
  0
POLYLINE
  8
21
 66
1
 10
0.0000
 20
0.0000
 30
0.0000
 40
0.2032
 41
0.2032
 70
0
  0
VERTEX
  8
21
 10
-4.0611
 20
8.4073
 30
0.0000
  0
VERTEX
  8
21
 10
-4.0607
 20
2.4129
 30
0.0000
  0
SEQEND
  8
0
  0
POLYLINE
  8
21
 66
1
 10
0.0000
 20
0.0000
 30
0.0000
 40
0.1016
 41
0.1016
 70
0
  0
VERTEX
  8
21
 10
-4.1115
 20
2.4129
 30
0.0000
 42
1.0000
  0
VERTEX
  8
21
 10
-4.0099
 20
2.4129
 30
0.0000
  0
SEQEND
  8
0
  0
POLYLINE
  8
21
 66
1
 10
0.0000
 20
0.0000
 30
0.0000
 40
0.1016
 41
0.1016
 70
0
  0
VERTEX
  8
21
 10
-4.0103
 20
8.4073
 30
0.0000
 42
1.0000
  0
VERTEX
  8
21
 10
-4.1119
 20
8.4073
 30
0.0000
  0
SEQEND
  8
0
  0
POLYLINE
  8
21
 66
1
 10
0.0000
 20
0.0000
 30
0.0000
 40
0.2032
 41
0.2032
 70
0
  0
VERTEX
  8
21
 10
-4.0607
 20
2.4129
 30
0.0000
  0
VERTEX
  8
21
 10
-10.6147
 20
2.4129
 30
0.0000
  0
SEQEND
  8
0
  0
POLYLINE
  8
21
 66
1
 10
0.0000
 20
0.0000
 30
0.0000
 40
0.1016
 41
0.1016
 70
0
  0
VERTEX
  8
21
 10
-10.6147
 20
2.4637
 30
0.0000
 42
1.0000
  0
VERTEX
  8
21
 10
-10.6147
 20
2.3621
 30
0.0000
  0
SEQEND
  8
0
  0
POLYLINE
  8
21
 66
1
 10
0.0000
 20
0.0000
 30
0.0000
 40
0.1016
 41
0.1016
 70
0
  0
VERTEX
  8
21
 10
-4.0607
 20
2.3621
 30
0.0000
 42
1.0000
  0
VERTEX
  8
21
 10
-4.0607
 20
2.4637
 30
0.0000
  0
SEQEND
  8
0
  0
POLYLINE
  8
21
 66
1
 10
0.0000
 20
0.0000
 30
0.0000
 40
0.2032
 41
0.2032
 70
0
  0
VERTEX
  8
21
 10
-10.6147
 20
2.4129
 30
0.0000
  0
VERTEX
  8
21
 10
-10.6143
 20
8.4073
 30
0.0000
  0
SEQEND
  8
0
  0
POLYLINE
  8
21
 66
1
 10
0.0000
 20
0.0000
 30
0.0000
 40
0.1016
 41
0.1016
 70
0
  0
VERTEX
  8
21
 10
-10.5635
 20
8.4073
 30
0.0000
 42
1.0000
  0
VERTEX
  8
21
 10
-10.6651
 20
8.4073
 30
0.0000
  0
SEQEND
  8
0
  0
POLYLINE
  8
21
 66
1
 10
0.0000
 20
0.0000
 30
0.0000
 40
0.1016
 41
0.1016
 70
0
  0
VERTEX
  8
21
 10
-10.6655
 20
2.4129
 30
0.0000
 42
1.0000
  0
VERTEX
  8
21
 10
-10.5639
 20
2.4129
 30
0.0000
  0
SEQEND
  8
0
  0
INSERT
  8
21
  2
RECT
 10
-7.3377
 20
1.9303
 30
0.0000
 41
0.8636
 42
0.7620
 43
1.0000
 50
0.0000
  0
POLYLINE
  8
21
 66
1
 10
0.0000
 20
0.0000
 30
0.0000
 40
0.2032
 41
0.2032
 70
0
  0
VERTEX
  8
21
 10
50.2722
 20
16.8534
 30
0.0000
  0
VERTEX
  8
21
 10
44.2778
 20
16.8530
 30
0.0000
  0
SEQEND
  8
0
  0
POLYLINE
  8
21
 66
1
 10
0.0000
 20
0.0000
 30
0.0000
 40
0.1016
 41
0.1016
 70
0
  0
VERTEX
  8
21
 10
44.2778
 20
16.9038
 30
0.0000
 42
1.0000
  0
VERTEX
  8
21
 10
44.2778
 20
16.8022
 30
0.0000
  0
SEQEND
  8
0
  0
POLYLINE
  8
21
 66
1
 10
0.0000
 20
0.0000
 30
0.0000
 40
0.1016
 41
0.1016
 70
0
  0
VERTEX
  8
21
 10
50.2722
 20
16.8026
 30
0.0000
 42
1.0000
  0
VERTEX
  8
21
 10
50.2722
 20
16.9042
 30
0.0000
  0
SEQEND
  8
0
  0
POLYLINE
  8
21
 66
1
 10
0.0000
 20
0.0000
 30
0.0000
 40
0.2032
 41
0.2032
 70
0
  0
VERTEX
  8
21
 10
44.2778
 20
16.8530
 30
0.0000
  0
VERTEX
  8
21
 10
44.2778
 20
23.4070
 30
0.0000
  0
SEQEND
  8
0
  0
POLYLINE
  8
21
 66
1
 10
0.0000
 20
0.0000
 30
0.0000
 40
0.1016
 41
0.1016
 70
0
  0
VERTEX
  8
21
 10
44.3286
 20
23.4070
 30
0.0000
 42
1.0000
  0
VERTEX
  8
21
 10
44.2270
 20
23.4070
 30
0.0000
  0
SEQEND
  8
0
  0
POLYLINE
  8
21
 66
1
 10
0.0000
 20
0.0000
 30
0.0000
 40
0.1016
 41
0.1016
 70
0
  0
VERTEX
  8
21
 10
44.2270
 20
16.8530
 30
0.0000
 42
1.0000
  0
VERTEX
  8
21
 10
44.3286
 20
16.8530
 30
0.0000
  0
SEQEND
  8
0
  0
POLYLINE
  8
21
 66
1
 10
0.0000
 20
0.0000
 30
0.0000
 40
0.2032
 41
0.2032
 70
0
  0
VERTEX
  8
21
 10
44.2778
 20
23.4070
 30
0.0000
  0
VERTEX
  8
21
 10
50.2722
 20
23.4066
 30
0.0000
  0
SEQEND
  8
0
  0
POLYLINE
  8
21
 66
1
 10
0.0000
 20
0.0000
 30
0.0000
 40
0.1016
 41
0.1016
 70
0
  0
VERTEX
  8
21
 10
50.2722
 20
23.3558
 30
0.0000
 42
1.0000
  0
VERTEX
  8
21
 10
50.2722
 20
23.4574
 30
0.0000
  0
SEQEND
  8
0
  0
POLYLINE
  8
21
 66
1
 10
0.0000
 20
0.0000
 30
0.0000
 40
0.1016
 41
0.1016
 70
0
  0
VERTEX
  8
21
 10
44.2778
 20
23.4578
 30
0.0000
 42
1.0000
  0
VERTEX
  8
21
 10
44.2778
 20
23.3562
 30
0.0000
  0
SEQEND
  8
0
  0
INSERT
  8
21
  2
RECT
 10
43.7952
 20
20.1300
 30
0.0000
 41
0.8636
 42
0.7620
 43
1.0000
 50
270.0000
  0
POLYLINE
  8
21
 66
1
 10
0.0000
 20
0.0000
 30
0.0000
 40
0.1524
 41
0.1524
 70
0
  0
VERTEX
  8
21
 10
27.5109
 20
22.8875
 30
0.0000
  0
VERTEX
  8
21
 10
27.5109
 20
22.2875
 30
0.0000
  0
SEQEND
  8
0
  0
POLYLINE
  8
21
 66
1
 10
0.0000
 20
0.0000
 30
0.0000
 40
0.0762
 41
0.0762
 70
0
  0
VERTEX
  8
21
 10
27.4728
 20
22.2875
 30
0.0000
 42
1.0000
  0
VERTEX
  8
21
 10
27.5490
 20
22.2875
 30
0.0000
  0
SEQEND
  8
0
  0
POLYLINE
  8
21
 66
1
 10
0.0000
 20
0.0000
 30
0.0000
 40
0.0762
 41
0.0762
 70
0
  0
VERTEX
  8
21
 10
27.5490
 20
22.8875
 30
0.0000
 42
1.0000
  0
VERTEX
  8
21
 10
27.4728
 20
22.8875
 30
0.0000
  0
SEQEND
  8
0
  0
POLYLINE
  8
21
 66
1
 10
0.0000
 20
0.0000
 30
0.0000
 40
0.1524
 41
0.1524
 70
0
  0
VERTEX
  8
21
 10
26.3109
 20
22.8875
 30
0.0000
  0
VERTEX
  8
21
 10
26.3109
 20
22.2875
 30
0.0000
  0
SEQEND
  8
0
  0
POLYLINE
  8
21
 66
1
 10
0.0000
 20
0.0000
 30
0.0000
 40
0.0762
 41
0.0762
 70
0
  0
VERTEX
  8
21
 10
26.2728
 20
22.2875
 30
0.0000
 42
1.0000
  0
VERTEX
  8
21
 10
26.3490
 20
22.2875
 30
0.0000
  0
SEQEND
  8
0
  0
POLYLINE
  8
21
 66
1
 10
0.0000
 20
0.0000
 30
0.0000
 40
0.0762
 41
0.0762
 70
0
  0
VERTEX
  8
21
 10
26.3490
 20
22.8875
 30
0.0000
 42
1.0000
  0
VERTEX
  8
21
 10
26.2728
 20
22.8875
 30
0.0000
  0
SEQEND
  8
0
  0
POLYLINE
  8
21
 66
1
 10
0.0000
 20
0.0000
 30
0.0000
 40
0.1524
 41
0.1524
 70
0
  0
VERTEX
  8
21
 10
23.8531
 20
21.0853
 30
0.0000
  0
VERTEX
  8
21
 10
23.2531
 20
21.0853
 30
0.0000
  0
SEQEND
  8
0
  0
POLYLINE
  8
21
 66
1
 10
0.0000
 20
0.0000
 30
0.0000
 40
0.0762
 41
0.0762
 70
0
  0
VERTEX
  8
21
 10
23.2531
 20
21.1234
 30
0.0000
 42
1.0000
  0
VERTEX
  8
21
 10
23.2531
 20
21.0472
 30
0.0000
  0
SEQEND
  8
0
  0
POLYLINE
  8
21
 66
1
 10
0.0000
 20
0.0000
 30
0.0000
 40
0.0762
 41
0.0762
 70
0
  0
VERTEX
  8
21
 10
23.8531
 20
21.0472
 30
0.0000
 42
1.0000
  0
VERTEX
  8
21
 10
23.8531
 20
21.1234
 30
0.0000
  0
SEQEND
  8
0
  0
POLYLINE
  8
21
 66
1
 10
0.0000
 20
0.0000
 30
0.0000
 40
0.1524
 41
0.1524
 70
0
  0
VERTEX
  8
21
 10
23.8531
 20
22.2853
 30
0.0000
  0
VERTEX
  8
21
 10
23.2531
 20
22.2853
 30
0.0000
  0
SEQEND
  8
0
  0
POLYLINE
  8
21
 66
1
 10
0.0000
 20
0.0000
 30
0.0000
 40
0.0762
 41
0.0762
 70
0
  0
VERTEX
  8
21
 10
23.2531
 20
22.3234
 30
0.0000
 42
1.0000
  0
VERTEX
  8
21
 10
23.2531
 20
22.2472
 30
0.0000
  0
SEQEND
  8
0
  0
POLYLINE
  8
21
 66
1
 10
0.0000
 20
0.0000
 30
0.0000
 40
0.0762
 41
0.0762
 70
0
  0
VERTEX
  8
21
 10
23.8531
 20
22.2472
 30
0.0000
 42
1.0000
  0
VERTEX
  8
21
 10
23.8531
 20
22.3234
 30
0.0000
  0
SEQEND
  8
0
  0
POLYLINE
  8
21
 66
1
 10
0.0000
 20
0.0000
 30
0.0000
 40
0.1270
 41
0.1270
 70
0
  0
VERTEX
  8
21
 10
0.2400
 20
20.3950
 30
0.0000
  0
VERTEX
  8
21
 10
0.8750
 20
21.0300
 30
0.0000
  0
SEQEND
  8
0
  0
POLYLINE
  8
21
 66
1
 10
0.0000
 20
0.0000
 30
0.0000
 40
0.0635
 41
0.0635
 70
0
  0
VERTEX
  8
21
 10
0.8975
 20
21.0075
 30
0.0000
 42
1.0000
  0
VERTEX
  8
21
 10
0.8525
 20
21.0525
 30
0.0000
  0
SEQEND
  8
0
  0
POLYLINE
  8
21
 66
1
 10
0.0000
 20
0.0000
 30
0.0000
 40
0.0635
 41
0.0635
 70
0
  0
VERTEX
  8
21
 10
0.2175
 20
20.4175
 30
0.0000
 42
1.0000
  0
VERTEX
  8
21
 10
0.2625
 20
20.3725
 30
0.0000
  0
SEQEND
  8
0
  0
POLYLINE
  8
21
 66
1
 10
0.0000
 20
0.0000
 30
0.0000
 40
0.1270
 41
0.1270
 70
0
  0
VERTEX
  8
21
 10
0.8750
 20
21.0300
 30
0.0000
  0
VERTEX
  8
21
 10
2.1450
 20
21.0300
 30
0.0000
  0
SEQEND
  8
0
  0
POLYLINE
  8
21
 66
1
 10
0.0000
 20
0.0000
 30
0.0000
 40
0.0635
 41
0.0635
 70
0
  0
VERTEX
  8
21
 10
2.1450
 20
20.9983
 30
0.0000
 42
1.0000
  0
VERTEX
  8
21
 10
2.1450
 20
21.0617
 30
0.0000
  0
SEQEND
  8
0
  0
POLYLINE
  8
21
 66
1
 10
0.0000
 20
0.0000
 30
0.0000
 40
0.0635
 41
0.0635
 70
0
  0
VERTEX
  8
21
 10
0.8750
 20
21.0617
 30
0.0000
 42
1.0000
  0
VERTEX
  8
21
 10
0.8750
 20
20.9983
 30
0.0000
  0
SEQEND
  8
0
  0
POLYLINE
  8
21
 66
1
 10
0.0000
 20
0.0000
 30
0.0000
 40
0.1270
 41
0.1270
 70
0
  0
VERTEX
  8
21
 10
2.1450
 20
21.0300
 30
0.0000
  0
VERTEX
  8
21
 10
2.7800
 20
20.3950
 30
0.0000
  0
SEQEND
  8
0
  0
POLYLINE
  8
21
 66
1
 10
0.0000
 20
0.0000
 30
0.0000
 40
0.0635
 41
0.0635
 70
0
  0
VERTEX
  8
21
 10
2.7575
 20
20.3725
 30
0.0000
 42
1.0000
  0
VERTEX
  8
21
 10
2.8025
 20
20.4175
 30
0.0000
  0
SEQEND
  8
0
  0
POLYLINE
  8
21
 66
1
 10
0.0000
 20
0.0000
 30
0.0000
 40
0.0635
 41
0.0635
 70
0
  0
VERTEX
  8
21
 10
2.1675
 20
21.0525
 30
0.0000
 42
1.0000
  0
VERTEX
  8
21
 10
2.1225
 20
21.0075
 30
0.0000
  0
SEQEND
  8
0
  0
POLYLINE
  8
21
 66
1
 10
0.0000
 20
0.0000
 30
0.0000
 40
0.1270
 41
0.1270
 70
0
  0
VERTEX
  8
21
 10
2.7800
 20
1.3450
 30
0.0000
  0
VERTEX
  8
21
 10
2.1450
 20
0.7100
 30
0.0000
  0
SEQEND
  8
0
  0
POLYLINE
  8
21
 66
1
 10
0.0000
 20
0.0000
 30
0.0000
 40
0.0635
 41
0.0635
 70
0
  0
VERTEX
  8
21
 10
2.1225
 20
0.7325
 30
0.0000
 42
1.0000
  0
VERTEX
  8
21
 10
2.1675
 20
0.6875
 30
0.0000
  0
SEQEND
  8
0
  0
POLYLINE
  8
21
 66
1
 10
0.0000
 20
0.0000
 30
0.0000
 40
0.0635
 41
0.0635
 70
0
  0
VERTEX
  8
21
 10
2.8025
 20
1.3225
 30
0.0000
 42
1.0000
  0
VERTEX
  8
21
 10
2.7575
 20
1.3675
 30
0.0000
  0
SEQEND
  8
0
  0
POLYLINE
  8
21
 66
1
 10
0.0000
 20
0.0000
 30
0.0000
 40
0.1270
 41
0.1270
 70
0
  0
VERTEX
  8
21
 10
2.1450
 20
0.7100
 30
0.0000
  0
VERTEX
  8
21
 10
0.8750
 20
0.7100
 30
0.0000
  0
SEQEND
  8
0
  0
POLYLINE
  8
21
 66
1
 10
0.0000
 20
0.0000
 30
0.0000
 40
0.0635
 41
0.0635
 70
0
  0
VERTEX
  8
21
 10
0.8750
 20
0.7418
 30
0.0000
 42
1.0000
  0
VERTEX
  8
21
 10
0.8750
 20
0.6783
 30
0.0000
  0
SEQEND
  8
0
  0
POLYLINE
  8
21
 66
1
 10
0.0000
 20
0.0000
 30
0.0000
 40
0.0635
 41
0.0635
 70
0
  0
VERTEX
  8
21
 10
2.1450
 20
0.6783
 30
0.0000
 42
1.0000
  0
VERTEX
  8
21
 10
2.1450
 20
0.7418
 30
0.0000
  0
SEQEND
  8
0
  0
POLYLINE
  8
21
 66
1
 10
0.0000
 20
0.0000
 30
0.0000
 40
0.1270
 41
0.1270
 70
0
  0
VERTEX
  8
21
 10
0.8750
 20
0.7100
 30
0.0000
  0
VERTEX
  8
21
 10
0.2400
 20
1.3450
 30
0.0000
  0
SEQEND
  8
0
  0
POLYLINE
  8
21
 66
1
 10
0.0000
 20
0.0000
 30
0.0000
 40
0.0635
 41
0.0635
 70
0
  0
VERTEX
  8
21
 10
0.2625
 20
1.3675
 30
0.0000
 42
1.0000
  0
VERTEX
  8
21
 10
0.2175
 20
1.3225
 30
0.0000
  0
SEQEND
  8
0
  0
POLYLINE
  8
21
 66
1
 10
0.0000
 20
0.0000
 30
0.0000
 40
0.0635
 41
0.0635
 70
0
  0
VERTEX
  8
21
 10
0.8525
 20
0.6875
 30
0.0000
 42
1.0000
  0
VERTEX
  8
21
 10
0.8975
 20
0.7325
 30
0.0000
  0
SEQEND
  8
0
  0
POLYLINE
  8
21
 66
1
 10
0.0000
 20
0.0000
 30
0.0000
 40
0.1270
 41
0.1270
 70
0
  0
VERTEX
  8
21
 10
0.2400
 20
1.3450
 30
0.0000
  0
VERTEX
  8
21
 10
0.2400
 20
2.6150
 30
0.0000
  0
SEQEND
  8
0
  0
POLYLINE
  8
21
 66
1
 10
0.0000
 20
0.0000
 30
0.0000
 40
0.0635
 41
0.0635
 70
0
  0
VERTEX
  8
21
 10
0.2718
 20
2.6150
 30
0.0000
 42
1.0000
  0
VERTEX
  8
21
 10
0.2083
 20
2.6150
 30
0.0000
  0
SEQEND
  8
0
  0
POLYLINE
  8
21
 66
1
 10
0.0000
 20
0.0000
 30
0.0000
 40
0.0635
 41
0.0635
 70
0
  0
VERTEX
  8
21
 10
0.2083
 20
1.3450
 30
0.0000
 42
1.0000
  0
VERTEX
  8
21
 10
0.2718
 20
1.3450
 30
0.0000
  0
SEQEND
  8
0
  0
POLYLINE
  8
21
 66
1
 10
0.0000
 20
0.0000
 30
0.0000
 40
0.1270
 41
0.1270
 70
0
  0
VERTEX
  8
21
 10
0.2400
 20
2.6150
 30
0.0000
  0
VERTEX
  8
21
 10
0.8750
 20
3.2500
 30
0.0000
  0
SEQEND
  8
0
  0
POLYLINE
  8
21
 66
1
 10
0.0000
 20
0.0000
 30
0.0000
 40
0.0635
 41
0.0635
 70
0
  0
VERTEX
  8
21
 10
0.8975
 20
3.2275
 30
0.0000
 42
1.0000
  0
VERTEX
  8
21
 10
0.8525
 20
3.2725
 30
0.0000
  0
SEQEND
  8
0
  0
POLYLINE
  8
21
 66
1
 10
0.0000
 20
0.0000
 30
0.0000
 40
0.0635
 41
0.0635
 70
0
  0
VERTEX
  8
21
 10
0.2175
 20
2.6375
 30
0.0000
 42
1.0000
  0
VERTEX
  8
21
 10
0.2625
 20
2.5925
 30
0.0000
  0
SEQEND
  8
0
  0
POLYLINE
  8
21
 66
1
 10
0.0000
 20
0.0000
 30
0.0000
 40
0.1270
 41
0.1270
 70
0
  0
VERTEX
  8
21
 10
0.8750
 20
3.2500
 30
0.0000
  0
VERTEX
  8
21
 10
0.2400
 20
3.8850
 30
0.0000
  0
SEQEND
  8
0
  0
POLYLINE
  8
21
 66
1
 10
0.0000
 20
0.0000
 30
0.0000
 40
0.0635
 41
0.0635
 70
0
  0
VERTEX
  8
21
 10
0.2625
 20
3.9075
 30
0.0000
 42
1.0000
  0
VERTEX
  8
21
 10
0.2175
 20
3.8625
 30
0.0000
  0
SEQEND
  8
0
  0
POLYLINE
  8
21
 66
1
 10
0.0000
 20
0.0000
 30
0.0000
 40
0.0635
 41
0.0635
 70
0
  0
VERTEX
  8
21
 10
0.8525
 20
3.2275
 30
0.0000
 42
1.0000
  0
VERTEX
  8
21
 10
0.8975
 20
3.2725
 30
0.0000
  0
SEQEND
  8
0
  0
POLYLINE
  8
21
 66
1
 10
0.0000
 20
0.0000
 30
0.0000
 40
0.1270
 41
0.1270
 70
0
  0
VERTEX
  8
21
 10
0.2400
 20
3.8850
 30
0.0000
  0
VERTEX
  8
21
 10
0.2400
 20
5.1550
 30
0.0000
  0
SEQEND
  8
0
  0
POLYLINE
  8
21
 66
1
 10
0.0000
 20
0.0000
 30
0.0000
 40
0.0635
 41
0.0635
 70
0
  0
VERTEX
  8
21
 10
0.2718
 20
5.1550
 30
0.0000
 42
1.0000
  0
VERTEX
  8
21
 10
0.2083
 20
5.1550
 30
0.0000
  0
SEQEND
  8
0
  0
POLYLINE
  8
21
 66
1
 10
0.0000
 20
0.0000
 30
0.0000
 40
0.0635
 41
0.0635
 70
0
  0
VERTEX
  8
21
 10
0.2083
 20
3.8850
 30
0.0000
 42
1.0000
  0
VERTEX
  8
21
 10
0.2718
 20
3.8850
 30
0.0000
  0
SEQEND
  8
0
  0
POLYLINE
  8
21
 66
1
 10
0.0000
 20
0.0000
 30
0.0000
 40
0.1270
 41
0.1270
 70
0
  0
VERTEX
  8
21
 10
0.2400
 20
5.1550
 30
0.0000
  0
VERTEX
  8
21
 10
0.8750
 20
5.7900
 30
0.0000
  0
SEQEND
  8
0
  0
POLYLINE
  8
21
 66
1
 10
0.0000
 20
0.0000
 30
0.0000
 40
0.0635
 41
0.0635
 70
0
  0
VERTEX
  8
21
 10
0.8975
 20
5.7675
 30
0.0000
 42
1.0000
  0
VERTEX
  8
21
 10
0.8525
 20
5.8125
 30
0.0000
  0
SEQEND
  8
0
  0
POLYLINE
  8
21
 66
1
 10
0.0000
 20
0.0000
 30
0.0000
 40
0.0635
 41
0.0635
 70
0
  0
VERTEX
  8
21
 10
0.2175
 20
5.1775
 30
0.0000
 42
1.0000
  0
VERTEX
  8
21
 10
0.2625
 20
5.1325
 30
0.0000
  0
SEQEND
  8
0
  0
POLYLINE
  8
21
 66
1
 10
0.0000
 20
0.0000
 30
0.0000
 40
0.1270
 41
0.1270
 70
0
  0
VERTEX
  8
21
 10
0.8750
 20
5.7900
 30
0.0000
  0
VERTEX
  8
21
 10
0.2400
 20
6.4250
 30
0.0000
  0
SEQEND
  8
0
  0
POLYLINE
  8
21
 66
1
 10
0.0000
 20
0.0000
 30
0.0000
 40
0.0635
 41
0.0635
 70
0
  0
VERTEX
  8
21
 10
0.2625
 20
6.4475
 30
0.0000
 42
1.0000
  0
VERTEX
  8
21
 10
0.2175
 20
6.4025
 30
0.0000
  0
SEQEND
  8
0
  0
POLYLINE
  8
21
 66
1
 10
0.0000
 20
0.0000
 30
0.0000
 40
0.0635
 41
0.0635
 70
0
  0
VERTEX
  8
21
 10
0.8525
 20
5.7675
 30
0.0000
 42
1.0000
  0
VERTEX
  8
21
 10
0.8975
 20
5.8125
 30
0.0000
  0
SEQEND
  8
0
  0
POLYLINE
  8
21
 66
1
 10
0.0000
 20
0.0000
 30
0.0000
 40
0.1270
 41
0.1270
 70
0
  0
VERTEX
  8
21
 10
0.2400
 20
6.4250
 30
0.0000
  0
VERTEX
  8
21
 10
0.2400
 20
7.6950
 30
0.0000
  0
SEQEND
  8
0
  0
POLYLINE
  8
21
 66
1
 10
0.0000
 20
0.0000
 30
0.0000
 40
0.0635
 41
0.0635
 70
0
  0
VERTEX
  8
21
 10
0.2718
 20
7.6950
 30
0.0000
 42
1.0000
  0
VERTEX
  8
21
 10
0.2083
 20
7.6950
 30
0.0000
  0
SEQEND
  8
0
  0
POLYLINE
  8
21
 66
1
 10
0.0000
 20
0.0000
 30
0.0000
 40
0.0635
 41
0.0635
 70
0
  0
VERTEX
  8
21
 10
0.2083
 20
6.4250
 30
0.0000
 42
1.0000
  0
VERTEX
  8
21
 10
0.2718
 20
6.4250
 30
0.0000
  0
SEQEND
  8
0
  0
POLYLINE
  8
21
 66
1
 10
0.0000
 20
0.0000
 30
0.0000
 40
0.1270
 41
0.1270
 70
0
  0
VERTEX
  8
21
 10
0.2400
 20
7.6950
 30
0.0000
  0
VERTEX
  8
21
 10
0.8750
 20
8.3300
 30
0.0000
  0
SEQEND
  8
0
  0
POLYLINE
  8
21
 66
1
 10
0.0000
 20
0.0000
 30
0.0000
 40
0.0635
 41
0.0635
 70
0
  0
VERTEX
  8
21
 10
0.8975
 20
8.3075
 30
0.0000
 42
1.0000
  0
VERTEX
  8
21
 10
0.8525
 20
8.3525
 30
0.0000
  0
SEQEND
  8
0
  0
POLYLINE
  8
21
 66
1
 10
0.0000
 20
0.0000
 30
0.0000
 40
0.0635
 41
0.0635
 70
0
  0
VERTEX
  8
21
 10
0.2175
 20
7.7175
 30
0.0000
 42
1.0000
  0
VERTEX
  8
21
 10
0.2625
 20
7.6725
 30
0.0000
  0
SEQEND
  8
0
  0
POLYLINE
  8
21
 66
1
 10
0.0000
 20
0.0000
 30
0.0000
 40
0.1270
 41
0.1270
 70
0
  0
VERTEX
  8
21
 10
0.8750
 20
8.3300
 30
0.0000
  0
VERTEX
  8
21
 10
0.2400
 20
8.9650
 30
0.0000
  0
SEQEND
  8
0
  0
POLYLINE
  8
21
 66
1
 10
0.0000
 20
0.0000
 30
0.0000
 40
0.0635
 41
0.0635
 70
0
  0
VERTEX
  8
21
 10
0.2625
 20
8.9875
 30
0.0000
 42
1.0000
  0
VERTEX
  8
21
 10
0.2175
 20
8.9425
 30
0.0000
  0
SEQEND
  8
0
  0
POLYLINE
  8
21
 66
1
 10
0.0000
 20
0.0000
 30
0.0000
 40
0.0635
 41
0.0635
 70
0
  0
VERTEX
  8
21
 10
0.8525
 20
8.3075
 30
0.0000
 42
1.0000
  0
VERTEX
  8
21
 10
0.8975
 20
8.3525
 30
0.0000
  0
SEQEND
  8
0
  0
POLYLINE
  8
21
 66
1
 10
0.0000
 20
0.0000
 30
0.0000
 40
0.1270
 41
0.1270
 70
0
  0
VERTEX
  8
21
 10
0.2400
 20
8.9650
 30
0.0000
  0
VERTEX
  8
21
 10
0.2400
 20
10.2350
 30
0.0000
  0
SEQEND
  8
0
  0
POLYLINE
  8
21
 66
1
 10
0.0000
 20
0.0000
 30
0.0000
 40
0.0635
 41
0.0635
 70
0
  0
VERTEX
  8
21
 10
0.2718
 20
10.2350
 30
0.0000
 42
1.0000
  0
VERTEX
  8
21
 10
0.2083
 20
10.2350
 30
0.0000
  0
SEQEND
  8
0
  0
POLYLINE
  8
21
 66
1
 10
0.0000
 20
0.0000
 30
0.0000
 40
0.0635
 41
0.0635
 70
0
  0
VERTEX
  8
21
 10
0.2083
 20
8.9650
 30
0.0000
 42
1.0000
  0
VERTEX
  8
21
 10
0.2718
 20
8.9650
 30
0.0000
  0
SEQEND
  8
0
  0
POLYLINE
  8
21
 66
1
 10
0.0000
 20
0.0000
 30
0.0000
 40
0.1270
 41
0.1270
 70
0
  0
VERTEX
  8
21
 10
0.2400
 20
10.2350
 30
0.0000
  0
VERTEX
  8
21
 10
0.8750
 20
10.8700
 30
0.0000
  0
SEQEND
  8
0
  0
POLYLINE
  8
21
 66
1
 10
0.0000
 20
0.0000
 30
0.0000
 40
0.0635
 41
0.0635
 70
0
  0
VERTEX
  8
21
 10
0.8975
 20
10.8475
 30
0.0000
 42
1.0000
  0
VERTEX
  8
21
 10
0.8525
 20
10.8925
 30
0.0000
  0
SEQEND
  8
0
  0
POLYLINE
  8
21
 66
1
 10
0.0000
 20
0.0000
 30
0.0000
 40
0.0635
 41
0.0635
 70
0
  0
VERTEX
  8
21
 10
0.2175
 20
10.2575
 30
0.0000
 42
1.0000
  0
VERTEX
  8
21
 10
0.2625
 20
10.2125
 30
0.0000
  0
SEQEND
  8
0
  0
POLYLINE
  8
21
 66
1
 10
0.0000
 20
0.0000
 30
0.0000
 40
0.1270
 41
0.1270
 70
0
  0
VERTEX
  8
21
 10
0.8750
 20
10.8700
 30
0.0000
  0
VERTEX
  8
21
 10
0.2400
 20
11.5050
 30
0.0000
  0
SEQEND
  8
0
  0
POLYLINE
  8
21
 66
1
 10
0.0000
 20
0.0000
 30
0.0000
 40
0.0635
 41
0.0635
 70
0
  0
VERTEX
  8
21
 10
0.2625
 20
11.5275
 30
0.0000
 42
1.0000
  0
VERTEX
  8
21
 10
0.2175
 20
11.4825
 30
0.0000
  0
SEQEND
  8
0
  0
POLYLINE
  8
21
 66
1
 10
0.0000
 20
0.0000
 30
0.0000
 40
0.0635
 41
0.0635
 70
0
  0
VERTEX
  8
21
 10
0.8525
 20
10.8475
 30
0.0000
 42
1.0000
  0
VERTEX
  8
21
 10
0.8975
 20
10.8925
 30
0.0000
  0
SEQEND
  8
0
  0
POLYLINE
  8
21
 66
1
 10
0.0000
 20
0.0000
 30
0.0000
 40
0.1270
 41
0.1270
 70
0
  0
VERTEX
  8
21
 10
0.2400
 20
11.5050
 30
0.0000
  0
VERTEX
  8
21
 10
0.2400
 20
12.7750
 30
0.0000
  0
SEQEND
  8
0
  0
POLYLINE
  8
21
 66
1
 10
0.0000
 20
0.0000
 30
0.0000
 40
0.0635
 41
0.0635
 70
0
  0
VERTEX
  8
21
 10
0.2718
 20
12.7750
 30
0.0000
 42
1.0000
  0
VERTEX
  8
21
 10
0.2083
 20
12.7750
 30
0.0000
  0
SEQEND
  8
0
  0
POLYLINE
  8
21
 66
1
 10
0.0000
 20
0.0000
 30
0.0000
 40
0.0635
 41
0.0635
 70
0
  0
VERTEX
  8
21
 10
0.2083
 20
11.5050
 30
0.0000
 42
1.0000
  0
VERTEX
  8
21
 10
0.2718
 20
11.5050
 30
0.0000
  0
SEQEND
  8
0
  0
POLYLINE
  8
21
 66
1
 10
0.0000
 20
0.0000
 30
0.0000
 40
0.1270
 41
0.1270
 70
0
  0
VERTEX
  8
21
 10
0.2400
 20
12.7750
 30
0.0000
  0
VERTEX
  8
21
 10
0.8750
 20
13.4100
 30
0.0000
  0
SEQEND
  8
0
  0
POLYLINE
  8
21
 66
1
 10
0.0000
 20
0.0000
 30
0.0000
 40
0.0635
 41
0.0635
 70
0
  0
VERTEX
  8
21
 10
0.8975
 20
13.3875
 30
0.0000
 42
1.0000
  0
VERTEX
  8
21
 10
0.8525
 20
13.4325
 30
0.0000
  0
SEQEND
  8
0
  0
POLYLINE
  8
21
 66
1
 10
0.0000
 20
0.0000
 30
0.0000
 40
0.0635
 41
0.0635
 70
0
  0
VERTEX
  8
21
 10
0.2175
 20
12.7975
 30
0.0000
 42
1.0000
  0
VERTEX
  8
21
 10
0.2625
 20
12.7525
 30
0.0000
  0
SEQEND
  8
0
  0
POLYLINE
  8
21
 66
1
 10
0.0000
 20
0.0000
 30
0.0000
 40
0.1270
 41
0.1270
 70
0
  0
VERTEX
  8
21
 10
0.8750
 20
13.4100
 30
0.0000
  0
VERTEX
  8
21
 10
0.2400
 20
14.0450
 30
0.0000
  0
SEQEND
  8
0
  0
POLYLINE
  8
21
 66
1
 10
0.0000
 20
0.0000
 30
0.0000
 40
0.0635
 41
0.0635
 70
0
  0
VERTEX
  8
21
 10
0.2625
 20
14.0675
 30
0.0000
 42
1.0000
  0
VERTEX
  8
21
 10
0.2175
 20
14.0225
 30
0.0000
  0
SEQEND
  8
0
  0
POLYLINE
  8
21
 66
1
 10
0.0000
 20
0.0000
 30
0.0000
 40
0.0635
 41
0.0635
 70
0
  0
VERTEX
  8
21
 10
0.8525
 20
13.3875
 30
0.0000
 42
1.0000
  0
VERTEX
  8
21
 10
0.8975
 20
13.4325
 30
0.0000
  0
SEQEND
  8
0
  0
POLYLINE
  8
21
 66
1
 10
0.0000
 20
0.0000
 30
0.0000
 40
0.1270
 41
0.1270
 70
0
  0
VERTEX
  8
21
 10
0.2400
 20
14.0450
 30
0.0000
  0
VERTEX
  8
21
 10
0.2400
 20
15.3150
 30
0.0000
  0
SEQEND
  8
0
  0
POLYLINE
  8
21
 66
1
 10
0.0000
 20
0.0000
 30
0.0000
 40
0.0635
 41
0.0635
 70
0
  0
VERTEX
  8
21
 10
0.2718
 20
15.3150
 30
0.0000
 42
1.0000
  0
VERTEX
  8
21
 10
0.2083
 20
15.3150
 30
0.0000
  0
SEQEND
  8
0
  0
POLYLINE
  8
21
 66
1
 10
0.0000
 20
0.0000
 30
0.0000
 40
0.0635
 41
0.0635
 70
0
  0
VERTEX
  8
21
 10
0.2083
 20
14.0450
 30
0.0000
 42
1.0000
  0
VERTEX
  8
21
 10
0.2718
 20
14.0450
 30
0.0000
  0
SEQEND
  8
0
  0
POLYLINE
  8
21
 66
1
 10
0.0000
 20
0.0000
 30
0.0000
 40
0.1270
 41
0.1270
 70
0
  0
VERTEX
  8
21
 10
0.2400
 20
15.3150
 30
0.0000
  0
VERTEX
  8
21
 10
0.8750
 20
15.9500
 30
0.0000
  0
SEQEND
  8
0
  0
POLYLINE
  8
21
 66
1
 10
0.0000
 20
0.0000
 30
0.0000
 40
0.0635
 41
0.0635
 70
0
  0
VERTEX
  8
21
 10
0.8975
 20
15.9275
 30
0.0000
 42
1.0000
  0
VERTEX
  8
21
 10
0.8525
 20
15.9725
 30
0.0000
  0
SEQEND
  8
0
  0
POLYLINE
  8
21
 66
1
 10
0.0000
 20
0.0000
 30
0.0000
 40
0.0635
 41
0.0635
 70
0
  0
VERTEX
  8
21
 10
0.2175
 20
15.3375
 30
0.0000
 42
1.0000
  0
VERTEX
  8
21
 10
0.2625
 20
15.2925
 30
0.0000
  0
SEQEND
  8
0
  0
POLYLINE
  8
21
 66
1
 10
0.0000
 20
0.0000
 30
0.0000
 40
0.1270
 41
0.1270
 70
0
  0
VERTEX
  8
21
 10
0.8750
 20
15.9500
 30
0.0000
  0
VERTEX
  8
21
 10
0.2400
 20
16.5850
 30
0.0000
  0
SEQEND
  8
0
  0
POLYLINE
  8
21
 66
1
 10
0.0000
 20
0.0000
 30
0.0000
 40
0.0635
 41
0.0635
 70
0
  0
VERTEX
  8
21
 10
0.2625
 20
16.6075
 30
0.0000
 42
1.0000
  0
VERTEX
  8
21
 10
0.2175
 20
16.5625
 30
0.0000
  0
SEQEND
  8
0
  0
POLYLINE
  8
21
 66
1
 10
0.0000
 20
0.0000
 30
0.0000
 40
0.0635
 41
0.0635
 70
0
  0
VERTEX
  8
21
 10
0.8525
 20
15.9275
 30
0.0000
 42
1.0000
  0
VERTEX
  8
21
 10
0.8975
 20
15.9725
 30
0.0000
  0
SEQEND
  8
0
  0
POLYLINE
  8
21
 66
1
 10
0.0000
 20
0.0000
 30
0.0000
 40
0.1270
 41
0.1270
 70
0
  0
VERTEX
  8
21
 10
0.2400
 20
16.5850
 30
0.0000
  0
VERTEX
  8
21
 10
0.2400
 20
17.8550
 30
0.0000
  0
SEQEND
  8
0
  0
POLYLINE
  8
21
 66
1
 10
0.0000
 20
0.0000
 30
0.0000
 40
0.0635
 41
0.0635
 70
0
  0
VERTEX
  8
21
 10
0.2718
 20
17.8550
 30
0.0000
 42
1.0000
  0
VERTEX
  8
21
 10
0.2083
 20
17.8550
 30
0.0000
  0
SEQEND
  8
0
  0
POLYLINE
  8
21
 66
1
 10
0.0000
 20
0.0000
 30
0.0000
 40
0.0635
 41
0.0635
 70
0
  0
VERTEX
  8
21
 10
0.2083
 20
16.5850
 30
0.0000
 42
1.0000
  0
VERTEX
  8
21
 10
0.2718
 20
16.5850
 30
0.0000
  0
SEQEND
  8
0
  0
POLYLINE
  8
21
 66
1
 10
0.0000
 20
0.0000
 30
0.0000
 40
0.1270
 41
0.1270
 70
0
  0
VERTEX
  8
21
 10
0.2400
 20
17.8550
 30
0.0000
  0
VERTEX
  8
21
 10
0.8750
 20
18.4900
 30
0.0000
  0
SEQEND
  8
0
  0
POLYLINE
  8
21
 66
1
 10
0.0000
 20
0.0000
 30
0.0000
 40
0.0635
 41
0.0635
 70
0
  0
VERTEX
  8
21
 10
0.8975
 20
18.4675
 30
0.0000
 42
1.0000
  0
VERTEX
  8
21
 10
0.8525
 20
18.5125
 30
0.0000
  0
SEQEND
  8
0
  0
POLYLINE
  8
21
 66
1
 10
0.0000
 20
0.0000
 30
0.0000
 40
0.0635
 41
0.0635
 70
0
  0
VERTEX
  8
21
 10
0.2175
 20
17.8775
 30
0.0000
 42
1.0000
  0
VERTEX
  8
21
 10
0.2625
 20
17.8325
 30
0.0000
  0
SEQEND
  8
0
  0
POLYLINE
  8
21
 66
1
 10
0.0000
 20
0.0000
 30
0.0000
 40
0.1270
 41
0.1270
 70
0
  0
VERTEX
  8
21
 10
0.8750
 20
18.4900
 30
0.0000
  0
VERTEX
  8
21
 10
0.2400
 20
19.1250
 30
0.0000
  0
SEQEND
  8
0
  0
POLYLINE
  8
21
 66
1
 10
0.0000
 20
0.0000
 30
0.0000
 40
0.0635
 41
0.0635
 70
0
  0
VERTEX
  8
21
 10
0.2625
 20
19.1475
 30
0.0000
 42
1.0000
  0
VERTEX
  8
21
 10
0.2175
 20
19.1025
 30
0.0000
  0
SEQEND
  8
0
  0
POLYLINE
  8
21
 66
1
 10
0.0000
 20
0.0000
 30
0.0000
 40
0.0635
 41
0.0635
 70
0
  0
VERTEX
  8
21
 10
0.8525
 20
18.4675
 30
0.0000
 42
1.0000
  0
VERTEX
  8
21
 10
0.8975
 20
18.5125
 30
0.0000
  0
SEQEND
  8
0
  0
POLYLINE
  8
21
 66
1
 10
0.0000
 20
0.0000
 30
0.0000
 40
0.1270
 41
0.1270
 70
0
  0
VERTEX
  8
21
 10
0.2400
 20
19.1250
 30
0.0000
  0
VERTEX
  8
21
 10
0.2400
 20
20.3950
 30
0.0000
  0
SEQEND
  8
0
  0
POLYLINE
  8
21
 66
1
 10
0.0000
 20
0.0000
 30
0.0000
 40
0.0635
 41
0.0635
 70
0
  0
VERTEX
  8
21
 10
0.2718
 20
20.3950
 30
0.0000
 42
1.0000
  0
VERTEX
  8
21
 10
0.2083
 20
20.3950
 30
0.0000
  0
SEQEND
  8
0
  0
POLYLINE
  8
21
 66
1
 10
0.0000
 20
0.0000
 30
0.0000
 40
0.0635
 41
0.0635
 70
0
  0
VERTEX
  8
21
 10
0.2083
 20
19.1250
 30
0.0000
 42
1.0000
  0
VERTEX
  8
21
 10
0.2718
 20
19.1250
 30
0.0000
  0
SEQEND
  8
0
  0
POLYLINE
  8
21
 66
1
 10
0.0000
 20
0.0000
 30
0.0000
 40
0.1270
 41
0.1270
 70
0
  0
VERTEX
  8
21
 10
2.7800
 20
20.3950
 30
0.0000
  0
VERTEX
  8
21
 10
2.7800
 20
19.1250
 30
0.0000
  0
SEQEND
  8
0
  0
POLYLINE
  8
21
 66
1
 10
0.0000
 20
0.0000
 30
0.0000
 40
0.0635
 41
0.0635
 70
0
  0
VERTEX
  8
21
 10
2.7483
 20
19.1250
 30
0.0000
 42
1.0000
  0
VERTEX
  8
21
 10
2.8118
 20
19.1250
 30
0.0000
  0
SEQEND
  8
0
  0
POLYLINE
  8
21
 66
1
 10
0.0000
 20
0.0000
 30
0.0000
 40
0.0635
 41
0.0635
 70
0
  0
VERTEX
  8
21
 10
2.8118
 20
20.3950
 30
0.0000
 42
1.0000
  0
VERTEX
  8
21
 10
2.7483
 20
20.3950
 30
0.0000
  0
SEQEND
  8
0
  0
POLYLINE
  8
21
 66
1
 10
0.0000
 20
0.0000
 30
0.0000
 40
0.1270
 41
0.1270
 70
0
  0
VERTEX
  8
21
 10
2.7800
 20
19.1250
 30
0.0000
  0
VERTEX
  8
21
 10
2.1450
 20
18.4900
 30
0.0000
  0
SEQEND
  8
0
  0
POLYLINE
  8
21
 66
1
 10
0.0000
 20
0.0000
 30
0.0000
 40
0.0635
 41
0.0635
 70
0
  0
VERTEX
  8
21
 10
2.1225
 20
18.5125
 30
0.0000
 42
1.0000
  0
VERTEX
  8
21
 10
2.1675
 20
18.4675
 30
0.0000
  0
SEQEND
  8
0
  0
POLYLINE
  8
21
 66
1
 10
0.0000
 20
0.0000
 30
0.0000
 40
0.0635
 41
0.0635
 70
0
  0
VERTEX
  8
21
 10
2.8025
 20
19.1025
 30
0.0000
 42
1.0000
  0
VERTEX
  8
21
 10
2.7575
 20
19.1475
 30
0.0000
  0
SEQEND
  8
0
  0
POLYLINE
  8
21
 66
1
 10
0.0000
 20
0.0000
 30
0.0000
 40
0.1270
 41
0.1270
 70
0
  0
VERTEX
  8
21
 10
2.1450
 20
18.4900
 30
0.0000
  0
VERTEX
  8
21
 10
2.7800
 20
17.8550
 30
0.0000
  0
SEQEND
  8
0
  0
POLYLINE
  8
21
 66
1
 10
0.0000
 20
0.0000
 30
0.0000
 40
0.0635
 41
0.0635
 70
0
  0
VERTEX
  8
21
 10
2.7575
 20
17.8325
 30
0.0000
 42
1.0000
  0
VERTEX
  8
21
 10
2.8025
 20
17.8775
 30
0.0000
  0
SEQEND
  8
0
  0
POLYLINE
  8
21
 66
1
 10
0.0000
 20
0.0000
 30
0.0000
 40
0.0635
 41
0.0635
 70
0
  0
VERTEX
  8
21
 10
2.1675
 20
18.5125
 30
0.0000
 42
1.0000
  0
VERTEX
  8
21
 10
2.1225
 20
18.4675
 30
0.0000
  0
SEQEND
  8
0
  0
POLYLINE
  8
21
 66
1
 10
0.0000
 20
0.0000
 30
0.0000
 40
0.1270
 41
0.1270
 70
0
  0
VERTEX
  8
21
 10
2.7800
 20
17.8550
 30
0.0000
  0
VERTEX
  8
21
 10
2.7800
 20
16.5850
 30
0.0000
  0
SEQEND
  8
0
  0
POLYLINE
  8
21
 66
1
 10
0.0000
 20
0.0000
 30
0.0000
 40
0.0635
 41
0.0635
 70
0
  0
VERTEX
  8
21
 10
2.7483
 20
16.5850
 30
0.0000
 42
1.0000
  0
VERTEX
  8
21
 10
2.8118
 20
16.5850
 30
0.0000
  0
SEQEND
  8
0
  0
POLYLINE
  8
21
 66
1
 10
0.0000
 20
0.0000
 30
0.0000
 40
0.0635
 41
0.0635
 70
0
  0
VERTEX
  8
21
 10
2.8118
 20
17.8550
 30
0.0000
 42
1.0000
  0
VERTEX
  8
21
 10
2.7483
 20
17.8550
 30
0.0000
  0
SEQEND
  8
0
  0
POLYLINE
  8
21
 66
1
 10
0.0000
 20
0.0000
 30
0.0000
 40
0.1270
 41
0.1270
 70
0
  0
VERTEX
  8
21
 10
2.7800
 20
16.5850
 30
0.0000
  0
VERTEX
  8
21
 10
2.1450
 20
15.9500
 30
0.0000
  0
SEQEND
  8
0
  0
POLYLINE
  8
21
 66
1
 10
0.0000
 20
0.0000
 30
0.0000
 40
0.0635
 41
0.0635
 70
0
  0
VERTEX
  8
21
 10
2.1225
 20
15.9725
 30
0.0000
 42
1.0000
  0
VERTEX
  8
21
 10
2.1675
 20
15.9275
 30
0.0000
  0
SEQEND
  8
0
  0
POLYLINE
  8
21
 66
1
 10
0.0000
 20
0.0000
 30
0.0000
 40
0.0635
 41
0.0635
 70
0
  0
VERTEX
  8
21
 10
2.8025
 20
16.5625
 30
0.0000
 42
1.0000
  0
VERTEX
  8
21
 10
2.7575
 20
16.6075
 30
0.0000
  0
SEQEND
  8
0
  0
POLYLINE
  8
21
 66
1
 10
0.0000
 20
0.0000
 30
0.0000
 40
0.1270
 41
0.1270
 70
0
  0
VERTEX
  8
21
 10
2.1450
 20
15.9500
 30
0.0000
  0
VERTEX
  8
21
 10
2.7800
 20
15.3150
 30
0.0000
  0
SEQEND
  8
0
  0
POLYLINE
  8
21
 66
1
 10
0.0000
 20
0.0000
 30
0.0000
 40
0.0635
 41
0.0635
 70
0
  0
VERTEX
  8
21
 10
2.7575
 20
15.2925
 30
0.0000
 42
1.0000
  0
VERTEX
  8
21
 10
2.8025
 20
15.3375
 30
0.0000
  0
SEQEND
  8
0
  0
POLYLINE
  8
21
 66
1
 10
0.0000
 20
0.0000
 30
0.0000
 40
0.0635
 41
0.0635
 70
0
  0
VERTEX
  8
21
 10
2.1675
 20
15.9725
 30
0.0000
 42
1.0000
  0
VERTEX
  8
21
 10
2.1225
 20
15.9275
 30
0.0000
  0
SEQEND
  8
0
  0
POLYLINE
  8
21
 66
1
 10
0.0000
 20
0.0000
 30
0.0000
 40
0.1270
 41
0.1270
 70
0
  0
VERTEX
  8
21
 10
2.7800
 20
15.3150
 30
0.0000
  0
VERTEX
  8
21
 10
2.7800
 20
14.0450
 30
0.0000
  0
SEQEND
  8
0
  0
POLYLINE
  8
21
 66
1
 10
0.0000
 20
0.0000
 30
0.0000
 40
0.0635
 41
0.0635
 70
0
  0
VERTEX
  8
21
 10
2.7483
 20
14.0450
 30
0.0000
 42
1.0000
  0
VERTEX
  8
21
 10
2.8118
 20
14.0450
 30
0.0000
  0
SEQEND
  8
0
  0
POLYLINE
  8
21
 66
1
 10
0.0000
 20
0.0000
 30
0.0000
 40
0.0635
 41
0.0635
 70
0
  0
VERTEX
  8
21
 10
2.8118
 20
15.3150
 30
0.0000
 42
1.0000
  0
VERTEX
  8
21
 10
2.7483
 20
15.3150
 30
0.0000
  0
SEQEND
  8
0
  0
POLYLINE
  8
21
 66
1
 10
0.0000
 20
0.0000
 30
0.0000
 40
0.1270
 41
0.1270
 70
0
  0
VERTEX
  8
21
 10
2.7800
 20
14.0450
 30
0.0000
  0
VERTEX
  8
21
 10
2.1450
 20
13.4100
 30
0.0000
  0
SEQEND
  8
0
  0
POLYLINE
  8
21
 66
1
 10
0.0000
 20
0.0000
 30
0.0000
 40
0.0635
 41
0.0635
 70
0
  0
VERTEX
  8
21
 10
2.1225
 20
13.4325
 30
0.0000
 42
1.0000
  0
VERTEX
  8
21
 10
2.1675
 20
13.3875
 30
0.0000
  0
SEQEND
  8
0
  0
POLYLINE
  8
21
 66
1
 10
0.0000
 20
0.0000
 30
0.0000
 40
0.0635
 41
0.0635
 70
0
  0
VERTEX
  8
21
 10
2.8025
 20
14.0225
 30
0.0000
 42
1.0000
  0
VERTEX
  8
21
 10
2.7575
 20
14.0675
 30
0.0000
  0
SEQEND
  8
0
  0
POLYLINE
  8
21
 66
1
 10
0.0000
 20
0.0000
 30
0.0000
 40
0.1270
 41
0.1270
 70
0
  0
VERTEX
  8
21
 10
2.1450
 20
13.4100
 30
0.0000
  0
VERTEX
  8
21
 10
2.7800
 20
12.7750
 30
0.0000
  0
SEQEND
  8
0
  0
POLYLINE
  8
21
 66
1
 10
0.0000
 20
0.0000
 30
0.0000
 40
0.0635
 41
0.0635
 70
0
  0
VERTEX
  8
21
 10
2.7575
 20
12.7525
 30
0.0000
 42
1.0000
  0
VERTEX
  8
21
 10
2.8025
 20
12.7975
 30
0.0000
  0
SEQEND
  8
0
  0
POLYLINE
  8
21
 66
1
 10
0.0000
 20
0.0000
 30
0.0000
 40
0.0635
 41
0.0635
 70
0
  0
VERTEX
  8
21
 10
2.1675
 20
13.4325
 30
0.0000
 42
1.0000
  0
VERTEX
  8
21
 10
2.1225
 20
13.3875
 30
0.0000
  0
SEQEND
  8
0
  0
POLYLINE
  8
21
 66
1
 10
0.0000
 20
0.0000
 30
0.0000
 40
0.1270
 41
0.1270
 70
0
  0
VERTEX
  8
21
 10
2.7800
 20
12.7750
 30
0.0000
  0
VERTEX
  8
21
 10
2.7800
 20
11.5050
 30
0.0000
  0
SEQEND
  8
0
  0
POLYLINE
  8
21
 66
1
 10
0.0000
 20
0.0000
 30
0.0000
 40
0.0635
 41
0.0635
 70
0
  0
VERTEX
  8
21
 10
2.7483
 20
11.5050
 30
0.0000
 42
1.0000
  0
VERTEX
  8
21
 10
2.8118
 20
11.5050
 30
0.0000
  0
SEQEND
  8
0
  0
POLYLINE
  8
21
 66
1
 10
0.0000
 20
0.0000
 30
0.0000
 40
0.0635
 41
0.0635
 70
0
  0
VERTEX
  8
21
 10
2.8118
 20
12.7750
 30
0.0000
 42
1.0000
  0
VERTEX
  8
21
 10
2.7483
 20
12.7750
 30
0.0000
  0
SEQEND
  8
0
  0
POLYLINE
  8
21
 66
1
 10
0.0000
 20
0.0000
 30
0.0000
 40
0.1270
 41
0.1270
 70
0
  0
VERTEX
  8
21
 10
2.7800
 20
11.5050
 30
0.0000
  0
VERTEX
  8
21
 10
2.1450
 20
10.8700
 30
0.0000
  0
SEQEND
  8
0
  0
POLYLINE
  8
21
 66
1
 10
0.0000
 20
0.0000
 30
0.0000
 40
0.0635
 41
0.0635
 70
0
  0
VERTEX
  8
21
 10
2.1225
 20
10.8925
 30
0.0000
 42
1.0000
  0
VERTEX
  8
21
 10
2.1675
 20
10.8475
 30
0.0000
  0
SEQEND
  8
0
  0
POLYLINE
  8
21
 66
1
 10
0.0000
 20
0.0000
 30
0.0000
 40
0.0635
 41
0.0635
 70
0
  0
VERTEX
  8
21
 10
2.8025
 20
11.4825
 30
0.0000
 42
1.0000
  0
VERTEX
  8
21
 10
2.7575
 20
11.5275
 30
0.0000
  0
SEQEND
  8
0
  0
POLYLINE
  8
21
 66
1
 10
0.0000
 20
0.0000
 30
0.0000
 40
0.1270
 41
0.1270
 70
0
  0
VERTEX
  8
21
 10
2.1450
 20
10.8700
 30
0.0000
  0
VERTEX
  8
21
 10
2.7800
 20
10.2350
 30
0.0000
  0
SEQEND
  8
0
  0
POLYLINE
  8
21
 66
1
 10
0.0000
 20
0.0000
 30
0.0000
 40
0.0635
 41
0.0635
 70
0
  0
VERTEX
  8
21
 10
2.7575
 20
10.2125
 30
0.0000
 42
1.0000
  0
VERTEX
  8
21
 10
2.8025
 20
10.2575
 30
0.0000
  0
SEQEND
  8
0
  0
POLYLINE
  8
21
 66
1
 10
0.0000
 20
0.0000
 30
0.0000
 40
0.0635
 41
0.0635
 70
0
  0
VERTEX
  8
21
 10
2.1675
 20
10.8925
 30
0.0000
 42
1.0000
  0
VERTEX
  8
21
 10
2.1225
 20
10.8475
 30
0.0000
  0
SEQEND
  8
0
  0
POLYLINE
  8
21
 66
1
 10
0.0000
 20
0.0000
 30
0.0000
 40
0.1270
 41
0.1270
 70
0
  0
VERTEX
  8
21
 10
2.7800
 20
10.2350
 30
0.0000
  0
VERTEX
  8
21
 10
2.7800
 20
8.9650
 30
0.0000
  0
SEQEND
  8
0
  0
POLYLINE
  8
21
 66
1
 10
0.0000
 20
0.0000
 30
0.0000
 40
0.0635
 41
0.0635
 70
0
  0
VERTEX
  8
21
 10
2.7483
 20
8.9650
 30
0.0000
 42
1.0000
  0
VERTEX
  8
21
 10
2.8118
 20
8.9650
 30
0.0000
  0
SEQEND
  8
0
  0
POLYLINE
  8
21
 66
1
 10
0.0000
 20
0.0000
 30
0.0000
 40
0.0635
 41
0.0635
 70
0
  0
VERTEX
  8
21
 10
2.8118
 20
10.2350
 30
0.0000
 42
1.0000
  0
VERTEX
  8
21
 10
2.7483
 20
10.2350
 30
0.0000
  0
SEQEND
  8
0
  0
POLYLINE
  8
21
 66
1
 10
0.0000
 20
0.0000
 30
0.0000
 40
0.1270
 41
0.1270
 70
0
  0
VERTEX
  8
21
 10
2.7800
 20
8.9650
 30
0.0000
  0
VERTEX
  8
21
 10
2.1450
 20
8.3300
 30
0.0000
  0
SEQEND
  8
0
  0
POLYLINE
  8
21
 66
1
 10
0.0000
 20
0.0000
 30
0.0000
 40
0.0635
 41
0.0635
 70
0
  0
VERTEX
  8
21
 10
2.1225
 20
8.3525
 30
0.0000
 42
1.0000
  0
VERTEX
  8
21
 10
2.1675
 20
8.3075
 30
0.0000
  0
SEQEND
  8
0
  0
POLYLINE
  8
21
 66
1
 10
0.0000
 20
0.0000
 30
0.0000
 40
0.0635
 41
0.0635
 70
0
  0
VERTEX
  8
21
 10
2.8025
 20
8.9425
 30
0.0000
 42
1.0000
  0
VERTEX
  8
21
 10
2.7575
 20
8.9875
 30
0.0000
  0
SEQEND
  8
0
  0
POLYLINE
  8
21
 66
1
 10
0.0000
 20
0.0000
 30
0.0000
 40
0.1270
 41
0.1270
 70
0
  0
VERTEX
  8
21
 10
2.1450
 20
8.3300
 30
0.0000
  0
VERTEX
  8
21
 10
2.7800
 20
7.6950
 30
0.0000
  0
SEQEND
  8
0
  0
POLYLINE
  8
21
 66
1
 10
0.0000
 20
0.0000
 30
0.0000
 40
0.0635
 41
0.0635
 70
0
  0
VERTEX
  8
21
 10
2.7575
 20
7.6725
 30
0.0000
 42
1.0000
  0
VERTEX
  8
21
 10
2.8025
 20
7.7175
 30
0.0000
  0
SEQEND
  8
0
  0
POLYLINE
  8
21
 66
1
 10
0.0000
 20
0.0000
 30
0.0000
 40
0.0635
 41
0.0635
 70
0
  0
VERTEX
  8
21
 10
2.1675
 20
8.3525
 30
0.0000
 42
1.0000
  0
VERTEX
  8
21
 10
2.1225
 20
8.3075
 30
0.0000
  0
SEQEND
  8
0
  0
POLYLINE
  8
21
 66
1
 10
0.0000
 20
0.0000
 30
0.0000
 40
0.1270
 41
0.1270
 70
0
  0
VERTEX
  8
21
 10
2.7800
 20
7.6950
 30
0.0000
  0
VERTEX
  8
21
 10
2.7800
 20
6.4250
 30
0.0000
  0
SEQEND
  8
0
  0
POLYLINE
  8
21
 66
1
 10
0.0000
 20
0.0000
 30
0.0000
 40
0.0635
 41
0.0635
 70
0
  0
VERTEX
  8
21
 10
2.7483
 20
6.4250
 30
0.0000
 42
1.0000
  0
VERTEX
  8
21
 10
2.8118
 20
6.4250
 30
0.0000
  0
SEQEND
  8
0
  0
POLYLINE
  8
21
 66
1
 10
0.0000
 20
0.0000
 30
0.0000
 40
0.0635
 41
0.0635
 70
0
  0
VERTEX
  8
21
 10
2.8118
 20
7.6950
 30
0.0000
 42
1.0000
  0
VERTEX
  8
21
 10
2.7483
 20
7.6950
 30
0.0000
  0
SEQEND
  8
0
  0
POLYLINE
  8
21
 66
1
 10
0.0000
 20
0.0000
 30
0.0000
 40
0.1270
 41
0.1270
 70
0
  0
VERTEX
  8
21
 10
2.7800
 20
6.4250
 30
0.0000
  0
VERTEX
  8
21
 10
2.1450
 20
5.7900
 30
0.0000
  0
SEQEND
  8
0
  0
POLYLINE
  8
21
 66
1
 10
0.0000
 20
0.0000
 30
0.0000
 40
0.0635
 41
0.0635
 70
0
  0
VERTEX
  8
21
 10
2.1225
 20
5.8125
 30
0.0000
 42
1.0000
  0
VERTEX
  8
21
 10
2.1675
 20
5.7675
 30
0.0000
  0
SEQEND
  8
0
  0
POLYLINE
  8
21
 66
1
 10
0.0000
 20
0.0000
 30
0.0000
 40
0.0635
 41
0.0635
 70
0
  0
VERTEX
  8
21
 10
2.8025
 20
6.4025
 30
0.0000
 42
1.0000
  0
VERTEX
  8
21
 10
2.7575
 20
6.4475
 30
0.0000
  0
SEQEND
  8
0
  0
POLYLINE
  8
21
 66
1
 10
0.0000
 20
0.0000
 30
0.0000
 40
0.1270
 41
0.1270
 70
0
  0
VERTEX
  8
21
 10
2.1450
 20
5.7900
 30
0.0000
  0
VERTEX
  8
21
 10
2.7800
 20
5.1550
 30
0.0000
  0
SEQEND
  8
0
  0
POLYLINE
  8
21
 66
1
 10
0.0000
 20
0.0000
 30
0.0000
 40
0.0635
 41
0.0635
 70
0
  0
VERTEX
  8
21
 10
2.7575
 20
5.1325
 30
0.0000
 42
1.0000
  0
VERTEX
  8
21
 10
2.8025
 20
5.1775
 30
0.0000
  0
SEQEND
  8
0
  0
POLYLINE
  8
21
 66
1
 10
0.0000
 20
0.0000
 30
0.0000
 40
0.0635
 41
0.0635
 70
0
  0
VERTEX
  8
21
 10
2.1675
 20
5.8125
 30
0.0000
 42
1.0000
  0
VERTEX
  8
21
 10
2.1225
 20
5.7675
 30
0.0000
  0
SEQEND
  8
0
  0
POLYLINE
  8
21
 66
1
 10
0.0000
 20
0.0000
 30
0.0000
 40
0.1270
 41
0.1270
 70
0
  0
VERTEX
  8
21
 10
2.7800
 20
5.1550
 30
0.0000
  0
VERTEX
  8
21
 10
2.7800
 20
3.8850
 30
0.0000
  0
SEQEND
  8
0
  0
POLYLINE
  8
21
 66
1
 10
0.0000
 20
0.0000
 30
0.0000
 40
0.0635
 41
0.0635
 70
0
  0
VERTEX
  8
21
 10
2.7483
 20
3.8850
 30
0.0000
 42
1.0000
  0
VERTEX
  8
21
 10
2.8118
 20
3.8850
 30
0.0000
  0
SEQEND
  8
0
  0
POLYLINE
  8
21
 66
1
 10
0.0000
 20
0.0000
 30
0.0000
 40
0.0635
 41
0.0635
 70
0
  0
VERTEX
  8
21
 10
2.8118
 20
5.1550
 30
0.0000
 42
1.0000
  0
VERTEX
  8
21
 10
2.7483
 20
5.1550
 30
0.0000
  0
SEQEND
  8
0
  0
POLYLINE
  8
21
 66
1
 10
0.0000
 20
0.0000
 30
0.0000
 40
0.1270
 41
0.1270
 70
0
  0
VERTEX
  8
21
 10
2.7800
 20
3.8850
 30
0.0000
  0
VERTEX
  8
21
 10
2.1450
 20
3.2500
 30
0.0000
  0
SEQEND
  8
0
  0
POLYLINE
  8
21
 66
1
 10
0.0000
 20
0.0000
 30
0.0000
 40
0.0635
 41
0.0635
 70
0
  0
VERTEX
  8
21
 10
2.1225
 20
3.2725
 30
0.0000
 42
1.0000
  0
VERTEX
  8
21
 10
2.1675
 20
3.2275
 30
0.0000
  0
SEQEND
  8
0
  0
POLYLINE
  8
21
 66
1
 10
0.0000
 20
0.0000
 30
0.0000
 40
0.0635
 41
0.0635
 70
0
  0
VERTEX
  8
21
 10
2.8025
 20
3.8625
 30
0.0000
 42
1.0000
  0
VERTEX
  8
21
 10
2.7575
 20
3.9075
 30
0.0000
  0
SEQEND
  8
0
  0
POLYLINE
  8
21
 66
1
 10
0.0000
 20
0.0000
 30
0.0000
 40
0.1270
 41
0.1270
 70
0
  0
VERTEX
  8
21
 10
2.1450
 20
3.2500
 30
0.0000
  0
VERTEX
  8
21
 10
2.7800
 20
2.6150
 30
0.0000
  0
SEQEND
  8
0
  0
POLYLINE
  8
21
 66
1
 10
0.0000
 20
0.0000
 30
0.0000
 40
0.0635
 41
0.0635
 70
0
  0
VERTEX
  8
21
 10
2.7575
 20
2.5925
 30
0.0000
 42
1.0000
  0
VERTEX
  8
21
 10
2.8025
 20
2.6375
 30
0.0000
  0
SEQEND
  8
0
  0
POLYLINE
  8
21
 66
1
 10
0.0000
 20
0.0000
 30
0.0000
 40
0.0635
 41
0.0635
 70
0
  0
VERTEX
  8
21
 10
2.1675
 20
3.2725
 30
0.0000
 42
1.0000
  0
VERTEX
  8
21
 10
2.1225
 20
3.2275
 30
0.0000
  0
SEQEND
  8
0
  0
POLYLINE
  8
21
 66
1
 10
0.0000
 20
0.0000
 30
0.0000
 40
0.1270
 41
0.1270
 70
0
  0
VERTEX
  8
21
 10
2.7800
 20
2.6150
 30
0.0000
  0
VERTEX
  8
21
 10
2.7800
 20
1.3450
 30
0.0000
  0
SEQEND
  8
0
  0
POLYLINE
  8
21
 66
1
 10
0.0000
 20
0.0000
 30
0.0000
 40
0.0635
 41
0.0635
 70
0
  0
VERTEX
  8
21
 10
2.7483
 20
1.3450
 30
0.0000
 42
1.0000
  0
VERTEX
  8
21
 10
2.8118
 20
1.3450
 30
0.0000
  0
SEQEND
  8
0
  0
POLYLINE
  8
21
 66
1
 10
0.0000
 20
0.0000
 30
0.0000
 40
0.0635
 41
0.0635
 70
0
  0
VERTEX
  8
21
 10
2.8118
 20
2.6150
 30
0.0000
 42
1.0000
  0
VERTEX
  8
21
 10
2.7483
 20
2.6150
 30
0.0000
  0
SEQEND
  8
0
  0
POLYLINE
  8
21
 66
1
 10
0.0000
 20
0.0000
 30
0.0000
 40
0.1270
 41
0.1270
 70
0
  0
VERTEX
  8
21
 10
7.6050
 20
0.1600
 30
0.0000
  0
VERTEX
  8
21
 10
6.9700
 20
0.7950
 30
0.0000
  0
SEQEND
  8
0
  0
POLYLINE
  8
21
 66
1
 10
0.0000
 20
0.0000
 30
0.0000
 40
0.0635
 41
0.0635
 70
0
  0
VERTEX
  8
21
 10
6.9925
 20
0.8175
 30
0.0000
 42
1.0000
  0
VERTEX
  8
21
 10
6.9475
 20
0.7725
 30
0.0000
  0
SEQEND
  8
0
  0
POLYLINE
  8
21
 66
1
 10
0.0000
 20
0.0000
 30
0.0000
 40
0.0635
 41
0.0635
 70
0
  0
VERTEX
  8
21
 10
7.5825
 20
0.1375
 30
0.0000
 42
1.0000
  0
VERTEX
  8
21
 10
7.6275
 20
0.1825
 30
0.0000
  0
SEQEND
  8
0
  0
POLYLINE
  8
21
 66
1
 10
0.0000
 20
0.0000
 30
0.0000
 40
0.1270
 41
0.1270
 70
0
  0
VERTEX
  8
21
 10
6.9700
 20
0.7950
 30
0.0000
  0
VERTEX
  8
21
 10
6.9700
 20
2.0650
 30
0.0000
  0
SEQEND
  8
0
  0
POLYLINE
  8
21
 66
1
 10
0.0000
 20
0.0000
 30
0.0000
 40
0.0635
 41
0.0635
 70
0
  0
VERTEX
  8
21
 10
7.0018
 20
2.0650
 30
0.0000
 42
1.0000
  0
VERTEX
  8
21
 10
6.9383
 20
2.0650
 30
0.0000
  0
SEQEND
  8
0
  0
POLYLINE
  8
21
 66
1
 10
0.0000
 20
0.0000
 30
0.0000
 40
0.0635
 41
0.0635
 70
0
  0
VERTEX
  8
21
 10
6.9383
 20
0.7950
 30
0.0000
 42
1.0000
  0
VERTEX
  8
21
 10
7.0018
 20
0.7950
 30
0.0000
  0
SEQEND
  8
0
  0
POLYLINE
  8
21
 66
1
 10
0.0000
 20
0.0000
 30
0.0000
 40
0.1270
 41
0.1270
 70
0
  0
VERTEX
  8
21
 10
6.9700
 20
2.0650
 30
0.0000
  0
VERTEX
  8
21
 10
7.6050
 20
2.7000
 30
0.0000
  0
SEQEND
  8
0
  0
POLYLINE
  8
21
 66
1
 10
0.0000
 20
0.0000
 30
0.0000
 40
0.0635
 41
0.0635
 70
0
  0
VERTEX
  8
21
 10
7.6275
 20
2.6775
 30
0.0000
 42
1.0000
  0
VERTEX
  8
21
 10
7.5825
 20
2.7225
 30
0.0000
  0
SEQEND
  8
0
  0
POLYLINE
  8
21
 66
1
 10
0.0000
 20
0.0000
 30
0.0000
 40
0.0635
 41
0.0635
 70
0
  0
VERTEX
  8
21
 10
6.9475
 20
2.0875
 30
0.0000
 42
1.0000
  0
VERTEX
  8
21
 10
6.9925
 20
2.0425
 30
0.0000
  0
SEQEND
  8
0
  0
POLYLINE
  8
21
 66
1
 10
0.0000
 20
0.0000
 30
0.0000
 40
0.1270
 41
0.1270
 70
0
  0
VERTEX
  8
21
 10
26.6550
 20
2.7000
 30
0.0000
  0
VERTEX
  8
21
 10
27.2900
 20
2.0650
 30
0.0000
  0
SEQEND
  8
0
  0
POLYLINE
  8
21
 66
1
 10
0.0000
 20
0.0000
 30
0.0000
 40
0.0635
 41
0.0635
 70
0
  0
VERTEX
  8
21
 10
27.2675
 20
2.0425
 30
0.0000
 42
1.0000
  0
VERTEX
  8
21
 10
27.3125
 20
2.0875
 30
0.0000
  0
SEQEND
  8
0
  0
POLYLINE
  8
21
 66
1
 10
0.0000
 20
0.0000
 30
0.0000
 40
0.0635
 41
0.0635
 70
0
  0
VERTEX
  8
21
 10
26.6775
 20
2.7225
 30
0.0000
 42
1.0000
  0
VERTEX
  8
21
 10
26.6325
 20
2.6775
 30
0.0000
  0
SEQEND
  8
0
  0
POLYLINE
  8
21
 66
1
 10
0.0000
 20
0.0000
 30
0.0000
 40
0.1270
 41
0.1270
 70
0
  0
VERTEX
  8
21
 10
27.2900
 20
2.0650
 30
0.0000
  0
VERTEX
  8
21
 10
27.2900
 20
0.7950
 30
0.0000
  0
SEQEND
  8
0
  0
POLYLINE
  8
21
 66
1
 10
0.0000
 20
0.0000
 30
0.0000
 40
0.0635
 41
0.0635
 70
0
  0
VERTEX
  8
21
 10
27.2583
 20
0.7950
 30
0.0000
 42
1.0000
  0
VERTEX
  8
21
 10
27.3218
 20
0.7950
 30
0.0000
  0
SEQEND
  8
0
  0
POLYLINE
  8
21
 66
1
 10
0.0000
 20
0.0000
 30
0.0000
 40
0.0635
 41
0.0635
 70
0
  0
VERTEX
  8
21
 10
27.3218
 20
2.0650
 30
0.0000
 42
1.0000
  0
VERTEX
  8
21
 10
27.2583
 20
2.0650
 30
0.0000
  0
SEQEND
  8
0
  0
POLYLINE
  8
21
 66
1
 10
0.0000
 20
0.0000
 30
0.0000
 40
0.1270
 41
0.1270
 70
0
  0
VERTEX
  8
21
 10
27.2900
 20
0.7950
 30
0.0000
  0
VERTEX
  8
21
 10
26.6550
 20
0.1600
 30
0.0000
  0
SEQEND
  8
0
  0
POLYLINE
  8
21
 66
1
 10
0.0000
 20
0.0000
 30
0.0000
 40
0.0635
 41
0.0635
 70
0
  0
VERTEX
  8
21
 10
26.6325
 20
0.1825
 30
0.0000
 42
1.0000
  0
VERTEX
  8
21
 10
26.6775
 20
0.1375
 30
0.0000
  0
SEQEND
  8
0
  0
POLYLINE
  8
21
 66
1
 10
0.0000
 20
0.0000
 30
0.0000
 40
0.0635
 41
0.0635
 70
0
  0
VERTEX
  8
21
 10
27.3125
 20
0.7725
 30
0.0000
 42
1.0000
  0
VERTEX
  8
21
 10
27.2675
 20
0.8175
 30
0.0000
  0
SEQEND
  8
0
  0
POLYLINE
  8
21
 66
1
 10
0.0000
 20
0.0000
 30
0.0000
 40
0.1270
 41
0.1270
 70
0
  0
VERTEX
  8
21
 10
26.6550
 20
0.1600
 30
0.0000
  0
VERTEX
  8
21
 10
25.3850
 20
0.1600
 30
0.0000
  0
SEQEND
  8
0
  0
POLYLINE
  8
21
 66
1
 10
0.0000
 20
0.0000
 30
0.0000
 40
0.0635
 41
0.0635
 70
0
  0
VERTEX
  8
21
 10
25.3850
 20
0.1918
 30
0.0000
 42
1.0000
  0
VERTEX
  8
21
 10
25.3850
 20
0.1283
 30
0.0000
  0
SEQEND
  8
0
  0
POLYLINE
  8
21
 66
1
 10
0.0000
 20
0.0000
 30
0.0000
 40
0.0635
 41
0.0635
 70
0
  0
VERTEX
  8
21
 10
26.6550
 20
0.1283
 30
0.0000
 42
1.0000
  0
VERTEX
  8
21
 10
26.6550
 20
0.1918
 30
0.0000
  0
SEQEND
  8
0
  0
POLYLINE
  8
21
 66
1
 10
0.0000
 20
0.0000
 30
0.0000
 40
0.1270
 41
0.1270
 70
0
  0
VERTEX
  8
21
 10
25.3850
 20
0.1600
 30
0.0000
  0
VERTEX
  8
21
 10
24.7500
 20
0.7950
 30
0.0000
  0
SEQEND
  8
0
  0
POLYLINE
  8
21
 66
1
 10
0.0000
 20
0.0000
 30
0.0000
 40
0.0635
 41
0.0635
 70
0
  0
VERTEX
  8
21
 10
24.7725
 20
0.8175
 30
0.0000
 42
1.0000
  0
VERTEX
  8
21
 10
24.7275
 20
0.7725
 30
0.0000
  0
SEQEND
  8
0
  0
POLYLINE
  8
21
 66
1
 10
0.0000
 20
0.0000
 30
0.0000
 40
0.0635
 41
0.0635
 70
0
  0
VERTEX
  8
21
 10
25.3625
 20
0.1375
 30
0.0000
 42
1.0000
  0
VERTEX
  8
21
 10
25.4075
 20
0.1825
 30
0.0000
  0
SEQEND
  8
0
  0
POLYLINE
  8
21
 66
1
 10
0.0000
 20
0.0000
 30
0.0000
 40
0.1270
 41
0.1270
 70
0
  0
VERTEX
  8
21
 10
24.7500
 20
0.7950
 30
0.0000
  0
VERTEX
  8
21
 10
24.1150
 20
0.1600
 30
0.0000
  0
SEQEND
  8
0
  0
POLYLINE
  8
21
 66
1
 10
0.0000
 20
0.0000
 30
0.0000
 40
0.0635
 41
0.0635
 70
0
  0
VERTEX
  8
21
 10
24.0925
 20
0.1825
 30
0.0000
 42
1.0000
  0
VERTEX
  8
21
 10
24.1375
 20
0.1375
 30
0.0000
  0
SEQEND
  8
0
  0
POLYLINE
  8
21
 66
1
 10
0.0000
 20
0.0000
 30
0.0000
 40
0.0635
 41
0.0635
 70
0
  0
VERTEX
  8
21
 10
24.7725
 20
0.7725
 30
0.0000
 42
1.0000
  0
VERTEX
  8
21
 10
24.7275
 20
0.8175
 30
0.0000
  0
SEQEND
  8
0
  0
POLYLINE
  8
21
 66
1
 10
0.0000
 20
0.0000
 30
0.0000
 40
0.1270
 41
0.1270
 70
0
  0
VERTEX
  8
21
 10
24.1150
 20
0.1600
 30
0.0000
  0
VERTEX
  8
21
 10
22.8450
 20
0.1600
 30
0.0000
  0
SEQEND
  8
0
  0
POLYLINE
  8
21
 66
1
 10
0.0000
 20
0.0000
 30
0.0000
 40
0.0635
 41
0.0635
 70
0
  0
VERTEX
  8
21
 10
22.8450
 20
0.1918
 30
0.0000
 42
1.0000
  0
VERTEX
  8
21
 10
22.8450
 20
0.1283
 30
0.0000
  0
SEQEND
  8
0
  0
POLYLINE
  8
21
 66
1
 10
0.0000
 20
0.0000
 30
0.0000
 40
0.0635
 41
0.0635
 70
0
  0
VERTEX
  8
21
 10
24.1150
 20
0.1283
 30
0.0000
 42
1.0000
  0
VERTEX
  8
21
 10
24.1150
 20
0.1918
 30
0.0000
  0
SEQEND
  8
0
  0
POLYLINE
  8
21
 66
1
 10
0.0000
 20
0.0000
 30
0.0000
 40
0.1270
 41
0.1270
 70
0
  0
VERTEX
  8
21
 10
22.8450
 20
0.1600
 30
0.0000
  0
VERTEX
  8
21
 10
22.2100
 20
0.7950
 30
0.0000
  0
SEQEND
  8
0
  0
POLYLINE
  8
21
 66
1
 10
0.0000
 20
0.0000
 30
0.0000
 40
0.0635
 41
0.0635
 70
0
  0
VERTEX
  8
21
 10
22.2325
 20
0.8175
 30
0.0000
 42
1.0000
  0
VERTEX
  8
21
 10
22.1875
 20
0.7725
 30
0.0000
  0
SEQEND
  8
0
  0
POLYLINE
  8
21
 66
1
 10
0.0000
 20
0.0000
 30
0.0000
 40
0.0635
 41
0.0635
 70
0
  0
VERTEX
  8
21
 10
22.8225
 20
0.1375
 30
0.0000
 42
1.0000
  0
VERTEX
  8
21
 10
22.8675
 20
0.1825
 30
0.0000
  0
SEQEND
  8
0
  0
POLYLINE
  8
21
 66
1
 10
0.0000
 20
0.0000
 30
0.0000
 40
0.1270
 41
0.1270
 70
0
  0
VERTEX
  8
21
 10
22.2100
 20
0.7950
 30
0.0000
  0
VERTEX
  8
21
 10
21.5750
 20
0.1600
 30
0.0000
  0
SEQEND
  8
0
  0
POLYLINE
  8
21
 66
1
 10
0.0000
 20
0.0000
 30
0.0000
 40
0.0635
 41
0.0635
 70
0
  0
VERTEX
  8
21
 10
21.5525
 20
0.1825
 30
0.0000
 42
1.0000
  0
VERTEX
  8
21
 10
21.5975
 20
0.1375
 30
0.0000
  0
SEQEND
  8
0
  0
POLYLINE
  8
21
 66
1
 10
0.0000
 20
0.0000
 30
0.0000
 40
0.0635
 41
0.0635
 70
0
  0
VERTEX
  8
21
 10
22.2325
 20
0.7725
 30
0.0000
 42
1.0000
  0
VERTEX
  8
21
 10
22.1875
 20
0.8175
 30
0.0000
  0
SEQEND
  8
0
  0
POLYLINE
  8
21
 66
1
 10
0.0000
 20
0.0000
 30
0.0000
 40
0.1270
 41
0.1270
 70
0
  0
VERTEX
  8
21
 10
21.5750
 20
0.1600
 30
0.0000
  0
VERTEX
  8
21
 10
20.3050
 20
0.1600
 30
0.0000
  0
SEQEND
  8
0
  0
POLYLINE
  8
21
 66
1
 10
0.0000
 20
0.0000
 30
0.0000
 40
0.0635
 41
0.0635
 70
0
  0
VERTEX
  8
21
 10
20.3050
 20
0.1918
 30
0.0000
 42
1.0000
  0
VERTEX
  8
21
 10
20.3050
 20
0.1283
 30
0.0000
  0
SEQEND
  8
0
  0
POLYLINE
  8
21
 66
1
 10
0.0000
 20
0.0000
 30
0.0000
 40
0.0635
 41
0.0635
 70
0
  0
VERTEX
  8
21
 10
21.5750
 20
0.1283
 30
0.0000
 42
1.0000
  0
VERTEX
  8
21
 10
21.5750
 20
0.1918
 30
0.0000
  0
SEQEND
  8
0
  0
POLYLINE
  8
21
 66
1
 10
0.0000
 20
0.0000
 30
0.0000
 40
0.1270
 41
0.1270
 70
0
  0
VERTEX
  8
21
 10
20.3050
 20
0.1600
 30
0.0000
  0
VERTEX
  8
21
 10
19.6700
 20
0.7950
 30
0.0000
  0
SEQEND
  8
0
  0
POLYLINE
  8
21
 66
1
 10
0.0000
 20
0.0000
 30
0.0000
 40
0.0635
 41
0.0635
 70
0
  0
VERTEX
  8
21
 10
19.6925
 20
0.8175
 30
0.0000
 42
1.0000
  0
VERTEX
  8
21
 10
19.6475
 20
0.7725
 30
0.0000
  0
SEQEND
  8
0
  0
POLYLINE
  8
21
 66
1
 10
0.0000
 20
0.0000
 30
0.0000
 40
0.0635
 41
0.0635
 70
0
  0
VERTEX
  8
21
 10
20.2825
 20
0.1375
 30
0.0000
 42
1.0000
  0
VERTEX
  8
21
 10
20.3275
 20
0.1825
 30
0.0000
  0
SEQEND
  8
0
  0
POLYLINE
  8
21
 66
1
 10
0.0000
 20
0.0000
 30
0.0000
 40
0.1270
 41
0.1270
 70
0
  0
VERTEX
  8
21
 10
19.6700
 20
0.7950
 30
0.0000
  0
VERTEX
  8
21
 10
19.0350
 20
0.1600
 30
0.0000
  0
SEQEND
  8
0
  0
POLYLINE
  8
21
 66
1
 10
0.0000
 20
0.0000
 30
0.0000
 40
0.0635
 41
0.0635
 70
0
  0
VERTEX
  8
21
 10
19.0125
 20
0.1825
 30
0.0000
 42
1.0000
  0
VERTEX
  8
21
 10
19.0575
 20
0.1375
 30
0.0000
  0
SEQEND
  8
0
  0
POLYLINE
  8
21
 66
1
 10
0.0000
 20
0.0000
 30
0.0000
 40
0.0635
 41
0.0635
 70
0
  0
VERTEX
  8
21
 10
19.6925
 20
0.7725
 30
0.0000
 42
1.0000
  0
VERTEX
  8
21
 10
19.6475
 20
0.8175
 30
0.0000
  0
SEQEND
  8
0
  0
POLYLINE
  8
21
 66
1
 10
0.0000
 20
0.0000
 30
0.0000
 40
0.1270
 41
0.1270
 70
0
  0
VERTEX
  8
21
 10
19.0350
 20
0.1600
 30
0.0000
  0
VERTEX
  8
21
 10
17.7650
 20
0.1600
 30
0.0000
  0
SEQEND
  8
0
  0
POLYLINE
  8
21
 66
1
 10
0.0000
 20
0.0000
 30
0.0000
 40
0.0635
 41
0.0635
 70
0
  0
VERTEX
  8
21
 10
17.7650
 20
0.1918
 30
0.0000
 42
1.0000
  0
VERTEX
  8
21
 10
17.7650
 20
0.1283
 30
0.0000
  0
SEQEND
  8
0
  0
POLYLINE
  8
21
 66
1
 10
0.0000
 20
0.0000
 30
0.0000
 40
0.0635
 41
0.0635
 70
0
  0
VERTEX
  8
21
 10
19.0350
 20
0.1283
 30
0.0000
 42
1.0000
  0
VERTEX
  8
21
 10
19.0350
 20
0.1918
 30
0.0000
  0
SEQEND
  8
0
  0
POLYLINE
  8
21
 66
1
 10
0.0000
 20
0.0000
 30
0.0000
 40
0.1270
 41
0.1270
 70
0
  0
VERTEX
  8
21
 10
17.7650
 20
0.1600
 30
0.0000
  0
VERTEX
  8
21
 10
17.1300
 20
0.7950
 30
0.0000
  0
SEQEND
  8
0
  0
POLYLINE
  8
21
 66
1
 10
0.0000
 20
0.0000
 30
0.0000
 40
0.0635
 41
0.0635
 70
0
  0
VERTEX
  8
21
 10
17.1525
 20
0.8175
 30
0.0000
 42
1.0000
  0
VERTEX
  8
21
 10
17.1075
 20
0.7725
 30
0.0000
  0
SEQEND
  8
0
  0
POLYLINE
  8
21
 66
1
 10
0.0000
 20
0.0000
 30
0.0000
 40
0.0635
 41
0.0635
 70
0
  0
VERTEX
  8
21
 10
17.7425
 20
0.1375
 30
0.0000
 42
1.0000
  0
VERTEX
  8
21
 10
17.7875
 20
0.1825
 30
0.0000
  0
SEQEND
  8
0
  0
POLYLINE
  8
21
 66
1
 10
0.0000
 20
0.0000
 30
0.0000
 40
0.1270
 41
0.1270
 70
0
  0
VERTEX
  8
21
 10
17.1300
 20
0.7950
 30
0.0000
  0
VERTEX
  8
21
 10
16.4950
 20
0.1600
 30
0.0000
  0
SEQEND
  8
0
  0
POLYLINE
  8
21
 66
1
 10
0.0000
 20
0.0000
 30
0.0000
 40
0.0635
 41
0.0635
 70
0
  0
VERTEX
  8
21
 10
16.4725
 20
0.1825
 30
0.0000
 42
1.0000
  0
VERTEX
  8
21
 10
16.5175
 20
0.1375
 30
0.0000
  0
SEQEND
  8
0
  0
POLYLINE
  8
21
 66
1
 10
0.0000
 20
0.0000
 30
0.0000
 40
0.0635
 41
0.0635
 70
0
  0
VERTEX
  8
21
 10
17.1525
 20
0.7725
 30
0.0000
 42
1.0000
  0
VERTEX
  8
21
 10
17.1075
 20
0.8175
 30
0.0000
  0
SEQEND
  8
0
  0
POLYLINE
  8
21
 66
1
 10
0.0000
 20
0.0000
 30
0.0000
 40
0.1270
 41
0.1270
 70
0
  0
VERTEX
  8
21
 10
16.4950
 20
0.1600
 30
0.0000
  0
VERTEX
  8
21
 10
15.2250
 20
0.1600
 30
0.0000
  0
SEQEND
  8
0
  0
POLYLINE
  8
21
 66
1
 10
0.0000
 20
0.0000
 30
0.0000
 40
0.0635
 41
0.0635
 70
0
  0
VERTEX
  8
21
 10
15.2250
 20
0.1918
 30
0.0000
 42
1.0000
  0
VERTEX
  8
21
 10
15.2250
 20
0.1283
 30
0.0000
  0
SEQEND
  8
0
  0
POLYLINE
  8
21
 66
1
 10
0.0000
 20
0.0000
 30
0.0000
 40
0.0635
 41
0.0635
 70
0
  0
VERTEX
  8
21
 10
16.4950
 20
0.1283
 30
0.0000
 42
1.0000
  0
VERTEX
  8
21
 10
16.4950
 20
0.1918
 30
0.0000
  0
SEQEND
  8
0
  0
POLYLINE
  8
21
 66
1
 10
0.0000
 20
0.0000
 30
0.0000
 40
0.1270
 41
0.1270
 70
0
  0
VERTEX
  8
21
 10
15.2250
 20
0.1600
 30
0.0000
  0
VERTEX
  8
21
 10
14.5900
 20
0.7950
 30
0.0000
  0
SEQEND
  8
0
  0
POLYLINE
  8
21
 66
1
 10
0.0000
 20
0.0000
 30
0.0000
 40
0.0635
 41
0.0635
 70
0
  0
VERTEX
  8
21
 10
14.6125
 20
0.8175
 30
0.0000
 42
1.0000
  0
VERTEX
  8
21
 10
14.5675
 20
0.7725
 30
0.0000
  0
SEQEND
  8
0
  0
POLYLINE
  8
21
 66
1
 10
0.0000
 20
0.0000
 30
0.0000
 40
0.0635
 41
0.0635
 70
0
  0
VERTEX
  8
21
 10
15.2025
 20
0.1375
 30
0.0000
 42
1.0000
  0
VERTEX
  8
21
 10
15.2475
 20
0.1825
 30
0.0000
  0
SEQEND
  8
0
  0
POLYLINE
  8
21
 66
1
 10
0.0000
 20
0.0000
 30
0.0000
 40
0.1270
 41
0.1270
 70
0
  0
VERTEX
  8
21
 10
14.5900
 20
0.7950
 30
0.0000
  0
VERTEX
  8
21
 10
13.9550
 20
0.1600
 30
0.0000
  0
SEQEND
  8
0
  0
POLYLINE
  8
21
 66
1
 10
0.0000
 20
0.0000
 30
0.0000
 40
0.0635
 41
0.0635
 70
0
  0
VERTEX
  8
21
 10
13.9325
 20
0.1825
 30
0.0000
 42
1.0000
  0
VERTEX
  8
21
 10
13.9775
 20
0.1375
 30
0.0000
  0
SEQEND
  8
0
  0
POLYLINE
  8
21
 66
1
 10
0.0000
 20
0.0000
 30
0.0000
 40
0.0635
 41
0.0635
 70
0
  0
VERTEX
  8
21
 10
14.6125
 20
0.7725
 30
0.0000
 42
1.0000
  0
VERTEX
  8
21
 10
14.5675
 20
0.8175
 30
0.0000
  0
SEQEND
  8
0
  0
POLYLINE
  8
21
 66
1
 10
0.0000
 20
0.0000
 30
0.0000
 40
0.1270
 41
0.1270
 70
0
  0
VERTEX
  8
21
 10
13.9550
 20
0.1600
 30
0.0000
  0
VERTEX
  8
21
 10
12.6850
 20
0.1600
 30
0.0000
  0
SEQEND
  8
0
  0
POLYLINE
  8
21
 66
1
 10
0.0000
 20
0.0000
 30
0.0000
 40
0.0635
 41
0.0635
 70
0
  0
VERTEX
  8
21
 10
12.6850
 20
0.1918
 30
0.0000
 42
1.0000
  0
VERTEX
  8
21
 10
12.6850
 20
0.1283
 30
0.0000
  0
SEQEND
  8
0
  0
POLYLINE
  8
21
 66
1
 10
0.0000
 20
0.0000
 30
0.0000
 40
0.0635
 41
0.0635
 70
0
  0
VERTEX
  8
21
 10
13.9550
 20
0.1283
 30
0.0000
 42
1.0000
  0
VERTEX
  8
21
 10
13.9550
 20
0.1918
 30
0.0000
  0
SEQEND
  8
0
  0
POLYLINE
  8
21
 66
1
 10
0.0000
 20
0.0000
 30
0.0000
 40
0.1270
 41
0.1270
 70
0
  0
VERTEX
  8
21
 10
12.6850
 20
0.1600
 30
0.0000
  0
VERTEX
  8
21
 10
12.0500
 20
0.7950
 30
0.0000
  0
SEQEND
  8
0
  0
POLYLINE
  8
21
 66
1
 10
0.0000
 20
0.0000
 30
0.0000
 40
0.0635
 41
0.0635
 70
0
  0
VERTEX
  8
21
 10
12.0725
 20
0.8175
 30
0.0000
 42
1.0000
  0
VERTEX
  8
21
 10
12.0275
 20
0.7725
 30
0.0000
  0
SEQEND
  8
0
  0
POLYLINE
  8
21
 66
1
 10
0.0000
 20
0.0000
 30
0.0000
 40
0.0635
 41
0.0635
 70
0
  0
VERTEX
  8
21
 10
12.6625
 20
0.1375
 30
0.0000
 42
1.0000
  0
VERTEX
  8
21
 10
12.7075
 20
0.1825
 30
0.0000
  0
SEQEND
  8
0
  0
POLYLINE
  8
21
 66
1
 10
0.0000
 20
0.0000
 30
0.0000
 40
0.1270
 41
0.1270
 70
0
  0
VERTEX
  8
21
 10
12.0500
 20
0.7950
 30
0.0000
  0
VERTEX
  8
21
 10
11.4150
 20
0.1600
 30
0.0000
  0
SEQEND
  8
0
  0
POLYLINE
  8
21
 66
1
 10
0.0000
 20
0.0000
 30
0.0000
 40
0.0635
 41
0.0635
 70
0
  0
VERTEX
  8
21
 10
11.3925
 20
0.1825
 30
0.0000
 42
1.0000
  0
VERTEX
  8
21
 10
11.4375
 20
0.1375
 30
0.0000
  0
SEQEND
  8
0
  0
POLYLINE
  8
21
 66
1
 10
0.0000
 20
0.0000
 30
0.0000
 40
0.0635
 41
0.0635
 70
0
  0
VERTEX
  8
21
 10
12.0725
 20
0.7725
 30
0.0000
 42
1.0000
  0
VERTEX
  8
21
 10
12.0275
 20
0.8175
 30
0.0000
  0
SEQEND
  8
0
  0
POLYLINE
  8
21
 66
1
 10
0.0000
 20
0.0000
 30
0.0000
 40
0.1270
 41
0.1270
 70
0
  0
VERTEX
  8
21
 10
11.4150
 20
0.1600
 30
0.0000
  0
VERTEX
  8
21
 10
10.1450
 20
0.1600
 30
0.0000
  0
SEQEND
  8
0
  0
POLYLINE
  8
21
 66
1
 10
0.0000
 20
0.0000
 30
0.0000
 40
0.0635
 41
0.0635
 70
0
  0
VERTEX
  8
21
 10
10.1450
 20
0.1918
 30
0.0000
 42
1.0000
  0
VERTEX
  8
21
 10
10.1450
 20
0.1283
 30
0.0000
  0
SEQEND
  8
0
  0
POLYLINE
  8
21
 66
1
 10
0.0000
 20
0.0000
 30
0.0000
 40
0.0635
 41
0.0635
 70
0
  0
VERTEX
  8
21
 10
11.4150
 20
0.1283
 30
0.0000
 42
1.0000
  0
VERTEX
  8
21
 10
11.4150
 20
0.1918
 30
0.0000
  0
SEQEND
  8
0
  0
POLYLINE
  8
21
 66
1
 10
0.0000
 20
0.0000
 30
0.0000
 40
0.1270
 41
0.1270
 70
0
  0
VERTEX
  8
21
 10
10.1450
 20
0.1600
 30
0.0000
  0
VERTEX
  8
21
 10
9.5100
 20
0.7950
 30
0.0000
  0
SEQEND
  8
0
  0
POLYLINE
  8
21
 66
1
 10
0.0000
 20
0.0000
 30
0.0000
 40
0.0635
 41
0.0635
 70
0
  0
VERTEX
  8
21
 10
9.5325
 20
0.8175
 30
0.0000
 42
1.0000
  0
VERTEX
  8
21
 10
9.4875
 20
0.7725
 30
0.0000
  0
SEQEND
  8
0
  0
POLYLINE
  8
21
 66
1
 10
0.0000
 20
0.0000
 30
0.0000
 40
0.0635
 41
0.0635
 70
0
  0
VERTEX
  8
21
 10
10.1225
 20
0.1375
 30
0.0000
 42
1.0000
  0
VERTEX
  8
21
 10
10.1675
 20
0.1825
 30
0.0000
  0
SEQEND
  8
0
  0
POLYLINE
  8
21
 66
1
 10
0.0000
 20
0.0000
 30
0.0000
 40
0.1270
 41
0.1270
 70
0
  0
VERTEX
  8
21
 10
9.5100
 20
0.7950
 30
0.0000
  0
VERTEX
  8
21
 10
8.8750
 20
0.1600
 30
0.0000
  0
SEQEND
  8
0
  0
POLYLINE
  8
21
 66
1
 10
0.0000
 20
0.0000
 30
0.0000
 40
0.0635
 41
0.0635
 70
0
  0
VERTEX
  8
21
 10
8.8525
 20
0.1825
 30
0.0000
 42
1.0000
  0
VERTEX
  8
21
 10
8.8975
 20
0.1375
 30
0.0000
  0
SEQEND
  8
0
  0
POLYLINE
  8
21
 66
1
 10
0.0000
 20
0.0000
 30
0.0000
 40
0.0635
 41
0.0635
 70
0
  0
VERTEX
  8
21
 10
9.5325
 20
0.7725
 30
0.0000
 42
1.0000
  0
VERTEX
  8
21
 10
9.4875
 20
0.8175
 30
0.0000
  0
SEQEND
  8
0
  0
POLYLINE
  8
21
 66
1
 10
0.0000
 20
0.0000
 30
0.0000
 40
0.1270
 41
0.1270
 70
0
  0
VERTEX
  8
21
 10
8.8750
 20
0.1600
 30
0.0000
  0
VERTEX
  8
21
 10
7.6050
 20
0.1600
 30
0.0000
  0
SEQEND
  8
0
  0
POLYLINE
  8
21
 66
1
 10
0.0000
 20
0.0000
 30
0.0000
 40
0.0635
 41
0.0635
 70
0
  0
VERTEX
  8
21
 10
7.6050
 20
0.1918
 30
0.0000
 42
1.0000
  0
VERTEX
  8
21
 10
7.6050
 20
0.1283
 30
0.0000
  0
SEQEND
  8
0
  0
POLYLINE
  8
21
 66
1
 10
0.0000
 20
0.0000
 30
0.0000
 40
0.0635
 41
0.0635
 70
0
  0
VERTEX
  8
21
 10
8.8750
 20
0.1283
 30
0.0000
 42
1.0000
  0
VERTEX
  8
21
 10
8.8750
 20
0.1918
 30
0.0000
  0
SEQEND
  8
0
  0
POLYLINE
  8
21
 66
1
 10
0.0000
 20
0.0000
 30
0.0000
 40
0.1270
 41
0.1270
 70
0
  0
VERTEX
  8
21
 10
7.6050
 20
2.7000
 30
0.0000
  0
VERTEX
  8
21
 10
8.8750
 20
2.7000
 30
0.0000
  0
SEQEND
  8
0
  0
POLYLINE
  8
21
 66
1
 10
0.0000
 20
0.0000
 30
0.0000
 40
0.0635
 41
0.0635
 70
0
  0
VERTEX
  8
21
 10
8.8750
 20
2.6683
 30
0.0000
 42
1.0000
  0
VERTEX
  8
21
 10
8.8750
 20
2.7318
 30
0.0000
  0
SEQEND
  8
0
  0
POLYLINE
  8
21
 66
1
 10
0.0000
 20
0.0000
 30
0.0000
 40
0.0635
 41
0.0635
 70
0
  0
VERTEX
  8
21
 10
7.6050
 20
2.7318
 30
0.0000
 42
1.0000
  0
VERTEX
  8
21
 10
7.6050
 20
2.6683
 30
0.0000
  0
SEQEND
  8
0
  0
POLYLINE
  8
21
 66
1
 10
0.0000
 20
0.0000
 30
0.0000
 40
0.1270
 41
0.1270
 70
0
  0
VERTEX
  8
21
 10
8.8750
 20
2.7000
 30
0.0000
  0
VERTEX
  8
21
 10
9.5100
 20
2.0650
 30
0.0000
  0
SEQEND
  8
0
  0
POLYLINE
  8
21
 66
1
 10
0.0000
 20
0.0000
 30
0.0000
 40
0.0635
 41
0.0635
 70
0
  0
VERTEX
  8
21
 10
9.4875
 20
2.0425
 30
0.0000
 42
1.0000
  0
VERTEX
  8
21
 10
9.5325
 20
2.0875
 30
0.0000
  0
SEQEND
  8
0
  0
POLYLINE
  8
21
 66
1
 10
0.0000
 20
0.0000
 30
0.0000
 40
0.0635
 41
0.0635
 70
0
  0
VERTEX
  8
21
 10
8.8975
 20
2.7225
 30
0.0000
 42
1.0000
  0
VERTEX
  8
21
 10
8.8525
 20
2.6775
 30
0.0000
  0
SEQEND
  8
0
  0
POLYLINE
  8
21
 66
1
 10
0.0000
 20
0.0000
 30
0.0000
 40
0.1270
 41
0.1270
 70
0
  0
VERTEX
  8
21
 10
9.5100
 20
2.0650
 30
0.0000
  0
VERTEX
  8
21
 10
10.1450
 20
2.7000
 30
0.0000
  0
SEQEND
  8
0
  0
POLYLINE
  8
21
 66
1
 10
0.0000
 20
0.0000
 30
0.0000
 40
0.0635
 41
0.0635
 70
0
  0
VERTEX
  8
21
 10
10.1675
 20
2.6775
 30
0.0000
 42
1.0000
  0
VERTEX
  8
21
 10
10.1225
 20
2.7225
 30
0.0000
  0
SEQEND
  8
0
  0
POLYLINE
  8
21
 66
1
 10
0.0000
 20
0.0000
 30
0.0000
 40
0.0635
 41
0.0635
 70
0
  0
VERTEX
  8
21
 10
9.4875
 20
2.0875
 30
0.0000
 42
1.0000
  0
VERTEX
  8
21
 10
9.5325
 20
2.0425
 30
0.0000
  0
SEQEND
  8
0
  0
POLYLINE
  8
21
 66
1
 10
0.0000
 20
0.0000
 30
0.0000
 40
0.1270
 41
0.1270
 70
0
  0
VERTEX
  8
21
 10
10.1450
 20
2.7000
 30
0.0000
  0
VERTEX
  8
21
 10
11.4150
 20
2.7000
 30
0.0000
  0
SEQEND
  8
0
  0
POLYLINE
  8
21
 66
1
 10
0.0000
 20
0.0000
 30
0.0000
 40
0.0635
 41
0.0635
 70
0
  0
VERTEX
  8
21
 10
11.4150
 20
2.6683
 30
0.0000
 42
1.0000
  0
VERTEX
  8
21
 10
11.4150
 20
2.7318
 30
0.0000
  0
SEQEND
  8
0
  0
POLYLINE
  8
21
 66
1
 10
0.0000
 20
0.0000
 30
0.0000
 40
0.0635
 41
0.0635
 70
0
  0
VERTEX
  8
21
 10
10.1450
 20
2.7318
 30
0.0000
 42
1.0000
  0
VERTEX
  8
21
 10
10.1450
 20
2.6683
 30
0.0000
  0
SEQEND
  8
0
  0
POLYLINE
  8
21
 66
1
 10
0.0000
 20
0.0000
 30
0.0000
 40
0.1270
 41
0.1270
 70
0
  0
VERTEX
  8
21
 10
11.4150
 20
2.7000
 30
0.0000
  0
VERTEX
  8
21
 10
12.0500
 20
2.0650
 30
0.0000
  0
SEQEND
  8
0
  0
POLYLINE
  8
21
 66
1
 10
0.0000
 20
0.0000
 30
0.0000
 40
0.0635
 41
0.0635
 70
0
  0
VERTEX
  8
21
 10
12.0275
 20
2.0425
 30
0.0000
 42
1.0000
  0
VERTEX
  8
21
 10
12.0725
 20
2.0875
 30
0.0000
  0
SEQEND
  8
0
  0
POLYLINE
  8
21
 66
1
 10
0.0000
 20
0.0000
 30
0.0000
 40
0.0635
 41
0.0635
 70
0
  0
VERTEX
  8
21
 10
11.4375
 20
2.7225
 30
0.0000
 42
1.0000
  0
VERTEX
  8
21
 10
11.3925
 20
2.6775
 30
0.0000
  0
SEQEND
  8
0
  0
POLYLINE
  8
21
 66
1
 10
0.0000
 20
0.0000
 30
0.0000
 40
0.1270
 41
0.1270
 70
0
  0
VERTEX
  8
21
 10
12.0500
 20
2.0650
 30
0.0000
  0
VERTEX
  8
21
 10
12.6850
 20
2.7000
 30
0.0000
  0
SEQEND
  8
0
  0
POLYLINE
  8
21
 66
1
 10
0.0000
 20
0.0000
 30
0.0000
 40
0.0635
 41
0.0635
 70
0
  0
VERTEX
  8
21
 10
12.7075
 20
2.6775
 30
0.0000
 42
1.0000
  0
VERTEX
  8
21
 10
12.6625
 20
2.7225
 30
0.0000
  0
SEQEND
  8
0
  0
POLYLINE
  8
21
 66
1
 10
0.0000
 20
0.0000
 30
0.0000
 40
0.0635
 41
0.0635
 70
0
  0
VERTEX
  8
21
 10
12.0275
 20
2.0875
 30
0.0000
 42
1.0000
  0
VERTEX
  8
21
 10
12.0725
 20
2.0425
 30
0.0000
  0
SEQEND
  8
0
  0
POLYLINE
  8
21
 66
1
 10
0.0000
 20
0.0000
 30
0.0000
 40
0.1270
 41
0.1270
 70
0
  0
VERTEX
  8
21
 10
12.6850
 20
2.7000
 30
0.0000
  0
VERTEX
  8
21
 10
13.9550
 20
2.7000
 30
0.0000
  0
SEQEND
  8
0
  0
POLYLINE
  8
21
 66
1
 10
0.0000
 20
0.0000
 30
0.0000
 40
0.0635
 41
0.0635
 70
0
  0
VERTEX
  8
21
 10
13.9550
 20
2.6683
 30
0.0000
 42
1.0000
  0
VERTEX
  8
21
 10
13.9550
 20
2.7318
 30
0.0000
  0
SEQEND
  8
0
  0
POLYLINE
  8
21
 66
1
 10
0.0000
 20
0.0000
 30
0.0000
 40
0.0635
 41
0.0635
 70
0
  0
VERTEX
  8
21
 10
12.6850
 20
2.7318
 30
0.0000
 42
1.0000
  0
VERTEX
  8
21
 10
12.6850
 20
2.6683
 30
0.0000
  0
SEQEND
  8
0
  0
POLYLINE
  8
21
 66
1
 10
0.0000
 20
0.0000
 30
0.0000
 40
0.1270
 41
0.1270
 70
0
  0
VERTEX
  8
21
 10
13.9550
 20
2.7000
 30
0.0000
  0
VERTEX
  8
21
 10
14.5900
 20
2.0650
 30
0.0000
  0
SEQEND
  8
0
  0
POLYLINE
  8
21
 66
1
 10
0.0000
 20
0.0000
 30
0.0000
 40
0.0635
 41
0.0635
 70
0
  0
VERTEX
  8
21
 10
14.5675
 20
2.0425
 30
0.0000
 42
1.0000
  0
VERTEX
  8
21
 10
14.6125
 20
2.0875
 30
0.0000
  0
SEQEND
  8
0
  0
POLYLINE
  8
21
 66
1
 10
0.0000
 20
0.0000
 30
0.0000
 40
0.0635
 41
0.0635
 70
0
  0
VERTEX
  8
21
 10
13.9775
 20
2.7225
 30
0.0000
 42
1.0000
  0
VERTEX
  8
21
 10
13.9325
 20
2.6775
 30
0.0000
  0
SEQEND
  8
0
  0
POLYLINE
  8
21
 66
1
 10
0.0000
 20
0.0000
 30
0.0000
 40
0.1270
 41
0.1270
 70
0
  0
VERTEX
  8
21
 10
14.5900
 20
2.0650
 30
0.0000
  0
VERTEX
  8
21
 10
15.2250
 20
2.7000
 30
0.0000
  0
SEQEND
  8
0
  0
POLYLINE
  8
21
 66
1
 10
0.0000
 20
0.0000
 30
0.0000
 40
0.0635
 41
0.0635
 70
0
  0
VERTEX
  8
21
 10
15.2475
 20
2.6775
 30
0.0000
 42
1.0000
  0
VERTEX
  8
21
 10
15.2025
 20
2.7225
 30
0.0000
  0
SEQEND
  8
0
  0
POLYLINE
  8
21
 66
1
 10
0.0000
 20
0.0000
 30
0.0000
 40
0.0635
 41
0.0635
 70
0
  0
VERTEX
  8
21
 10
14.5675
 20
2.0875
 30
0.0000
 42
1.0000
  0
VERTEX
  8
21
 10
14.6125
 20
2.0425
 30
0.0000
  0
SEQEND
  8
0
  0
POLYLINE
  8
21
 66
1
 10
0.0000
 20
0.0000
 30
0.0000
 40
0.1270
 41
0.1270
 70
0
  0
VERTEX
  8
21
 10
15.2250
 20
2.7000
 30
0.0000
  0
VERTEX
  8
21
 10
16.4950
 20
2.7000
 30
0.0000
  0
SEQEND
  8
0
  0
POLYLINE
  8
21
 66
1
 10
0.0000
 20
0.0000
 30
0.0000
 40
0.0635
 41
0.0635
 70
0
  0
VERTEX
  8
21
 10
16.4950
 20
2.6683
 30
0.0000
 42
1.0000
  0
VERTEX
  8
21
 10
16.4950
 20
2.7318
 30
0.0000
  0
SEQEND
  8
0
  0
POLYLINE
  8
21
 66
1
 10
0.0000
 20
0.0000
 30
0.0000
 40
0.0635
 41
0.0635
 70
0
  0
VERTEX
  8
21
 10
15.2250
 20
2.7318
 30
0.0000
 42
1.0000
  0
VERTEX
  8
21
 10
15.2250
 20
2.6683
 30
0.0000
  0
SEQEND
  8
0
  0
POLYLINE
  8
21
 66
1
 10
0.0000
 20
0.0000
 30
0.0000
 40
0.1270
 41
0.1270
 70
0
  0
VERTEX
  8
21
 10
16.4950
 20
2.7000
 30
0.0000
  0
VERTEX
  8
21
 10
17.1300
 20
2.0650
 30
0.0000
  0
SEQEND
  8
0
  0
POLYLINE
  8
21
 66
1
 10
0.0000
 20
0.0000
 30
0.0000
 40
0.0635
 41
0.0635
 70
0
  0
VERTEX
  8
21
 10
17.1075
 20
2.0425
 30
0.0000
 42
1.0000
  0
VERTEX
  8
21
 10
17.1525
 20
2.0875
 30
0.0000
  0
SEQEND
  8
0
  0
POLYLINE
  8
21
 66
1
 10
0.0000
 20
0.0000
 30
0.0000
 40
0.0635
 41
0.0635
 70
0
  0
VERTEX
  8
21
 10
16.5175
 20
2.7225
 30
0.0000
 42
1.0000
  0
VERTEX
  8
21
 10
16.4725
 20
2.6775
 30
0.0000
  0
SEQEND
  8
0
  0
POLYLINE
  8
21
 66
1
 10
0.0000
 20
0.0000
 30
0.0000
 40
0.1270
 41
0.1270
 70
0
  0
VERTEX
  8
21
 10
17.1300
 20
2.0650
 30
0.0000
  0
VERTEX
  8
21
 10
17.7650
 20
2.7000
 30
0.0000
  0
SEQEND
  8
0
  0
POLYLINE
  8
21
 66
1
 10
0.0000
 20
0.0000
 30
0.0000
 40
0.0635
 41
0.0635
 70
0
  0
VERTEX
  8
21
 10
17.7875
 20
2.6775
 30
0.0000
 42
1.0000
  0
VERTEX
  8
21
 10
17.7425
 20
2.7225
 30
0.0000
  0
SEQEND
  8
0
  0
POLYLINE
  8
21
 66
1
 10
0.0000
 20
0.0000
 30
0.0000
 40
0.0635
 41
0.0635
 70
0
  0
VERTEX
  8
21
 10
17.1075
 20
2.0875
 30
0.0000
 42
1.0000
  0
VERTEX
  8
21
 10
17.1525
 20
2.0425
 30
0.0000
  0
SEQEND
  8
0
  0
POLYLINE
  8
21
 66
1
 10
0.0000
 20
0.0000
 30
0.0000
 40
0.1270
 41
0.1270
 70
0
  0
VERTEX
  8
21
 10
17.7650
 20
2.7000
 30
0.0000
  0
VERTEX
  8
21
 10
19.0350
 20
2.7000
 30
0.0000
  0
SEQEND
  8
0
  0
POLYLINE
  8
21
 66
1
 10
0.0000
 20
0.0000
 30
0.0000
 40
0.0635
 41
0.0635
 70
0
  0
VERTEX
  8
21
 10
19.0350
 20
2.6683
 30
0.0000
 42
1.0000
  0
VERTEX
  8
21
 10
19.0350
 20
2.7318
 30
0.0000
  0
SEQEND
  8
0
  0
POLYLINE
  8
21
 66
1
 10
0.0000
 20
0.0000
 30
0.0000
 40
0.0635
 41
0.0635
 70
0
  0
VERTEX
  8
21
 10
17.7650
 20
2.7318
 30
0.0000
 42
1.0000
  0
VERTEX
  8
21
 10
17.7650
 20
2.6683
 30
0.0000
  0
SEQEND
  8
0
  0
POLYLINE
  8
21
 66
1
 10
0.0000
 20
0.0000
 30
0.0000
 40
0.1270
 41
0.1270
 70
0
  0
VERTEX
  8
21
 10
19.0350
 20
2.7000
 30
0.0000
  0
VERTEX
  8
21
 10
19.6700
 20
2.0650
 30
0.0000
  0
SEQEND
  8
0
  0
POLYLINE
  8
21
 66
1
 10
0.0000
 20
0.0000
 30
0.0000
 40
0.0635
 41
0.0635
 70
0
  0
VERTEX
  8
21
 10
19.6475
 20
2.0425
 30
0.0000
 42
1.0000
  0
VERTEX
  8
21
 10
19.6925
 20
2.0875
 30
0.0000
  0
SEQEND
  8
0
  0
POLYLINE
  8
21
 66
1
 10
0.0000
 20
0.0000
 30
0.0000
 40
0.0635
 41
0.0635
 70
0
  0
VERTEX
  8
21
 10
19.0575
 20
2.7225
 30
0.0000
 42
1.0000
  0
VERTEX
  8
21
 10
19.0125
 20
2.6775
 30
0.0000
  0
SEQEND
  8
0
  0
POLYLINE
  8
21
 66
1
 10
0.0000
 20
0.0000
 30
0.0000
 40
0.1270
 41
0.1270
 70
0
  0
VERTEX
  8
21
 10
19.6700
 20
2.0650
 30
0.0000
  0
VERTEX
  8
21
 10
20.3050
 20
2.7000
 30
0.0000
  0
SEQEND
  8
0
  0
POLYLINE
  8
21
 66
1
 10
0.0000
 20
0.0000
 30
0.0000
 40
0.0635
 41
0.0635
 70
0
  0
VERTEX
  8
21
 10
20.3275
 20
2.6775
 30
0.0000
 42
1.0000
  0
VERTEX
  8
21
 10
20.2825
 20
2.7225
 30
0.0000
  0
SEQEND
  8
0
  0
POLYLINE
  8
21
 66
1
 10
0.0000
 20
0.0000
 30
0.0000
 40
0.0635
 41
0.0635
 70
0
  0
VERTEX
  8
21
 10
19.6475
 20
2.0875
 30
0.0000
 42
1.0000
  0
VERTEX
  8
21
 10
19.6925
 20
2.0425
 30
0.0000
  0
SEQEND
  8
0
  0
POLYLINE
  8
21
 66
1
 10
0.0000
 20
0.0000
 30
0.0000
 40
0.1270
 41
0.1270
 70
0
  0
VERTEX
  8
21
 10
20.3050
 20
2.7000
 30
0.0000
  0
VERTEX
  8
21
 10
21.5750
 20
2.7000
 30
0.0000
  0
SEQEND
  8
0
  0
POLYLINE
  8
21
 66
1
 10
0.0000
 20
0.0000
 30
0.0000
 40
0.0635
 41
0.0635
 70
0
  0
VERTEX
  8
21
 10
21.5750
 20
2.6683
 30
0.0000
 42
1.0000
  0
VERTEX
  8
21
 10
21.5750
 20
2.7318
 30
0.0000
  0
SEQEND
  8
0
  0
POLYLINE
  8
21
 66
1
 10
0.0000
 20
0.0000
 30
0.0000
 40
0.0635
 41
0.0635
 70
0
  0
VERTEX
  8
21
 10
20.3050
 20
2.7318
 30
0.0000
 42
1.0000
  0
VERTEX
  8
21
 10
20.3050
 20
2.6683
 30
0.0000
  0
SEQEND
  8
0
  0
POLYLINE
  8
21
 66
1
 10
0.0000
 20
0.0000
 30
0.0000
 40
0.1270
 41
0.1270
 70
0
  0
VERTEX
  8
21
 10
21.5750
 20
2.7000
 30
0.0000
  0
VERTEX
  8
21
 10
22.2100
 20
2.0650
 30
0.0000
  0
SEQEND
  8
0
  0
POLYLINE
  8
21
 66
1
 10
0.0000
 20
0.0000
 30
0.0000
 40
0.0635
 41
0.0635
 70
0
  0
VERTEX
  8
21
 10
22.1875
 20
2.0425
 30
0.0000
 42
1.0000
  0
VERTEX
  8
21
 10
22.2325
 20
2.0875
 30
0.0000
  0
SEQEND
  8
0
  0
POLYLINE
  8
21
 66
1
 10
0.0000
 20
0.0000
 30
0.0000
 40
0.0635
 41
0.0635
 70
0
  0
VERTEX
  8
21
 10
21.5975
 20
2.7225
 30
0.0000
 42
1.0000
  0
VERTEX
  8
21
 10
21.5525
 20
2.6775
 30
0.0000
  0
SEQEND
  8
0
  0
POLYLINE
  8
21
 66
1
 10
0.0000
 20
0.0000
 30
0.0000
 40
0.1270
 41
0.1270
 70
0
  0
VERTEX
  8
21
 10
22.2100
 20
2.0650
 30
0.0000
  0
VERTEX
  8
21
 10
22.8450
 20
2.7000
 30
0.0000
  0
SEQEND
  8
0
  0
POLYLINE
  8
21
 66
1
 10
0.0000
 20
0.0000
 30
0.0000
 40
0.0635
 41
0.0635
 70
0
  0
VERTEX
  8
21
 10
22.8675
 20
2.6775
 30
0.0000
 42
1.0000
  0
VERTEX
  8
21
 10
22.8225
 20
2.7225
 30
0.0000
  0
SEQEND
  8
0
  0
POLYLINE
  8
21
 66
1
 10
0.0000
 20
0.0000
 30
0.0000
 40
0.0635
 41
0.0635
 70
0
  0
VERTEX
  8
21
 10
22.1875
 20
2.0875
 30
0.0000
 42
1.0000
  0
VERTEX
  8
21
 10
22.2325
 20
2.0425
 30
0.0000
  0
SEQEND
  8
0
  0
POLYLINE
  8
21
 66
1
 10
0.0000
 20
0.0000
 30
0.0000
 40
0.1270
 41
0.1270
 70
0
  0
VERTEX
  8
21
 10
22.8450
 20
2.7000
 30
0.0000
  0
VERTEX
  8
21
 10
24.1150
 20
2.7000
 30
0.0000
  0
SEQEND
  8
0
  0
POLYLINE
  8
21
 66
1
 10
0.0000
 20
0.0000
 30
0.0000
 40
0.0635
 41
0.0635
 70
0
  0
VERTEX
  8
21
 10
24.1150
 20
2.6683
 30
0.0000
 42
1.0000
  0
VERTEX
  8
21
 10
24.1150
 20
2.7318
 30
0.0000
  0
SEQEND
  8
0
  0
POLYLINE
  8
21
 66
1
 10
0.0000
 20
0.0000
 30
0.0000
 40
0.0635
 41
0.0635
 70
0
  0
VERTEX
  8
21
 10
22.8450
 20
2.7318
 30
0.0000
 42
1.0000
  0
VERTEX
  8
21
 10
22.8450
 20
2.6683
 30
0.0000
  0
SEQEND
  8
0
  0
POLYLINE
  8
21
 66
1
 10
0.0000
 20
0.0000
 30
0.0000
 40
0.1270
 41
0.1270
 70
0
  0
VERTEX
  8
21
 10
24.1150
 20
2.7000
 30
0.0000
  0
VERTEX
  8
21
 10
24.7500
 20
2.0650
 30
0.0000
  0
SEQEND
  8
0
  0
POLYLINE
  8
21
 66
1
 10
0.0000
 20
0.0000
 30
0.0000
 40
0.0635
 41
0.0635
 70
0
  0
VERTEX
  8
21
 10
24.7275
 20
2.0425
 30
0.0000
 42
1.0000
  0
VERTEX
  8
21
 10
24.7725
 20
2.0875
 30
0.0000
  0
SEQEND
  8
0
  0
POLYLINE
  8
21
 66
1
 10
0.0000
 20
0.0000
 30
0.0000
 40
0.0635
 41
0.0635
 70
0
  0
VERTEX
  8
21
 10
24.1375
 20
2.7225
 30
0.0000
 42
1.0000
  0
VERTEX
  8
21
 10
24.0925
 20
2.6775
 30
0.0000
  0
SEQEND
  8
0
  0
POLYLINE
  8
21
 66
1
 10
0.0000
 20
0.0000
 30
0.0000
 40
0.1270
 41
0.1270
 70
0
  0
VERTEX
  8
21
 10
24.7500
 20
2.0650
 30
0.0000
  0
VERTEX
  8
21
 10
25.3850
 20
2.7000
 30
0.0000
  0
SEQEND
  8
0
  0
POLYLINE
  8
21
 66
1
 10
0.0000
 20
0.0000
 30
0.0000
 40
0.0635
 41
0.0635
 70
0
  0
VERTEX
  8
21
 10
25.4075
 20
2.6775
 30
0.0000
 42
1.0000
  0
VERTEX
  8
21
 10
25.3625
 20
2.7225
 30
0.0000
  0
SEQEND
  8
0
  0
POLYLINE
  8
21
 66
1
 10
0.0000
 20
0.0000
 30
0.0000
 40
0.0635
 41
0.0635
 70
0
  0
VERTEX
  8
21
 10
24.7275
 20
2.0875
 30
0.0000
 42
1.0000
  0
VERTEX
  8
21
 10
24.7725
 20
2.0425
 30
0.0000
  0
SEQEND
  8
0
  0
POLYLINE
  8
21
 66
1
 10
0.0000
 20
0.0000
 30
0.0000
 40
0.1270
 41
0.1270
 70
0
  0
VERTEX
  8
21
 10
25.3850
 20
2.7000
 30
0.0000
  0
VERTEX
  8
21
 10
26.6550
 20
2.7000
 30
0.0000
  0
SEQEND
  8
0
  0
POLYLINE
  8
21
 66
1
 10
0.0000
 20
0.0000
 30
0.0000
 40
0.0635
 41
0.0635
 70
0
  0
VERTEX
  8
21
 10
26.6550
 20
2.6683
 30
0.0000
 42
1.0000
  0
VERTEX
  8
21
 10
26.6550
 20
2.7318
 30
0.0000
  0
SEQEND
  8
0
  0
POLYLINE
  8
21
 66
1
 10
0.0000
 20
0.0000
 30
0.0000
 40
0.0635
 41
0.0635
 70
0
  0
VERTEX
  8
21
 10
25.3850
 20
2.7318
 30
0.0000
 42
1.0000
  0
VERTEX
  8
21
 10
25.3850
 20
2.6683
 30
0.0000
  0
SEQEND
  8
0
  0
POLYLINE
  8
21
 66
1
 10
0.0000
 20
0.0000
 30
0.0000
 40
0.1270
 41
0.1270
 70
0
  0
VERTEX
  8
21
 10
5.9200
 20
1.1050
 30
0.0000
  0
VERTEX
  8
21
 10
5.2850
 20
0.4700
 30
0.0000
  0
SEQEND
  8
0
  0
POLYLINE
  8
21
 66
1
 10
0.0000
 20
0.0000
 30
0.0000
 40
0.0635
 41
0.0635
 70
0
  0
VERTEX
  8
21
 10
5.2625
 20
0.4925
 30
0.0000
 42
1.0000
  0
VERTEX
  8
21
 10
5.3075
 20
0.4475
 30
0.0000
  0
SEQEND
  8
0
  0
POLYLINE
  8
21
 66
1
 10
0.0000
 20
0.0000
 30
0.0000
 40
0.0635
 41
0.0635
 70
0
  0
VERTEX
  8
21
 10
5.9425
 20
1.0825
 30
0.0000
 42
1.0000
  0
VERTEX
  8
21
 10
5.8975
 20
1.1275
 30
0.0000
  0
SEQEND
  8
0
  0
POLYLINE
  8
21
 66
1
 10
0.0000
 20
0.0000
 30
0.0000
 40
0.1270
 41
0.1270
 70
0
  0
VERTEX
  8
21
 10
5.2850
 20
0.4700
 30
0.0000
  0
VERTEX
  8
21
 10
4.0150
 20
0.4700
 30
0.0000
  0
SEQEND
  8
0
  0
POLYLINE
  8
21
 66
1
 10
0.0000
 20
0.0000
 30
0.0000
 40
0.0635
 41
0.0635
 70
0
  0
VERTEX
  8
21
 10
4.0150
 20
0.5018
 30
0.0000
 42
1.0000
  0
VERTEX
  8
21
 10
4.0150
 20
0.4383
 30
0.0000
  0
SEQEND
  8
0
  0
POLYLINE
  8
21
 66
1
 10
0.0000
 20
0.0000
 30
0.0000
 40
0.0635
 41
0.0635
 70
0
  0
VERTEX
  8
21
 10
5.2850
 20
0.4383
 30
0.0000
 42
1.0000
  0
VERTEX
  8
21
 10
5.2850
 20
0.5018
 30
0.0000
  0
SEQEND
  8
0
  0
POLYLINE
  8
21
 66
1
 10
0.0000
 20
0.0000
 30
0.0000
 40
0.1270
 41
0.1270
 70
0
  0
VERTEX
  8
21
 10
4.0150
 20
0.4700
 30
0.0000
  0
VERTEX
  8
21
 10
3.3800
 20
1.1050
 30
0.0000
  0
SEQEND
  8
0
  0
POLYLINE
  8
21
 66
1
 10
0.0000
 20
0.0000
 30
0.0000
 40
0.0635
 41
0.0635
 70
0
  0
VERTEX
  8
21
 10
3.4025
 20
1.1275
 30
0.0000
 42
1.0000
  0
VERTEX
  8
21
 10
3.3575
 20
1.0825
 30
0.0000
  0
SEQEND
  8
0
  0
POLYLINE
  8
21
 66
1
 10
0.0000
 20
0.0000
 30
0.0000
 40
0.0635
 41
0.0635
 70
0
  0
VERTEX
  8
21
 10
3.9925
 20
0.4475
 30
0.0000
 42
1.0000
  0
VERTEX
  8
21
 10
4.0375
 20
0.4925
 30
0.0000
  0
SEQEND
  8
0
  0
POLYLINE
  8
21
 66
1
 10
0.0000
 20
0.0000
 30
0.0000
 40
0.1270
 41
0.1270
 70
0
  0
VERTEX
  8
21
 10
3.3800
 20
20.1550
 30
0.0000
  0
VERTEX
  8
21
 10
4.0150
 20
20.7900
 30
0.0000
  0
SEQEND
  8
0
  0
POLYLINE
  8
21
 66
1
 10
0.0000
 20
0.0000
 30
0.0000
 40
0.0635
 41
0.0635
 70
0
  0
VERTEX
  8
21
 10
4.0375
 20
20.7675
 30
0.0000
 42
1.0000
  0
VERTEX
  8
21
 10
3.9925
 20
20.8125
 30
0.0000
  0
SEQEND
  8
0
  0
POLYLINE
  8
21
 66
1
 10
0.0000
 20
0.0000
 30
0.0000
 40
0.0635
 41
0.0635
 70
0
  0
VERTEX
  8
21
 10
3.3575
 20
20.1775
 30
0.0000
 42
1.0000
  0
VERTEX
  8
21
 10
3.4025
 20
20.1325
 30
0.0000
  0
SEQEND
  8
0
  0
POLYLINE
  8
21
 66
1
 10
0.0000
 20
0.0000
 30
0.0000
 40
0.1270
 41
0.1270
 70
0
  0
VERTEX
  8
21
 10
4.0150
 20
20.7900
 30
0.0000
  0
VERTEX
  8
21
 10
5.2850
 20
20.7900
 30
0.0000
  0
SEQEND
  8
0
  0
POLYLINE
  8
21
 66
1
 10
0.0000
 20
0.0000
 30
0.0000
 40
0.0635
 41
0.0635
 70
0
  0
VERTEX
  8
21
 10
5.2850
 20
20.7583
 30
0.0000
 42
1.0000
  0
VERTEX
  8
21
 10
5.2850
 20
20.8218
 30
0.0000
  0
SEQEND
  8
0
  0
POLYLINE
  8
21
 66
1
 10
0.0000
 20
0.0000
 30
0.0000
 40
0.0635
 41
0.0635
 70
0
  0
VERTEX
  8
21
 10
4.0150
 20
20.8218
 30
0.0000
 42
1.0000
  0
VERTEX
  8
21
 10
4.0150
 20
20.7583
 30
0.0000
  0
SEQEND
  8
0
  0
POLYLINE
  8
21
 66
1
 10
0.0000
 20
0.0000
 30
0.0000
 40
0.1270
 41
0.1270
 70
0
  0
VERTEX
  8
21
 10
5.2850
 20
20.7900
 30
0.0000
  0
VERTEX
  8
21
 10
5.9200
 20
20.1550
 30
0.0000
  0
SEQEND
  8
0
  0
POLYLINE
  8
21
 66
1
 10
0.0000
 20
0.0000
 30
0.0000
 40
0.0635
 41
0.0635
 70
0
  0
VERTEX
  8
21
 10
5.8975
 20
20.1325
 30
0.0000
 42
1.0000
  0
VERTEX
  8
21
 10
5.9425
 20
20.1775
 30
0.0000
  0
SEQEND
  8
0
  0
POLYLINE
  8
21
 66
1
 10
0.0000
 20
0.0000
 30
0.0000
 40
0.0635
 41
0.0635
 70
0
  0
VERTEX
  8
21
 10
5.3075
 20
20.8125
 30
0.0000
 42
1.0000
  0
VERTEX
  8
21
 10
5.2625
 20
20.7675
 30
0.0000
  0
SEQEND
  8
0
  0
POLYLINE
  8
21
 66
1
 10
0.0000
 20
0.0000
 30
0.0000
 40
0.1270
 41
0.1270
 70
0
  0
VERTEX
  8
21
 10
5.9200
 20
20.1550
 30
0.0000
  0
VERTEX
  8
21
 10
5.9200
 20
18.8850
 30
0.0000
  0
SEQEND
  8
0
  0
POLYLINE
  8
21
 66
1
 10
0.0000
 20
0.0000
 30
0.0000
 40
0.0635
 41
0.0635
 70
0
  0
VERTEX
  8
21
 10
5.8883
 20
18.8850
 30
0.0000
 42
1.0000
  0
VERTEX
  8
21
 10
5.9517
 20
18.8850
 30
0.0000
  0
SEQEND
  8
0
  0
POLYLINE
  8
21
 66
1
 10
0.0000
 20
0.0000
 30
0.0000
 40
0.0635
 41
0.0635
 70
0
  0
VERTEX
  8
21
 10
5.9517
 20
20.1550
 30
0.0000
 42
1.0000
  0
VERTEX
  8
21
 10
5.8883
 20
20.1550
 30
0.0000
  0
SEQEND
  8
0
  0
POLYLINE
  8
21
 66
1
 10
0.0000
 20
0.0000
 30
0.0000
 40
0.1270
 41
0.1270
 70
0
  0
VERTEX
  8
21
 10
5.9200
 20
18.8850
 30
0.0000
  0
VERTEX
  8
21
 10
5.2850
 20
18.2500
 30
0.0000
  0
SEQEND
  8
0
  0
POLYLINE
  8
21
 66
1
 10
0.0000
 20
0.0000
 30
0.0000
 40
0.0635
 41
0.0635
 70
0
  0
VERTEX
  8
21
 10
5.2625
 20
18.2725
 30
0.0000
 42
1.0000
  0
VERTEX
  8
21
 10
5.3075
 20
18.2275
 30
0.0000
  0
SEQEND
  8
0
  0
POLYLINE
  8
21
 66
1
 10
0.0000
 20
0.0000
 30
0.0000
 40
0.0635
 41
0.0635
 70
0
  0
VERTEX
  8
21
 10
5.9425
 20
18.8625
 30
0.0000
 42
1.0000
  0
VERTEX
  8
21
 10
5.8975
 20
18.9075
 30
0.0000
  0
SEQEND
  8
0
  0
POLYLINE
  8
21
 66
1
 10
0.0000
 20
0.0000
 30
0.0000
 40
0.1270
 41
0.1270
 70
0
  0
VERTEX
  8
21
 10
5.2850
 20
18.2500
 30
0.0000
  0
VERTEX
  8
21
 10
5.9200
 20
17.6150
 30
0.0000
  0
SEQEND
  8
0
  0
POLYLINE
  8
21
 66
1
 10
0.0000
 20
0.0000
 30
0.0000
 40
0.0635
 41
0.0635
 70
0
  0
VERTEX
  8
21
 10
5.8975
 20
17.5925
 30
0.0000
 42
1.0000
  0
VERTEX
  8
21
 10
5.9425
 20
17.6375
 30
0.0000
  0
SEQEND
  8
0
  0
POLYLINE
  8
21
 66
1
 10
0.0000
 20
0.0000
 30
0.0000
 40
0.0635
 41
0.0635
 70
0
  0
VERTEX
  8
21
 10
5.3075
 20
18.2725
 30
0.0000
 42
1.0000
  0
VERTEX
  8
21
 10
5.2625
 20
18.2275
 30
0.0000
  0
SEQEND
  8
0
  0
POLYLINE
  8
21
 66
1
 10
0.0000
 20
0.0000
 30
0.0000
 40
0.1270
 41
0.1270
 70
0
  0
VERTEX
  8
21
 10
5.9200
 20
17.6150
 30
0.0000
  0
VERTEX
  8
21
 10
5.9200
 20
16.3450
 30
0.0000
  0
SEQEND
  8
0
  0
POLYLINE
  8
21
 66
1
 10
0.0000
 20
0.0000
 30
0.0000
 40
0.0635
 41
0.0635
 70
0
  0
VERTEX
  8
21
 10
5.8883
 20
16.3450
 30
0.0000
 42
1.0000
  0
VERTEX
  8
21
 10
5.9517
 20
16.3450
 30
0.0000
  0
SEQEND
  8
0
  0
POLYLINE
  8
21
 66
1
 10
0.0000
 20
0.0000
 30
0.0000
 40
0.0635
 41
0.0635
 70
0
  0
VERTEX
  8
21
 10
5.9517
 20
17.6150
 30
0.0000
 42
1.0000
  0
VERTEX
  8
21
 10
5.8883
 20
17.6150
 30
0.0000
  0
SEQEND
  8
0
  0
POLYLINE
  8
21
 66
1
 10
0.0000
 20
0.0000
 30
0.0000
 40
0.1270
 41
0.1270
 70
0
  0
VERTEX
  8
21
 10
5.9200
 20
16.3450
 30
0.0000
  0
VERTEX
  8
21
 10
5.2850
 20
15.7100
 30
0.0000
  0
SEQEND
  8
0
  0
POLYLINE
  8
21
 66
1
 10
0.0000
 20
0.0000
 30
0.0000
 40
0.0635
 41
0.0635
 70
0
  0
VERTEX
  8
21
 10
5.2625
 20
15.7325
 30
0.0000
 42
1.0000
  0
VERTEX
  8
21
 10
5.3075
 20
15.6875
 30
0.0000
  0
SEQEND
  8
0
  0
POLYLINE
  8
21
 66
1
 10
0.0000
 20
0.0000
 30
0.0000
 40
0.0635
 41
0.0635
 70
0
  0
VERTEX
  8
21
 10
5.9425
 20
16.3225
 30
0.0000
 42
1.0000
  0
VERTEX
  8
21
 10
5.8975
 20
16.3675
 30
0.0000
  0
SEQEND
  8
0
  0
POLYLINE
  8
21
 66
1
 10
0.0000
 20
0.0000
 30
0.0000
 40
0.1270
 41
0.1270
 70
0
  0
VERTEX
  8
21
 10
5.2850
 20
15.7100
 30
0.0000
  0
VERTEX
  8
21
 10
5.9200
 20
15.0750
 30
0.0000
  0
SEQEND
  8
0
  0
POLYLINE
  8
21
 66
1
 10
0.0000
 20
0.0000
 30
0.0000
 40
0.0635
 41
0.0635
 70
0
  0
VERTEX
  8
21
 10
5.8975
 20
15.0525
 30
0.0000
 42
1.0000
  0
VERTEX
  8
21
 10
5.9425
 20
15.0975
 30
0.0000
  0
SEQEND
  8
0
  0
POLYLINE
  8
21
 66
1
 10
0.0000
 20
0.0000
 30
0.0000
 40
0.0635
 41
0.0635
 70
0
  0
VERTEX
  8
21
 10
5.3075
 20
15.7325
 30
0.0000
 42
1.0000
  0
VERTEX
  8
21
 10
5.2625
 20
15.6875
 30
0.0000
  0
SEQEND
  8
0
  0
POLYLINE
  8
21
 66
1
 10
0.0000
 20
0.0000
 30
0.0000
 40
0.1270
 41
0.1270
 70
0
  0
VERTEX
  8
21
 10
5.9200
 20
15.0750
 30
0.0000
  0
VERTEX
  8
21
 10
5.9200
 20
13.8050
 30
0.0000
  0
SEQEND
  8
0
  0
POLYLINE
  8
21
 66
1
 10
0.0000
 20
0.0000
 30
0.0000
 40
0.0635
 41
0.0635
 70
0
  0
VERTEX
  8
21
 10
5.8883
 20
13.8050
 30
0.0000
 42
1.0000
  0
VERTEX
  8
21
 10
5.9517
 20
13.8050
 30
0.0000
  0
SEQEND
  8
0
  0
POLYLINE
  8
21
 66
1
 10
0.0000
 20
0.0000
 30
0.0000
 40
0.0635
 41
0.0635
 70
0
  0
VERTEX
  8
21
 10
5.9517
 20
15.0750
 30
0.0000
 42
1.0000
  0
VERTEX
  8
21
 10
5.8883
 20
15.0750
 30
0.0000
  0
SEQEND
  8
0
  0
POLYLINE
  8
21
 66
1
 10
0.0000
 20
0.0000
 30
0.0000
 40
0.1270
 41
0.1270
 70
0
  0
VERTEX
  8
21
 10
5.9200
 20
13.8050
 30
0.0000
  0
VERTEX
  8
21
 10
5.2850
 20
13.1700
 30
0.0000
  0
SEQEND
  8
0
  0
POLYLINE
  8
21
 66
1
 10
0.0000
 20
0.0000
 30
0.0000
 40
0.0635
 41
0.0635
 70
0
  0
VERTEX
  8
21
 10
5.2625
 20
13.1925
 30
0.0000
 42
1.0000
  0
VERTEX
  8
21
 10
5.3075
 20
13.1475
 30
0.0000
  0
SEQEND
  8
0
  0
POLYLINE
  8
21
 66
1
 10
0.0000
 20
0.0000
 30
0.0000
 40
0.0635
 41
0.0635
 70
0
  0
VERTEX
  8
21
 10
5.9425
 20
13.7825
 30
0.0000
 42
1.0000
  0
VERTEX
  8
21
 10
5.8975
 20
13.8275
 30
0.0000
  0
SEQEND
  8
0
  0
POLYLINE
  8
21
 66
1
 10
0.0000
 20
0.0000
 30
0.0000
 40
0.1270
 41
0.1270
 70
0
  0
VERTEX
  8
21
 10
5.2850
 20
13.1700
 30
0.0000
  0
VERTEX
  8
21
 10
5.9200
 20
12.5350
 30
0.0000
  0
SEQEND
  8
0
  0
POLYLINE
  8
21
 66
1
 10
0.0000
 20
0.0000
 30
0.0000
 40
0.0635
 41
0.0635
 70
0
  0
VERTEX
  8
21
 10
5.8975
 20
12.5125
 30
0.0000
 42
1.0000
  0
VERTEX
  8
21
 10
5.9425
 20
12.5575
 30
0.0000
  0
SEQEND
  8
0
  0
POLYLINE
  8
21
 66
1
 10
0.0000
 20
0.0000
 30
0.0000
 40
0.0635
 41
0.0635
 70
0
  0
VERTEX
  8
21
 10
5.3075
 20
13.1925
 30
0.0000
 42
1.0000
  0
VERTEX
  8
21
 10
5.2625
 20
13.1475
 30
0.0000
  0
SEQEND
  8
0
  0
POLYLINE
  8
21
 66
1
 10
0.0000
 20
0.0000
 30
0.0000
 40
0.1270
 41
0.1270
 70
0
  0
VERTEX
  8
21
 10
5.9200
 20
12.5350
 30
0.0000
  0
VERTEX
  8
21
 10
5.9200
 20
11.2650
 30
0.0000
  0
SEQEND
  8
0
  0
POLYLINE
  8
21
 66
1
 10
0.0000
 20
0.0000
 30
0.0000
 40
0.0635
 41
0.0635
 70
0
  0
VERTEX
  8
21
 10
5.8883
 20
11.2650
 30
0.0000
 42
1.0000
  0
VERTEX
  8
21
 10
5.9517
 20
11.2650
 30
0.0000
  0
SEQEND
  8
0
  0
POLYLINE
  8
21
 66
1
 10
0.0000
 20
0.0000
 30
0.0000
 40
0.0635
 41
0.0635
 70
0
  0
VERTEX
  8
21
 10
5.9517
 20
12.5350
 30
0.0000
 42
1.0000
  0
VERTEX
  8
21
 10
5.8883
 20
12.5350
 30
0.0000
  0
SEQEND
  8
0
  0
POLYLINE
  8
21
 66
1
 10
0.0000
 20
0.0000
 30
0.0000
 40
0.1270
 41
0.1270
 70
0
  0
VERTEX
  8
21
 10
5.9200
 20
11.2650
 30
0.0000
  0
VERTEX
  8
21
 10
5.2850
 20
10.6300
 30
0.0000
  0
SEQEND
  8
0
  0
POLYLINE
  8
21
 66
1
 10
0.0000
 20
0.0000
 30
0.0000
 40
0.0635
 41
0.0635
 70
0
  0
VERTEX
  8
21
 10
5.2625
 20
10.6525
 30
0.0000
 42
1.0000
  0
VERTEX
  8
21
 10
5.3075
 20
10.6075
 30
0.0000
  0
SEQEND
  8
0
  0
POLYLINE
  8
21
 66
1
 10
0.0000
 20
0.0000
 30
0.0000
 40
0.0635
 41
0.0635
 70
0
  0
VERTEX
  8
21
 10
5.9425
 20
11.2425
 30
0.0000
 42
1.0000
  0
VERTEX
  8
21
 10
5.8975
 20
11.2875
 30
0.0000
  0
SEQEND
  8
0
  0
POLYLINE
  8
21
 66
1
 10
0.0000
 20
0.0000
 30
0.0000
 40
0.1270
 41
0.1270
 70
0
  0
VERTEX
  8
21
 10
5.2850
 20
10.6300
 30
0.0000
  0
VERTEX
  8
21
 10
5.9200
 20
9.9950
 30
0.0000
  0
SEQEND
  8
0
  0
POLYLINE
  8
21
 66
1
 10
0.0000
 20
0.0000
 30
0.0000
 40
0.0635
 41
0.0635
 70
0
  0
VERTEX
  8
21
 10
5.8975
 20
9.9725
 30
0.0000
 42
1.0000
  0
VERTEX
  8
21
 10
5.9425
 20
10.0175
 30
0.0000
  0
SEQEND
  8
0
  0
POLYLINE
  8
21
 66
1
 10
0.0000
 20
0.0000
 30
0.0000
 40
0.0635
 41
0.0635
 70
0
  0
VERTEX
  8
21
 10
5.3075
 20
10.6525
 30
0.0000
 42
1.0000
  0
VERTEX
  8
21
 10
5.2625
 20
10.6075
 30
0.0000
  0
SEQEND
  8
0
  0
POLYLINE
  8
21
 66
1
 10
0.0000
 20
0.0000
 30
0.0000
 40
0.1270
 41
0.1270
 70
0
  0
VERTEX
  8
21
 10
5.9200
 20
9.9950
 30
0.0000
  0
VERTEX
  8
21
 10
5.9200
 20
8.7250
 30
0.0000
  0
SEQEND
  8
0
  0
POLYLINE
  8
21
 66
1
 10
0.0000
 20
0.0000
 30
0.0000
 40
0.0635
 41
0.0635
 70
0
  0
VERTEX
  8
21
 10
5.8883
 20
8.7250
 30
0.0000
 42
1.0000
  0
VERTEX
  8
21
 10
5.9517
 20
8.7250
 30
0.0000
  0
SEQEND
  8
0
  0
POLYLINE
  8
21
 66
1
 10
0.0000
 20
0.0000
 30
0.0000
 40
0.0635
 41
0.0635
 70
0
  0
VERTEX
  8
21
 10
5.9517
 20
9.9950
 30
0.0000
 42
1.0000
  0
VERTEX
  8
21
 10
5.8883
 20
9.9950
 30
0.0000
  0
SEQEND
  8
0
  0
POLYLINE
  8
21
 66
1
 10
0.0000
 20
0.0000
 30
0.0000
 40
0.1270
 41
0.1270
 70
0
  0
VERTEX
  8
21
 10
5.9200
 20
8.7250
 30
0.0000
  0
VERTEX
  8
21
 10
5.2850
 20
8.0900
 30
0.0000
  0
SEQEND
  8
0
  0
POLYLINE
  8
21
 66
1
 10
0.0000
 20
0.0000
 30
0.0000
 40
0.0635
 41
0.0635
 70
0
  0
VERTEX
  8
21
 10
5.2625
 20
8.1125
 30
0.0000
 42
1.0000
  0
VERTEX
  8
21
 10
5.3075
 20
8.0675
 30
0.0000
  0
SEQEND
  8
0
  0
POLYLINE
  8
21
 66
1
 10
0.0000
 20
0.0000
 30
0.0000
 40
0.0635
 41
0.0635
 70
0
  0
VERTEX
  8
21
 10
5.9425
 20
8.7025
 30
0.0000
 42
1.0000
  0
VERTEX
  8
21
 10
5.8975
 20
8.7475
 30
0.0000
  0
SEQEND
  8
0
  0
POLYLINE
  8
21
 66
1
 10
0.0000
 20
0.0000
 30
0.0000
 40
0.1270
 41
0.1270
 70
0
  0
VERTEX
  8
21
 10
5.2850
 20
8.0900
 30
0.0000
  0
VERTEX
  8
21
 10
5.9200
 20
7.4550
 30
0.0000
  0
SEQEND
  8
0
  0
POLYLINE
  8
21
 66
1
 10
0.0000
 20
0.0000
 30
0.0000
 40
0.0635
 41
0.0635
 70
0
  0
VERTEX
  8
21
 10
5.8975
 20
7.4325
 30
0.0000
 42
1.0000
  0
VERTEX
  8
21
 10
5.9425
 20
7.4775
 30
0.0000
  0
SEQEND
  8
0
  0
POLYLINE
  8
21
 66
1
 10
0.0000
 20
0.0000
 30
0.0000
 40
0.0635
 41
0.0635
 70
0
  0
VERTEX
  8
21
 10
5.3075
 20
8.1125
 30
0.0000
 42
1.0000
  0
VERTEX
  8
21
 10
5.2625
 20
8.0675
 30
0.0000
  0
SEQEND
  8
0
  0
POLYLINE
  8
21
 66
1
 10
0.0000
 20
0.0000
 30
0.0000
 40
0.1270
 41
0.1270
 70
0
  0
VERTEX
  8
21
 10
5.9200
 20
7.4550
 30
0.0000
  0
VERTEX
  8
21
 10
5.9200
 20
6.1850
 30
0.0000
  0
SEQEND
  8
0
  0
POLYLINE
  8
21
 66
1
 10
0.0000
 20
0.0000
 30
0.0000
 40
0.0635
 41
0.0635
 70
0
  0
VERTEX
  8
21
 10
5.8883
 20
6.1850
 30
0.0000
 42
1.0000
  0
VERTEX
  8
21
 10
5.9517
 20
6.1850
 30
0.0000
  0
SEQEND
  8
0
  0
POLYLINE
  8
21
 66
1
 10
0.0000
 20
0.0000
 30
0.0000
 40
0.0635
 41
0.0635
 70
0
  0
VERTEX
  8
21
 10
5.9517
 20
7.4550
 30
0.0000
 42
1.0000
  0
VERTEX
  8
21
 10
5.8883
 20
7.4550
 30
0.0000
  0
SEQEND
  8
0
  0
POLYLINE
  8
21
 66
1
 10
0.0000
 20
0.0000
 30
0.0000
 40
0.1270
 41
0.1270
 70
0
  0
VERTEX
  8
21
 10
5.9200
 20
6.1850
 30
0.0000
  0
VERTEX
  8
21
 10
5.2850
 20
5.5500
 30
0.0000
  0
SEQEND
  8
0
  0
POLYLINE
  8
21
 66
1
 10
0.0000
 20
0.0000
 30
0.0000
 40
0.0635
 41
0.0635
 70
0
  0
VERTEX
  8
21
 10
5.2625
 20
5.5725
 30
0.0000
 42
1.0000
  0
VERTEX
  8
21
 10
5.3075
 20
5.5275
 30
0.0000
  0
SEQEND
  8
0
  0
POLYLINE
  8
21
 66
1
 10
0.0000
 20
0.0000
 30
0.0000
 40
0.0635
 41
0.0635
 70
0
  0
VERTEX
  8
21
 10
5.9425
 20
6.1625
 30
0.0000
 42
1.0000
  0
VERTEX
  8
21
 10
5.8975
 20
6.2075
 30
0.0000
  0
SEQEND
  8
0
  0
POLYLINE
  8
21
 66
1
 10
0.0000
 20
0.0000
 30
0.0000
 40
0.1270
 41
0.1270
 70
0
  0
VERTEX
  8
21
 10
5.2850
 20
5.5500
 30
0.0000
  0
VERTEX
  8
21
 10
5.9200
 20
4.9150
 30
0.0000
  0
SEQEND
  8
0
  0
POLYLINE
  8
21
 66
1
 10
0.0000
 20
0.0000
 30
0.0000
 40
0.0635
 41
0.0635
 70
0
  0
VERTEX
  8
21
 10
5.8975
 20
4.8925
 30
0.0000
 42
1.0000
  0
VERTEX
  8
21
 10
5.9425
 20
4.9375
 30
0.0000
  0
SEQEND
  8
0
  0
POLYLINE
  8
21
 66
1
 10
0.0000
 20
0.0000
 30
0.0000
 40
0.0635
 41
0.0635
 70
0
  0
VERTEX
  8
21
 10
5.3075
 20
5.5725
 30
0.0000
 42
1.0000
  0
VERTEX
  8
21
 10
5.2625
 20
5.5275
 30
0.0000
  0
SEQEND
  8
0
  0
POLYLINE
  8
21
 66
1
 10
0.0000
 20
0.0000
 30
0.0000
 40
0.1270
 41
0.1270
 70
0
  0
VERTEX
  8
21
 10
5.9200
 20
4.9150
 30
0.0000
  0
VERTEX
  8
21
 10
5.9200
 20
3.6450
 30
0.0000
  0
SEQEND
  8
0
  0
POLYLINE
  8
21
 66
1
 10
0.0000
 20
0.0000
 30
0.0000
 40
0.0635
 41
0.0635
 70
0
  0
VERTEX
  8
21
 10
5.8883
 20
3.6450
 30
0.0000
 42
1.0000
  0
VERTEX
  8
21
 10
5.9517
 20
3.6450
 30
0.0000
  0
SEQEND
  8
0
  0
POLYLINE
  8
21
 66
1
 10
0.0000
 20
0.0000
 30
0.0000
 40
0.0635
 41
0.0635
 70
0
  0
VERTEX
  8
21
 10
5.9517
 20
4.9150
 30
0.0000
 42
1.0000
  0
VERTEX
  8
21
 10
5.8883
 20
4.9150
 30
0.0000
  0
SEQEND
  8
0
  0
POLYLINE
  8
21
 66
1
 10
0.0000
 20
0.0000
 30
0.0000
 40
0.1270
 41
0.1270
 70
0
  0
VERTEX
  8
21
 10
5.9200
 20
3.6450
 30
0.0000
  0
VERTEX
  8
21
 10
5.2850
 20
3.0100
 30
0.0000
  0
SEQEND
  8
0
  0
POLYLINE
  8
21
 66
1
 10
0.0000
 20
0.0000
 30
0.0000
 40
0.0635
 41
0.0635
 70
0
  0
VERTEX
  8
21
 10
5.2625
 20
3.0325
 30
0.0000
 42
1.0000
  0
VERTEX
  8
21
 10
5.3075
 20
2.9875
 30
0.0000
  0
SEQEND
  8
0
  0
POLYLINE
  8
21
 66
1
 10
0.0000
 20
0.0000
 30
0.0000
 40
0.0635
 41
0.0635
 70
0
  0
VERTEX
  8
21
 10
5.9425
 20
3.6225
 30
0.0000
 42
1.0000
  0
VERTEX
  8
21
 10
5.8975
 20
3.6675
 30
0.0000
  0
SEQEND
  8
0
  0
POLYLINE
  8
21
 66
1
 10
0.0000
 20
0.0000
 30
0.0000
 40
0.1270
 41
0.1270
 70
0
  0
VERTEX
  8
21
 10
5.2850
 20
3.0100
 30
0.0000
  0
VERTEX
  8
21
 10
5.9200
 20
2.3750
 30
0.0000
  0
SEQEND
  8
0
  0
POLYLINE
  8
21
 66
1
 10
0.0000
 20
0.0000
 30
0.0000
 40
0.0635
 41
0.0635
 70
0
  0
VERTEX
  8
21
 10
5.8975
 20
2.3525
 30
0.0000
 42
1.0000
  0
VERTEX
  8
21
 10
5.9425
 20
2.3975
 30
0.0000
  0
SEQEND
  8
0
  0
POLYLINE
  8
21
 66
1
 10
0.0000
 20
0.0000
 30
0.0000
 40
0.0635
 41
0.0635
 70
0
  0
VERTEX
  8
21
 10
5.3075
 20
3.0325
 30
0.0000
 42
1.0000
  0
VERTEX
  8
21
 10
5.2625
 20
2.9875
 30
0.0000
  0
SEQEND
  8
0
  0
POLYLINE
  8
21
 66
1
 10
0.0000
 20
0.0000
 30
0.0000
 40
0.1270
 41
0.1270
 70
0
  0
VERTEX
  8
21
 10
5.9200
 20
2.3750
 30
0.0000
  0
VERTEX
  8
21
 10
5.9200
 20
1.1050
 30
0.0000
  0
SEQEND
  8
0
  0
POLYLINE
  8
21
 66
1
 10
0.0000
 20
0.0000
 30
0.0000
 40
0.0635
 41
0.0635
 70
0
  0
VERTEX
  8
21
 10
5.8883
 20
1.1050
 30
0.0000
 42
1.0000
  0
VERTEX
  8
21
 10
5.9517
 20
1.1050
 30
0.0000
  0
SEQEND
  8
0
  0
POLYLINE
  8
21
 66
1
 10
0.0000
 20
0.0000
 30
0.0000
 40
0.0635
 41
0.0635
 70
0
  0
VERTEX
  8
21
 10
5.9517
 20
2.3750
 30
0.0000
 42
1.0000
  0
VERTEX
  8
21
 10
5.8883
 20
2.3750
 30
0.0000
  0
SEQEND
  8
0
  0
POLYLINE
  8
21
 66
1
 10
0.0000
 20
0.0000
 30
0.0000
 40
0.1270
 41
0.1270
 70
0
  0
VERTEX
  8
21
 10
3.3800
 20
1.1050
 30
0.0000
  0
VERTEX
  8
21
 10
3.3800
 20
2.3750
 30
0.0000
  0
SEQEND
  8
0
  0
POLYLINE
  8
21
 66
1
 10
0.0000
 20
0.0000
 30
0.0000
 40
0.0635
 41
0.0635
 70
0
  0
VERTEX
  8
21
 10
3.4118
 20
2.3750
 30
0.0000
 42
1.0000
  0
VERTEX
  8
21
 10
3.3483
 20
2.3750
 30
0.0000
  0
SEQEND
  8
0
  0
POLYLINE
  8
21
 66
1
 10
0.0000
 20
0.0000
 30
0.0000
 40
0.0635
 41
0.0635
 70
0
  0
VERTEX
  8
21
 10
3.3483
 20
1.1050
 30
0.0000
 42
1.0000
  0
VERTEX
  8
21
 10
3.4118
 20
1.1050
 30
0.0000
  0
SEQEND
  8
0
  0
POLYLINE
  8
21
 66
1
 10
0.0000
 20
0.0000
 30
0.0000
 40
0.1270
 41
0.1270
 70
0
  0
VERTEX
  8
21
 10
3.3800
 20
2.3750
 30
0.0000
  0
VERTEX
  8
21
 10
4.0150
 20
3.0100
 30
0.0000
  0
SEQEND
  8
0
  0
POLYLINE
  8
21
 66
1
 10
0.0000
 20
0.0000
 30
0.0000
 40
0.0635
 41
0.0635
 70
0
  0
VERTEX
  8
21
 10
4.0375
 20
2.9875
 30
0.0000
 42
1.0000
  0
VERTEX
  8
21
 10
3.9925
 20
3.0325
 30
0.0000
  0
SEQEND
  8
0
  0
POLYLINE
  8
21
 66
1
 10
0.0000
 20
0.0000
 30
0.0000
 40
0.0635
 41
0.0635
 70
0
  0
VERTEX
  8
21
 10
3.3575
 20
2.3975
 30
0.0000
 42
1.0000
  0
VERTEX
  8
21
 10
3.4025
 20
2.3525
 30
0.0000
  0
SEQEND
  8
0
  0
POLYLINE
  8
21
 66
1
 10
0.0000
 20
0.0000
 30
0.0000
 40
0.1270
 41
0.1270
 70
0
  0
VERTEX
  8
21
 10
4.0150
 20
3.0100
 30
0.0000
  0
VERTEX
  8
21
 10
3.3800
 20
3.6450
 30
0.0000
  0
SEQEND
  8
0
  0
POLYLINE
  8
21
 66
1
 10
0.0000
 20
0.0000
 30
0.0000
 40
0.0635
 41
0.0635
 70
0
  0
VERTEX
  8
21
 10
3.4025
 20
3.6675
 30
0.0000
 42
1.0000
  0
VERTEX
  8
21
 10
3.3575
 20
3.6225
 30
0.0000
  0
SEQEND
  8
0
  0
POLYLINE
  8
21
 66
1
 10
0.0000
 20
0.0000
 30
0.0000
 40
0.0635
 41
0.0635
 70
0
  0
VERTEX
  8
21
 10
3.9925
 20
2.9875
 30
0.0000
 42
1.0000
  0
VERTEX
  8
21
 10
4.0375
 20
3.0325
 30
0.0000
  0
SEQEND
  8
0
  0
POLYLINE
  8
21
 66
1
 10
0.0000
 20
0.0000
 30
0.0000
 40
0.1270
 41
0.1270
 70
0
  0
VERTEX
  8
21
 10
3.3800
 20
3.6450
 30
0.0000
  0
VERTEX
  8
21
 10
3.3800
 20
4.9150
 30
0.0000
  0
SEQEND
  8
0
  0
POLYLINE
  8
21
 66
1
 10
0.0000
 20
0.0000
 30
0.0000
 40
0.0635
 41
0.0635
 70
0
  0
VERTEX
  8
21
 10
3.4118
 20
4.9150
 30
0.0000
 42
1.0000
  0
VERTEX
  8
21
 10
3.3483
 20
4.9150
 30
0.0000
  0
SEQEND
  8
0
  0
POLYLINE
  8
21
 66
1
 10
0.0000
 20
0.0000
 30
0.0000
 40
0.0635
 41
0.0635
 70
0
  0
VERTEX
  8
21
 10
3.3483
 20
3.6450
 30
0.0000
 42
1.0000
  0
VERTEX
  8
21
 10
3.4118
 20
3.6450
 30
0.0000
  0
SEQEND
  8
0
  0
POLYLINE
  8
21
 66
1
 10
0.0000
 20
0.0000
 30
0.0000
 40
0.1270
 41
0.1270
 70
0
  0
VERTEX
  8
21
 10
3.3800
 20
4.9150
 30
0.0000
  0
VERTEX
  8
21
 10
4.0150
 20
5.5500
 30
0.0000
  0
SEQEND
  8
0
  0
POLYLINE
  8
21
 66
1
 10
0.0000
 20
0.0000
 30
0.0000
 40
0.0635
 41
0.0635
 70
0
  0
VERTEX
  8
21
 10
4.0375
 20
5.5275
 30
0.0000
 42
1.0000
  0
VERTEX
  8
21
 10
3.9925
 20
5.5725
 30
0.0000
  0
SEQEND
  8
0
  0
POLYLINE
  8
21
 66
1
 10
0.0000
 20
0.0000
 30
0.0000
 40
0.0635
 41
0.0635
 70
0
  0
VERTEX
  8
21
 10
3.3575
 20
4.9375
 30
0.0000
 42
1.0000
  0
VERTEX
  8
21
 10
3.4025
 20
4.8925
 30
0.0000
  0
SEQEND
  8
0
  0
POLYLINE
  8
21
 66
1
 10
0.0000
 20
0.0000
 30
0.0000
 40
0.1270
 41
0.1270
 70
0
  0
VERTEX
  8
21
 10
4.0150
 20
5.5500
 30
0.0000
  0
VERTEX
  8
21
 10
3.3800
 20
6.1850
 30
0.0000
  0
SEQEND
  8
0
  0
POLYLINE
  8
21
 66
1
 10
0.0000
 20
0.0000
 30
0.0000
 40
0.0635
 41
0.0635
 70
0
  0
VERTEX
  8
21
 10
3.4025
 20
6.2075
 30
0.0000
 42
1.0000
  0
VERTEX
  8
21
 10
3.3575
 20
6.1625
 30
0.0000
  0
SEQEND
  8
0
  0
POLYLINE
  8
21
 66
1
 10
0.0000
 20
0.0000
 30
0.0000
 40
0.0635
 41
0.0635
 70
0
  0
VERTEX
  8
21
 10
3.9925
 20
5.5275
 30
0.0000
 42
1.0000
  0
VERTEX
  8
21
 10
4.0375
 20
5.5725
 30
0.0000
  0
SEQEND
  8
0
  0
POLYLINE
  8
21
 66
1
 10
0.0000
 20
0.0000
 30
0.0000
 40
0.1270
 41
0.1270
 70
0
  0
VERTEX
  8
21
 10
3.3800
 20
6.1850
 30
0.0000
  0
VERTEX
  8
21
 10
3.3800
 20
7.4550
 30
0.0000
  0
SEQEND
  8
0
  0
POLYLINE
  8
21
 66
1
 10
0.0000
 20
0.0000
 30
0.0000
 40
0.0635
 41
0.0635
 70
0
  0
VERTEX
  8
21
 10
3.4118
 20
7.4550
 30
0.0000
 42
1.0000
  0
VERTEX
  8
21
 10
3.3483
 20
7.4550
 30
0.0000
  0
SEQEND
  8
0
  0
POLYLINE
  8
21
 66
1
 10
0.0000
 20
0.0000
 30
0.0000
 40
0.0635
 41
0.0635
 70
0
  0
VERTEX
  8
21
 10
3.3483
 20
6.1850
 30
0.0000
 42
1.0000
  0
VERTEX
  8
21
 10
3.4118
 20
6.1850
 30
0.0000
  0
SEQEND
  8
0
  0
POLYLINE
  8
21
 66
1
 10
0.0000
 20
0.0000
 30
0.0000
 40
0.1270
 41
0.1270
 70
0
  0
VERTEX
  8
21
 10
3.3800
 20
7.4550
 30
0.0000
  0
VERTEX
  8
21
 10
4.0150
 20
8.0900
 30
0.0000
  0
SEQEND
  8
0
  0
POLYLINE
  8
21
 66
1
 10
0.0000
 20
0.0000
 30
0.0000
 40
0.0635
 41
0.0635
 70
0
  0
VERTEX
  8
21
 10
4.0375
 20
8.0675
 30
0.0000
 42
1.0000
  0
VERTEX
  8
21
 10
3.9925
 20
8.1125
 30
0.0000
  0
SEQEND
  8
0
  0
POLYLINE
  8
21
 66
1
 10
0.0000
 20
0.0000
 30
0.0000
 40
0.0635
 41
0.0635
 70
0
  0
VERTEX
  8
21
 10
3.3575
 20
7.4775
 30
0.0000
 42
1.0000
  0
VERTEX
  8
21
 10
3.4025
 20
7.4325
 30
0.0000
  0
SEQEND
  8
0
  0
POLYLINE
  8
21
 66
1
 10
0.0000
 20
0.0000
 30
0.0000
 40
0.1270
 41
0.1270
 70
0
  0
VERTEX
  8
21
 10
4.0150
 20
8.0900
 30
0.0000
  0
VERTEX
  8
21
 10
3.3800
 20
8.7250
 30
0.0000
  0
SEQEND
  8
0
  0
POLYLINE
  8
21
 66
1
 10
0.0000
 20
0.0000
 30
0.0000
 40
0.0635
 41
0.0635
 70
0
  0
VERTEX
  8
21
 10
3.4025
 20
8.7475
 30
0.0000
 42
1.0000
  0
VERTEX
  8
21
 10
3.3575
 20
8.7025
 30
0.0000
  0
SEQEND
  8
0
  0
POLYLINE
  8
21
 66
1
 10
0.0000
 20
0.0000
 30
0.0000
 40
0.0635
 41
0.0635
 70
0
  0
VERTEX
  8
21
 10
3.9925
 20
8.0675
 30
0.0000
 42
1.0000
  0
VERTEX
  8
21
 10
4.0375
 20
8.1125
 30
0.0000
  0
SEQEND
  8
0
  0
POLYLINE
  8
21
 66
1
 10
0.0000
 20
0.0000
 30
0.0000
 40
0.1270
 41
0.1270
 70
0
  0
VERTEX
  8
21
 10
3.3800
 20
8.7250
 30
0.0000
  0
VERTEX
  8
21
 10
3.3800
 20
9.9950
 30
0.0000
  0
SEQEND
  8
0
  0
POLYLINE
  8
21
 66
1
 10
0.0000
 20
0.0000
 30
0.0000
 40
0.0635
 41
0.0635
 70
0
  0
VERTEX
  8
21
 10
3.4118
 20
9.9950
 30
0.0000
 42
1.0000
  0
VERTEX
  8
21
 10
3.3483
 20
9.9950
 30
0.0000
  0
SEQEND
  8
0
  0
POLYLINE
  8
21
 66
1
 10
0.0000
 20
0.0000
 30
0.0000
 40
0.0635
 41
0.0635
 70
0
  0
VERTEX
  8
21
 10
3.3483
 20
8.7250
 30
0.0000
 42
1.0000
  0
VERTEX
  8
21
 10
3.4118
 20
8.7250
 30
0.0000
  0
SEQEND
  8
0
  0
POLYLINE
  8
21
 66
1
 10
0.0000
 20
0.0000
 30
0.0000
 40
0.1270
 41
0.1270
 70
0
  0
VERTEX
  8
21
 10
3.3800
 20
9.9950
 30
0.0000
  0
VERTEX
  8
21
 10
4.0150
 20
10.6300
 30
0.0000
  0
SEQEND
  8
0
  0
POLYLINE
  8
21
 66
1
 10
0.0000
 20
0.0000
 30
0.0000
 40
0.0635
 41
0.0635
 70
0
  0
VERTEX
  8
21
 10
4.0375
 20
10.6075
 30
0.0000
 42
1.0000
  0
VERTEX
  8
21
 10
3.9925
 20
10.6525
 30
0.0000
  0
SEQEND
  8
0
  0
POLYLINE
  8
21
 66
1
 10
0.0000
 20
0.0000
 30
0.0000
 40
0.0635
 41
0.0635
 70
0
  0
VERTEX
  8
21
 10
3.3575
 20
10.0175
 30
0.0000
 42
1.0000
  0
VERTEX
  8
21
 10
3.4025
 20
9.9725
 30
0.0000
  0
SEQEND
  8
0
  0
POLYLINE
  8
21
 66
1
 10
0.0000
 20
0.0000
 30
0.0000
 40
0.1270
 41
0.1270
 70
0
  0
VERTEX
  8
21
 10
4.0150
 20
10.6300
 30
0.0000
  0
VERTEX
  8
21
 10
3.3800
 20
11.2650
 30
0.0000
  0
SEQEND
  8
0
  0
POLYLINE
  8
21
 66
1
 10
0.0000
 20
0.0000
 30
0.0000
 40
0.0635
 41
0.0635
 70
0
  0
VERTEX
  8
21
 10
3.4025
 20
11.2875
 30
0.0000
 42
1.0000
  0
VERTEX
  8
21
 10
3.3575
 20
11.2425
 30
0.0000
  0
SEQEND
  8
0
  0
POLYLINE
  8
21
 66
1
 10
0.0000
 20
0.0000
 30
0.0000
 40
0.0635
 41
0.0635
 70
0
  0
VERTEX
  8
21
 10
3.9925
 20
10.6075
 30
0.0000
 42
1.0000
  0
VERTEX
  8
21
 10
4.0375
 20
10.6525
 30
0.0000
  0
SEQEND
  8
0
  0
POLYLINE
  8
21
 66
1
 10
0.0000
 20
0.0000
 30
0.0000
 40
0.1270
 41
0.1270
 70
0
  0
VERTEX
  8
21
 10
3.3800
 20
11.2650
 30
0.0000
  0
VERTEX
  8
21
 10
3.3800
 20
12.5350
 30
0.0000
  0
SEQEND
  8
0
  0
POLYLINE
  8
21
 66
1
 10
0.0000
 20
0.0000
 30
0.0000
 40
0.0635
 41
0.0635
 70
0
  0
VERTEX
  8
21
 10
3.4118
 20
12.5350
 30
0.0000
 42
1.0000
  0
VERTEX
  8
21
 10
3.3483
 20
12.5350
 30
0.0000
  0
SEQEND
  8
0
  0
POLYLINE
  8
21
 66
1
 10
0.0000
 20
0.0000
 30
0.0000
 40
0.0635
 41
0.0635
 70
0
  0
VERTEX
  8
21
 10
3.3483
 20
11.2650
 30
0.0000
 42
1.0000
  0
VERTEX
  8
21
 10
3.4118
 20
11.2650
 30
0.0000
  0
SEQEND
  8
0
  0
POLYLINE
  8
21
 66
1
 10
0.0000
 20
0.0000
 30
0.0000
 40
0.1270
 41
0.1270
 70
0
  0
VERTEX
  8
21
 10
3.3800
 20
12.5350
 30
0.0000
  0
VERTEX
  8
21
 10
4.0150
 20
13.1700
 30
0.0000
  0
SEQEND
  8
0
  0
POLYLINE
  8
21
 66
1
 10
0.0000
 20
0.0000
 30
0.0000
 40
0.0635
 41
0.0635
 70
0
  0
VERTEX
  8
21
 10
4.0375
 20
13.1475
 30
0.0000
 42
1.0000
  0
VERTEX
  8
21
 10
3.9925
 20
13.1925
 30
0.0000
  0
SEQEND
  8
0
  0
POLYLINE
  8
21
 66
1
 10
0.0000
 20
0.0000
 30
0.0000
 40
0.0635
 41
0.0635
 70
0
  0
VERTEX
  8
21
 10
3.3575
 20
12.5575
 30
0.0000
 42
1.0000
  0
VERTEX
  8
21
 10
3.4025
 20
12.5125
 30
0.0000
  0
SEQEND
  8
0
  0
POLYLINE
  8
21
 66
1
 10
0.0000
 20
0.0000
 30
0.0000
 40
0.1270
 41
0.1270
 70
0
  0
VERTEX
  8
21
 10
4.0150
 20
13.1700
 30
0.0000
  0
VERTEX
  8
21
 10
3.3800
 20
13.8050
 30
0.0000
  0
SEQEND
  8
0
  0
POLYLINE
  8
21
 66
1
 10
0.0000
 20
0.0000
 30
0.0000
 40
0.0635
 41
0.0635
 70
0
  0
VERTEX
  8
21
 10
3.4025
 20
13.8275
 30
0.0000
 42
1.0000
  0
VERTEX
  8
21
 10
3.3575
 20
13.7825
 30
0.0000
  0
SEQEND
  8
0
  0
POLYLINE
  8
21
 66
1
 10
0.0000
 20
0.0000
 30
0.0000
 40
0.0635
 41
0.0635
 70
0
  0
VERTEX
  8
21
 10
3.9925
 20
13.1475
 30
0.0000
 42
1.0000
  0
VERTEX
  8
21
 10
4.0375
 20
13.1925
 30
0.0000
  0
SEQEND
  8
0
  0
POLYLINE
  8
21
 66
1
 10
0.0000
 20
0.0000
 30
0.0000
 40
0.1270
 41
0.1270
 70
0
  0
VERTEX
  8
21
 10
3.3800
 20
13.8050
 30
0.0000
  0
VERTEX
  8
21
 10
3.3800
 20
15.0750
 30
0.0000
  0
SEQEND
  8
0
  0
POLYLINE
  8
21
 66
1
 10
0.0000
 20
0.0000
 30
0.0000
 40
0.0635
 41
0.0635
 70
0
  0
VERTEX
  8
21
 10
3.4118
 20
15.0750
 30
0.0000
 42
1.0000
  0
VERTEX
  8
21
 10
3.3483
 20
15.0750
 30
0.0000
  0
SEQEND
  8
0
  0
POLYLINE
  8
21
 66
1
 10
0.0000
 20
0.0000
 30
0.0000
 40
0.0635
 41
0.0635
 70
0
  0
VERTEX
  8
21
 10
3.3483
 20
13.8050
 30
0.0000
 42
1.0000
  0
VERTEX
  8
21
 10
3.4118
 20
13.8050
 30
0.0000
  0
SEQEND
  8
0
  0
POLYLINE
  8
21
 66
1
 10
0.0000
 20
0.0000
 30
0.0000
 40
0.1270
 41
0.1270
 70
0
  0
VERTEX
  8
21
 10
3.3800
 20
15.0750
 30
0.0000
  0
VERTEX
  8
21
 10
4.0150
 20
15.7100
 30
0.0000
  0
SEQEND
  8
0
  0
POLYLINE
  8
21
 66
1
 10
0.0000
 20
0.0000
 30
0.0000
 40
0.0635
 41
0.0635
 70
0
  0
VERTEX
  8
21
 10
4.0375
 20
15.6875
 30
0.0000
 42
1.0000
  0
VERTEX
  8
21
 10
3.9925
 20
15.7325
 30
0.0000
  0
SEQEND
  8
0
  0
POLYLINE
  8
21
 66
1
 10
0.0000
 20
0.0000
 30
0.0000
 40
0.0635
 41
0.0635
 70
0
  0
VERTEX
  8
21
 10
3.3575
 20
15.0975
 30
0.0000
 42
1.0000
  0
VERTEX
  8
21
 10
3.4025
 20
15.0525
 30
0.0000
  0
SEQEND
  8
0
  0
POLYLINE
  8
21
 66
1
 10
0.0000
 20
0.0000
 30
0.0000
 40
0.1270
 41
0.1270
 70
0
  0
VERTEX
  8
21
 10
4.0150
 20
15.7100
 30
0.0000
  0
VERTEX
  8
21
 10
3.3800
 20
16.3450
 30
0.0000
  0
SEQEND
  8
0
  0
POLYLINE
  8
21
 66
1
 10
0.0000
 20
0.0000
 30
0.0000
 40
0.0635
 41
0.0635
 70
0
  0
VERTEX
  8
21
 10
3.4025
 20
16.3675
 30
0.0000
 42
1.0000
  0
VERTEX
  8
21
 10
3.3575
 20
16.3225
 30
0.0000
  0
SEQEND
  8
0
  0
POLYLINE
  8
21
 66
1
 10
0.0000
 20
0.0000
 30
0.0000
 40
0.0635
 41
0.0635
 70
0
  0
VERTEX
  8
21
 10
3.9925
 20
15.6875
 30
0.0000
 42
1.0000
  0
VERTEX
  8
21
 10
4.0375
 20
15.7325
 30
0.0000
  0
SEQEND
  8
0
  0
POLYLINE
  8
21
 66
1
 10
0.0000
 20
0.0000
 30
0.0000
 40
0.1270
 41
0.1270
 70
0
  0
VERTEX
  8
21
 10
3.3800
 20
16.3450
 30
0.0000
  0
VERTEX
  8
21
 10
3.3800
 20
17.6150
 30
0.0000
  0
SEQEND
  8
0
  0
POLYLINE
  8
21
 66
1
 10
0.0000
 20
0.0000
 30
0.0000
 40
0.0635
 41
0.0635
 70
0
  0
VERTEX
  8
21
 10
3.4118
 20
17.6150
 30
0.0000
 42
1.0000
  0
VERTEX
  8
21
 10
3.3483
 20
17.6150
 30
0.0000
  0
SEQEND
  8
0
  0
POLYLINE
  8
21
 66
1
 10
0.0000
 20
0.0000
 30
0.0000
 40
0.0635
 41
0.0635
 70
0
  0
VERTEX
  8
21
 10
3.3483
 20
16.3450
 30
0.0000
 42
1.0000
  0
VERTEX
  8
21
 10
3.4118
 20
16.3450
 30
0.0000
  0
SEQEND
  8
0
  0
POLYLINE
  8
21
 66
1
 10
0.0000
 20
0.0000
 30
0.0000
 40
0.1270
 41
0.1270
 70
0
  0
VERTEX
  8
21
 10
3.3800
 20
17.6150
 30
0.0000
  0
VERTEX
  8
21
 10
4.0150
 20
18.2500
 30
0.0000
  0
SEQEND
  8
0
  0
POLYLINE
  8
21
 66
1
 10
0.0000
 20
0.0000
 30
0.0000
 40
0.0635
 41
0.0635
 70
0
  0
VERTEX
  8
21
 10
4.0375
 20
18.2275
 30
0.0000
 42
1.0000
  0
VERTEX
  8
21
 10
3.9925
 20
18.2725
 30
0.0000
  0
SEQEND
  8
0
  0
POLYLINE
  8
21
 66
1
 10
0.0000
 20
0.0000
 30
0.0000
 40
0.0635
 41
0.0635
 70
0
  0
VERTEX
  8
21
 10
3.3575
 20
17.6375
 30
0.0000
 42
1.0000
  0
VERTEX
  8
21
 10
3.4025
 20
17.5925
 30
0.0000
  0
SEQEND
  8
0
  0
POLYLINE
  8
21
 66
1
 10
0.0000
 20
0.0000
 30
0.0000
 40
0.1270
 41
0.1270
 70
0
  0
VERTEX
  8
21
 10
4.0150
 20
18.2500
 30
0.0000
  0
VERTEX
  8
21
 10
3.3800
 20
18.8850
 30
0.0000
  0
SEQEND
  8
0
  0
POLYLINE
  8
21
 66
1
 10
0.0000
 20
0.0000
 30
0.0000
 40
0.0635
 41
0.0635
 70
0
  0
VERTEX
  8
21
 10
3.4025
 20
18.9075
 30
0.0000
 42
1.0000
  0
VERTEX
  8
21
 10
3.3575
 20
18.8625
 30
0.0000
  0
SEQEND
  8
0
  0
POLYLINE
  8
21
 66
1
 10
0.0000
 20
0.0000
 30
0.0000
 40
0.0635
 41
0.0635
 70
0
  0
VERTEX
  8
21
 10
3.9925
 20
18.2275
 30
0.0000
 42
1.0000
  0
VERTEX
  8
21
 10
4.0375
 20
18.2725
 30
0.0000
  0
SEQEND
  8
0
  0
POLYLINE
  8
21
 66
1
 10
0.0000
 20
0.0000
 30
0.0000
 40
0.1270
 41
0.1270
 70
0
  0
VERTEX
  8
21
 10
3.3800
 20
18.8850
 30
0.0000
  0
VERTEX
  8
21
 10
3.3800
 20
20.1550
 30
0.0000
  0
SEQEND
  8
0
  0
POLYLINE
  8
21
 66
1
 10
0.0000
 20
0.0000
 30
0.0000
 40
0.0635
 41
0.0635
 70
0
  0
VERTEX
  8
21
 10
3.4118
 20
20.1550
 30
0.0000
 42
1.0000
  0
VERTEX
  8
21
 10
3.3483
 20
20.1550
 30
0.0000
  0
SEQEND
  8
0
  0
POLYLINE
  8
21
 66
1
 10
0.0000
 20
0.0000
 30
0.0000
 40
0.0635
 41
0.0635
 70
0
  0
VERTEX
  8
21
 10
3.3483
 20
18.8850
 30
0.0000
 42
1.0000
  0
VERTEX
  8
21
 10
3.4118
 20
18.8850
 30
0.0000
  0
SEQEND
  8
0
  0
POLYLINE
  8
21
 66
1
 10
0.0000
 20
0.0000
 30
0.0000
 40
0.1524
 41
0.1524
 70
0
  0
VERTEX
  8
21
 10
7.4856
 20
6.4958
 30
0.0000
  0
VERTEX
  8
21
 10
6.4696
 20
6.4958
 30
0.0000
  0
SEQEND
  8
0
  0
POLYLINE
  8
21
 66
1
 10
0.0000
 20
0.0000
 30
0.0000
 40
0.0762
 41
0.0762
 70
0
  0
VERTEX
  8
21
 10
6.4696
 20
6.5339
 30
0.0000
 42
1.0000
  0
VERTEX
  8
21
 10
6.4696
 20
6.4577
 30
0.0000
  0
SEQEND
  8
0
  0
POLYLINE
  8
21
 66
1
 10
0.0000
 20
0.0000
 30
0.0000
 40
0.0762
 41
0.0762
 70
0
  0
VERTEX
  8
21
 10
7.4856
 20
6.4577
 30
0.0000
 42
1.0000
  0
VERTEX
  8
21
 10
7.4856
 20
6.5339
 30
0.0000
  0
SEQEND
  8
0
  0
POLYLINE
  8
21
 66
1
 10
0.0000
 20
0.0000
 30
0.0000
 40
0.1524
 41
0.1524
 70
0
  0
VERTEX
  8
21
 10
20.4904
 20
18.0020
 30
0.0000
  0
VERTEX
  8
21
 10
19.4744
 20
18.0020
 30
0.0000
  0
SEQEND
  8
0
  0
POLYLINE
  8
21
 66
1
 10
0.0000
 20
0.0000
 30
0.0000
 40
0.0762
 41
0.0762
 70
0
  0
VERTEX
  8
21
 10
19.4744
 20
18.0401
 30
0.0000
 42
1.0000
  0
VERTEX
  8
21
 10
19.4744
 20
17.9639
 30
0.0000
  0
SEQEND
  8
0
  0
POLYLINE
  8
21
 66
1
 10
0.0000
 20
0.0000
 30
0.0000
 40
0.0762
 41
0.0762
 70
0
  0
VERTEX
  8
21
 10
20.4904
 20
17.9639
 30
0.0000
 42
1.0000
  0
VERTEX
  8
21
 10
20.4904
 20
18.0401
 30
0.0000
  0
SEQEND
  8
0
  0
POLYLINE
  8
21
 66
1
 10
0.0000
 20
0.0000
 30
0.0000
 40
0.1524
 41
0.1524
 70
0
  0
VERTEX
  8
21
 10
17.2900
 20
18.4846
 30
0.0000
  0
VERTEX
  8
21
 10
17.2900
 20
18.6624
 30
0.0000
  0
SEQEND
  8
0
  0
POLYLINE
  8
21
 66
1
 10
0.0000
 20
0.0000
 30
0.0000
 40
0.0762
 41
0.0762
 70
0
  0
VERTEX
  8
21
 10
17.3281
 20
18.6624
 30
0.0000
 42
1.0000
  0
VERTEX
  8
21
 10
17.2519
 20
18.6624
 30
0.0000
  0
SEQEND
  8
0
  0
POLYLINE
  8
21
 66
1
 10
0.0000
 20
0.0000
 30
0.0000
 40
0.0762
 41
0.0762
 70
0
  0
VERTEX
  8
21
 10
17.2519
 20
18.4846
 30
0.0000
 42
1.0000
  0
VERTEX
  8
21
 10
17.3281
 20
18.4846
 30
0.0000
  0
SEQEND
  8
0
  0
POLYLINE
  8
21
 66
1
 10
0.0000
 20
0.0000
 30
0.0000
 40
0.1524
 41
0.1524
 70
0
  0
VERTEX
  8
21
 10
9.6700
 20
5.8354
 30
0.0000
  0
VERTEX
  8
21
 10
9.6700
 20
5.6576
 30
0.0000
  0
SEQEND
  8
0
  0
POLYLINE
  8
21
 66
1
 10
0.0000
 20
0.0000
 30
0.0000
 40
0.0762
 41
0.0762
 70
0
  0
VERTEX
  8
21
 10
9.6319
 20
5.6576
 30
0.0000
 42
1.0000
  0
VERTEX
  8
21
 10
9.7081
 20
5.6576
 30
0.0000
  0
SEQEND
  8
0
  0
POLYLINE
  8
21
 66
1
 10
0.0000
 20
0.0000
 30
0.0000
 40
0.0762
 41
0.0762
 70
0
  0
VERTEX
  8
21
 10
9.7081
 20
5.8354
 30
0.0000
 42
1.0000
  0
VERTEX
  8
21
 10
9.6319
 20
5.8354
 30
0.0000
  0
SEQEND
  8
0
  0
POLYLINE
  8
21
 66
1
 10
0.0000
 20
0.0000
 30
0.0000
 40
0.1524
 41
0.1524
 70
0
  0
VERTEX
  8
21
 10
9.6700
 20
5.6576
 30
0.0000
  0
VERTEX
  8
21
 10
17.2900
 20
5.6576
 30
0.0000
  0
SEQEND
  8
0
  0
POLYLINE
  8
21
 66
1
 10
0.0000
 20
0.0000
 30
0.0000
 40
0.0762
 41
0.0762
 70
0
  0
VERTEX
  8
21
 10
17.2900
 20
5.6195
 30
0.0000
 42
1.0000
  0
VERTEX
  8
21
 10
17.2900
 20
5.6957
 30
0.0000
  0
SEQEND
  8
0
  0
POLYLINE
  8
21
 66
1
 10
0.0000
 20
0.0000
 30
0.0000
 40
0.0762
 41
0.0762
 70
0
  0
VERTEX
  8
21
 10
9.6700
 20
5.6957
 30
0.0000
 42
1.0000
  0
VERTEX
  8
21
 10
9.6700
 20
5.6195
 30
0.0000
  0
SEQEND
  8
0
  0
POLYLINE
  8
21
 66
1
 10
0.0000
 20
0.0000
 30
0.0000
 40
0.1524
 41
0.1524
 70
0
  0
VERTEX
  8
21
 10
17.2900
 20
5.6576
 30
0.0000
  0
VERTEX
  8
21
 10
17.2900
 20
5.8354
 30
0.0000
  0
SEQEND
  8
0
  0
POLYLINE
  8
21
 66
1
 10
0.0000
 20
0.0000
 30
0.0000
 40
0.0762
 41
0.0762
 70
0
  0
VERTEX
  8
21
 10
17.3281
 20
5.8354
 30
0.0000
 42
1.0000
  0
VERTEX
  8
21
 10
17.2519
 20
5.8354
 30
0.0000
  0
SEQEND
  8
0
  0
POLYLINE
  8
21
 66
1
 10
0.0000
 20
0.0000
 30
0.0000
 40
0.0762
 41
0.0762
 70
0
  0
VERTEX
  8
21
 10
17.2519
 20
5.6576
 30
0.0000
 42
1.0000
  0
VERTEX
  8
21
 10
17.3281
 20
5.6576
 30
0.0000
  0
SEQEND
  8
0
  0
POLYLINE
  8
21
 66
1
 10
0.0000
 20
0.0000
 30
0.0000
 40
0.1524
 41
0.1524
 70
0
  0
VERTEX
  8
21
 10
17.2900
 20
18.6624
 30
0.0000
  0
VERTEX
  8
21
 10
13.7848
 20
18.6624
 30
0.0000
  0
SEQEND
  8
0
  0
POLYLINE
  8
21
 66
1
 10
0.0000
 20
0.0000
 30
0.0000
 40
0.0762
 41
0.0762
 70
0
  0
VERTEX
  8
21
 10
13.7848
 20
18.7005
 30
0.0000
 42
1.0000
  0
VERTEX
  8
21
 10
13.7848
 20
18.6243
 30
0.0000
  0
SEQEND
  8
0
  0
POLYLINE
  8
21
 66
1
 10
0.0000
 20
0.0000
 30
0.0000
 40
0.0762
 41
0.0762
 70
0
  0
VERTEX
  8
21
 10
17.2900
 20
18.6243
 30
0.0000
 42
1.0000
  0
VERTEX
  8
21
 10
17.2900
 20
18.7005
 30
0.0000
  0
SEQEND
  8
0
  0
POLYLINE
  8
21
 66
1
 10
0.0000
 20
0.0000
 30
0.0000
 40
0.1524
 41
0.1524
 70
0
  0
VERTEX
  8
21
 10
13.7848
 20
18.6624
 30
0.0000
  0
VERTEX
  8
21
 10
13.1752
 20
18.6624
 30
0.0000
  0
SEQEND
  8
0
  0
POLYLINE
  8
21
 66
1
 10
0.0000
 20
0.0000
 30
0.0000
 40
0.0762
 41
0.0762
 70
0
  0
VERTEX
  8
21
 10
13.1752
 20
18.7005
 30
0.0000
 42
1.0000
  0
VERTEX
  8
21
 10
13.1752
 20
18.6243
 30
0.0000
  0
SEQEND
  8
0
  0
POLYLINE
  8
21
 66
1
 10
0.0000
 20
0.0000
 30
0.0000
 40
0.0762
 41
0.0762
 70
0
  0
VERTEX
  8
21
 10
13.7848
 20
18.6243
 30
0.0000
 42
1.0000
  0
VERTEX
  8
21
 10
13.7848
 20
18.7005
 30
0.0000
  0
SEQEND
  8
0
  0
POLYLINE
  8
21
 66
1
 10
0.0000
 20
0.0000
 30
0.0000
 40
0.1524
 41
0.1524
 70
0
  0
VERTEX
  8
21
 10
13.1752
 20
18.6624
 30
0.0000
  0
VERTEX
  8
21
 10
9.6700
 20
18.6624
 30
0.0000
  0
SEQEND
  8
0
  0
POLYLINE
  8
21
 66
1
 10
0.0000
 20
0.0000
 30
0.0000
 40
0.0762
 41
0.0762
 70
0
  0
VERTEX
  8
21
 10
9.6700
 20
18.7005
 30
0.0000
 42
1.0000
  0
VERTEX
  8
21
 10
9.6700
 20
18.6243
 30
0.0000
  0
SEQEND
  8
0
  0
POLYLINE
  8
21
 66
1
 10
0.0000
 20
0.0000
 30
0.0000
 40
0.0762
 41
0.0762
 70
0
  0
VERTEX
  8
21
 10
13.1752
 20
18.6243
 30
0.0000
 42
1.0000
  0
VERTEX
  8
21
 10
13.1752
 20
18.7005
 30
0.0000
  0
SEQEND
  8
0
  0
POLYLINE
  8
21
 66
1
 10
0.0000
 20
0.0000
 30
0.0000
 40
0.1524
 41
0.1524
 70
0
  0
VERTEX
  8
21
 10
9.6700
 20
18.6624
 30
0.0000
  0
VERTEX
  8
21
 10
9.6700
 20
18.4846
 30
0.0000
  0
SEQEND
  8
0
  0
POLYLINE
  8
21
 66
1
 10
0.0000
 20
0.0000
 30
0.0000
 40
0.0762
 41
0.0762
 70
0
  0
VERTEX
  8
21
 10
9.6319
 20
18.4846
 30
0.0000
 42
1.0000
  0
VERTEX
  8
21
 10
9.7081
 20
18.4846
 30
0.0000
  0
SEQEND
  8
0
  0
POLYLINE
  8
21
 66
1
 10
0.0000
 20
0.0000
 30
0.0000
 40
0.0762
 41
0.0762
 70
0
  0
VERTEX
  8
21
 10
9.7081
 20
18.6624
 30
0.0000
 42
1.0000
  0
VERTEX
  8
21
 10
9.6319
 20
18.6624
 30
0.0000
  0
SEQEND
  8
0
  0
POLYLINE
  8
21
 66
1
 10
0.0000
 20
0.0000
 30
0.0000
 40
0.1524
 41
0.1524
 70
0
  0
VERTEX
  8
21
 10
13.1752
 20
18.6624
 30
0.0000
 42
1.0000
  0
VERTEX
  8
21
 10
13.7848
 20
18.6624
 30
0.0000
  0
SEQEND
  8
0
  0
POLYLINE
  8
21
 66
1
 10
0.0000
 20
0.0000
 30
0.0000
 40
0.0762
 41
0.0762
 70
0
  0
VERTEX
  8
21
 10
13.2133
 20
18.6624
 30
0.0000
 42
1.0000
  0
VERTEX
  8
21
 10
13.1371
 20
18.6624
 30
0.0000
  0
SEQEND
  8
0
  0
POLYLINE
  8
21
 66
1
 10
0.0000
 20
0.0000
 30
0.0000
 40
0.0762
 41
0.0762
 70
0
  0
VERTEX
  8
21
 10
13.8229
 20
18.6624
 30
0.0000
 42
1.0000
  0
VERTEX
  8
21
 10
13.7467
 20
18.6624
 30
0.0000
  0
SEQEND
  8
0
  0
POLYLINE
  8
21
 66
1
 10
0.0000
 20
0.0000
 30
0.0000
 40
0.0762
 41
0.0762
 70
0
  0
VERTEX
  8
21
 10
8.0063
 20
19.3406
 30
0.0000
  0
VERTEX
  8
21
 10
8.8028
 20
18.5440
 30
0.0000
  0
SEQEND
  8
0
  0
POLYLINE
  8
21
 66
1
 10
0.0000
 20
0.0000
 30
0.0000
 40
0.0381
 41
0.0381
 70
0
  0
VERTEX
  8
21
 10
8.7894
 20
18.5306
 30
0.0000
 42
1.0000
  0
VERTEX
  8
21
 10
8.8163
 20
18.5575
 30
0.0000
  0
SEQEND
  8
0
  0
POLYLINE
  8
21
 66
1
 10
0.0000
 20
0.0000
 30
0.0000
 40
0.0381
 41
0.0381
 70
0
  0
VERTEX
  8
21
 10
8.0198
 20
19.3541
 30
0.0000
 42
1.0000
  0
VERTEX
  8
21
 10
7.9928
 20
19.3271
 30
0.0000
  0
SEQEND
  8
0
  0
POLYLINE
  8
21
 66
1
 10
0.0000
 20
0.0000
 30
0.0000
 40
0.0762
 41
0.0762
 70
0
  0
VERTEX
  8
21
 10
8.0063
 20
18.5440
 30
0.0000
  0
VERTEX
  8
21
 10
8.8028
 20
19.3406
 30
0.0000
  0
SEQEND
  8
0
  0
POLYLINE
  8
21
 66
1
 10
0.0000
 20
0.0000
 30
0.0000
 40
0.0381
 41
0.0381
 70
0
  0
VERTEX
  8
21
 10
8.8163
 20
19.3271
 30
0.0000
 42
1.0000
  0
VERTEX
  8
21
 10
8.7894
 20
19.3541
 30
0.0000
  0
SEQEND
  8
0
  0
POLYLINE
  8
21
 66
1
 10
0.0000
 20
0.0000
 30
0.0000
 40
0.0381
 41
0.0381
 70
0
  0
VERTEX
  8
21
 10
7.9928
 20
18.5575
 30
0.0000
 42
1.0000
  0
VERTEX
  8
21
 10
8.0198
 20
18.5306
 30
0.0000
  0
SEQEND
  8
0
  0
POLYLINE
  8
21
 66
1
 10
0.0000
 20
0.0000
 30
0.0000
 40
0.0762
 41
0.0762
 70
0
  0
VERTEX
  8
21
 10
8.0063
 20
18.9423
 30
0.0000
  0
VERTEX
  8
21
 10
8.8028
 20
18.9423
 30
0.0000
  0
SEQEND
  8
0
  0
POLYLINE
  8
21
 66
1
 10
0.0000
 20
0.0000
 30
0.0000
 40
0.0381
 41
0.0381
 70
0
  0
VERTEX
  8
21
 10
8.8028
 20
18.9233
 30
0.0000
 42
1.0000
  0
VERTEX
  8
21
 10
8.8028
 20
18.9614
 30
0.0000
  0
SEQEND
  8
0
  0
POLYLINE
  8
21
 66
1
 10
0.0000
 20
0.0000
 30
0.0000
 40
0.0381
 41
0.0381
 70
0
  0
VERTEX
  8
21
 10
8.0063
 20
18.9614
 30
0.0000
 42
1.0000
  0
VERTEX
  8
21
 10
8.0063
 20
18.9233
 30
0.0000
  0
SEQEND
  8
0
  0
POLYLINE
  8
21
 66
1
 10
0.0000
 20
0.0000
 30
0.0000
 40
0.0762
 41
0.0762
 70
0
  0
VERTEX
  8
21
 10
8.4046
 20
18.5440
 30
0.0000
  0
VERTEX
  8
21
 10
8.4046
 20
19.3406
 30
0.0000
  0
SEQEND
  8
0
  0
POLYLINE
  8
21
 66
1
 10
0.0000
 20
0.0000
 30
0.0000
 40
0.0381
 41
0.0381
 70
0
  0
VERTEX
  8
21
 10
8.4236
 20
19.3406
 30
0.0000
 42
1.0000
  0
VERTEX
  8
21
 10
8.3855
 20
19.3406
 30
0.0000
  0
SEQEND
  8
0
  0
POLYLINE
  8
21
 66
1
 10
0.0000
 20
0.0000
 30
0.0000
 40
0.0381
 41
0.0381
 70
0
  0
VERTEX
  8
21
 10
8.3855
 20
18.5440
 30
0.0000
 42
1.0000
  0
VERTEX
  8
21
 10
8.4236
 20
18.5440
 30
0.0000
  0
SEQEND
  8
0
  0
POLYLINE
  8
21
 66
1
 10
0.0000
 20
0.0000
 30
0.0000
 40
0.1524
 41
0.1524
 70
0
  0
VERTEX
  8
21
 10
33.7037
 20
24.4009
 30
0.0000
  0
VERTEX
  8
21
 10
33.7037
 20
34.3829
 30
0.0000
  0
SEQEND
  8
0
  0
POLYLINE
  8
21
 66
1
 10
0.0000
 20
0.0000
 30
0.0000
 40
0.0762
 41
0.0762
 70
0
  0
VERTEX
  8
21
 10
33.7418
 20
34.3829
 30
0.0000
 42
1.0000
  0
VERTEX
  8
21
 10
33.6656
 20
34.3829
 30
0.0000
  0
SEQEND
  8
0
  0
POLYLINE
  8
21
 66
1
 10
0.0000
 20
0.0000
 30
0.0000
 40
0.0762
 41
0.0762
 70
0
  0
VERTEX
  8
21
 10
33.6656
 20
24.4009
 30
0.0000
 42
1.0000
  0
VERTEX
  8
21
 10
33.7418
 20
24.4009
 30
0.0000
  0
SEQEND
  8
0
  0
POLYLINE
  8
21
 66
1
 10
0.0000
 20
0.0000
 30
0.0000
 40
0.1524
 41
0.1524
 70
0
  0
VERTEX
  8
21
 10
24.5087
 20
34.3829
 30
0.0000
  0
VERTEX
  8
21
 10
24.7117
 20
34.3829
 30
0.0000
  0
SEQEND
  8
0
  0
POLYLINE
  8
21
 66
1
 10
0.0000
 20
0.0000
 30
0.0000
 40
0.0762
 41
0.0762
 70
0
  0
VERTEX
  8
21
 10
24.7117
 20
34.3448
 30
0.0000
 42
1.0000
  0
VERTEX
  8
21
 10
24.7117
 20
34.4210
 30
0.0000
  0
SEQEND
  8
0
  0
POLYLINE
  8
21
 66
1
 10
0.0000
 20
0.0000
 30
0.0000
 40
0.0762
 41
0.0762
 70
0
  0
VERTEX
  8
21
 10
24.5087
 20
34.4210
 30
0.0000
 42
1.0000
  0
VERTEX
  8
21
 10
24.5087
 20
34.3448
 30
0.0000
  0
SEQEND
  8
0
  0
POLYLINE
  8
21
 66
1
 10
0.0000
 20
0.0000
 30
0.0000
 40
0.1524
 41
0.1524
 70
0
  0
VERTEX
  8
21
 10
24.5087
 20
34.3829
 30
0.0000
  0
VERTEX
  8
21
 10
24.5087
 20
24.4009
 30
0.0000
  0
SEQEND
  8
0
  0
POLYLINE
  8
21
 66
1
 10
0.0000
 20
0.0000
 30
0.0000
 40
0.0762
 41
0.0762
 70
0
  0
VERTEX
  8
21
 10
24.4706
 20
24.4009
 30
0.0000
 42
1.0000
  0
VERTEX
  8
21
 10
24.5468
 20
24.4009
 30
0.0000
  0
SEQEND
  8
0
  0
POLYLINE
  8
21
 66
1
 10
0.0000
 20
0.0000
 30
0.0000
 40
0.0762
 41
0.0762
 70
0
  0
VERTEX
  8
21
 10
24.5468
 20
34.3829
 30
0.0000
 42
1.0000
  0
VERTEX
  8
21
 10
24.4706
 20
34.3829
 30
0.0000
  0
SEQEND
  8
0
  0
POLYLINE
  8
21
 66
1
 10
0.0000
 20
0.0000
 30
0.0000
 40
0.1524
 41
0.1524
 70
0
  0
VERTEX
  8
21
 10
33.7037
 20
24.4009
 30
0.0000
  0
VERTEX
  8
21
 10
31.3157
 20
24.4009
 30
0.0000
  0
SEQEND
  8
0
  0
POLYLINE
  8
21
 66
1
 10
0.0000
 20
0.0000
 30
0.0000
 40
0.0762
 41
0.0762
 70
0
  0
VERTEX
  8
21
 10
31.3157
 20
24.4390
 30
0.0000
 42
1.0000
  0
VERTEX
  8
21
 10
31.3157
 20
24.3628
 30
0.0000
  0
SEQEND
  8
0
  0
POLYLINE
  8
21
 66
1
 10
0.0000
 20
0.0000
 30
0.0000
 40
0.0762
 41
0.0762
 70
0
  0
VERTEX
  8
21
 10
33.7037
 20
24.3628
 30
0.0000
 42
1.0000
  0
VERTEX
  8
21
 10
33.7037
 20
24.4390
 30
0.0000
  0
SEQEND
  8
0
  0
POLYLINE
  8
21
 66
1
 10
0.0000
 20
0.0000
 30
0.0000
 40
0.1524
 41
0.1524
 70
0
  0
VERTEX
  8
21
 10
31.3157
 20
24.4009
 30
0.0000
  0
VERTEX
  8
21
 10
31.3157
 20
26.0009
 30
0.0000
  0
SEQEND
  8
0
  0
POLYLINE
  8
21
 66
1
 10
0.0000
 20
0.0000
 30
0.0000
 40
0.0762
 41
0.0762
 70
0
  0
VERTEX
  8
21
 10
31.3538
 20
26.0009
 30
0.0000
 42
1.0000
  0
VERTEX
  8
21
 10
31.2776
 20
26.0009
 30
0.0000
  0
SEQEND
  8
0
  0
POLYLINE
  8
21
 66
1
 10
0.0000
 20
0.0000
 30
0.0000
 40
0.0762
 41
0.0762
 70
0
  0
VERTEX
  8
21
 10
31.2776
 20
24.4009
 30
0.0000
 42
1.0000
  0
VERTEX
  8
21
 10
31.3538
 20
24.4009
 30
0.0000
  0
SEQEND
  8
0
  0
POLYLINE
  8
21
 66
1
 10
0.0000
 20
0.0000
 30
0.0000
 40
0.1524
 41
0.1524
 70
0
  0
VERTEX
  8
21
 10
31.3157
 20
27.7789
 30
0.0000
  0
VERTEX
  8
21
 10
31.3157
 20
31.0049
 30
0.0000
  0
SEQEND
  8
0
  0
POLYLINE
  8
21
 66
1
 10
0.0000
 20
0.0000
 30
0.0000
 40
0.0762
 41
0.0762
 70
0
  0
VERTEX
  8
21
 10
31.3538
 20
31.0049
 30
0.0000
 42
1.0000
  0
VERTEX
  8
21
 10
31.2776
 20
31.0049
 30
0.0000
  0
SEQEND
  8
0
  0
POLYLINE
  8
21
 66
1
 10
0.0000
 20
0.0000
 30
0.0000
 40
0.0762
 41
0.0762
 70
0
  0
VERTEX
  8
21
 10
31.2776
 20
27.7789
 30
0.0000
 42
1.0000
  0
VERTEX
  8
21
 10
31.3538
 20
27.7789
 30
0.0000
  0
SEQEND
  8
0
  0
POLYLINE
  8
21
 66
1
 10
0.0000
 20
0.0000
 30
0.0000
 40
0.1524
 41
0.1524
 70
0
  0
VERTEX
  8
21
 10
31.3157
 20
32.7829
 30
0.0000
  0
VERTEX
  8
21
 10
31.3157
 20
34.3829
 30
0.0000
  0
SEQEND
  8
0
  0
POLYLINE
  8
21
 66
1
 10
0.0000
 20
0.0000
 30
0.0000
 40
0.0762
 41
0.0762
 70
0
  0
VERTEX
  8
21
 10
31.3538
 20
34.3829
 30
0.0000
 42
1.0000
  0
VERTEX
  8
21
 10
31.2776
 20
34.3829
 30
0.0000
  0
SEQEND
  8
0
  0
POLYLINE
  8
21
 66
1
 10
0.0000
 20
0.0000
 30
0.0000
 40
0.0762
 41
0.0762
 70
0
  0
VERTEX
  8
21
 10
31.2776
 20
32.7829
 30
0.0000
 42
1.0000
  0
VERTEX
  8
21
 10
31.3538
 20
32.7829
 30
0.0000
  0
SEQEND
  8
0
  0
POLYLINE
  8
21
 66
1
 10
0.0000
 20
0.0000
 30
0.0000
 40
0.1524
 41
0.1524
 70
0
  0
VERTEX
  8
21
 10
31.3157
 20
24.4009
 30
0.0000
  0
VERTEX
  8
21
 10
24.7117
 20
24.4009
 30
0.0000
  0
SEQEND
  8
0
  0
POLYLINE
  8
21
 66
1
 10
0.0000
 20
0.0000
 30
0.0000
 40
0.0762
 41
0.0762
 70
0
  0
VERTEX
  8
21
 10
24.7117
 20
24.4390
 30
0.0000
 42
1.0000
  0
VERTEX
  8
21
 10
24.7117
 20
24.3628
 30
0.0000
  0
SEQEND
  8
0
  0
POLYLINE
  8
21
 66
1
 10
0.0000
 20
0.0000
 30
0.0000
 40
0.0762
 41
0.0762
 70
0
  0
VERTEX
  8
21
 10
31.3157
 20
24.3628
 30
0.0000
 42
1.0000
  0
VERTEX
  8
21
 10
31.3157
 20
24.4390
 30
0.0000
  0
SEQEND
  8
0
  0
POLYLINE
  8
21
 66
1
 10
0.0000
 20
0.0000
 30
0.0000
 40
0.1524
 41
0.1524
 70
0
  0
VERTEX
  8
21
 10
31.3157
 20
34.3829
 30
0.0000
  0
VERTEX
  8
21
 10
33.7037
 20
34.3829
 30
0.0000
  0
SEQEND
  8
0
  0
POLYLINE
  8
21
 66
1
 10
0.0000
 20
0.0000
 30
0.0000
 40
0.0762
 41
0.0762
 70
0
  0
VERTEX
  8
21
 10
33.7037
 20
34.3448
 30
0.0000
 42
1.0000
  0
VERTEX
  8
21
 10
33.7037
 20
34.4210
 30
0.0000
  0
SEQEND
  8
0
  0
POLYLINE
  8
21
 66
1
 10
0.0000
 20
0.0000
 30
0.0000
 40
0.0762
 41
0.0762
 70
0
  0
VERTEX
  8
21
 10
31.3157
 20
34.4210
 30
0.0000
 42
1.0000
  0
VERTEX
  8
21
 10
31.3157
 20
34.3448
 30
0.0000
  0
SEQEND
  8
0
  0
POLYLINE
  8
21
 66
1
 10
0.0000
 20
0.0000
 30
0.0000
 40
0.1524
 41
0.1524
 70
0
  0
VERTEX
  8
21
 10
24.7117
 20
24.4009
 30
0.0000
  0
VERTEX
  8
21
 10
24.7117
 20
34.3829
 30
0.0000
  0
SEQEND
  8
0
  0
POLYLINE
  8
21
 66
1
 10
0.0000
 20
0.0000
 30
0.0000
 40
0.0762
 41
0.0762
 70
0
  0
VERTEX
  8
21
 10
24.7498
 20
34.3829
 30
0.0000
 42
1.0000
  0
VERTEX
  8
21
 10
24.6736
 20
34.3829
 30
0.0000
  0
SEQEND
  8
0
  0
POLYLINE
  8
21
 66
1
 10
0.0000
 20
0.0000
 30
0.0000
 40
0.0762
 41
0.0762
 70
0
  0
VERTEX
  8
21
 10
24.6736
 20
24.4009
 30
0.0000
 42
1.0000
  0
VERTEX
  8
21
 10
24.7498
 20
24.4009
 30
0.0000
  0
SEQEND
  8
0
  0
POLYLINE
  8
21
 66
1
 10
0.0000
 20
0.0000
 30
0.0000
 40
0.1524
 41
0.1524
 70
0
  0
VERTEX
  8
21
 10
24.7117
 20
24.4009
 30
0.0000
  0
VERTEX
  8
21
 10
24.5087
 20
24.4009
 30
0.0000
  0
SEQEND
  8
0
  0
POLYLINE
  8
21
 66
1
 10
0.0000
 20
0.0000
 30
0.0000
 40
0.0762
 41
0.0762
 70
0
  0
VERTEX
  8
21
 10
24.5087
 20
24.4390
 30
0.0000
 42
1.0000
  0
VERTEX
  8
21
 10
24.5087
 20
24.3628
 30
0.0000
  0
SEQEND
  8
0
  0
POLYLINE
  8
21
 66
1
 10
0.0000
 20
0.0000
 30
0.0000
 40
0.0762
 41
0.0762
 70
0
  0
VERTEX
  8
21
 10
24.7117
 20
24.3628
 30
0.0000
 42
1.0000
  0
VERTEX
  8
21
 10
24.7117
 20
24.4390
 30
0.0000
  0
SEQEND
  8
0
  0
POLYLINE
  8
21
 66
1
 10
0.0000
 20
0.0000
 30
0.0000
 40
0.1524
 41
0.1524
 70
0
  0
VERTEX
  8
21
 10
24.7117
 20
34.3829
 30
0.0000
  0
VERTEX
  8
21
 10
31.3157
 20
34.3829
 30
0.0000
  0
SEQEND
  8
0
  0
POLYLINE
  8
21
 66
1
 10
0.0000
 20
0.0000
 30
0.0000
 40
0.0762
 41
0.0762
 70
0
  0
VERTEX
  8
21
 10
31.3157
 20
34.3448
 30
0.0000
 42
1.0000
  0
VERTEX
  8
21
 10
31.3157
 20
34.4210
 30
0.0000
  0
SEQEND
  8
0
  0
POLYLINE
  8
21
 66
1
 10
0.0000
 20
0.0000
 30
0.0000
 40
0.0762
 41
0.0762
 70
0
  0
VERTEX
  8
21
 10
24.7117
 20
34.4210
 30
0.0000
 42
1.0000
  0
VERTEX
  8
21
 10
24.7117
 20
34.3448
 30
0.0000
  0
SEQEND
  8
0
  0
POLYLINE
  8
21
 66
1
 10
0.0000
 20
0.0000
 30
0.0000
 40
0.1270
 41
0.1270
 70
0
  0
VERTEX
  8
21
 10
26.7816
 20
24.9214
 30
0.0000
  0
VERTEX
  8
21
 10
26.4003
 20
25.3027
 30
0.0000
  0
SEQEND
  8
0
  0
POLYLINE
  8
21
 66
1
 10
0.0000
 20
0.0000
 30
0.0000
 40
0.0635
 41
0.0635
 70
0
  0
VERTEX
  8
21
 10
26.4227
 20
25.3251
 30
0.0000
 42
1.0000
  0
VERTEX
  8
21
 10
26.3778
 20
25.2802
 30
0.0000
  0
SEQEND
  8
0
  0
POLYLINE
  8
21
 66
1
 10
0.0000
 20
0.0000
 30
0.0000
 40
0.0635
 41
0.0635
 70
0
  0
VERTEX
  8
21
 10
26.7591
 20
24.8989
 30
0.0000
 42
1.0000
  0
VERTEX
  8
21
 10
26.8040
 20
24.9438
 30
0.0000
  0
SEQEND
  8
0
  0
POLYLINE
  8
21
 66
1
 10
0.0000
 20
0.0000
 30
0.0000
 40
0.1270
 41
0.1270
 70
0
  0
VERTEX
  8
21
 10
26.4003
 20
25.3027
 30
0.0000
  0
VERTEX
  8
21
 10
27.5442
 20
25.3027
 30
0.0000
  0
SEQEND
  8
0
  0
POLYLINE
  8
21
 66
1
 10
0.0000
 20
0.0000
 30
0.0000
 40
0.0635
 41
0.0635
 70
0
  0
VERTEX
  8
21
 10
27.5442
 20
25.2709
 30
0.0000
 42
1.0000
  0
VERTEX
  8
21
 10
27.5442
 20
25.3344
 30
0.0000
  0
SEQEND
  8
0
  0
POLYLINE
  8
21
 66
1
 10
0.0000
 20
0.0000
 30
0.0000
 40
0.0635
 41
0.0635
 70
0
  0
VERTEX
  8
21
 10
26.4003
 20
25.3344
 30
0.0000
 42
1.0000
  0
VERTEX
  8
21
 10
26.4003
 20
25.2709
 30
0.0000
  0
SEQEND
  8
0
  0
POLYLINE
  8
21
 66
1
 10
0.0000
 20
0.0000
 30
0.0000
 40
0.1270
 41
0.1270
 70
0
  0
VERTEX
  8
21
 10
27.5442
 20
24.9214
 30
0.0000
  0
VERTEX
  8
21
 10
27.5442
 20
25.6840
 30
0.0000
  0
SEQEND
  8
0
  0
POLYLINE
  8
21
 66
1
 10
0.0000
 20
0.0000
 30
0.0000
 40
0.0635
 41
0.0635
 70
0
  0
VERTEX
  8
21
 10
27.5760
 20
25.6840
 30
0.0000
 42
1.0000
  0
VERTEX
  8
21
 10
27.5125
 20
25.6840
 30
0.0000
  0
SEQEND
  8
0
  0
POLYLINE
  8
21
 66
1
 10
0.0000
 20
0.0000
 30
0.0000
 40
0.0635
 41
0.0635
 70
0
  0
VERTEX
  8
21
 10
27.5125
 20
24.9214
 30
0.0000
 42
1.0000
  0
VERTEX
  8
21
 10
27.5760
 20
24.9214
 30
0.0000
  0
SEQEND
  8
0
  0
POLYLINE
  8
21
 66
1
 10
0.0000
 20
0.0000
 30
0.0000
 40
0.1270
 41
0.1270
 70
0
  0
VERTEX
  8
21
 10
27.5442
 20
30.6370
 30
0.0000
  0
VERTEX
  8
21
 10
27.5442
 20
29.8744
 30
0.0000
  0
SEQEND
  8
0
  0
POLYLINE
  8
21
 66
1
 10
0.0000
 20
0.0000
 30
0.0000
 40
0.0635
 41
0.0635
 70
0
  0
VERTEX
  8
21
 10
27.5125
 20
29.8744
 30
0.0000
 42
1.0000
  0
VERTEX
  8
21
 10
27.5760
 20
29.8744
 30
0.0000
  0
SEQEND
  8
0
  0
POLYLINE
  8
21
 66
1
 10
0.0000
 20
0.0000
 30
0.0000
 40
0.0635
 41
0.0635
 70
0
  0
VERTEX
  8
21
 10
27.5760
 20
30.6370
 30
0.0000
 42
1.0000
  0
VERTEX
  8
21
 10
27.5125
 20
30.6370
 30
0.0000
  0
SEQEND
  8
0
  0
POLYLINE
  8
21
 66
1
 10
0.0000
 20
0.0000
 30
0.0000
 40
0.1270
 41
0.1270
 70
0
  0
VERTEX
  8
21
 10
27.5442
 20
29.8744
 30
0.0000
  0
VERTEX
  8
21
 10
26.7816
 20
30.6370
 30
0.0000
  0
SEQEND
  8
0
  0
POLYLINE
  8
21
 66
1
 10
0.0000
 20
0.0000
 30
0.0000
 40
0.0635
 41
0.0635
 70
0
  0
VERTEX
  8
21
 10
26.8040
 20
30.6595
 30
0.0000
 42
1.0000
  0
VERTEX
  8
21
 10
26.7591
 20
30.6146
 30
0.0000
  0
SEQEND
  8
0
  0
POLYLINE
  8
21
 66
1
 10
0.0000
 20
0.0000
 30
0.0000
 40
0.0635
 41
0.0635
 70
0
  0
VERTEX
  8
21
 10
27.5218
 20
29.8519
 30
0.0000
 42
1.0000
  0
VERTEX
  8
21
 10
27.5667
 20
29.8968
 30
0.0000
  0
SEQEND
  8
0
  0
POLYLINE
  8
21
 66
1
 10
0.0000
 20
0.0000
 30
0.0000
 40
0.1270
 41
0.1270
 70
0
  0
VERTEX
  8
21
 10
26.7816
 20
30.6370
 30
0.0000
  0
VERTEX
  8
21
 10
26.5909
 20
30.6370
 30
0.0000
  0
SEQEND
  8
0
  0
POLYLINE
  8
21
 66
1
 10
0.0000
 20
0.0000
 30
0.0000
 40
0.0635
 41
0.0635
 70
0
  0
VERTEX
  8
21
 10
26.5909
 20
30.6688
 30
0.0000
 42
1.0000
  0
VERTEX
  8
21
 10
26.5909
 20
30.6053
 30
0.0000
  0
SEQEND
  8
0
  0
POLYLINE
  8
21
 66
1
 10
0.0000
 20
0.0000
 30
0.0000
 40
0.0635
 41
0.0635
 70
0
  0
VERTEX
  8
21
 10
26.7816
 20
30.6053
 30
0.0000
 42
1.0000
  0
VERTEX
  8
21
 10
26.7816
 20
30.6688
 30
0.0000
  0
SEQEND
  8
0
  0
POLYLINE
  8
21
 66
1
 10
0.0000
 20
0.0000
 30
0.0000
 40
0.1270
 41
0.1270
 70
0
  0
VERTEX
  8
21
 10
26.5909
 20
30.6370
 30
0.0000
  0
VERTEX
  8
21
 10
26.4003
 20
30.4463
 30
0.0000
  0
SEQEND
  8
0
  0
POLYLINE
  8
21
 66
1
 10
0.0000
 20
0.0000
 30
0.0000
 40
0.0635
 41
0.0635
 70
0
  0
VERTEX
  8
21
 10
26.3778
 20
30.4688
 30
0.0000
 42
1.0000
  0
VERTEX
  8
21
 10
26.4227
 20
30.4239
 30
0.0000
  0
SEQEND
  8
0
  0
POLYLINE
  8
21
 66
1
 10
0.0000
 20
0.0000
 30
0.0000
 40
0.0635
 41
0.0635
 70
0
  0
VERTEX
  8
21
 10
26.6134
 20
30.6146
 30
0.0000
 42
1.0000
  0
VERTEX
  8
21
 10
26.5685
 20
30.6595
 30
0.0000
  0
SEQEND
  8
0
  0
POLYLINE
  8
21
 66
1
 10
0.0000
 20
0.0000
 30
0.0000
 40
0.1270
 41
0.1270
 70
0
  0
VERTEX
  8
21
 10
26.4003
 20
30.4463
 30
0.0000
  0
VERTEX
  8
21
 10
26.4003
 20
30.0650
 30
0.0000
  0
SEQEND
  8
0
  0
POLYLINE
  8
21
 66
1
 10
0.0000
 20
0.0000
 30
0.0000
 40
0.0635
 41
0.0635
 70
0
  0
VERTEX
  8
21
 10
26.3685
 20
30.0650
 30
0.0000
 42
1.0000
  0
VERTEX
  8
21
 10
26.4320
 20
30.0650
 30
0.0000
  0
SEQEND
  8
0
  0
POLYLINE
  8
21
 66
1
 10
0.0000
 20
0.0000
 30
0.0000
 40
0.0635
 41
0.0635
 70
0
  0
VERTEX
  8
21
 10
26.4320
 20
30.4463
 30
0.0000
 42
1.0000
  0
VERTEX
  8
21
 10
26.3685
 20
30.4463
 30
0.0000
  0
SEQEND
  8
0
  0
POLYLINE
  8
21
 66
1
 10
0.0000
 20
0.0000
 30
0.0000
 40
0.1270
 41
0.1270
 70
0
  0
VERTEX
  8
21
 10
26.4003
 20
30.0650
 30
0.0000
  0
VERTEX
  8
21
 10
26.5909
 20
29.8744
 30
0.0000
  0
SEQEND
  8
0
  0
POLYLINE
  8
21
 66
1
 10
0.0000
 20
0.0000
 30
0.0000
 40
0.0635
 41
0.0635
 70
0
  0
VERTEX
  8
21
 10
26.5685
 20
29.8519
 30
0.0000
 42
1.0000
  0
VERTEX
  8
21
 10
26.6134
 20
29.8968
 30
0.0000
  0
SEQEND
  8
0
  0
POLYLINE
  8
21
 66
1
 10
0.0000
 20
0.0000
 30
0.0000
 40
0.0635
 41
0.0635
 70
0
  0
VERTEX
  8
21
 10
26.4227
 20
30.0875
 30
0.0000
 42
1.0000
  0
VERTEX
  8
21
 10
26.3778
 20
30.0426
 30
0.0000
  0
SEQEND
  8
0
  0
POLYLINE
  8
21
 66
1
 10
0.0000
 20
0.0000
 30
0.0000
 40
0.1524
 41
0.1524
 70
0
  0
VERTEX
  8
21
 10
26.0329
 20
26.3819
 30
0.0000
 42
1.0000
  0
VERTEX
  8
21
 10
26.0329
 20
27.3979
 30
0.0000
 42
1.0000
  0
VERTEX
  8
21
 10
26.0329
 20
26.3819
 30
0.0000
  0
SEQEND
  8
0
  0
POLYLINE
  8
21
 66
1
 10
0.0000
 20
0.0000
 30
0.0000
 40
0.1524
 41
0.1524
 70
0
  0
VERTEX
  8
21
 10
26.0329
 20
31.3857
 30
0.0000
 42
1.0000
  0
VERTEX
  8
21
 10
26.0329
 20
32.4017
 30
0.0000
 42
1.0000
  0
VERTEX
  8
21
 10
26.0329
 20
31.3857
 30
0.0000
  0
SEQEND
  8
0
  0
POLYLINE
  8
21
 66
1
 10
0.0000
 20
0.0000
 30
0.0000
 40
0.1524
 41
0.1524
 70
0
  0
VERTEX
  8
21
 10
33.7457
 20
5.6085
 30
0.0000
  0
VERTEX
  8
21
 10
33.7457
 20
15.5905
 30
0.0000
  0
SEQEND
  8
0
  0
POLYLINE
  8
21
 66
1
 10
0.0000
 20
0.0000
 30
0.0000
 40
0.0762
 41
0.0762
 70
0
  0
VERTEX
  8
21
 10
33.7838
 20
15.5905
 30
0.0000
 42
1.0000
  0
VERTEX
  8
21
 10
33.7076
 20
15.5905
 30
0.0000
  0
SEQEND
  8
0
  0
POLYLINE
  8
21
 66
1
 10
0.0000
 20
0.0000
 30
0.0000
 40
0.0762
 41
0.0762
 70
0
  0
VERTEX
  8
21
 10
33.7076
 20
5.6085
 30
0.0000
 42
1.0000
  0
VERTEX
  8
21
 10
33.7838
 20
5.6085
 30
0.0000
  0
SEQEND
  8
0
  0
POLYLINE
  8
21
 66
1
 10
0.0000
 20
0.0000
 30
0.0000
 40
0.1524
 41
0.1524
 70
0
  0
VERTEX
  8
21
 10
24.5507
 20
15.5905
 30
0.0000
  0
VERTEX
  8
21
 10
24.7537
 20
15.5905
 30
0.0000
  0
SEQEND
  8
0
  0
POLYLINE
  8
21
 66
1
 10
0.0000
 20
0.0000
 30
0.0000
 40
0.0762
 41
0.0762
 70
0
  0
VERTEX
  8
21
 10
24.7537
 20
15.5524
 30
0.0000
 42
1.0000
  0
VERTEX
  8
21
 10
24.7537
 20
15.6286
 30
0.0000
  0
SEQEND
  8
0
  0
POLYLINE
  8
21
 66
1
 10
0.0000
 20
0.0000
 30
0.0000
 40
0.0762
 41
0.0762
 70
0
  0
VERTEX
  8
21
 10
24.5507
 20
15.6286
 30
0.0000
 42
1.0000
  0
VERTEX
  8
21
 10
24.5507
 20
15.5524
 30
0.0000
  0
SEQEND
  8
0
  0
POLYLINE
  8
21
 66
1
 10
0.0000
 20
0.0000
 30
0.0000
 40
0.1524
 41
0.1524
 70
0
  0
VERTEX
  8
21
 10
24.5507
 20
15.5905
 30
0.0000
  0
VERTEX
  8
21
 10
24.5507
 20
5.6085
 30
0.0000
  0
SEQEND
  8
0
  0
POLYLINE
  8
21
 66
1
 10
0.0000
 20
0.0000
 30
0.0000
 40
0.0762
 41
0.0762
 70
0
  0
VERTEX
  8
21
 10
24.5126
 20
5.6085
 30
0.0000
 42
1.0000
  0
VERTEX
  8
21
 10
24.5888
 20
5.6085
 30
0.0000
  0
SEQEND
  8
0
  0
POLYLINE
  8
21
 66
1
 10
0.0000
 20
0.0000
 30
0.0000
 40
0.0762
 41
0.0762
 70
0
  0
VERTEX
  8
21
 10
24.5888
 20
15.5905
 30
0.0000
 42
1.0000
  0
VERTEX
  8
21
 10
24.5126
 20
15.5905
 30
0.0000
  0
SEQEND
  8
0
  0
POLYLINE
  8
21
 66
1
 10
0.0000
 20
0.0000
 30
0.0000
 40
0.1524
 41
0.1524
 70
0
  0
VERTEX
  8
21
 10
33.7457
 20
5.6085
 30
0.0000
  0
VERTEX
  8
21
 10
31.3577
 20
5.6085
 30
0.0000
  0
SEQEND
  8
0
  0
POLYLINE
  8
21
 66
1
 10
0.0000
 20
0.0000
 30
0.0000
 40
0.0762
 41
0.0762
 70
0
  0
VERTEX
  8
21
 10
31.3577
 20
5.6466
 30
0.0000
 42
1.0000
  0
VERTEX
  8
21
 10
31.3577
 20
5.5704
 30
0.0000
  0
SEQEND
  8
0
  0
POLYLINE
  8
21
 66
1
 10
0.0000
 20
0.0000
 30
0.0000
 40
0.0762
 41
0.0762
 70
0
  0
VERTEX
  8
21
 10
33.7457
 20
5.5704
 30
0.0000
 42
1.0000
  0
VERTEX
  8
21
 10
33.7457
 20
5.6466
 30
0.0000
  0
SEQEND
  8
0
  0
POLYLINE
  8
21
 66
1
 10
0.0000
 20
0.0000
 30
0.0000
 40
0.1524
 41
0.1524
 70
0
  0
VERTEX
  8
21
 10
31.3577
 20
5.6085
 30
0.0000
  0
VERTEX
  8
21
 10
31.3577
 20
7.2085
 30
0.0000
  0
SEQEND
  8
0
  0
POLYLINE
  8
21
 66
1
 10
0.0000
 20
0.0000
 30
0.0000
 40
0.0762
 41
0.0762
 70
0
  0
VERTEX
  8
21
 10
31.3958
 20
7.2085
 30
0.0000
 42
1.0000
  0
VERTEX
  8
21
 10
31.3196
 20
7.2085
 30
0.0000
  0
SEQEND
  8
0
  0
POLYLINE
  8
21
 66
1
 10
0.0000
 20
0.0000
 30
0.0000
 40
0.0762
 41
0.0762
 70
0
  0
VERTEX
  8
21
 10
31.3196
 20
5.6085
 30
0.0000
 42
1.0000
  0
VERTEX
  8
21
 10
31.3958
 20
5.6085
 30
0.0000
  0
SEQEND
  8
0
  0
POLYLINE
  8
21
 66
1
 10
0.0000
 20
0.0000
 30
0.0000
 40
0.1524
 41
0.1524
 70
0
  0
VERTEX
  8
21
 10
31.3577
 20
8.9865
 30
0.0000
  0
VERTEX
  8
21
 10
31.3577
 20
12.2125
 30
0.0000
  0
SEQEND
  8
0
  0
POLYLINE
  8
21
 66
1
 10
0.0000
 20
0.0000
 30
0.0000
 40
0.0762
 41
0.0762
 70
0
  0
VERTEX
  8
21
 10
31.3958
 20
12.2125
 30
0.0000
 42
1.0000
  0
VERTEX
  8
21
 10
31.3196
 20
12.2125
 30
0.0000
  0
SEQEND
  8
0
  0
POLYLINE
  8
21
 66
1
 10
0.0000
 20
0.0000
 30
0.0000
 40
0.0762
 41
0.0762
 70
0
  0
VERTEX
  8
21
 10
31.3196
 20
8.9865
 30
0.0000
 42
1.0000
  0
VERTEX
  8
21
 10
31.3958
 20
8.9865
 30
0.0000
  0
SEQEND
  8
0
  0
POLYLINE
  8
21
 66
1
 10
0.0000
 20
0.0000
 30
0.0000
 40
0.1524
 41
0.1524
 70
0
  0
VERTEX
  8
21
 10
31.3577
 20
13.9905
 30
0.0000
  0
VERTEX
  8
21
 10
31.3577
 20
15.5905
 30
0.0000
  0
SEQEND
  8
0
  0
POLYLINE
  8
21
 66
1
 10
0.0000
 20
0.0000
 30
0.0000
 40
0.0762
 41
0.0762
 70
0
  0
VERTEX
  8
21
 10
31.3958
 20
15.5905
 30
0.0000
 42
1.0000
  0
VERTEX
  8
21
 10
31.3196
 20
15.5905
 30
0.0000
  0
SEQEND
  8
0
  0
POLYLINE
  8
21
 66
1
 10
0.0000
 20
0.0000
 30
0.0000
 40
0.0762
 41
0.0762
 70
0
  0
VERTEX
  8
21
 10
31.3196
 20
13.9905
 30
0.0000
 42
1.0000
  0
VERTEX
  8
21
 10
31.3958
 20
13.9905
 30
0.0000
  0
SEQEND
  8
0
  0
POLYLINE
  8
21
 66
1
 10
0.0000
 20
0.0000
 30
0.0000
 40
0.1524
 41
0.1524
 70
0
  0
VERTEX
  8
21
 10
31.3577
 20
5.6085
 30
0.0000
  0
VERTEX
  8
21
 10
24.7537
 20
5.6085
 30
0.0000
  0
SEQEND
  8
0
  0
POLYLINE
  8
21
 66
1
 10
0.0000
 20
0.0000
 30
0.0000
 40
0.0762
 41
0.0762
 70
0
  0
VERTEX
  8
21
 10
24.7537
 20
5.6466
 30
0.0000
 42
1.0000
  0
VERTEX
  8
21
 10
24.7537
 20
5.5704
 30
0.0000
  0
SEQEND
  8
0
  0
POLYLINE
  8
21
 66
1
 10
0.0000
 20
0.0000
 30
0.0000
 40
0.0762
 41
0.0762
 70
0
  0
VERTEX
  8
21
 10
31.3577
 20
5.5704
 30
0.0000
 42
1.0000
  0
VERTEX
  8
21
 10
31.3577
 20
5.6466
 30
0.0000
  0
SEQEND
  8
0
  0
POLYLINE
  8
21
 66
1
 10
0.0000
 20
0.0000
 30
0.0000
 40
0.1524
 41
0.1524
 70
0
  0
VERTEX
  8
21
 10
31.3577
 20
15.5905
 30
0.0000
  0
VERTEX
  8
21
 10
33.7457
 20
15.5905
 30
0.0000
  0
SEQEND
  8
0
  0
POLYLINE
  8
21
 66
1
 10
0.0000
 20
0.0000
 30
0.0000
 40
0.0762
 41
0.0762
 70
0
  0
VERTEX
  8
21
 10
33.7457
 20
15.5524
 30
0.0000
 42
1.0000
  0
VERTEX
  8
21
 10
33.7457
 20
15.6286
 30
0.0000
  0
SEQEND
  8
0
  0
POLYLINE
  8
21
 66
1
 10
0.0000
 20
0.0000
 30
0.0000
 40
0.0762
 41
0.0762
 70
0
  0
VERTEX
  8
21
 10
31.3577
 20
15.6286
 30
0.0000
 42
1.0000
  0
VERTEX
  8
21
 10
31.3577
 20
15.5524
 30
0.0000
  0
SEQEND
  8
0
  0
POLYLINE
  8
21
 66
1
 10
0.0000
 20
0.0000
 30
0.0000
 40
0.1524
 41
0.1524
 70
0
  0
VERTEX
  8
21
 10
24.7537
 20
5.6085
 30
0.0000
  0
VERTEX
  8
21
 10
24.7537
 20
15.5905
 30
0.0000
  0
SEQEND
  8
0
  0
POLYLINE
  8
21
 66
1
 10
0.0000
 20
0.0000
 30
0.0000
 40
0.0762
 41
0.0762
 70
0
  0
VERTEX
  8
21
 10
24.7918
 20
15.5905
 30
0.0000
 42
1.0000
  0
VERTEX
  8
21
 10
24.7156
 20
15.5905
 30
0.0000
  0
SEQEND
  8
0
  0
POLYLINE
  8
21
 66
1
 10
0.0000
 20
0.0000
 30
0.0000
 40
0.0762
 41
0.0762
 70
0
  0
VERTEX
  8
21
 10
24.7156
 20
5.6085
 30
0.0000
 42
1.0000
  0
VERTEX
  8
21
 10
24.7918
 20
5.6085
 30
0.0000
  0
SEQEND
  8
0
  0
POLYLINE
  8
21
 66
1
 10
0.0000
 20
0.0000
 30
0.0000
 40
0.1524
 41
0.1524
 70
0
  0
VERTEX
  8
21
 10
24.7537
 20
5.6085
 30
0.0000
  0
VERTEX
  8
21
 10
24.5507
 20
5.6085
 30
0.0000
  0
SEQEND
  8
0
  0
POLYLINE
  8
21
 66
1
 10
0.0000
 20
0.0000
 30
0.0000
 40
0.0762
 41
0.0762
 70
0
  0
VERTEX
  8
21
 10
24.5507
 20
5.6466
 30
0.0000
 42
1.0000
  0
VERTEX
  8
21
 10
24.5507
 20
5.5704
 30
0.0000
  0
SEQEND
  8
0
  0
POLYLINE
  8
21
 66
1
 10
0.0000
 20
0.0000
 30
0.0000
 40
0.0762
 41
0.0762
 70
0
  0
VERTEX
  8
21
 10
24.7537
 20
5.5704
 30
0.0000
 42
1.0000
  0
VERTEX
  8
21
 10
24.7537
 20
5.6466
 30
0.0000
  0
SEQEND
  8
0
  0
POLYLINE
  8
21
 66
1
 10
0.0000
 20
0.0000
 30
0.0000
 40
0.1524
 41
0.1524
 70
0
  0
VERTEX
  8
21
 10
24.7537
 20
15.5905
 30
0.0000
  0
VERTEX
  8
21
 10
31.3577
 20
15.5905
 30
0.0000
  0
SEQEND
  8
0
  0
POLYLINE
  8
21
 66
1
 10
0.0000
 20
0.0000
 30
0.0000
 40
0.0762
 41
0.0762
 70
0
  0
VERTEX
  8
21
 10
31.3577
 20
15.5524
 30
0.0000
 42
1.0000
  0
VERTEX
  8
21
 10
31.3577
 20
15.6286
 30
0.0000
  0
SEQEND
  8
0
  0
POLYLINE
  8
21
 66
1
 10
0.0000
 20
0.0000
 30
0.0000
 40
0.0762
 41
0.0762
 70
0
  0
VERTEX
  8
21
 10
24.7537
 20
15.6286
 30
0.0000
 42
1.0000
  0
VERTEX
  8
21
 10
24.7537
 20
15.5524
 30
0.0000
  0
SEQEND
  8
0
  0
POLYLINE
  8
21
 66
1
 10
0.0000
 20
0.0000
 30
0.0000
 40
0.1270
 41
0.1270
 70
0
  0
VERTEX
  8
21
 10
26.8236
 20
6.1290
 30
0.0000
  0
VERTEX
  8
21
 10
26.4422
 20
6.5103
 30
0.0000
  0
SEQEND
  8
0
  0
POLYLINE
  8
21
 66
1
 10
0.0000
 20
0.0000
 30
0.0000
 40
0.0635
 41
0.0635
 70
0
  0
VERTEX
  8
21
 10
26.4647
 20
6.5328
 30
0.0000
 42
1.0000
  0
VERTEX
  8
21
 10
26.4198
 20
6.4879
 30
0.0000
  0
SEQEND
  8
0
  0
POLYLINE
  8
21
 66
1
 10
0.0000
 20
0.0000
 30
0.0000
 40
0.0635
 41
0.0635
 70
0
  0
VERTEX
  8
21
 10
26.8011
 20
6.1066
 30
0.0000
 42
1.0000
  0
VERTEX
  8
21
 10
26.8460
 20
6.1515
 30
0.0000
  0
SEQEND
  8
0
  0
POLYLINE
  8
21
 66
1
 10
0.0000
 20
0.0000
 30
0.0000
 40
0.1270
 41
0.1270
 70
0
  0
VERTEX
  8
21
 10
26.4422
 20
6.5103
 30
0.0000
  0
VERTEX
  8
21
 10
27.5862
 20
6.5103
 30
0.0000
  0
SEQEND
  8
0
  0
POLYLINE
  8
21
 66
1
 10
0.0000
 20
0.0000
 30
0.0000
 40
0.0635
 41
0.0635
 70
0
  0
VERTEX
  8
21
 10
27.5862
 20
6.4786
 30
0.0000
 42
1.0000
  0
VERTEX
  8
21
 10
27.5862
 20
6.5421
 30
0.0000
  0
SEQEND
  8
0
  0
POLYLINE
  8
21
 66
1
 10
0.0000
 20
0.0000
 30
0.0000
 40
0.0635
 41
0.0635
 70
0
  0
VERTEX
  8
21
 10
26.4422
 20
6.5421
 30
0.0000
 42
1.0000
  0
VERTEX
  8
21
 10
26.4422
 20
6.4786
 30
0.0000
  0
SEQEND
  8
0
  0
POLYLINE
  8
21
 66
1
 10
0.0000
 20
0.0000
 30
0.0000
 40
0.1270
 41
0.1270
 70
0
  0
VERTEX
  8
21
 10
27.5862
 20
6.1290
 30
0.0000
  0
VERTEX
  8
21
 10
27.5862
 20
6.8917
 30
0.0000
  0
SEQEND
  8
0
  0
POLYLINE
  8
21
 66
1
 10
0.0000
 20
0.0000
 30
0.0000
 40
0.0635
 41
0.0635
 70
0
  0
VERTEX
  8
21
 10
27.6180
 20
6.8917
 30
0.0000
 42
1.0000
  0
VERTEX
  8
21
 10
27.5545
 20
6.8917
 30
0.0000
  0
SEQEND
  8
0
  0
POLYLINE
  8
21
 66
1
 10
0.0000
 20
0.0000
 30
0.0000
 40
0.0635
 41
0.0635
 70
0
  0
VERTEX
  8
21
 10
27.5545
 20
6.1290
 30
0.0000
 42
1.0000
  0
VERTEX
  8
21
 10
27.6180
 20
6.1290
 30
0.0000
  0
SEQEND
  8
0
  0
POLYLINE
  8
21
 66
1
 10
0.0000
 20
0.0000
 30
0.0000
 40
0.1270
 41
0.1270
 70
0
  0
VERTEX
  8
21
 10
27.5862
 20
11.8447
 30
0.0000
  0
VERTEX
  8
21
 10
27.5862
 20
11.0820
 30
0.0000
  0
SEQEND
  8
0
  0
POLYLINE
  8
21
 66
1
 10
0.0000
 20
0.0000
 30
0.0000
 40
0.0635
 41
0.0635
 70
0
  0
VERTEX
  8
21
 10
27.5545
 20
11.0820
 30
0.0000
 42
1.0000
  0
VERTEX
  8
21
 10
27.6180
 20
11.0820
 30
0.0000
  0
SEQEND
  8
0
  0
POLYLINE
  8
21
 66
1
 10
0.0000
 20
0.0000
 30
0.0000
 40
0.0635
 41
0.0635
 70
0
  0
VERTEX
  8
21
 10
27.6180
 20
11.8447
 30
0.0000
 42
1.0000
  0
VERTEX
  8
21
 10
27.5545
 20
11.8447
 30
0.0000
  0
SEQEND
  8
0
  0
POLYLINE
  8
21
 66
1
 10
0.0000
 20
0.0000
 30
0.0000
 40
0.1270
 41
0.1270
 70
0
  0
VERTEX
  8
21
 10
27.5862
 20
11.0820
 30
0.0000
  0
VERTEX
  8
21
 10
26.8236
 20
11.8447
 30
0.0000
  0
SEQEND
  8
0
  0
POLYLINE
  8
21
 66
1
 10
0.0000
 20
0.0000
 30
0.0000
 40
0.0635
 41
0.0635
 70
0
  0
VERTEX
  8
21
 10
26.8460
 20
11.8671
 30
0.0000
 42
1.0000
  0
VERTEX
  8
21
 10
26.8011
 20
11.8222
 30
0.0000
  0
SEQEND
  8
0
  0
POLYLINE
  8
21
 66
1
 10
0.0000
 20
0.0000
 30
0.0000
 40
0.0635
 41
0.0635
 70
0
  0
VERTEX
  8
21
 10
27.5638
 20
11.0596
 30
0.0000
 42
1.0000
  0
VERTEX
  8
21
 10
27.6087
 20
11.1045
 30
0.0000
  0
SEQEND
  8
0
  0
POLYLINE
  8
21
 66
1
 10
0.0000
 20
0.0000
 30
0.0000
 40
0.1270
 41
0.1270
 70
0
  0
VERTEX
  8
21
 10
26.8236
 20
11.8447
 30
0.0000
  0
VERTEX
  8
21
 10
26.6329
 20
11.8447
 30
0.0000
  0
SEQEND
  8
0
  0
POLYLINE
  8
21
 66
1
 10
0.0000
 20
0.0000
 30
0.0000
 40
0.0635
 41
0.0635
 70
0
  0
VERTEX
  8
21
 10
26.6329
 20
11.8764
 30
0.0000
 42
1.0000
  0
VERTEX
  8
21
 10
26.6329
 20
11.8129
 30
0.0000
  0
SEQEND
  8
0
  0
POLYLINE
  8
21
 66
1
 10
0.0000
 20
0.0000
 30
0.0000
 40
0.0635
 41
0.0635
 70
0
  0
VERTEX
  8
21
 10
26.8236
 20
11.8129
 30
0.0000
 42
1.0000
  0
VERTEX
  8
21
 10
26.8236
 20
11.8764
 30
0.0000
  0
SEQEND
  8
0
  0
POLYLINE
  8
21
 66
1
 10
0.0000
 20
0.0000
 30
0.0000
 40
0.1270
 41
0.1270
 70
0
  0
VERTEX
  8
21
 10
26.6329
 20
11.8447
 30
0.0000
  0
VERTEX
  8
21
 10
26.4422
 20
11.6540
 30
0.0000
  0
SEQEND
  8
0
  0
POLYLINE
  8
21
 66
1
 10
0.0000
 20
0.0000
 30
0.0000
 40
0.0635
 41
0.0635
 70
0
  0
VERTEX
  8
21
 10
26.4198
 20
11.6764
 30
0.0000
 42
1.0000
  0
VERTEX
  8
21
 10
26.4647
 20
11.6315
 30
0.0000
  0
SEQEND
  8
0
  0
POLYLINE
  8
21
 66
1
 10
0.0000
 20
0.0000
 30
0.0000
 40
0.0635
 41
0.0635
 70
0
  0
VERTEX
  8
21
 10
26.6553
 20
11.8222
 30
0.0000
 42
1.0000
  0
VERTEX
  8
21
 10
26.6104
 20
11.8671
 30
0.0000
  0
SEQEND
  8
0
  0
POLYLINE
  8
21
 66
1
 10
0.0000
 20
0.0000
 30
0.0000
 40
0.1270
 41
0.1270
 70
0
  0
VERTEX
  8
21
 10
26.4422
 20
11.6540
 30
0.0000
  0
VERTEX
  8
21
 10
26.4422
 20
11.2727
 30
0.0000
  0
SEQEND
  8
0
  0
POLYLINE
  8
21
 66
1
 10
0.0000
 20
0.0000
 30
0.0000
 40
0.0635
 41
0.0635
 70
0
  0
VERTEX
  8
21
 10
26.4105
 20
11.2727
 30
0.0000
 42
1.0000
  0
VERTEX
  8
21
 10
26.4740
 20
11.2727
 30
0.0000
  0
SEQEND
  8
0
  0
POLYLINE
  8
21
 66
1
 10
0.0000
 20
0.0000
 30
0.0000
 40
0.0635
 41
0.0635
 70
0
  0
VERTEX
  8
21
 10
26.4740
 20
11.6540
 30
0.0000
 42
1.0000
  0
VERTEX
  8
21
 10
26.4105
 20
11.6540
 30
0.0000
  0
SEQEND
  8
0
  0
POLYLINE
  8
21
 66
1
 10
0.0000
 20
0.0000
 30
0.0000
 40
0.1270
 41
0.1270
 70
0
  0
VERTEX
  8
21
 10
26.4422
 20
11.2727
 30
0.0000
  0
VERTEX
  8
21
 10
26.6329
 20
11.0820
 30
0.0000
  0
SEQEND
  8
0
  0
POLYLINE
  8
21
 66
1
 10
0.0000
 20
0.0000
 30
0.0000
 40
0.0635
 41
0.0635
 70
0
  0
VERTEX
  8
21
 10
26.6104
 20
11.0596
 30
0.0000
 42
1.0000
  0
VERTEX
  8
21
 10
26.6553
 20
11.1045
 30
0.0000
  0
SEQEND
  8
0
  0
POLYLINE
  8
21
 66
1
 10
0.0000
 20
0.0000
 30
0.0000
 40
0.0635
 41
0.0635
 70
0
  0
VERTEX
  8
21
 10
26.4647
 20
11.2951
 30
0.0000
 42
1.0000
  0
VERTEX
  8
21
 10
26.4198
 20
11.2502
 30
0.0000
  0
SEQEND
  8
0
  0
POLYLINE
  8
21
 66
1
 10
0.0000
 20
0.0000
 30
0.0000
 40
0.1524
 41
0.1524
 70
0
  0
VERTEX
  8
21
 10
26.0749
 20
7.5895
 30
0.0000
 42
1.0000
  0
VERTEX
  8
21
 10
26.0749
 20
8.6055
 30
0.0000
 42
1.0000
  0
VERTEX
  8
21
 10
26.0749
 20
7.5895
 30
0.0000
  0
SEQEND
  8
0
  0
POLYLINE
  8
21
 66
1
 10
0.0000
 20
0.0000
 30
0.0000
 40
0.1524
 41
0.1524
 70
0
  0
VERTEX
  8
21
 10
26.0749
 20
12.5933
 30
0.0000
 42
1.0000
  0
VERTEX
  8
21
 10
26.0749
 20
13.6093
 30
0.0000
 42
1.0000
  0
VERTEX
  8
21
 10
26.0749
 20
12.5933
 30
0.0000
  0
SEQEND
  8
0
  0
ENDSEC
  0
EOF
