G75*
%MOIN*%
%OFA0B0*%
%FSLAX25Y25*%
%IPPOS*%
%LPD*%
%AMOC8*
5,1,8,0,0,1.08239X$1,22.5*
%
%ADD10C,0.01000*%
%ADD11C,0.00600*%
%ADD12C,0.00800*%
%ADD13C,0.00100*%
%ADD14C,0.01600*%
D10*
X0097670Y0034115D02*
X0097672Y0034256D01*
X0097678Y0034397D01*
X0097688Y0034537D01*
X0097702Y0034677D01*
X0097720Y0034817D01*
X0097741Y0034956D01*
X0097767Y0035095D01*
X0097796Y0035233D01*
X0097830Y0035369D01*
X0097867Y0035505D01*
X0097908Y0035640D01*
X0097953Y0035774D01*
X0098002Y0035906D01*
X0098054Y0036037D01*
X0098110Y0036166D01*
X0098170Y0036293D01*
X0098233Y0036419D01*
X0098299Y0036543D01*
X0098370Y0036666D01*
X0098443Y0036786D01*
X0098520Y0036904D01*
X0098600Y0037020D01*
X0098684Y0037133D01*
X0098770Y0037244D01*
X0098860Y0037353D01*
X0098953Y0037459D01*
X0099048Y0037562D01*
X0099147Y0037663D01*
X0099248Y0037761D01*
X0099352Y0037856D01*
X0099459Y0037948D01*
X0099568Y0038037D01*
X0099680Y0038122D01*
X0099794Y0038205D01*
X0099910Y0038285D01*
X0100029Y0038361D01*
X0100150Y0038433D01*
X0100272Y0038503D01*
X0100397Y0038568D01*
X0100523Y0038631D01*
X0100651Y0038689D01*
X0100781Y0038744D01*
X0100912Y0038796D01*
X0101045Y0038843D01*
X0101179Y0038887D01*
X0101314Y0038928D01*
X0101450Y0038964D01*
X0101587Y0038996D01*
X0101725Y0039025D01*
X0101863Y0039050D01*
X0102003Y0039070D01*
X0102143Y0039087D01*
X0102283Y0039100D01*
X0102424Y0039109D01*
X0102564Y0039114D01*
X0102705Y0039115D01*
X0102846Y0039112D01*
X0102987Y0039105D01*
X0103127Y0039094D01*
X0103267Y0039079D01*
X0103407Y0039060D01*
X0103546Y0039038D01*
X0103684Y0039011D01*
X0103822Y0038981D01*
X0103958Y0038946D01*
X0104094Y0038908D01*
X0104228Y0038866D01*
X0104362Y0038820D01*
X0104494Y0038771D01*
X0104624Y0038717D01*
X0104753Y0038660D01*
X0104880Y0038600D01*
X0105006Y0038536D01*
X0105129Y0038468D01*
X0105251Y0038397D01*
X0105371Y0038323D01*
X0105488Y0038245D01*
X0105603Y0038164D01*
X0105716Y0038080D01*
X0105827Y0037993D01*
X0105935Y0037902D01*
X0106040Y0037809D01*
X0106143Y0037712D01*
X0106243Y0037613D01*
X0106340Y0037511D01*
X0106434Y0037406D01*
X0106525Y0037299D01*
X0106613Y0037189D01*
X0106698Y0037077D01*
X0106780Y0036962D01*
X0106859Y0036845D01*
X0106934Y0036726D01*
X0107006Y0036605D01*
X0107074Y0036482D01*
X0107139Y0036357D01*
X0107201Y0036230D01*
X0107258Y0036101D01*
X0107313Y0035971D01*
X0107363Y0035840D01*
X0107410Y0035707D01*
X0107453Y0035573D01*
X0107492Y0035437D01*
X0107527Y0035301D01*
X0107559Y0035164D01*
X0107586Y0035026D01*
X0107610Y0034887D01*
X0107630Y0034747D01*
X0107646Y0034607D01*
X0107658Y0034467D01*
X0107666Y0034326D01*
X0107670Y0034185D01*
X0107670Y0034045D01*
X0107666Y0033904D01*
X0107658Y0033763D01*
X0107646Y0033623D01*
X0107630Y0033483D01*
X0107610Y0033343D01*
X0107586Y0033204D01*
X0107559Y0033066D01*
X0107527Y0032929D01*
X0107492Y0032793D01*
X0107453Y0032657D01*
X0107410Y0032523D01*
X0107363Y0032390D01*
X0107313Y0032259D01*
X0107258Y0032129D01*
X0107201Y0032000D01*
X0107139Y0031873D01*
X0107074Y0031748D01*
X0107006Y0031625D01*
X0106934Y0031504D01*
X0106859Y0031385D01*
X0106780Y0031268D01*
X0106698Y0031153D01*
X0106613Y0031041D01*
X0106525Y0030931D01*
X0106434Y0030824D01*
X0106340Y0030719D01*
X0106243Y0030617D01*
X0106143Y0030518D01*
X0106040Y0030421D01*
X0105935Y0030328D01*
X0105827Y0030237D01*
X0105716Y0030150D01*
X0105603Y0030066D01*
X0105488Y0029985D01*
X0105371Y0029907D01*
X0105251Y0029833D01*
X0105129Y0029762D01*
X0105006Y0029694D01*
X0104880Y0029630D01*
X0104753Y0029570D01*
X0104624Y0029513D01*
X0104494Y0029459D01*
X0104362Y0029410D01*
X0104228Y0029364D01*
X0104094Y0029322D01*
X0103958Y0029284D01*
X0103822Y0029249D01*
X0103684Y0029219D01*
X0103546Y0029192D01*
X0103407Y0029170D01*
X0103267Y0029151D01*
X0103127Y0029136D01*
X0102987Y0029125D01*
X0102846Y0029118D01*
X0102705Y0029115D01*
X0102564Y0029116D01*
X0102424Y0029121D01*
X0102283Y0029130D01*
X0102143Y0029143D01*
X0102003Y0029160D01*
X0101863Y0029180D01*
X0101725Y0029205D01*
X0101587Y0029234D01*
X0101450Y0029266D01*
X0101314Y0029302D01*
X0101179Y0029343D01*
X0101045Y0029387D01*
X0100912Y0029434D01*
X0100781Y0029486D01*
X0100651Y0029541D01*
X0100523Y0029599D01*
X0100397Y0029662D01*
X0100272Y0029727D01*
X0100150Y0029797D01*
X0100029Y0029869D01*
X0099910Y0029945D01*
X0099794Y0030025D01*
X0099680Y0030108D01*
X0099568Y0030193D01*
X0099459Y0030282D01*
X0099352Y0030374D01*
X0099248Y0030469D01*
X0099147Y0030567D01*
X0099048Y0030668D01*
X0098953Y0030771D01*
X0098860Y0030877D01*
X0098770Y0030986D01*
X0098684Y0031097D01*
X0098600Y0031210D01*
X0098520Y0031326D01*
X0098443Y0031444D01*
X0098370Y0031564D01*
X0098299Y0031687D01*
X0098233Y0031811D01*
X0098170Y0031937D01*
X0098110Y0032064D01*
X0098054Y0032193D01*
X0098002Y0032324D01*
X0097953Y0032456D01*
X0097908Y0032590D01*
X0097867Y0032725D01*
X0097830Y0032861D01*
X0097796Y0032997D01*
X0097767Y0033135D01*
X0097741Y0033274D01*
X0097720Y0033413D01*
X0097702Y0033553D01*
X0097688Y0033693D01*
X0097678Y0033833D01*
X0097672Y0033974D01*
X0097670Y0034115D01*
X0127670Y0034115D02*
X0127672Y0034256D01*
X0127678Y0034397D01*
X0127688Y0034537D01*
X0127702Y0034677D01*
X0127720Y0034817D01*
X0127741Y0034956D01*
X0127767Y0035095D01*
X0127796Y0035233D01*
X0127830Y0035369D01*
X0127867Y0035505D01*
X0127908Y0035640D01*
X0127953Y0035774D01*
X0128002Y0035906D01*
X0128054Y0036037D01*
X0128110Y0036166D01*
X0128170Y0036293D01*
X0128233Y0036419D01*
X0128299Y0036543D01*
X0128370Y0036666D01*
X0128443Y0036786D01*
X0128520Y0036904D01*
X0128600Y0037020D01*
X0128684Y0037133D01*
X0128770Y0037244D01*
X0128860Y0037353D01*
X0128953Y0037459D01*
X0129048Y0037562D01*
X0129147Y0037663D01*
X0129248Y0037761D01*
X0129352Y0037856D01*
X0129459Y0037948D01*
X0129568Y0038037D01*
X0129680Y0038122D01*
X0129794Y0038205D01*
X0129910Y0038285D01*
X0130029Y0038361D01*
X0130150Y0038433D01*
X0130272Y0038503D01*
X0130397Y0038568D01*
X0130523Y0038631D01*
X0130651Y0038689D01*
X0130781Y0038744D01*
X0130912Y0038796D01*
X0131045Y0038843D01*
X0131179Y0038887D01*
X0131314Y0038928D01*
X0131450Y0038964D01*
X0131587Y0038996D01*
X0131725Y0039025D01*
X0131863Y0039050D01*
X0132003Y0039070D01*
X0132143Y0039087D01*
X0132283Y0039100D01*
X0132424Y0039109D01*
X0132564Y0039114D01*
X0132705Y0039115D01*
X0132846Y0039112D01*
X0132987Y0039105D01*
X0133127Y0039094D01*
X0133267Y0039079D01*
X0133407Y0039060D01*
X0133546Y0039038D01*
X0133684Y0039011D01*
X0133822Y0038981D01*
X0133958Y0038946D01*
X0134094Y0038908D01*
X0134228Y0038866D01*
X0134362Y0038820D01*
X0134494Y0038771D01*
X0134624Y0038717D01*
X0134753Y0038660D01*
X0134880Y0038600D01*
X0135006Y0038536D01*
X0135129Y0038468D01*
X0135251Y0038397D01*
X0135371Y0038323D01*
X0135488Y0038245D01*
X0135603Y0038164D01*
X0135716Y0038080D01*
X0135827Y0037993D01*
X0135935Y0037902D01*
X0136040Y0037809D01*
X0136143Y0037712D01*
X0136243Y0037613D01*
X0136340Y0037511D01*
X0136434Y0037406D01*
X0136525Y0037299D01*
X0136613Y0037189D01*
X0136698Y0037077D01*
X0136780Y0036962D01*
X0136859Y0036845D01*
X0136934Y0036726D01*
X0137006Y0036605D01*
X0137074Y0036482D01*
X0137139Y0036357D01*
X0137201Y0036230D01*
X0137258Y0036101D01*
X0137313Y0035971D01*
X0137363Y0035840D01*
X0137410Y0035707D01*
X0137453Y0035573D01*
X0137492Y0035437D01*
X0137527Y0035301D01*
X0137559Y0035164D01*
X0137586Y0035026D01*
X0137610Y0034887D01*
X0137630Y0034747D01*
X0137646Y0034607D01*
X0137658Y0034467D01*
X0137666Y0034326D01*
X0137670Y0034185D01*
X0137670Y0034045D01*
X0137666Y0033904D01*
X0137658Y0033763D01*
X0137646Y0033623D01*
X0137630Y0033483D01*
X0137610Y0033343D01*
X0137586Y0033204D01*
X0137559Y0033066D01*
X0137527Y0032929D01*
X0137492Y0032793D01*
X0137453Y0032657D01*
X0137410Y0032523D01*
X0137363Y0032390D01*
X0137313Y0032259D01*
X0137258Y0032129D01*
X0137201Y0032000D01*
X0137139Y0031873D01*
X0137074Y0031748D01*
X0137006Y0031625D01*
X0136934Y0031504D01*
X0136859Y0031385D01*
X0136780Y0031268D01*
X0136698Y0031153D01*
X0136613Y0031041D01*
X0136525Y0030931D01*
X0136434Y0030824D01*
X0136340Y0030719D01*
X0136243Y0030617D01*
X0136143Y0030518D01*
X0136040Y0030421D01*
X0135935Y0030328D01*
X0135827Y0030237D01*
X0135716Y0030150D01*
X0135603Y0030066D01*
X0135488Y0029985D01*
X0135371Y0029907D01*
X0135251Y0029833D01*
X0135129Y0029762D01*
X0135006Y0029694D01*
X0134880Y0029630D01*
X0134753Y0029570D01*
X0134624Y0029513D01*
X0134494Y0029459D01*
X0134362Y0029410D01*
X0134228Y0029364D01*
X0134094Y0029322D01*
X0133958Y0029284D01*
X0133822Y0029249D01*
X0133684Y0029219D01*
X0133546Y0029192D01*
X0133407Y0029170D01*
X0133267Y0029151D01*
X0133127Y0029136D01*
X0132987Y0029125D01*
X0132846Y0029118D01*
X0132705Y0029115D01*
X0132564Y0029116D01*
X0132424Y0029121D01*
X0132283Y0029130D01*
X0132143Y0029143D01*
X0132003Y0029160D01*
X0131863Y0029180D01*
X0131725Y0029205D01*
X0131587Y0029234D01*
X0131450Y0029266D01*
X0131314Y0029302D01*
X0131179Y0029343D01*
X0131045Y0029387D01*
X0130912Y0029434D01*
X0130781Y0029486D01*
X0130651Y0029541D01*
X0130523Y0029599D01*
X0130397Y0029662D01*
X0130272Y0029727D01*
X0130150Y0029797D01*
X0130029Y0029869D01*
X0129910Y0029945D01*
X0129794Y0030025D01*
X0129680Y0030108D01*
X0129568Y0030193D01*
X0129459Y0030282D01*
X0129352Y0030374D01*
X0129248Y0030469D01*
X0129147Y0030567D01*
X0129048Y0030668D01*
X0128953Y0030771D01*
X0128860Y0030877D01*
X0128770Y0030986D01*
X0128684Y0031097D01*
X0128600Y0031210D01*
X0128520Y0031326D01*
X0128443Y0031444D01*
X0128370Y0031564D01*
X0128299Y0031687D01*
X0128233Y0031811D01*
X0128170Y0031937D01*
X0128110Y0032064D01*
X0128054Y0032193D01*
X0128002Y0032324D01*
X0127953Y0032456D01*
X0127908Y0032590D01*
X0127867Y0032725D01*
X0127830Y0032861D01*
X0127796Y0032997D01*
X0127767Y0033135D01*
X0127741Y0033274D01*
X0127720Y0033413D01*
X0127702Y0033553D01*
X0127688Y0033693D01*
X0127678Y0033833D01*
X0127672Y0033974D01*
X0127670Y0034115D01*
X0122670Y0079115D02*
X0122670Y0099115D01*
X0127670Y0131615D02*
X0132670Y0139115D01*
X0137670Y0131615D01*
X0110170Y0139115D02*
X0095170Y0139115D01*
X0020170Y0109115D02*
X0005170Y0109115D01*
X0037670Y0211615D02*
X0042670Y0219115D01*
X0047670Y0211615D01*
X0302670Y0229115D02*
X0302670Y0139115D01*
X0332670Y0139115D01*
X0332670Y0229115D01*
X0302670Y0229115D01*
X0312670Y0259115D02*
X0312670Y0349115D01*
X0342670Y0349115D01*
X0342670Y0259115D01*
X0312670Y0259115D01*
X0382670Y0169115D02*
X0382670Y0149115D01*
X0422670Y0149115D02*
X0522670Y0149115D01*
X0522670Y0359115D01*
X0422670Y0359115D01*
X0422670Y0149115D01*
X0360170Y0109115D02*
X0345170Y0109115D01*
X0492670Y0089115D02*
X0492670Y0059115D01*
X0582670Y0059115D01*
X0582670Y0089115D01*
X0492670Y0089115D01*
X0587670Y0144115D02*
X0587672Y0144256D01*
X0587678Y0144397D01*
X0587688Y0144537D01*
X0587702Y0144677D01*
X0587720Y0144817D01*
X0587741Y0144956D01*
X0587767Y0145095D01*
X0587796Y0145233D01*
X0587830Y0145369D01*
X0587867Y0145505D01*
X0587908Y0145640D01*
X0587953Y0145774D01*
X0588002Y0145906D01*
X0588054Y0146037D01*
X0588110Y0146166D01*
X0588170Y0146293D01*
X0588233Y0146419D01*
X0588299Y0146543D01*
X0588370Y0146666D01*
X0588443Y0146786D01*
X0588520Y0146904D01*
X0588600Y0147020D01*
X0588684Y0147133D01*
X0588770Y0147244D01*
X0588860Y0147353D01*
X0588953Y0147459D01*
X0589048Y0147562D01*
X0589147Y0147663D01*
X0589248Y0147761D01*
X0589352Y0147856D01*
X0589459Y0147948D01*
X0589568Y0148037D01*
X0589680Y0148122D01*
X0589794Y0148205D01*
X0589910Y0148285D01*
X0590029Y0148361D01*
X0590150Y0148433D01*
X0590272Y0148503D01*
X0590397Y0148568D01*
X0590523Y0148631D01*
X0590651Y0148689D01*
X0590781Y0148744D01*
X0590912Y0148796D01*
X0591045Y0148843D01*
X0591179Y0148887D01*
X0591314Y0148928D01*
X0591450Y0148964D01*
X0591587Y0148996D01*
X0591725Y0149025D01*
X0591863Y0149050D01*
X0592003Y0149070D01*
X0592143Y0149087D01*
X0592283Y0149100D01*
X0592424Y0149109D01*
X0592564Y0149114D01*
X0592705Y0149115D01*
X0592846Y0149112D01*
X0592987Y0149105D01*
X0593127Y0149094D01*
X0593267Y0149079D01*
X0593407Y0149060D01*
X0593546Y0149038D01*
X0593684Y0149011D01*
X0593822Y0148981D01*
X0593958Y0148946D01*
X0594094Y0148908D01*
X0594228Y0148866D01*
X0594362Y0148820D01*
X0594494Y0148771D01*
X0594624Y0148717D01*
X0594753Y0148660D01*
X0594880Y0148600D01*
X0595006Y0148536D01*
X0595129Y0148468D01*
X0595251Y0148397D01*
X0595371Y0148323D01*
X0595488Y0148245D01*
X0595603Y0148164D01*
X0595716Y0148080D01*
X0595827Y0147993D01*
X0595935Y0147902D01*
X0596040Y0147809D01*
X0596143Y0147712D01*
X0596243Y0147613D01*
X0596340Y0147511D01*
X0596434Y0147406D01*
X0596525Y0147299D01*
X0596613Y0147189D01*
X0596698Y0147077D01*
X0596780Y0146962D01*
X0596859Y0146845D01*
X0596934Y0146726D01*
X0597006Y0146605D01*
X0597074Y0146482D01*
X0597139Y0146357D01*
X0597201Y0146230D01*
X0597258Y0146101D01*
X0597313Y0145971D01*
X0597363Y0145840D01*
X0597410Y0145707D01*
X0597453Y0145573D01*
X0597492Y0145437D01*
X0597527Y0145301D01*
X0597559Y0145164D01*
X0597586Y0145026D01*
X0597610Y0144887D01*
X0597630Y0144747D01*
X0597646Y0144607D01*
X0597658Y0144467D01*
X0597666Y0144326D01*
X0597670Y0144185D01*
X0597670Y0144045D01*
X0597666Y0143904D01*
X0597658Y0143763D01*
X0597646Y0143623D01*
X0597630Y0143483D01*
X0597610Y0143343D01*
X0597586Y0143204D01*
X0597559Y0143066D01*
X0597527Y0142929D01*
X0597492Y0142793D01*
X0597453Y0142657D01*
X0597410Y0142523D01*
X0597363Y0142390D01*
X0597313Y0142259D01*
X0597258Y0142129D01*
X0597201Y0142000D01*
X0597139Y0141873D01*
X0597074Y0141748D01*
X0597006Y0141625D01*
X0596934Y0141504D01*
X0596859Y0141385D01*
X0596780Y0141268D01*
X0596698Y0141153D01*
X0596613Y0141041D01*
X0596525Y0140931D01*
X0596434Y0140824D01*
X0596340Y0140719D01*
X0596243Y0140617D01*
X0596143Y0140518D01*
X0596040Y0140421D01*
X0595935Y0140328D01*
X0595827Y0140237D01*
X0595716Y0140150D01*
X0595603Y0140066D01*
X0595488Y0139985D01*
X0595371Y0139907D01*
X0595251Y0139833D01*
X0595129Y0139762D01*
X0595006Y0139694D01*
X0594880Y0139630D01*
X0594753Y0139570D01*
X0594624Y0139513D01*
X0594494Y0139459D01*
X0594362Y0139410D01*
X0594228Y0139364D01*
X0594094Y0139322D01*
X0593958Y0139284D01*
X0593822Y0139249D01*
X0593684Y0139219D01*
X0593546Y0139192D01*
X0593407Y0139170D01*
X0593267Y0139151D01*
X0593127Y0139136D01*
X0592987Y0139125D01*
X0592846Y0139118D01*
X0592705Y0139115D01*
X0592564Y0139116D01*
X0592424Y0139121D01*
X0592283Y0139130D01*
X0592143Y0139143D01*
X0592003Y0139160D01*
X0591863Y0139180D01*
X0591725Y0139205D01*
X0591587Y0139234D01*
X0591450Y0139266D01*
X0591314Y0139302D01*
X0591179Y0139343D01*
X0591045Y0139387D01*
X0590912Y0139434D01*
X0590781Y0139486D01*
X0590651Y0139541D01*
X0590523Y0139599D01*
X0590397Y0139662D01*
X0590272Y0139727D01*
X0590150Y0139797D01*
X0590029Y0139869D01*
X0589910Y0139945D01*
X0589794Y0140025D01*
X0589680Y0140108D01*
X0589568Y0140193D01*
X0589459Y0140282D01*
X0589352Y0140374D01*
X0589248Y0140469D01*
X0589147Y0140567D01*
X0589048Y0140668D01*
X0588953Y0140771D01*
X0588860Y0140877D01*
X0588770Y0140986D01*
X0588684Y0141097D01*
X0588600Y0141210D01*
X0588520Y0141326D01*
X0588443Y0141444D01*
X0588370Y0141564D01*
X0588299Y0141687D01*
X0588233Y0141811D01*
X0588170Y0141937D01*
X0588110Y0142064D01*
X0588054Y0142193D01*
X0588002Y0142324D01*
X0587953Y0142456D01*
X0587908Y0142590D01*
X0587867Y0142725D01*
X0587830Y0142861D01*
X0587796Y0142997D01*
X0587767Y0143135D01*
X0587741Y0143274D01*
X0587720Y0143413D01*
X0587702Y0143553D01*
X0587688Y0143693D01*
X0587678Y0143833D01*
X0587672Y0143974D01*
X0587670Y0144115D01*
X0607670Y0144115D02*
X0607672Y0144256D01*
X0607678Y0144397D01*
X0607688Y0144537D01*
X0607702Y0144677D01*
X0607720Y0144817D01*
X0607741Y0144956D01*
X0607767Y0145095D01*
X0607796Y0145233D01*
X0607830Y0145369D01*
X0607867Y0145505D01*
X0607908Y0145640D01*
X0607953Y0145774D01*
X0608002Y0145906D01*
X0608054Y0146037D01*
X0608110Y0146166D01*
X0608170Y0146293D01*
X0608233Y0146419D01*
X0608299Y0146543D01*
X0608370Y0146666D01*
X0608443Y0146786D01*
X0608520Y0146904D01*
X0608600Y0147020D01*
X0608684Y0147133D01*
X0608770Y0147244D01*
X0608860Y0147353D01*
X0608953Y0147459D01*
X0609048Y0147562D01*
X0609147Y0147663D01*
X0609248Y0147761D01*
X0609352Y0147856D01*
X0609459Y0147948D01*
X0609568Y0148037D01*
X0609680Y0148122D01*
X0609794Y0148205D01*
X0609910Y0148285D01*
X0610029Y0148361D01*
X0610150Y0148433D01*
X0610272Y0148503D01*
X0610397Y0148568D01*
X0610523Y0148631D01*
X0610651Y0148689D01*
X0610781Y0148744D01*
X0610912Y0148796D01*
X0611045Y0148843D01*
X0611179Y0148887D01*
X0611314Y0148928D01*
X0611450Y0148964D01*
X0611587Y0148996D01*
X0611725Y0149025D01*
X0611863Y0149050D01*
X0612003Y0149070D01*
X0612143Y0149087D01*
X0612283Y0149100D01*
X0612424Y0149109D01*
X0612564Y0149114D01*
X0612705Y0149115D01*
X0612846Y0149112D01*
X0612987Y0149105D01*
X0613127Y0149094D01*
X0613267Y0149079D01*
X0613407Y0149060D01*
X0613546Y0149038D01*
X0613684Y0149011D01*
X0613822Y0148981D01*
X0613958Y0148946D01*
X0614094Y0148908D01*
X0614228Y0148866D01*
X0614362Y0148820D01*
X0614494Y0148771D01*
X0614624Y0148717D01*
X0614753Y0148660D01*
X0614880Y0148600D01*
X0615006Y0148536D01*
X0615129Y0148468D01*
X0615251Y0148397D01*
X0615371Y0148323D01*
X0615488Y0148245D01*
X0615603Y0148164D01*
X0615716Y0148080D01*
X0615827Y0147993D01*
X0615935Y0147902D01*
X0616040Y0147809D01*
X0616143Y0147712D01*
X0616243Y0147613D01*
X0616340Y0147511D01*
X0616434Y0147406D01*
X0616525Y0147299D01*
X0616613Y0147189D01*
X0616698Y0147077D01*
X0616780Y0146962D01*
X0616859Y0146845D01*
X0616934Y0146726D01*
X0617006Y0146605D01*
X0617074Y0146482D01*
X0617139Y0146357D01*
X0617201Y0146230D01*
X0617258Y0146101D01*
X0617313Y0145971D01*
X0617363Y0145840D01*
X0617410Y0145707D01*
X0617453Y0145573D01*
X0617492Y0145437D01*
X0617527Y0145301D01*
X0617559Y0145164D01*
X0617586Y0145026D01*
X0617610Y0144887D01*
X0617630Y0144747D01*
X0617646Y0144607D01*
X0617658Y0144467D01*
X0617666Y0144326D01*
X0617670Y0144185D01*
X0617670Y0144045D01*
X0617666Y0143904D01*
X0617658Y0143763D01*
X0617646Y0143623D01*
X0617630Y0143483D01*
X0617610Y0143343D01*
X0617586Y0143204D01*
X0617559Y0143066D01*
X0617527Y0142929D01*
X0617492Y0142793D01*
X0617453Y0142657D01*
X0617410Y0142523D01*
X0617363Y0142390D01*
X0617313Y0142259D01*
X0617258Y0142129D01*
X0617201Y0142000D01*
X0617139Y0141873D01*
X0617074Y0141748D01*
X0617006Y0141625D01*
X0616934Y0141504D01*
X0616859Y0141385D01*
X0616780Y0141268D01*
X0616698Y0141153D01*
X0616613Y0141041D01*
X0616525Y0140931D01*
X0616434Y0140824D01*
X0616340Y0140719D01*
X0616243Y0140617D01*
X0616143Y0140518D01*
X0616040Y0140421D01*
X0615935Y0140328D01*
X0615827Y0140237D01*
X0615716Y0140150D01*
X0615603Y0140066D01*
X0615488Y0139985D01*
X0615371Y0139907D01*
X0615251Y0139833D01*
X0615129Y0139762D01*
X0615006Y0139694D01*
X0614880Y0139630D01*
X0614753Y0139570D01*
X0614624Y0139513D01*
X0614494Y0139459D01*
X0614362Y0139410D01*
X0614228Y0139364D01*
X0614094Y0139322D01*
X0613958Y0139284D01*
X0613822Y0139249D01*
X0613684Y0139219D01*
X0613546Y0139192D01*
X0613407Y0139170D01*
X0613267Y0139151D01*
X0613127Y0139136D01*
X0612987Y0139125D01*
X0612846Y0139118D01*
X0612705Y0139115D01*
X0612564Y0139116D01*
X0612424Y0139121D01*
X0612283Y0139130D01*
X0612143Y0139143D01*
X0612003Y0139160D01*
X0611863Y0139180D01*
X0611725Y0139205D01*
X0611587Y0139234D01*
X0611450Y0139266D01*
X0611314Y0139302D01*
X0611179Y0139343D01*
X0611045Y0139387D01*
X0610912Y0139434D01*
X0610781Y0139486D01*
X0610651Y0139541D01*
X0610523Y0139599D01*
X0610397Y0139662D01*
X0610272Y0139727D01*
X0610150Y0139797D01*
X0610029Y0139869D01*
X0609910Y0139945D01*
X0609794Y0140025D01*
X0609680Y0140108D01*
X0609568Y0140193D01*
X0609459Y0140282D01*
X0609352Y0140374D01*
X0609248Y0140469D01*
X0609147Y0140567D01*
X0609048Y0140668D01*
X0608953Y0140771D01*
X0608860Y0140877D01*
X0608770Y0140986D01*
X0608684Y0141097D01*
X0608600Y0141210D01*
X0608520Y0141326D01*
X0608443Y0141444D01*
X0608370Y0141564D01*
X0608299Y0141687D01*
X0608233Y0141811D01*
X0608170Y0141937D01*
X0608110Y0142064D01*
X0608054Y0142193D01*
X0608002Y0142324D01*
X0607953Y0142456D01*
X0607908Y0142590D01*
X0607867Y0142725D01*
X0607830Y0142861D01*
X0607796Y0142997D01*
X0607767Y0143135D01*
X0607741Y0143274D01*
X0607720Y0143413D01*
X0607702Y0143553D01*
X0607688Y0143693D01*
X0607678Y0143833D01*
X0607672Y0143974D01*
X0607670Y0144115D01*
X0635170Y0109115D02*
X0650170Y0109115D01*
X0562670Y0179115D02*
X0542670Y0179115D01*
X0592670Y0249115D02*
X0592670Y0269115D01*
X0557670Y0371615D02*
X0552670Y0379115D01*
X0547670Y0371615D01*
D11*
X0552670Y0369115D02*
X0552670Y0379115D01*
X0532670Y0349115D02*
X0530470Y0349115D01*
X0522670Y0349115D02*
X0522672Y0349239D01*
X0522678Y0349364D01*
X0522688Y0349488D01*
X0522702Y0349611D01*
X0522719Y0349734D01*
X0522741Y0349857D01*
X0522767Y0349979D01*
X0522796Y0350099D01*
X0522830Y0350219D01*
X0522867Y0350338D01*
X0522908Y0350455D01*
X0522952Y0350571D01*
X0523000Y0350686D01*
X0523052Y0350799D01*
X0523108Y0350910D01*
X0523167Y0351020D01*
X0523229Y0351127D01*
X0523295Y0351233D01*
X0523364Y0351336D01*
X0523437Y0351437D01*
X0523513Y0351536D01*
X0523591Y0351632D01*
X0523673Y0351726D01*
X0523758Y0351817D01*
X0523845Y0351906D01*
X0523936Y0351991D01*
X0524029Y0352074D01*
X0524125Y0352153D01*
X0524223Y0352229D01*
X0524323Y0352303D01*
X0524426Y0352373D01*
X0524531Y0352439D01*
X0524638Y0352503D01*
X0524747Y0352563D01*
X0524858Y0352619D01*
X0524970Y0352672D01*
X0525085Y0352721D01*
X0525200Y0352767D01*
X0525318Y0352808D01*
X0525436Y0352847D01*
X0525556Y0352881D01*
X0525676Y0352911D01*
X0525798Y0352938D01*
X0525920Y0352960D01*
X0526043Y0352979D01*
X0526166Y0352994D01*
X0526290Y0353005D01*
X0526415Y0353012D01*
X0526539Y0353015D01*
X0526663Y0353014D01*
X0526788Y0353009D01*
X0526912Y0353000D01*
X0527035Y0352987D01*
X0527159Y0352970D01*
X0527281Y0352950D01*
X0527403Y0352925D01*
X0527524Y0352896D01*
X0527644Y0352864D01*
X0527763Y0352828D01*
X0527881Y0352788D01*
X0527998Y0352744D01*
X0528113Y0352697D01*
X0528226Y0352646D01*
X0528338Y0352591D01*
X0528448Y0352533D01*
X0528556Y0352472D01*
X0528662Y0352407D01*
X0528766Y0352338D01*
X0528867Y0352267D01*
X0528967Y0352192D01*
X0529064Y0352114D01*
X0529158Y0352033D01*
X0529250Y0351949D01*
X0529339Y0351862D01*
X0529425Y0351772D01*
X0529508Y0351680D01*
X0529588Y0351585D01*
X0529666Y0351487D01*
X0529740Y0351387D01*
X0529811Y0351285D01*
X0529878Y0351181D01*
X0529942Y0351074D01*
X0530003Y0350965D01*
X0530060Y0350855D01*
X0530114Y0350743D01*
X0530164Y0350629D01*
X0530211Y0350514D01*
X0530253Y0350397D01*
X0530292Y0350279D01*
X0530328Y0350159D01*
X0530359Y0350039D01*
X0530386Y0349918D01*
X0530410Y0349796D01*
X0530430Y0349673D01*
X0530446Y0349549D01*
X0530458Y0349426D01*
X0530466Y0349302D01*
X0530470Y0349177D01*
X0530470Y0349053D01*
X0530466Y0348928D01*
X0530458Y0348804D01*
X0530446Y0348681D01*
X0530430Y0348557D01*
X0530410Y0348434D01*
X0530386Y0348312D01*
X0530359Y0348191D01*
X0530328Y0348071D01*
X0530292Y0347951D01*
X0530253Y0347833D01*
X0530211Y0347716D01*
X0530164Y0347601D01*
X0530114Y0347487D01*
X0530060Y0347375D01*
X0530003Y0347265D01*
X0529942Y0347156D01*
X0529878Y0347049D01*
X0529811Y0346945D01*
X0529740Y0346843D01*
X0529666Y0346743D01*
X0529588Y0346645D01*
X0529508Y0346550D01*
X0529425Y0346458D01*
X0529339Y0346368D01*
X0529250Y0346281D01*
X0529158Y0346197D01*
X0529064Y0346116D01*
X0528967Y0346038D01*
X0528867Y0345963D01*
X0528766Y0345892D01*
X0528662Y0345823D01*
X0528556Y0345758D01*
X0528448Y0345697D01*
X0528338Y0345639D01*
X0528226Y0345584D01*
X0528113Y0345533D01*
X0527998Y0345486D01*
X0527881Y0345442D01*
X0527763Y0345402D01*
X0527644Y0345366D01*
X0527524Y0345334D01*
X0527403Y0345305D01*
X0527281Y0345280D01*
X0527159Y0345260D01*
X0527035Y0345243D01*
X0526912Y0345230D01*
X0526788Y0345221D01*
X0526663Y0345216D01*
X0526539Y0345215D01*
X0526415Y0345218D01*
X0526290Y0345225D01*
X0526166Y0345236D01*
X0526043Y0345251D01*
X0525920Y0345270D01*
X0525798Y0345292D01*
X0525676Y0345319D01*
X0525556Y0345349D01*
X0525436Y0345383D01*
X0525318Y0345422D01*
X0525200Y0345463D01*
X0525085Y0345509D01*
X0524970Y0345558D01*
X0524858Y0345611D01*
X0524747Y0345667D01*
X0524638Y0345727D01*
X0524531Y0345791D01*
X0524426Y0345857D01*
X0524323Y0345927D01*
X0524223Y0346001D01*
X0524125Y0346077D01*
X0524029Y0346156D01*
X0523936Y0346239D01*
X0523845Y0346324D01*
X0523758Y0346413D01*
X0523673Y0346504D01*
X0523591Y0346598D01*
X0523513Y0346694D01*
X0523437Y0346793D01*
X0523364Y0346894D01*
X0523295Y0346997D01*
X0523229Y0347103D01*
X0523167Y0347210D01*
X0523108Y0347320D01*
X0523052Y0347431D01*
X0523000Y0347544D01*
X0522952Y0347659D01*
X0522908Y0347775D01*
X0522867Y0347892D01*
X0522830Y0348011D01*
X0522796Y0348131D01*
X0522767Y0348251D01*
X0522741Y0348373D01*
X0522719Y0348496D01*
X0522702Y0348619D01*
X0522688Y0348742D01*
X0522678Y0348866D01*
X0522672Y0348991D01*
X0522670Y0349115D01*
X0522670Y0329115D02*
X0522672Y0329239D01*
X0522678Y0329364D01*
X0522688Y0329488D01*
X0522702Y0329611D01*
X0522719Y0329734D01*
X0522741Y0329857D01*
X0522767Y0329979D01*
X0522796Y0330099D01*
X0522830Y0330219D01*
X0522867Y0330338D01*
X0522908Y0330455D01*
X0522952Y0330571D01*
X0523000Y0330686D01*
X0523052Y0330799D01*
X0523108Y0330910D01*
X0523167Y0331020D01*
X0523229Y0331127D01*
X0523295Y0331233D01*
X0523364Y0331336D01*
X0523437Y0331437D01*
X0523513Y0331536D01*
X0523591Y0331632D01*
X0523673Y0331726D01*
X0523758Y0331817D01*
X0523845Y0331906D01*
X0523936Y0331991D01*
X0524029Y0332074D01*
X0524125Y0332153D01*
X0524223Y0332229D01*
X0524323Y0332303D01*
X0524426Y0332373D01*
X0524531Y0332439D01*
X0524638Y0332503D01*
X0524747Y0332563D01*
X0524858Y0332619D01*
X0524970Y0332672D01*
X0525085Y0332721D01*
X0525200Y0332767D01*
X0525318Y0332808D01*
X0525436Y0332847D01*
X0525556Y0332881D01*
X0525676Y0332911D01*
X0525798Y0332938D01*
X0525920Y0332960D01*
X0526043Y0332979D01*
X0526166Y0332994D01*
X0526290Y0333005D01*
X0526415Y0333012D01*
X0526539Y0333015D01*
X0526663Y0333014D01*
X0526788Y0333009D01*
X0526912Y0333000D01*
X0527035Y0332987D01*
X0527159Y0332970D01*
X0527281Y0332950D01*
X0527403Y0332925D01*
X0527524Y0332896D01*
X0527644Y0332864D01*
X0527763Y0332828D01*
X0527881Y0332788D01*
X0527998Y0332744D01*
X0528113Y0332697D01*
X0528226Y0332646D01*
X0528338Y0332591D01*
X0528448Y0332533D01*
X0528556Y0332472D01*
X0528662Y0332407D01*
X0528766Y0332338D01*
X0528867Y0332267D01*
X0528967Y0332192D01*
X0529064Y0332114D01*
X0529158Y0332033D01*
X0529250Y0331949D01*
X0529339Y0331862D01*
X0529425Y0331772D01*
X0529508Y0331680D01*
X0529588Y0331585D01*
X0529666Y0331487D01*
X0529740Y0331387D01*
X0529811Y0331285D01*
X0529878Y0331181D01*
X0529942Y0331074D01*
X0530003Y0330965D01*
X0530060Y0330855D01*
X0530114Y0330743D01*
X0530164Y0330629D01*
X0530211Y0330514D01*
X0530253Y0330397D01*
X0530292Y0330279D01*
X0530328Y0330159D01*
X0530359Y0330039D01*
X0530386Y0329918D01*
X0530410Y0329796D01*
X0530430Y0329673D01*
X0530446Y0329549D01*
X0530458Y0329426D01*
X0530466Y0329302D01*
X0530470Y0329177D01*
X0530470Y0329053D01*
X0530466Y0328928D01*
X0530458Y0328804D01*
X0530446Y0328681D01*
X0530430Y0328557D01*
X0530410Y0328434D01*
X0530386Y0328312D01*
X0530359Y0328191D01*
X0530328Y0328071D01*
X0530292Y0327951D01*
X0530253Y0327833D01*
X0530211Y0327716D01*
X0530164Y0327601D01*
X0530114Y0327487D01*
X0530060Y0327375D01*
X0530003Y0327265D01*
X0529942Y0327156D01*
X0529878Y0327049D01*
X0529811Y0326945D01*
X0529740Y0326843D01*
X0529666Y0326743D01*
X0529588Y0326645D01*
X0529508Y0326550D01*
X0529425Y0326458D01*
X0529339Y0326368D01*
X0529250Y0326281D01*
X0529158Y0326197D01*
X0529064Y0326116D01*
X0528967Y0326038D01*
X0528867Y0325963D01*
X0528766Y0325892D01*
X0528662Y0325823D01*
X0528556Y0325758D01*
X0528448Y0325697D01*
X0528338Y0325639D01*
X0528226Y0325584D01*
X0528113Y0325533D01*
X0527998Y0325486D01*
X0527881Y0325442D01*
X0527763Y0325402D01*
X0527644Y0325366D01*
X0527524Y0325334D01*
X0527403Y0325305D01*
X0527281Y0325280D01*
X0527159Y0325260D01*
X0527035Y0325243D01*
X0526912Y0325230D01*
X0526788Y0325221D01*
X0526663Y0325216D01*
X0526539Y0325215D01*
X0526415Y0325218D01*
X0526290Y0325225D01*
X0526166Y0325236D01*
X0526043Y0325251D01*
X0525920Y0325270D01*
X0525798Y0325292D01*
X0525676Y0325319D01*
X0525556Y0325349D01*
X0525436Y0325383D01*
X0525318Y0325422D01*
X0525200Y0325463D01*
X0525085Y0325509D01*
X0524970Y0325558D01*
X0524858Y0325611D01*
X0524747Y0325667D01*
X0524638Y0325727D01*
X0524531Y0325791D01*
X0524426Y0325857D01*
X0524323Y0325927D01*
X0524223Y0326001D01*
X0524125Y0326077D01*
X0524029Y0326156D01*
X0523936Y0326239D01*
X0523845Y0326324D01*
X0523758Y0326413D01*
X0523673Y0326504D01*
X0523591Y0326598D01*
X0523513Y0326694D01*
X0523437Y0326793D01*
X0523364Y0326894D01*
X0523295Y0326997D01*
X0523229Y0327103D01*
X0523167Y0327210D01*
X0523108Y0327320D01*
X0523052Y0327431D01*
X0523000Y0327544D01*
X0522952Y0327659D01*
X0522908Y0327775D01*
X0522867Y0327892D01*
X0522830Y0328011D01*
X0522796Y0328131D01*
X0522767Y0328251D01*
X0522741Y0328373D01*
X0522719Y0328496D01*
X0522702Y0328619D01*
X0522688Y0328742D01*
X0522678Y0328866D01*
X0522672Y0328991D01*
X0522670Y0329115D01*
X0530470Y0329115D02*
X0532670Y0329115D01*
X0532670Y0309115D02*
X0522670Y0309115D01*
X0522670Y0299115D02*
X0532670Y0299115D01*
X0532670Y0279115D02*
X0522670Y0279115D01*
X0522670Y0269115D02*
X0532670Y0269115D01*
X0532670Y0259115D02*
X0522670Y0259115D01*
X0522670Y0249115D02*
X0532670Y0249115D01*
X0532670Y0239115D02*
X0522670Y0239115D01*
X0522670Y0219115D02*
X0532670Y0219115D01*
X0532670Y0209115D02*
X0522670Y0209115D01*
X0522670Y0189115D02*
X0532670Y0189115D01*
X0552670Y0189115D02*
X0552670Y0179115D01*
X0552670Y0175115D02*
X0552670Y0169115D01*
X0552670Y0159115D01*
X0532670Y0169115D02*
X0522670Y0169115D01*
X0592670Y0159115D02*
X0592670Y0149115D01*
X0612670Y0149115D02*
X0612670Y0159115D01*
X0612670Y0179115D02*
X0612670Y0189115D01*
X0612670Y0209115D02*
X0612670Y0219115D01*
X0612670Y0259115D02*
X0602670Y0259115D01*
X0596670Y0259115D01*
X0592670Y0259115D02*
X0582670Y0259115D01*
X0430470Y0259115D02*
X0422670Y0255215D01*
X0422670Y0259115D02*
X0412670Y0259115D01*
X0412670Y0269115D02*
X0414870Y0269115D01*
X0414872Y0269239D01*
X0414878Y0269364D01*
X0414888Y0269488D01*
X0414902Y0269611D01*
X0414919Y0269734D01*
X0414941Y0269857D01*
X0414967Y0269979D01*
X0414996Y0270099D01*
X0415030Y0270219D01*
X0415067Y0270338D01*
X0415108Y0270455D01*
X0415152Y0270571D01*
X0415200Y0270686D01*
X0415252Y0270799D01*
X0415308Y0270910D01*
X0415367Y0271020D01*
X0415429Y0271127D01*
X0415495Y0271233D01*
X0415564Y0271336D01*
X0415637Y0271437D01*
X0415713Y0271536D01*
X0415791Y0271632D01*
X0415873Y0271726D01*
X0415958Y0271817D01*
X0416045Y0271906D01*
X0416136Y0271991D01*
X0416229Y0272074D01*
X0416325Y0272153D01*
X0416423Y0272229D01*
X0416523Y0272303D01*
X0416626Y0272373D01*
X0416731Y0272439D01*
X0416838Y0272503D01*
X0416947Y0272563D01*
X0417058Y0272619D01*
X0417170Y0272672D01*
X0417285Y0272721D01*
X0417400Y0272767D01*
X0417518Y0272808D01*
X0417636Y0272847D01*
X0417756Y0272881D01*
X0417876Y0272911D01*
X0417998Y0272938D01*
X0418120Y0272960D01*
X0418243Y0272979D01*
X0418366Y0272994D01*
X0418490Y0273005D01*
X0418615Y0273012D01*
X0418739Y0273015D01*
X0418863Y0273014D01*
X0418988Y0273009D01*
X0419112Y0273000D01*
X0419235Y0272987D01*
X0419359Y0272970D01*
X0419481Y0272950D01*
X0419603Y0272925D01*
X0419724Y0272896D01*
X0419844Y0272864D01*
X0419963Y0272828D01*
X0420081Y0272788D01*
X0420198Y0272744D01*
X0420313Y0272697D01*
X0420426Y0272646D01*
X0420538Y0272591D01*
X0420648Y0272533D01*
X0420756Y0272472D01*
X0420862Y0272407D01*
X0420966Y0272338D01*
X0421067Y0272267D01*
X0421167Y0272192D01*
X0421264Y0272114D01*
X0421358Y0272033D01*
X0421450Y0271949D01*
X0421539Y0271862D01*
X0421625Y0271772D01*
X0421708Y0271680D01*
X0421788Y0271585D01*
X0421866Y0271487D01*
X0421940Y0271387D01*
X0422011Y0271285D01*
X0422078Y0271181D01*
X0422142Y0271074D01*
X0422203Y0270965D01*
X0422260Y0270855D01*
X0422314Y0270743D01*
X0422364Y0270629D01*
X0422411Y0270514D01*
X0422453Y0270397D01*
X0422492Y0270279D01*
X0422528Y0270159D01*
X0422559Y0270039D01*
X0422586Y0269918D01*
X0422610Y0269796D01*
X0422630Y0269673D01*
X0422646Y0269549D01*
X0422658Y0269426D01*
X0422666Y0269302D01*
X0422670Y0269177D01*
X0422670Y0269053D01*
X0422666Y0268928D01*
X0422658Y0268804D01*
X0422646Y0268681D01*
X0422630Y0268557D01*
X0422610Y0268434D01*
X0422586Y0268312D01*
X0422559Y0268191D01*
X0422528Y0268071D01*
X0422492Y0267951D01*
X0422453Y0267833D01*
X0422411Y0267716D01*
X0422364Y0267601D01*
X0422314Y0267487D01*
X0422260Y0267375D01*
X0422203Y0267265D01*
X0422142Y0267156D01*
X0422078Y0267049D01*
X0422011Y0266945D01*
X0421940Y0266843D01*
X0421866Y0266743D01*
X0421788Y0266645D01*
X0421708Y0266550D01*
X0421625Y0266458D01*
X0421539Y0266368D01*
X0421450Y0266281D01*
X0421358Y0266197D01*
X0421264Y0266116D01*
X0421167Y0266038D01*
X0421067Y0265963D01*
X0420966Y0265892D01*
X0420862Y0265823D01*
X0420756Y0265758D01*
X0420648Y0265697D01*
X0420538Y0265639D01*
X0420426Y0265584D01*
X0420313Y0265533D01*
X0420198Y0265486D01*
X0420081Y0265442D01*
X0419963Y0265402D01*
X0419844Y0265366D01*
X0419724Y0265334D01*
X0419603Y0265305D01*
X0419481Y0265280D01*
X0419359Y0265260D01*
X0419235Y0265243D01*
X0419112Y0265230D01*
X0418988Y0265221D01*
X0418863Y0265216D01*
X0418739Y0265215D01*
X0418615Y0265218D01*
X0418490Y0265225D01*
X0418366Y0265236D01*
X0418243Y0265251D01*
X0418120Y0265270D01*
X0417998Y0265292D01*
X0417876Y0265319D01*
X0417756Y0265349D01*
X0417636Y0265383D01*
X0417518Y0265422D01*
X0417400Y0265463D01*
X0417285Y0265509D01*
X0417170Y0265558D01*
X0417058Y0265611D01*
X0416947Y0265667D01*
X0416838Y0265727D01*
X0416731Y0265791D01*
X0416626Y0265857D01*
X0416523Y0265927D01*
X0416423Y0266001D01*
X0416325Y0266077D01*
X0416229Y0266156D01*
X0416136Y0266239D01*
X0416045Y0266324D01*
X0415958Y0266413D01*
X0415873Y0266504D01*
X0415791Y0266598D01*
X0415713Y0266694D01*
X0415637Y0266793D01*
X0415564Y0266894D01*
X0415495Y0266997D01*
X0415429Y0267103D01*
X0415367Y0267210D01*
X0415308Y0267320D01*
X0415252Y0267431D01*
X0415200Y0267544D01*
X0415152Y0267659D01*
X0415108Y0267775D01*
X0415067Y0267892D01*
X0415030Y0268011D01*
X0414996Y0268131D01*
X0414967Y0268251D01*
X0414941Y0268373D01*
X0414919Y0268496D01*
X0414902Y0268619D01*
X0414888Y0268742D01*
X0414878Y0268866D01*
X0414872Y0268991D01*
X0414870Y0269115D01*
X0422670Y0263015D02*
X0430470Y0259115D01*
X0422670Y0249115D02*
X0412670Y0249115D01*
X0412670Y0239115D02*
X0422670Y0239115D01*
X0422670Y0219115D02*
X0412670Y0219115D01*
X0412670Y0209115D02*
X0422670Y0209115D01*
X0422670Y0189115D02*
X0412670Y0189115D01*
X0402670Y0179115D02*
X0392670Y0179115D01*
X0372670Y0179115D02*
X0362670Y0179115D01*
X0362670Y0159115D02*
X0372670Y0159115D01*
X0378670Y0159115D01*
X0382670Y0159115D02*
X0392670Y0159115D01*
X0412670Y0159115D02*
X0422670Y0159115D01*
X0422670Y0169115D02*
X0412670Y0169115D01*
X0352670Y0119115D02*
X0352670Y0109115D01*
X0312670Y0149115D02*
X0282670Y0149115D01*
X0282670Y0159115D02*
X0312670Y0159115D01*
X0312670Y0169115D02*
X0282670Y0169115D01*
X0282670Y0179115D02*
X0312670Y0179115D01*
X0312670Y0189115D02*
X0282670Y0189115D01*
X0282670Y0199115D02*
X0312670Y0199115D01*
X0312670Y0209115D02*
X0282670Y0209115D01*
X0282670Y0219115D02*
X0312670Y0219115D01*
X0322670Y0269115D02*
X0292670Y0269115D01*
X0292670Y0279115D02*
X0322670Y0279115D01*
X0322670Y0289115D02*
X0292670Y0289115D01*
X0292670Y0299115D02*
X0322670Y0299115D01*
X0322670Y0309115D02*
X0292670Y0309115D01*
X0292670Y0319115D02*
X0322670Y0319115D01*
X0322670Y0329115D02*
X0292670Y0329115D01*
X0292670Y0339115D02*
X0322670Y0339115D01*
X0412670Y0339115D02*
X0414870Y0339115D01*
X0414872Y0339239D01*
X0414878Y0339364D01*
X0414888Y0339488D01*
X0414902Y0339611D01*
X0414919Y0339734D01*
X0414941Y0339857D01*
X0414967Y0339979D01*
X0414996Y0340099D01*
X0415030Y0340219D01*
X0415067Y0340338D01*
X0415108Y0340455D01*
X0415152Y0340571D01*
X0415200Y0340686D01*
X0415252Y0340799D01*
X0415308Y0340910D01*
X0415367Y0341020D01*
X0415429Y0341127D01*
X0415495Y0341233D01*
X0415564Y0341336D01*
X0415637Y0341437D01*
X0415713Y0341536D01*
X0415791Y0341632D01*
X0415873Y0341726D01*
X0415958Y0341817D01*
X0416045Y0341906D01*
X0416136Y0341991D01*
X0416229Y0342074D01*
X0416325Y0342153D01*
X0416423Y0342229D01*
X0416523Y0342303D01*
X0416626Y0342373D01*
X0416731Y0342439D01*
X0416838Y0342503D01*
X0416947Y0342563D01*
X0417058Y0342619D01*
X0417170Y0342672D01*
X0417285Y0342721D01*
X0417400Y0342767D01*
X0417518Y0342808D01*
X0417636Y0342847D01*
X0417756Y0342881D01*
X0417876Y0342911D01*
X0417998Y0342938D01*
X0418120Y0342960D01*
X0418243Y0342979D01*
X0418366Y0342994D01*
X0418490Y0343005D01*
X0418615Y0343012D01*
X0418739Y0343015D01*
X0418863Y0343014D01*
X0418988Y0343009D01*
X0419112Y0343000D01*
X0419235Y0342987D01*
X0419359Y0342970D01*
X0419481Y0342950D01*
X0419603Y0342925D01*
X0419724Y0342896D01*
X0419844Y0342864D01*
X0419963Y0342828D01*
X0420081Y0342788D01*
X0420198Y0342744D01*
X0420313Y0342697D01*
X0420426Y0342646D01*
X0420538Y0342591D01*
X0420648Y0342533D01*
X0420756Y0342472D01*
X0420862Y0342407D01*
X0420966Y0342338D01*
X0421067Y0342267D01*
X0421167Y0342192D01*
X0421264Y0342114D01*
X0421358Y0342033D01*
X0421450Y0341949D01*
X0421539Y0341862D01*
X0421625Y0341772D01*
X0421708Y0341680D01*
X0421788Y0341585D01*
X0421866Y0341487D01*
X0421940Y0341387D01*
X0422011Y0341285D01*
X0422078Y0341181D01*
X0422142Y0341074D01*
X0422203Y0340965D01*
X0422260Y0340855D01*
X0422314Y0340743D01*
X0422364Y0340629D01*
X0422411Y0340514D01*
X0422453Y0340397D01*
X0422492Y0340279D01*
X0422528Y0340159D01*
X0422559Y0340039D01*
X0422586Y0339918D01*
X0422610Y0339796D01*
X0422630Y0339673D01*
X0422646Y0339549D01*
X0422658Y0339426D01*
X0422666Y0339302D01*
X0422670Y0339177D01*
X0422670Y0339053D01*
X0422666Y0338928D01*
X0422658Y0338804D01*
X0422646Y0338681D01*
X0422630Y0338557D01*
X0422610Y0338434D01*
X0422586Y0338312D01*
X0422559Y0338191D01*
X0422528Y0338071D01*
X0422492Y0337951D01*
X0422453Y0337833D01*
X0422411Y0337716D01*
X0422364Y0337601D01*
X0422314Y0337487D01*
X0422260Y0337375D01*
X0422203Y0337265D01*
X0422142Y0337156D01*
X0422078Y0337049D01*
X0422011Y0336945D01*
X0421940Y0336843D01*
X0421866Y0336743D01*
X0421788Y0336645D01*
X0421708Y0336550D01*
X0421625Y0336458D01*
X0421539Y0336368D01*
X0421450Y0336281D01*
X0421358Y0336197D01*
X0421264Y0336116D01*
X0421167Y0336038D01*
X0421067Y0335963D01*
X0420966Y0335892D01*
X0420862Y0335823D01*
X0420756Y0335758D01*
X0420648Y0335697D01*
X0420538Y0335639D01*
X0420426Y0335584D01*
X0420313Y0335533D01*
X0420198Y0335486D01*
X0420081Y0335442D01*
X0419963Y0335402D01*
X0419844Y0335366D01*
X0419724Y0335334D01*
X0419603Y0335305D01*
X0419481Y0335280D01*
X0419359Y0335260D01*
X0419235Y0335243D01*
X0419112Y0335230D01*
X0418988Y0335221D01*
X0418863Y0335216D01*
X0418739Y0335215D01*
X0418615Y0335218D01*
X0418490Y0335225D01*
X0418366Y0335236D01*
X0418243Y0335251D01*
X0418120Y0335270D01*
X0417998Y0335292D01*
X0417876Y0335319D01*
X0417756Y0335349D01*
X0417636Y0335383D01*
X0417518Y0335422D01*
X0417400Y0335463D01*
X0417285Y0335509D01*
X0417170Y0335558D01*
X0417058Y0335611D01*
X0416947Y0335667D01*
X0416838Y0335727D01*
X0416731Y0335791D01*
X0416626Y0335857D01*
X0416523Y0335927D01*
X0416423Y0336001D01*
X0416325Y0336077D01*
X0416229Y0336156D01*
X0416136Y0336239D01*
X0416045Y0336324D01*
X0415958Y0336413D01*
X0415873Y0336504D01*
X0415791Y0336598D01*
X0415713Y0336694D01*
X0415637Y0336793D01*
X0415564Y0336894D01*
X0415495Y0336997D01*
X0415429Y0337103D01*
X0415367Y0337210D01*
X0415308Y0337320D01*
X0415252Y0337431D01*
X0415200Y0337544D01*
X0415152Y0337659D01*
X0415108Y0337775D01*
X0415067Y0337892D01*
X0415030Y0338011D01*
X0414996Y0338131D01*
X0414967Y0338251D01*
X0414941Y0338373D01*
X0414919Y0338496D01*
X0414902Y0338619D01*
X0414888Y0338742D01*
X0414878Y0338866D01*
X0414872Y0338991D01*
X0414870Y0339115D01*
X0414870Y0329115D02*
X0412670Y0329115D01*
X0414870Y0329115D02*
X0414872Y0329239D01*
X0414878Y0329364D01*
X0414888Y0329488D01*
X0414902Y0329611D01*
X0414919Y0329734D01*
X0414941Y0329857D01*
X0414967Y0329979D01*
X0414996Y0330099D01*
X0415030Y0330219D01*
X0415067Y0330338D01*
X0415108Y0330455D01*
X0415152Y0330571D01*
X0415200Y0330686D01*
X0415252Y0330799D01*
X0415308Y0330910D01*
X0415367Y0331020D01*
X0415429Y0331127D01*
X0415495Y0331233D01*
X0415564Y0331336D01*
X0415637Y0331437D01*
X0415713Y0331536D01*
X0415791Y0331632D01*
X0415873Y0331726D01*
X0415958Y0331817D01*
X0416045Y0331906D01*
X0416136Y0331991D01*
X0416229Y0332074D01*
X0416325Y0332153D01*
X0416423Y0332229D01*
X0416523Y0332303D01*
X0416626Y0332373D01*
X0416731Y0332439D01*
X0416838Y0332503D01*
X0416947Y0332563D01*
X0417058Y0332619D01*
X0417170Y0332672D01*
X0417285Y0332721D01*
X0417400Y0332767D01*
X0417518Y0332808D01*
X0417636Y0332847D01*
X0417756Y0332881D01*
X0417876Y0332911D01*
X0417998Y0332938D01*
X0418120Y0332960D01*
X0418243Y0332979D01*
X0418366Y0332994D01*
X0418490Y0333005D01*
X0418615Y0333012D01*
X0418739Y0333015D01*
X0418863Y0333014D01*
X0418988Y0333009D01*
X0419112Y0333000D01*
X0419235Y0332987D01*
X0419359Y0332970D01*
X0419481Y0332950D01*
X0419603Y0332925D01*
X0419724Y0332896D01*
X0419844Y0332864D01*
X0419963Y0332828D01*
X0420081Y0332788D01*
X0420198Y0332744D01*
X0420313Y0332697D01*
X0420426Y0332646D01*
X0420538Y0332591D01*
X0420648Y0332533D01*
X0420756Y0332472D01*
X0420862Y0332407D01*
X0420966Y0332338D01*
X0421067Y0332267D01*
X0421167Y0332192D01*
X0421264Y0332114D01*
X0421358Y0332033D01*
X0421450Y0331949D01*
X0421539Y0331862D01*
X0421625Y0331772D01*
X0421708Y0331680D01*
X0421788Y0331585D01*
X0421866Y0331487D01*
X0421940Y0331387D01*
X0422011Y0331285D01*
X0422078Y0331181D01*
X0422142Y0331074D01*
X0422203Y0330965D01*
X0422260Y0330855D01*
X0422314Y0330743D01*
X0422364Y0330629D01*
X0422411Y0330514D01*
X0422453Y0330397D01*
X0422492Y0330279D01*
X0422528Y0330159D01*
X0422559Y0330039D01*
X0422586Y0329918D01*
X0422610Y0329796D01*
X0422630Y0329673D01*
X0422646Y0329549D01*
X0422658Y0329426D01*
X0422666Y0329302D01*
X0422670Y0329177D01*
X0422670Y0329053D01*
X0422666Y0328928D01*
X0422658Y0328804D01*
X0422646Y0328681D01*
X0422630Y0328557D01*
X0422610Y0328434D01*
X0422586Y0328312D01*
X0422559Y0328191D01*
X0422528Y0328071D01*
X0422492Y0327951D01*
X0422453Y0327833D01*
X0422411Y0327716D01*
X0422364Y0327601D01*
X0422314Y0327487D01*
X0422260Y0327375D01*
X0422203Y0327265D01*
X0422142Y0327156D01*
X0422078Y0327049D01*
X0422011Y0326945D01*
X0421940Y0326843D01*
X0421866Y0326743D01*
X0421788Y0326645D01*
X0421708Y0326550D01*
X0421625Y0326458D01*
X0421539Y0326368D01*
X0421450Y0326281D01*
X0421358Y0326197D01*
X0421264Y0326116D01*
X0421167Y0326038D01*
X0421067Y0325963D01*
X0420966Y0325892D01*
X0420862Y0325823D01*
X0420756Y0325758D01*
X0420648Y0325697D01*
X0420538Y0325639D01*
X0420426Y0325584D01*
X0420313Y0325533D01*
X0420198Y0325486D01*
X0420081Y0325442D01*
X0419963Y0325402D01*
X0419844Y0325366D01*
X0419724Y0325334D01*
X0419603Y0325305D01*
X0419481Y0325280D01*
X0419359Y0325260D01*
X0419235Y0325243D01*
X0419112Y0325230D01*
X0418988Y0325221D01*
X0418863Y0325216D01*
X0418739Y0325215D01*
X0418615Y0325218D01*
X0418490Y0325225D01*
X0418366Y0325236D01*
X0418243Y0325251D01*
X0418120Y0325270D01*
X0417998Y0325292D01*
X0417876Y0325319D01*
X0417756Y0325349D01*
X0417636Y0325383D01*
X0417518Y0325422D01*
X0417400Y0325463D01*
X0417285Y0325509D01*
X0417170Y0325558D01*
X0417058Y0325611D01*
X0416947Y0325667D01*
X0416838Y0325727D01*
X0416731Y0325791D01*
X0416626Y0325857D01*
X0416523Y0325927D01*
X0416423Y0326001D01*
X0416325Y0326077D01*
X0416229Y0326156D01*
X0416136Y0326239D01*
X0416045Y0326324D01*
X0415958Y0326413D01*
X0415873Y0326504D01*
X0415791Y0326598D01*
X0415713Y0326694D01*
X0415637Y0326793D01*
X0415564Y0326894D01*
X0415495Y0326997D01*
X0415429Y0327103D01*
X0415367Y0327210D01*
X0415308Y0327320D01*
X0415252Y0327431D01*
X0415200Y0327544D01*
X0415152Y0327659D01*
X0415108Y0327775D01*
X0415067Y0327892D01*
X0415030Y0328011D01*
X0414996Y0328131D01*
X0414967Y0328251D01*
X0414941Y0328373D01*
X0414919Y0328496D01*
X0414902Y0328619D01*
X0414888Y0328742D01*
X0414878Y0328866D01*
X0414872Y0328991D01*
X0414870Y0329115D01*
X0414870Y0319115D02*
X0412670Y0319115D01*
X0414870Y0319115D02*
X0414872Y0319239D01*
X0414878Y0319364D01*
X0414888Y0319488D01*
X0414902Y0319611D01*
X0414919Y0319734D01*
X0414941Y0319857D01*
X0414967Y0319979D01*
X0414996Y0320099D01*
X0415030Y0320219D01*
X0415067Y0320338D01*
X0415108Y0320455D01*
X0415152Y0320571D01*
X0415200Y0320686D01*
X0415252Y0320799D01*
X0415308Y0320910D01*
X0415367Y0321020D01*
X0415429Y0321127D01*
X0415495Y0321233D01*
X0415564Y0321336D01*
X0415637Y0321437D01*
X0415713Y0321536D01*
X0415791Y0321632D01*
X0415873Y0321726D01*
X0415958Y0321817D01*
X0416045Y0321906D01*
X0416136Y0321991D01*
X0416229Y0322074D01*
X0416325Y0322153D01*
X0416423Y0322229D01*
X0416523Y0322303D01*
X0416626Y0322373D01*
X0416731Y0322439D01*
X0416838Y0322503D01*
X0416947Y0322563D01*
X0417058Y0322619D01*
X0417170Y0322672D01*
X0417285Y0322721D01*
X0417400Y0322767D01*
X0417518Y0322808D01*
X0417636Y0322847D01*
X0417756Y0322881D01*
X0417876Y0322911D01*
X0417998Y0322938D01*
X0418120Y0322960D01*
X0418243Y0322979D01*
X0418366Y0322994D01*
X0418490Y0323005D01*
X0418615Y0323012D01*
X0418739Y0323015D01*
X0418863Y0323014D01*
X0418988Y0323009D01*
X0419112Y0323000D01*
X0419235Y0322987D01*
X0419359Y0322970D01*
X0419481Y0322950D01*
X0419603Y0322925D01*
X0419724Y0322896D01*
X0419844Y0322864D01*
X0419963Y0322828D01*
X0420081Y0322788D01*
X0420198Y0322744D01*
X0420313Y0322697D01*
X0420426Y0322646D01*
X0420538Y0322591D01*
X0420648Y0322533D01*
X0420756Y0322472D01*
X0420862Y0322407D01*
X0420966Y0322338D01*
X0421067Y0322267D01*
X0421167Y0322192D01*
X0421264Y0322114D01*
X0421358Y0322033D01*
X0421450Y0321949D01*
X0421539Y0321862D01*
X0421625Y0321772D01*
X0421708Y0321680D01*
X0421788Y0321585D01*
X0421866Y0321487D01*
X0421940Y0321387D01*
X0422011Y0321285D01*
X0422078Y0321181D01*
X0422142Y0321074D01*
X0422203Y0320965D01*
X0422260Y0320855D01*
X0422314Y0320743D01*
X0422364Y0320629D01*
X0422411Y0320514D01*
X0422453Y0320397D01*
X0422492Y0320279D01*
X0422528Y0320159D01*
X0422559Y0320039D01*
X0422586Y0319918D01*
X0422610Y0319796D01*
X0422630Y0319673D01*
X0422646Y0319549D01*
X0422658Y0319426D01*
X0422666Y0319302D01*
X0422670Y0319177D01*
X0422670Y0319053D01*
X0422666Y0318928D01*
X0422658Y0318804D01*
X0422646Y0318681D01*
X0422630Y0318557D01*
X0422610Y0318434D01*
X0422586Y0318312D01*
X0422559Y0318191D01*
X0422528Y0318071D01*
X0422492Y0317951D01*
X0422453Y0317833D01*
X0422411Y0317716D01*
X0422364Y0317601D01*
X0422314Y0317487D01*
X0422260Y0317375D01*
X0422203Y0317265D01*
X0422142Y0317156D01*
X0422078Y0317049D01*
X0422011Y0316945D01*
X0421940Y0316843D01*
X0421866Y0316743D01*
X0421788Y0316645D01*
X0421708Y0316550D01*
X0421625Y0316458D01*
X0421539Y0316368D01*
X0421450Y0316281D01*
X0421358Y0316197D01*
X0421264Y0316116D01*
X0421167Y0316038D01*
X0421067Y0315963D01*
X0420966Y0315892D01*
X0420862Y0315823D01*
X0420756Y0315758D01*
X0420648Y0315697D01*
X0420538Y0315639D01*
X0420426Y0315584D01*
X0420313Y0315533D01*
X0420198Y0315486D01*
X0420081Y0315442D01*
X0419963Y0315402D01*
X0419844Y0315366D01*
X0419724Y0315334D01*
X0419603Y0315305D01*
X0419481Y0315280D01*
X0419359Y0315260D01*
X0419235Y0315243D01*
X0419112Y0315230D01*
X0418988Y0315221D01*
X0418863Y0315216D01*
X0418739Y0315215D01*
X0418615Y0315218D01*
X0418490Y0315225D01*
X0418366Y0315236D01*
X0418243Y0315251D01*
X0418120Y0315270D01*
X0417998Y0315292D01*
X0417876Y0315319D01*
X0417756Y0315349D01*
X0417636Y0315383D01*
X0417518Y0315422D01*
X0417400Y0315463D01*
X0417285Y0315509D01*
X0417170Y0315558D01*
X0417058Y0315611D01*
X0416947Y0315667D01*
X0416838Y0315727D01*
X0416731Y0315791D01*
X0416626Y0315857D01*
X0416523Y0315927D01*
X0416423Y0316001D01*
X0416325Y0316077D01*
X0416229Y0316156D01*
X0416136Y0316239D01*
X0416045Y0316324D01*
X0415958Y0316413D01*
X0415873Y0316504D01*
X0415791Y0316598D01*
X0415713Y0316694D01*
X0415637Y0316793D01*
X0415564Y0316894D01*
X0415495Y0316997D01*
X0415429Y0317103D01*
X0415367Y0317210D01*
X0415308Y0317320D01*
X0415252Y0317431D01*
X0415200Y0317544D01*
X0415152Y0317659D01*
X0415108Y0317775D01*
X0415067Y0317892D01*
X0415030Y0318011D01*
X0414996Y0318131D01*
X0414967Y0318251D01*
X0414941Y0318373D01*
X0414919Y0318496D01*
X0414902Y0318619D01*
X0414888Y0318742D01*
X0414878Y0318866D01*
X0414872Y0318991D01*
X0414870Y0319115D01*
X0414870Y0309115D02*
X0412670Y0309115D01*
X0414870Y0309115D02*
X0414872Y0309239D01*
X0414878Y0309364D01*
X0414888Y0309488D01*
X0414902Y0309611D01*
X0414919Y0309734D01*
X0414941Y0309857D01*
X0414967Y0309979D01*
X0414996Y0310099D01*
X0415030Y0310219D01*
X0415067Y0310338D01*
X0415108Y0310455D01*
X0415152Y0310571D01*
X0415200Y0310686D01*
X0415252Y0310799D01*
X0415308Y0310910D01*
X0415367Y0311020D01*
X0415429Y0311127D01*
X0415495Y0311233D01*
X0415564Y0311336D01*
X0415637Y0311437D01*
X0415713Y0311536D01*
X0415791Y0311632D01*
X0415873Y0311726D01*
X0415958Y0311817D01*
X0416045Y0311906D01*
X0416136Y0311991D01*
X0416229Y0312074D01*
X0416325Y0312153D01*
X0416423Y0312229D01*
X0416523Y0312303D01*
X0416626Y0312373D01*
X0416731Y0312439D01*
X0416838Y0312503D01*
X0416947Y0312563D01*
X0417058Y0312619D01*
X0417170Y0312672D01*
X0417285Y0312721D01*
X0417400Y0312767D01*
X0417518Y0312808D01*
X0417636Y0312847D01*
X0417756Y0312881D01*
X0417876Y0312911D01*
X0417998Y0312938D01*
X0418120Y0312960D01*
X0418243Y0312979D01*
X0418366Y0312994D01*
X0418490Y0313005D01*
X0418615Y0313012D01*
X0418739Y0313015D01*
X0418863Y0313014D01*
X0418988Y0313009D01*
X0419112Y0313000D01*
X0419235Y0312987D01*
X0419359Y0312970D01*
X0419481Y0312950D01*
X0419603Y0312925D01*
X0419724Y0312896D01*
X0419844Y0312864D01*
X0419963Y0312828D01*
X0420081Y0312788D01*
X0420198Y0312744D01*
X0420313Y0312697D01*
X0420426Y0312646D01*
X0420538Y0312591D01*
X0420648Y0312533D01*
X0420756Y0312472D01*
X0420862Y0312407D01*
X0420966Y0312338D01*
X0421067Y0312267D01*
X0421167Y0312192D01*
X0421264Y0312114D01*
X0421358Y0312033D01*
X0421450Y0311949D01*
X0421539Y0311862D01*
X0421625Y0311772D01*
X0421708Y0311680D01*
X0421788Y0311585D01*
X0421866Y0311487D01*
X0421940Y0311387D01*
X0422011Y0311285D01*
X0422078Y0311181D01*
X0422142Y0311074D01*
X0422203Y0310965D01*
X0422260Y0310855D01*
X0422314Y0310743D01*
X0422364Y0310629D01*
X0422411Y0310514D01*
X0422453Y0310397D01*
X0422492Y0310279D01*
X0422528Y0310159D01*
X0422559Y0310039D01*
X0422586Y0309918D01*
X0422610Y0309796D01*
X0422630Y0309673D01*
X0422646Y0309549D01*
X0422658Y0309426D01*
X0422666Y0309302D01*
X0422670Y0309177D01*
X0422670Y0309053D01*
X0422666Y0308928D01*
X0422658Y0308804D01*
X0422646Y0308681D01*
X0422630Y0308557D01*
X0422610Y0308434D01*
X0422586Y0308312D01*
X0422559Y0308191D01*
X0422528Y0308071D01*
X0422492Y0307951D01*
X0422453Y0307833D01*
X0422411Y0307716D01*
X0422364Y0307601D01*
X0422314Y0307487D01*
X0422260Y0307375D01*
X0422203Y0307265D01*
X0422142Y0307156D01*
X0422078Y0307049D01*
X0422011Y0306945D01*
X0421940Y0306843D01*
X0421866Y0306743D01*
X0421788Y0306645D01*
X0421708Y0306550D01*
X0421625Y0306458D01*
X0421539Y0306368D01*
X0421450Y0306281D01*
X0421358Y0306197D01*
X0421264Y0306116D01*
X0421167Y0306038D01*
X0421067Y0305963D01*
X0420966Y0305892D01*
X0420862Y0305823D01*
X0420756Y0305758D01*
X0420648Y0305697D01*
X0420538Y0305639D01*
X0420426Y0305584D01*
X0420313Y0305533D01*
X0420198Y0305486D01*
X0420081Y0305442D01*
X0419963Y0305402D01*
X0419844Y0305366D01*
X0419724Y0305334D01*
X0419603Y0305305D01*
X0419481Y0305280D01*
X0419359Y0305260D01*
X0419235Y0305243D01*
X0419112Y0305230D01*
X0418988Y0305221D01*
X0418863Y0305216D01*
X0418739Y0305215D01*
X0418615Y0305218D01*
X0418490Y0305225D01*
X0418366Y0305236D01*
X0418243Y0305251D01*
X0418120Y0305270D01*
X0417998Y0305292D01*
X0417876Y0305319D01*
X0417756Y0305349D01*
X0417636Y0305383D01*
X0417518Y0305422D01*
X0417400Y0305463D01*
X0417285Y0305509D01*
X0417170Y0305558D01*
X0417058Y0305611D01*
X0416947Y0305667D01*
X0416838Y0305727D01*
X0416731Y0305791D01*
X0416626Y0305857D01*
X0416523Y0305927D01*
X0416423Y0306001D01*
X0416325Y0306077D01*
X0416229Y0306156D01*
X0416136Y0306239D01*
X0416045Y0306324D01*
X0415958Y0306413D01*
X0415873Y0306504D01*
X0415791Y0306598D01*
X0415713Y0306694D01*
X0415637Y0306793D01*
X0415564Y0306894D01*
X0415495Y0306997D01*
X0415429Y0307103D01*
X0415367Y0307210D01*
X0415308Y0307320D01*
X0415252Y0307431D01*
X0415200Y0307544D01*
X0415152Y0307659D01*
X0415108Y0307775D01*
X0415067Y0307892D01*
X0415030Y0308011D01*
X0414996Y0308131D01*
X0414967Y0308251D01*
X0414941Y0308373D01*
X0414919Y0308496D01*
X0414902Y0308619D01*
X0414888Y0308742D01*
X0414878Y0308866D01*
X0414872Y0308991D01*
X0414870Y0309115D01*
X0414870Y0299115D02*
X0412670Y0299115D01*
X0414870Y0299115D02*
X0414872Y0299239D01*
X0414878Y0299364D01*
X0414888Y0299488D01*
X0414902Y0299611D01*
X0414919Y0299734D01*
X0414941Y0299857D01*
X0414967Y0299979D01*
X0414996Y0300099D01*
X0415030Y0300219D01*
X0415067Y0300338D01*
X0415108Y0300455D01*
X0415152Y0300571D01*
X0415200Y0300686D01*
X0415252Y0300799D01*
X0415308Y0300910D01*
X0415367Y0301020D01*
X0415429Y0301127D01*
X0415495Y0301233D01*
X0415564Y0301336D01*
X0415637Y0301437D01*
X0415713Y0301536D01*
X0415791Y0301632D01*
X0415873Y0301726D01*
X0415958Y0301817D01*
X0416045Y0301906D01*
X0416136Y0301991D01*
X0416229Y0302074D01*
X0416325Y0302153D01*
X0416423Y0302229D01*
X0416523Y0302303D01*
X0416626Y0302373D01*
X0416731Y0302439D01*
X0416838Y0302503D01*
X0416947Y0302563D01*
X0417058Y0302619D01*
X0417170Y0302672D01*
X0417285Y0302721D01*
X0417400Y0302767D01*
X0417518Y0302808D01*
X0417636Y0302847D01*
X0417756Y0302881D01*
X0417876Y0302911D01*
X0417998Y0302938D01*
X0418120Y0302960D01*
X0418243Y0302979D01*
X0418366Y0302994D01*
X0418490Y0303005D01*
X0418615Y0303012D01*
X0418739Y0303015D01*
X0418863Y0303014D01*
X0418988Y0303009D01*
X0419112Y0303000D01*
X0419235Y0302987D01*
X0419359Y0302970D01*
X0419481Y0302950D01*
X0419603Y0302925D01*
X0419724Y0302896D01*
X0419844Y0302864D01*
X0419963Y0302828D01*
X0420081Y0302788D01*
X0420198Y0302744D01*
X0420313Y0302697D01*
X0420426Y0302646D01*
X0420538Y0302591D01*
X0420648Y0302533D01*
X0420756Y0302472D01*
X0420862Y0302407D01*
X0420966Y0302338D01*
X0421067Y0302267D01*
X0421167Y0302192D01*
X0421264Y0302114D01*
X0421358Y0302033D01*
X0421450Y0301949D01*
X0421539Y0301862D01*
X0421625Y0301772D01*
X0421708Y0301680D01*
X0421788Y0301585D01*
X0421866Y0301487D01*
X0421940Y0301387D01*
X0422011Y0301285D01*
X0422078Y0301181D01*
X0422142Y0301074D01*
X0422203Y0300965D01*
X0422260Y0300855D01*
X0422314Y0300743D01*
X0422364Y0300629D01*
X0422411Y0300514D01*
X0422453Y0300397D01*
X0422492Y0300279D01*
X0422528Y0300159D01*
X0422559Y0300039D01*
X0422586Y0299918D01*
X0422610Y0299796D01*
X0422630Y0299673D01*
X0422646Y0299549D01*
X0422658Y0299426D01*
X0422666Y0299302D01*
X0422670Y0299177D01*
X0422670Y0299053D01*
X0422666Y0298928D01*
X0422658Y0298804D01*
X0422646Y0298681D01*
X0422630Y0298557D01*
X0422610Y0298434D01*
X0422586Y0298312D01*
X0422559Y0298191D01*
X0422528Y0298071D01*
X0422492Y0297951D01*
X0422453Y0297833D01*
X0422411Y0297716D01*
X0422364Y0297601D01*
X0422314Y0297487D01*
X0422260Y0297375D01*
X0422203Y0297265D01*
X0422142Y0297156D01*
X0422078Y0297049D01*
X0422011Y0296945D01*
X0421940Y0296843D01*
X0421866Y0296743D01*
X0421788Y0296645D01*
X0421708Y0296550D01*
X0421625Y0296458D01*
X0421539Y0296368D01*
X0421450Y0296281D01*
X0421358Y0296197D01*
X0421264Y0296116D01*
X0421167Y0296038D01*
X0421067Y0295963D01*
X0420966Y0295892D01*
X0420862Y0295823D01*
X0420756Y0295758D01*
X0420648Y0295697D01*
X0420538Y0295639D01*
X0420426Y0295584D01*
X0420313Y0295533D01*
X0420198Y0295486D01*
X0420081Y0295442D01*
X0419963Y0295402D01*
X0419844Y0295366D01*
X0419724Y0295334D01*
X0419603Y0295305D01*
X0419481Y0295280D01*
X0419359Y0295260D01*
X0419235Y0295243D01*
X0419112Y0295230D01*
X0418988Y0295221D01*
X0418863Y0295216D01*
X0418739Y0295215D01*
X0418615Y0295218D01*
X0418490Y0295225D01*
X0418366Y0295236D01*
X0418243Y0295251D01*
X0418120Y0295270D01*
X0417998Y0295292D01*
X0417876Y0295319D01*
X0417756Y0295349D01*
X0417636Y0295383D01*
X0417518Y0295422D01*
X0417400Y0295463D01*
X0417285Y0295509D01*
X0417170Y0295558D01*
X0417058Y0295611D01*
X0416947Y0295667D01*
X0416838Y0295727D01*
X0416731Y0295791D01*
X0416626Y0295857D01*
X0416523Y0295927D01*
X0416423Y0296001D01*
X0416325Y0296077D01*
X0416229Y0296156D01*
X0416136Y0296239D01*
X0416045Y0296324D01*
X0415958Y0296413D01*
X0415873Y0296504D01*
X0415791Y0296598D01*
X0415713Y0296694D01*
X0415637Y0296793D01*
X0415564Y0296894D01*
X0415495Y0296997D01*
X0415429Y0297103D01*
X0415367Y0297210D01*
X0415308Y0297320D01*
X0415252Y0297431D01*
X0415200Y0297544D01*
X0415152Y0297659D01*
X0415108Y0297775D01*
X0415067Y0297892D01*
X0415030Y0298011D01*
X0414996Y0298131D01*
X0414967Y0298251D01*
X0414941Y0298373D01*
X0414919Y0298496D01*
X0414902Y0298619D01*
X0414888Y0298742D01*
X0414878Y0298866D01*
X0414872Y0298991D01*
X0414870Y0299115D01*
X0414870Y0349115D02*
X0412670Y0349115D01*
X0414870Y0349115D02*
X0414872Y0349239D01*
X0414878Y0349364D01*
X0414888Y0349488D01*
X0414902Y0349611D01*
X0414919Y0349734D01*
X0414941Y0349857D01*
X0414967Y0349979D01*
X0414996Y0350099D01*
X0415030Y0350219D01*
X0415067Y0350338D01*
X0415108Y0350455D01*
X0415152Y0350571D01*
X0415200Y0350686D01*
X0415252Y0350799D01*
X0415308Y0350910D01*
X0415367Y0351020D01*
X0415429Y0351127D01*
X0415495Y0351233D01*
X0415564Y0351336D01*
X0415637Y0351437D01*
X0415713Y0351536D01*
X0415791Y0351632D01*
X0415873Y0351726D01*
X0415958Y0351817D01*
X0416045Y0351906D01*
X0416136Y0351991D01*
X0416229Y0352074D01*
X0416325Y0352153D01*
X0416423Y0352229D01*
X0416523Y0352303D01*
X0416626Y0352373D01*
X0416731Y0352439D01*
X0416838Y0352503D01*
X0416947Y0352563D01*
X0417058Y0352619D01*
X0417170Y0352672D01*
X0417285Y0352721D01*
X0417400Y0352767D01*
X0417518Y0352808D01*
X0417636Y0352847D01*
X0417756Y0352881D01*
X0417876Y0352911D01*
X0417998Y0352938D01*
X0418120Y0352960D01*
X0418243Y0352979D01*
X0418366Y0352994D01*
X0418490Y0353005D01*
X0418615Y0353012D01*
X0418739Y0353015D01*
X0418863Y0353014D01*
X0418988Y0353009D01*
X0419112Y0353000D01*
X0419235Y0352987D01*
X0419359Y0352970D01*
X0419481Y0352950D01*
X0419603Y0352925D01*
X0419724Y0352896D01*
X0419844Y0352864D01*
X0419963Y0352828D01*
X0420081Y0352788D01*
X0420198Y0352744D01*
X0420313Y0352697D01*
X0420426Y0352646D01*
X0420538Y0352591D01*
X0420648Y0352533D01*
X0420756Y0352472D01*
X0420862Y0352407D01*
X0420966Y0352338D01*
X0421067Y0352267D01*
X0421167Y0352192D01*
X0421264Y0352114D01*
X0421358Y0352033D01*
X0421450Y0351949D01*
X0421539Y0351862D01*
X0421625Y0351772D01*
X0421708Y0351680D01*
X0421788Y0351585D01*
X0421866Y0351487D01*
X0421940Y0351387D01*
X0422011Y0351285D01*
X0422078Y0351181D01*
X0422142Y0351074D01*
X0422203Y0350965D01*
X0422260Y0350855D01*
X0422314Y0350743D01*
X0422364Y0350629D01*
X0422411Y0350514D01*
X0422453Y0350397D01*
X0422492Y0350279D01*
X0422528Y0350159D01*
X0422559Y0350039D01*
X0422586Y0349918D01*
X0422610Y0349796D01*
X0422630Y0349673D01*
X0422646Y0349549D01*
X0422658Y0349426D01*
X0422666Y0349302D01*
X0422670Y0349177D01*
X0422670Y0349053D01*
X0422666Y0348928D01*
X0422658Y0348804D01*
X0422646Y0348681D01*
X0422630Y0348557D01*
X0422610Y0348434D01*
X0422586Y0348312D01*
X0422559Y0348191D01*
X0422528Y0348071D01*
X0422492Y0347951D01*
X0422453Y0347833D01*
X0422411Y0347716D01*
X0422364Y0347601D01*
X0422314Y0347487D01*
X0422260Y0347375D01*
X0422203Y0347265D01*
X0422142Y0347156D01*
X0422078Y0347049D01*
X0422011Y0346945D01*
X0421940Y0346843D01*
X0421866Y0346743D01*
X0421788Y0346645D01*
X0421708Y0346550D01*
X0421625Y0346458D01*
X0421539Y0346368D01*
X0421450Y0346281D01*
X0421358Y0346197D01*
X0421264Y0346116D01*
X0421167Y0346038D01*
X0421067Y0345963D01*
X0420966Y0345892D01*
X0420862Y0345823D01*
X0420756Y0345758D01*
X0420648Y0345697D01*
X0420538Y0345639D01*
X0420426Y0345584D01*
X0420313Y0345533D01*
X0420198Y0345486D01*
X0420081Y0345442D01*
X0419963Y0345402D01*
X0419844Y0345366D01*
X0419724Y0345334D01*
X0419603Y0345305D01*
X0419481Y0345280D01*
X0419359Y0345260D01*
X0419235Y0345243D01*
X0419112Y0345230D01*
X0418988Y0345221D01*
X0418863Y0345216D01*
X0418739Y0345215D01*
X0418615Y0345218D01*
X0418490Y0345225D01*
X0418366Y0345236D01*
X0418243Y0345251D01*
X0418120Y0345270D01*
X0417998Y0345292D01*
X0417876Y0345319D01*
X0417756Y0345349D01*
X0417636Y0345383D01*
X0417518Y0345422D01*
X0417400Y0345463D01*
X0417285Y0345509D01*
X0417170Y0345558D01*
X0417058Y0345611D01*
X0416947Y0345667D01*
X0416838Y0345727D01*
X0416731Y0345791D01*
X0416626Y0345857D01*
X0416523Y0345927D01*
X0416423Y0346001D01*
X0416325Y0346077D01*
X0416229Y0346156D01*
X0416136Y0346239D01*
X0416045Y0346324D01*
X0415958Y0346413D01*
X0415873Y0346504D01*
X0415791Y0346598D01*
X0415713Y0346694D01*
X0415637Y0346793D01*
X0415564Y0346894D01*
X0415495Y0346997D01*
X0415429Y0347103D01*
X0415367Y0347210D01*
X0415308Y0347320D01*
X0415252Y0347431D01*
X0415200Y0347544D01*
X0415152Y0347659D01*
X0415108Y0347775D01*
X0415067Y0347892D01*
X0415030Y0348011D01*
X0414996Y0348131D01*
X0414967Y0348251D01*
X0414941Y0348373D01*
X0414919Y0348496D01*
X0414902Y0348619D01*
X0414888Y0348742D01*
X0414878Y0348866D01*
X0414872Y0348991D01*
X0414870Y0349115D01*
X0202670Y0339115D02*
X0182670Y0339115D01*
X0182670Y0329115D02*
X0202670Y0329115D01*
X0202670Y0319115D02*
X0182670Y0319115D01*
X0182670Y0309115D02*
X0202670Y0309115D01*
X0202670Y0299115D02*
X0182670Y0299115D01*
X0182670Y0289115D02*
X0202670Y0289115D01*
X0202670Y0279115D02*
X0182670Y0279115D01*
X0182670Y0269115D02*
X0202670Y0269115D01*
X0202670Y0229115D02*
X0182670Y0229115D01*
X0182670Y0219115D02*
X0202670Y0219115D01*
X0202670Y0209115D02*
X0182670Y0209115D01*
X0182670Y0199115D02*
X0202670Y0199115D01*
X0202670Y0189115D02*
X0182670Y0189115D01*
X0182670Y0179115D02*
X0202670Y0179115D01*
X0202670Y0169115D02*
X0182670Y0169115D01*
X0132670Y0139115D02*
X0132670Y0129115D01*
X0102670Y0129115D02*
X0102670Y0139115D01*
X0082670Y0169115D02*
X0062670Y0169115D01*
X0062670Y0199115D02*
X0082670Y0199115D01*
X0042670Y0209115D02*
X0042670Y0219115D01*
X0062670Y0239115D02*
X0082670Y0239115D01*
X0082670Y0259115D02*
X0062670Y0259115D01*
X0062670Y0339115D02*
X0082670Y0339115D01*
X0012670Y0119115D02*
X0012670Y0109115D01*
X0102670Y0089115D02*
X0112670Y0089115D01*
X0118670Y0089115D01*
X0122670Y0089115D02*
X0132670Y0089115D01*
X0132670Y0049115D02*
X0132670Y0039115D01*
X0102670Y0039115D02*
X0102670Y0049115D01*
X0502670Y0079115D02*
X0502670Y0109115D01*
X0512670Y0109115D02*
X0512670Y0079115D01*
X0522670Y0079115D02*
X0522670Y0109115D01*
X0532670Y0109115D02*
X0532670Y0079115D01*
X0542670Y0079115D02*
X0542670Y0109115D01*
X0552670Y0109115D02*
X0552670Y0079115D01*
X0562670Y0079115D02*
X0562670Y0109115D01*
X0572670Y0109115D02*
X0572670Y0079115D01*
X0642670Y0109115D02*
X0642670Y0119115D01*
D12*
X0612670Y0189115D02*
X0608670Y0190615D01*
X0616670Y0193115D01*
X0608670Y0195615D01*
X0616670Y0198115D01*
X0608670Y0200615D01*
X0616670Y0203115D01*
X0608670Y0205615D01*
X0616670Y0208115D01*
X0612670Y0209115D01*
X0392670Y0179115D02*
X0391670Y0175115D01*
X0389170Y0183115D01*
X0386670Y0175115D01*
X0384170Y0183115D01*
X0381670Y0175115D01*
X0379170Y0183115D01*
X0376670Y0175115D01*
X0374170Y0183115D01*
X0372670Y0179115D01*
D13*
X0375754Y0149080D02*
X0375044Y0149632D01*
X0375045Y0149632D02*
X0375271Y0149932D01*
X0375490Y0150238D01*
X0375701Y0150549D01*
X0375905Y0150865D01*
X0376101Y0151186D01*
X0376290Y0151511D01*
X0376470Y0151841D01*
X0376643Y0152175D01*
X0376807Y0152514D01*
X0376963Y0152856D01*
X0377110Y0153202D01*
X0377249Y0153551D01*
X0377380Y0153904D01*
X0377502Y0154260D01*
X0377616Y0154618D01*
X0377720Y0154979D01*
X0377816Y0155343D01*
X0377903Y0155709D01*
X0377981Y0156077D01*
X0378051Y0156446D01*
X0378111Y0156818D01*
X0378162Y0157190D01*
X0378204Y0157564D01*
X0378237Y0157939D01*
X0378261Y0158314D01*
X0378276Y0158690D01*
X0378282Y0159066D01*
X0379181Y0159066D01*
X0379182Y0159066D01*
X0379176Y0158668D01*
X0379160Y0158270D01*
X0379135Y0157872D01*
X0379100Y0157476D01*
X0379055Y0157080D01*
X0379001Y0156686D01*
X0378937Y0156293D01*
X0378864Y0155902D01*
X0378781Y0155512D01*
X0378689Y0155125D01*
X0378588Y0154740D01*
X0378477Y0154358D01*
X0378357Y0153978D01*
X0378228Y0153601D01*
X0378089Y0153228D01*
X0377942Y0152858D01*
X0377786Y0152492D01*
X0377621Y0152130D01*
X0377447Y0151772D01*
X0377264Y0151418D01*
X0377073Y0151069D01*
X0376874Y0150724D01*
X0376666Y0150384D01*
X0376450Y0150050D01*
X0376226Y0149721D01*
X0375995Y0149397D01*
X0375755Y0149079D01*
X0375681Y0149137D01*
X0375919Y0149453D01*
X0376149Y0149775D01*
X0376372Y0150102D01*
X0376587Y0150434D01*
X0376793Y0150772D01*
X0376992Y0151115D01*
X0377181Y0151462D01*
X0377363Y0151814D01*
X0377536Y0152170D01*
X0377700Y0152530D01*
X0377855Y0152894D01*
X0378002Y0153262D01*
X0378139Y0153633D01*
X0378268Y0154007D01*
X0378387Y0154385D01*
X0378497Y0154765D01*
X0378598Y0155148D01*
X0378690Y0155533D01*
X0378772Y0155920D01*
X0378845Y0156309D01*
X0378908Y0156700D01*
X0378962Y0157092D01*
X0379006Y0157485D01*
X0379041Y0157879D01*
X0379066Y0158274D01*
X0379082Y0158670D01*
X0379088Y0159066D01*
X0378994Y0159066D01*
X0378988Y0158672D01*
X0378972Y0158279D01*
X0378947Y0157886D01*
X0378913Y0157494D01*
X0378869Y0157103D01*
X0378815Y0156713D01*
X0378752Y0156325D01*
X0378680Y0155938D01*
X0378598Y0155553D01*
X0378507Y0155170D01*
X0378407Y0154790D01*
X0378297Y0154412D01*
X0378178Y0154037D01*
X0378051Y0153665D01*
X0377914Y0153296D01*
X0377768Y0152930D01*
X0377614Y0152568D01*
X0377451Y0152210D01*
X0377279Y0151856D01*
X0377099Y0151506D01*
X0376910Y0151161D01*
X0376713Y0150820D01*
X0376507Y0150485D01*
X0376294Y0150154D01*
X0376073Y0149829D01*
X0375843Y0149509D01*
X0375607Y0149195D01*
X0375532Y0149252D01*
X0375768Y0149565D01*
X0375996Y0149883D01*
X0376216Y0150206D01*
X0376428Y0150535D01*
X0376632Y0150869D01*
X0376828Y0151207D01*
X0377016Y0151550D01*
X0377195Y0151898D01*
X0377366Y0152250D01*
X0377528Y0152606D01*
X0377681Y0152966D01*
X0377826Y0153329D01*
X0377962Y0153696D01*
X0378089Y0154066D01*
X0378207Y0154439D01*
X0378316Y0154815D01*
X0378416Y0155193D01*
X0378506Y0155574D01*
X0378588Y0155956D01*
X0378659Y0156341D01*
X0378722Y0156727D01*
X0378775Y0157115D01*
X0378819Y0157503D01*
X0378854Y0157893D01*
X0378879Y0158284D01*
X0378894Y0158675D01*
X0378900Y0159066D01*
X0378806Y0159066D01*
X0378800Y0158677D01*
X0378785Y0158288D01*
X0378760Y0157900D01*
X0378726Y0157513D01*
X0378682Y0157126D01*
X0378629Y0156741D01*
X0378567Y0156357D01*
X0378495Y0155975D01*
X0378415Y0155594D01*
X0378325Y0155216D01*
X0378225Y0154840D01*
X0378117Y0154466D01*
X0378000Y0154096D01*
X0377874Y0153728D01*
X0377738Y0153363D01*
X0377595Y0153002D01*
X0377442Y0152644D01*
X0377281Y0152290D01*
X0377111Y0151940D01*
X0376933Y0151595D01*
X0376746Y0151253D01*
X0376551Y0150917D01*
X0376348Y0150585D01*
X0376137Y0150258D01*
X0375919Y0149937D01*
X0375692Y0149621D01*
X0375458Y0149310D01*
X0375384Y0149368D01*
X0375617Y0149676D01*
X0375842Y0149991D01*
X0376059Y0150310D01*
X0376269Y0150635D01*
X0376471Y0150965D01*
X0376664Y0151300D01*
X0376850Y0151639D01*
X0377027Y0151982D01*
X0377196Y0152330D01*
X0377356Y0152682D01*
X0377508Y0153038D01*
X0377651Y0153397D01*
X0377785Y0153759D01*
X0377911Y0154125D01*
X0378027Y0154494D01*
X0378135Y0154865D01*
X0378233Y0155239D01*
X0378323Y0155615D01*
X0378403Y0155993D01*
X0378474Y0156373D01*
X0378536Y0156755D01*
X0378589Y0157138D01*
X0378632Y0157522D01*
X0378666Y0157907D01*
X0378691Y0158293D01*
X0378706Y0158679D01*
X0378712Y0159066D01*
X0378618Y0159066D01*
X0378612Y0158681D01*
X0378597Y0158297D01*
X0378572Y0157914D01*
X0378539Y0157531D01*
X0378495Y0157149D01*
X0378443Y0156768D01*
X0378382Y0156389D01*
X0378311Y0156011D01*
X0378231Y0155635D01*
X0378142Y0155262D01*
X0378044Y0154890D01*
X0377937Y0154521D01*
X0377821Y0154154D01*
X0377697Y0153791D01*
X0377563Y0153431D01*
X0377421Y0153074D01*
X0377270Y0152720D01*
X0377111Y0152370D01*
X0376943Y0152025D01*
X0376767Y0151683D01*
X0376582Y0151346D01*
X0376390Y0151013D01*
X0376189Y0150685D01*
X0375981Y0150363D01*
X0375765Y0150045D01*
X0375541Y0149732D01*
X0375310Y0149425D01*
X0375236Y0149483D01*
X0375465Y0149788D01*
X0375688Y0150099D01*
X0375903Y0150415D01*
X0376110Y0150736D01*
X0376309Y0151062D01*
X0376500Y0151392D01*
X0376684Y0151727D01*
X0376859Y0152067D01*
X0377026Y0152411D01*
X0377184Y0152758D01*
X0377334Y0153109D01*
X0377475Y0153464D01*
X0377608Y0153823D01*
X0377732Y0154184D01*
X0377847Y0154548D01*
X0377954Y0154915D01*
X0378051Y0155284D01*
X0378139Y0155656D01*
X0378219Y0156030D01*
X0378289Y0156405D01*
X0378350Y0156782D01*
X0378402Y0157161D01*
X0378445Y0157540D01*
X0378479Y0157921D01*
X0378503Y0158302D01*
X0378518Y0158684D01*
X0378524Y0159066D01*
X0378430Y0159066D01*
X0378424Y0158686D01*
X0378409Y0158307D01*
X0378385Y0157928D01*
X0378351Y0157549D01*
X0378309Y0157172D01*
X0378257Y0156796D01*
X0378196Y0156421D01*
X0378127Y0156048D01*
X0378048Y0155677D01*
X0377960Y0155307D01*
X0377863Y0154940D01*
X0377757Y0154575D01*
X0377643Y0154213D01*
X0377519Y0153854D01*
X0377388Y0153498D01*
X0377247Y0153145D01*
X0377098Y0152796D01*
X0376941Y0152451D01*
X0376775Y0152109D01*
X0376601Y0151772D01*
X0376419Y0151438D01*
X0376228Y0151110D01*
X0376030Y0150786D01*
X0375825Y0150467D01*
X0375611Y0150153D01*
X0375390Y0149844D01*
X0375161Y0149541D01*
X0375087Y0149599D01*
X0375314Y0149900D01*
X0375534Y0150207D01*
X0375746Y0150519D01*
X0375951Y0150836D01*
X0376148Y0151158D01*
X0376337Y0151485D01*
X0376518Y0151816D01*
X0376691Y0152151D01*
X0376856Y0152491D01*
X0377012Y0152834D01*
X0377160Y0153181D01*
X0377300Y0153532D01*
X0377431Y0153886D01*
X0377553Y0154243D01*
X0377667Y0154603D01*
X0377772Y0154965D01*
X0377869Y0155330D01*
X0377956Y0155697D01*
X0378034Y0156066D01*
X0378104Y0156437D01*
X0378164Y0156810D01*
X0378216Y0157184D01*
X0378258Y0157559D01*
X0378291Y0157935D01*
X0378315Y0158311D01*
X0378330Y0158688D01*
X0378336Y0159066D01*
X0379119Y0159164D02*
X0378219Y0159164D01*
X0378220Y0159165D02*
X0378214Y0159537D01*
X0378200Y0159908D01*
X0378176Y0160280D01*
X0378144Y0160650D01*
X0378103Y0161020D01*
X0378053Y0161388D01*
X0377994Y0161756D01*
X0377927Y0162122D01*
X0377850Y0162486D01*
X0377765Y0162848D01*
X0377672Y0163208D01*
X0377570Y0163565D01*
X0377459Y0163920D01*
X0377340Y0164273D01*
X0377212Y0164622D01*
X0377076Y0164968D01*
X0376932Y0165311D01*
X0376780Y0165651D01*
X0376619Y0165986D01*
X0376451Y0166318D01*
X0376275Y0166646D01*
X0376091Y0166969D01*
X0375899Y0167288D01*
X0375700Y0167602D01*
X0375493Y0167911D01*
X0375279Y0168215D01*
X0375058Y0168514D01*
X0375773Y0169060D01*
X0376007Y0168744D01*
X0376234Y0168422D01*
X0376453Y0168095D01*
X0376664Y0167762D01*
X0376867Y0167425D01*
X0377062Y0167083D01*
X0377248Y0166736D01*
X0377426Y0166385D01*
X0377596Y0166030D01*
X0377757Y0165671D01*
X0377910Y0165308D01*
X0378054Y0164941D01*
X0378189Y0164571D01*
X0378315Y0164198D01*
X0378432Y0163823D01*
X0378540Y0163444D01*
X0378639Y0163063D01*
X0378729Y0162680D01*
X0378810Y0162294D01*
X0378881Y0161907D01*
X0378943Y0161518D01*
X0378996Y0161128D01*
X0379040Y0160737D01*
X0379074Y0160345D01*
X0379099Y0159952D01*
X0379114Y0159559D01*
X0379120Y0159165D01*
X0379026Y0159165D01*
X0379020Y0159556D01*
X0379005Y0159947D01*
X0378980Y0160338D01*
X0378946Y0160728D01*
X0378903Y0161117D01*
X0378850Y0161505D01*
X0378789Y0161891D01*
X0378718Y0162276D01*
X0378637Y0162659D01*
X0378548Y0163041D01*
X0378449Y0163419D01*
X0378342Y0163796D01*
X0378225Y0164169D01*
X0378100Y0164540D01*
X0377966Y0164908D01*
X0377823Y0165272D01*
X0377671Y0165633D01*
X0377511Y0165990D01*
X0377342Y0166343D01*
X0377165Y0166692D01*
X0376979Y0167037D01*
X0376786Y0167377D01*
X0376584Y0167713D01*
X0376374Y0168043D01*
X0376157Y0168369D01*
X0375931Y0168689D01*
X0375698Y0169003D01*
X0375624Y0168946D01*
X0375855Y0168633D01*
X0376079Y0168315D01*
X0376296Y0167992D01*
X0376504Y0167663D01*
X0376705Y0167330D01*
X0376897Y0166991D01*
X0377082Y0166649D01*
X0377258Y0166302D01*
X0377426Y0165951D01*
X0377585Y0165596D01*
X0377736Y0165237D01*
X0377878Y0164875D01*
X0378011Y0164509D01*
X0378136Y0164140D01*
X0378252Y0163769D01*
X0378359Y0163395D01*
X0378457Y0163018D01*
X0378546Y0162639D01*
X0378625Y0162258D01*
X0378696Y0161876D01*
X0378757Y0161491D01*
X0378810Y0161106D01*
X0378853Y0160719D01*
X0378886Y0160331D01*
X0378911Y0159943D01*
X0378926Y0159554D01*
X0378932Y0159165D01*
X0378838Y0159165D01*
X0378832Y0159552D01*
X0378817Y0159938D01*
X0378793Y0160324D01*
X0378759Y0160710D01*
X0378716Y0161094D01*
X0378664Y0161478D01*
X0378603Y0161860D01*
X0378533Y0162240D01*
X0378454Y0162619D01*
X0378365Y0162996D01*
X0378268Y0163370D01*
X0378162Y0163742D01*
X0378047Y0164111D01*
X0377923Y0164478D01*
X0377790Y0164841D01*
X0377649Y0165201D01*
X0377499Y0165558D01*
X0377340Y0165911D01*
X0377174Y0166260D01*
X0376998Y0166605D01*
X0376815Y0166946D01*
X0376624Y0167282D01*
X0376424Y0167614D01*
X0376217Y0167940D01*
X0376002Y0168262D01*
X0375779Y0168578D01*
X0375549Y0168889D01*
X0375474Y0168832D01*
X0375703Y0168523D01*
X0375925Y0168208D01*
X0376138Y0167889D01*
X0376344Y0167564D01*
X0376543Y0167234D01*
X0376733Y0166900D01*
X0376915Y0166561D01*
X0377089Y0166218D01*
X0377255Y0165871D01*
X0377413Y0165521D01*
X0377562Y0165166D01*
X0377702Y0164808D01*
X0377834Y0164447D01*
X0377957Y0164082D01*
X0378072Y0163715D01*
X0378177Y0163345D01*
X0378274Y0162973D01*
X0378362Y0162599D01*
X0378441Y0162222D01*
X0378511Y0161844D01*
X0378571Y0161464D01*
X0378623Y0161083D01*
X0378666Y0160701D01*
X0378699Y0160318D01*
X0378723Y0159934D01*
X0378738Y0159549D01*
X0378744Y0159165D01*
X0378650Y0159165D01*
X0378644Y0159547D01*
X0378629Y0159929D01*
X0378605Y0160311D01*
X0378572Y0160692D01*
X0378530Y0161072D01*
X0378478Y0161451D01*
X0378418Y0161828D01*
X0378349Y0162204D01*
X0378270Y0162578D01*
X0378183Y0162951D01*
X0378087Y0163321D01*
X0377982Y0163688D01*
X0377868Y0164053D01*
X0377745Y0164415D01*
X0377614Y0164775D01*
X0377475Y0165131D01*
X0377326Y0165483D01*
X0377170Y0165832D01*
X0377005Y0166177D01*
X0376832Y0166518D01*
X0376651Y0166854D01*
X0376462Y0167187D01*
X0376265Y0167514D01*
X0376060Y0167837D01*
X0375847Y0168155D01*
X0375627Y0168468D01*
X0375400Y0168775D01*
X0375325Y0168718D01*
X0375551Y0168412D01*
X0375770Y0168102D01*
X0375981Y0167786D01*
X0376185Y0167465D01*
X0376381Y0167139D01*
X0376569Y0166809D01*
X0376749Y0166474D01*
X0376921Y0166135D01*
X0377085Y0165792D01*
X0377240Y0165445D01*
X0377387Y0165095D01*
X0377526Y0164741D01*
X0377657Y0164384D01*
X0377778Y0164024D01*
X0377892Y0163661D01*
X0377996Y0163296D01*
X0378092Y0162928D01*
X0378178Y0162558D01*
X0378256Y0162186D01*
X0378325Y0161812D01*
X0378385Y0161437D01*
X0378436Y0161060D01*
X0378478Y0160683D01*
X0378511Y0160304D01*
X0378535Y0159925D01*
X0378550Y0159545D01*
X0378556Y0159165D01*
X0378462Y0159165D01*
X0378456Y0159543D01*
X0378441Y0159920D01*
X0378418Y0160297D01*
X0378385Y0160674D01*
X0378343Y0161049D01*
X0378292Y0161423D01*
X0378233Y0161797D01*
X0378164Y0162168D01*
X0378087Y0162538D01*
X0378000Y0162906D01*
X0377905Y0163271D01*
X0377801Y0163635D01*
X0377689Y0163995D01*
X0377568Y0164353D01*
X0377438Y0164708D01*
X0377300Y0165060D01*
X0377154Y0165408D01*
X0376999Y0165753D01*
X0376836Y0166094D01*
X0376665Y0166430D01*
X0376486Y0166763D01*
X0376300Y0167091D01*
X0376105Y0167415D01*
X0375902Y0167734D01*
X0375692Y0168048D01*
X0375475Y0168357D01*
X0375250Y0168661D01*
X0375176Y0168604D01*
X0375399Y0168302D01*
X0375615Y0167995D01*
X0375824Y0167683D01*
X0376025Y0167366D01*
X0376218Y0167044D01*
X0376404Y0166717D01*
X0376582Y0166387D01*
X0376752Y0166052D01*
X0376914Y0165713D01*
X0377068Y0165370D01*
X0377213Y0165024D01*
X0377351Y0164675D01*
X0377479Y0164322D01*
X0377600Y0163966D01*
X0377711Y0163608D01*
X0377815Y0163247D01*
X0377909Y0162883D01*
X0377995Y0162518D01*
X0378072Y0162150D01*
X0378140Y0161781D01*
X0378199Y0161410D01*
X0378250Y0161038D01*
X0378291Y0160665D01*
X0378324Y0160290D01*
X0378348Y0159916D01*
X0378362Y0159540D01*
X0378368Y0159165D01*
X0378274Y0159165D01*
X0378268Y0159538D01*
X0378254Y0159911D01*
X0378230Y0160284D01*
X0378198Y0160655D01*
X0378156Y0161026D01*
X0378106Y0161396D01*
X0378047Y0161765D01*
X0377980Y0162132D01*
X0377903Y0162497D01*
X0377818Y0162861D01*
X0377724Y0163222D01*
X0377621Y0163581D01*
X0377510Y0163937D01*
X0377391Y0164291D01*
X0377263Y0164641D01*
X0377126Y0164989D01*
X0376982Y0165333D01*
X0376829Y0165673D01*
X0376668Y0166010D01*
X0376499Y0166343D01*
X0376322Y0166672D01*
X0376137Y0166996D01*
X0375945Y0167316D01*
X0375745Y0167631D01*
X0375538Y0167941D01*
X0375323Y0168247D01*
X0375101Y0168547D01*
X0562706Y0172200D02*
X0562154Y0171490D01*
X0562154Y0171491D02*
X0561854Y0171717D01*
X0561548Y0171936D01*
X0561237Y0172147D01*
X0560921Y0172351D01*
X0560600Y0172547D01*
X0560275Y0172736D01*
X0559945Y0172916D01*
X0559611Y0173089D01*
X0559272Y0173253D01*
X0558930Y0173409D01*
X0558584Y0173556D01*
X0558235Y0173695D01*
X0557882Y0173826D01*
X0557526Y0173948D01*
X0557168Y0174062D01*
X0556807Y0174166D01*
X0556443Y0174262D01*
X0556077Y0174349D01*
X0555709Y0174427D01*
X0555340Y0174497D01*
X0554968Y0174557D01*
X0554596Y0174608D01*
X0554222Y0174650D01*
X0553847Y0174683D01*
X0553472Y0174707D01*
X0553096Y0174722D01*
X0552720Y0174728D01*
X0552720Y0175627D01*
X0552720Y0175628D01*
X0553118Y0175622D01*
X0553516Y0175606D01*
X0553914Y0175581D01*
X0554310Y0175546D01*
X0554706Y0175501D01*
X0555100Y0175447D01*
X0555493Y0175383D01*
X0555884Y0175310D01*
X0556274Y0175227D01*
X0556661Y0175135D01*
X0557046Y0175034D01*
X0557428Y0174923D01*
X0557808Y0174803D01*
X0558185Y0174674D01*
X0558558Y0174535D01*
X0558928Y0174388D01*
X0559294Y0174232D01*
X0559656Y0174067D01*
X0560014Y0173893D01*
X0560368Y0173710D01*
X0560717Y0173519D01*
X0561062Y0173320D01*
X0561402Y0173112D01*
X0561736Y0172896D01*
X0562065Y0172672D01*
X0562389Y0172441D01*
X0562707Y0172201D01*
X0562649Y0172127D01*
X0562333Y0172365D01*
X0562011Y0172595D01*
X0561684Y0172818D01*
X0561352Y0173033D01*
X0561014Y0173239D01*
X0560671Y0173438D01*
X0560324Y0173627D01*
X0559972Y0173809D01*
X0559616Y0173982D01*
X0559256Y0174146D01*
X0558892Y0174301D01*
X0558524Y0174448D01*
X0558153Y0174585D01*
X0557779Y0174714D01*
X0557401Y0174833D01*
X0557021Y0174943D01*
X0556638Y0175044D01*
X0556253Y0175136D01*
X0555866Y0175218D01*
X0555477Y0175291D01*
X0555086Y0175354D01*
X0554694Y0175408D01*
X0554301Y0175452D01*
X0553907Y0175487D01*
X0553512Y0175512D01*
X0553116Y0175528D01*
X0552720Y0175534D01*
X0552720Y0175440D01*
X0553114Y0175434D01*
X0553507Y0175418D01*
X0553900Y0175393D01*
X0554292Y0175359D01*
X0554683Y0175315D01*
X0555073Y0175261D01*
X0555461Y0175198D01*
X0555848Y0175126D01*
X0556233Y0175044D01*
X0556616Y0174953D01*
X0556996Y0174853D01*
X0557374Y0174743D01*
X0557749Y0174624D01*
X0558121Y0174497D01*
X0558490Y0174360D01*
X0558856Y0174214D01*
X0559218Y0174060D01*
X0559576Y0173897D01*
X0559930Y0173725D01*
X0560280Y0173545D01*
X0560625Y0173356D01*
X0560966Y0173159D01*
X0561301Y0172953D01*
X0561632Y0172740D01*
X0561957Y0172519D01*
X0562277Y0172289D01*
X0562591Y0172053D01*
X0562534Y0171978D01*
X0562221Y0172214D01*
X0561903Y0172442D01*
X0561580Y0172662D01*
X0561251Y0172874D01*
X0560917Y0173078D01*
X0560579Y0173274D01*
X0560236Y0173462D01*
X0559888Y0173641D01*
X0559536Y0173812D01*
X0559180Y0173974D01*
X0558820Y0174127D01*
X0558457Y0174272D01*
X0558090Y0174408D01*
X0557720Y0174535D01*
X0557347Y0174653D01*
X0556971Y0174762D01*
X0556593Y0174862D01*
X0556212Y0174952D01*
X0555830Y0175034D01*
X0555445Y0175105D01*
X0555059Y0175168D01*
X0554671Y0175221D01*
X0554283Y0175265D01*
X0553893Y0175300D01*
X0553502Y0175325D01*
X0553111Y0175340D01*
X0552720Y0175346D01*
X0552720Y0175252D01*
X0553109Y0175246D01*
X0553498Y0175231D01*
X0553886Y0175206D01*
X0554273Y0175172D01*
X0554660Y0175128D01*
X0555045Y0175075D01*
X0555429Y0175013D01*
X0555811Y0174941D01*
X0556192Y0174861D01*
X0556570Y0174771D01*
X0556946Y0174671D01*
X0557320Y0174563D01*
X0557690Y0174446D01*
X0558058Y0174320D01*
X0558423Y0174184D01*
X0558784Y0174041D01*
X0559142Y0173888D01*
X0559496Y0173727D01*
X0559846Y0173557D01*
X0560191Y0173379D01*
X0560533Y0173192D01*
X0560869Y0172997D01*
X0561201Y0172794D01*
X0561528Y0172583D01*
X0561849Y0172365D01*
X0562165Y0172138D01*
X0562476Y0171904D01*
X0562418Y0171830D01*
X0562110Y0172063D01*
X0561795Y0172288D01*
X0561476Y0172505D01*
X0561151Y0172715D01*
X0560821Y0172917D01*
X0560486Y0173110D01*
X0560147Y0173296D01*
X0559804Y0173473D01*
X0559456Y0173642D01*
X0559104Y0173802D01*
X0558748Y0173954D01*
X0558389Y0174097D01*
X0558027Y0174231D01*
X0557661Y0174357D01*
X0557292Y0174473D01*
X0556921Y0174581D01*
X0556547Y0174679D01*
X0556171Y0174769D01*
X0555793Y0174849D01*
X0555413Y0174920D01*
X0555031Y0174982D01*
X0554648Y0175035D01*
X0554264Y0175078D01*
X0553879Y0175112D01*
X0553493Y0175137D01*
X0553107Y0175152D01*
X0552720Y0175158D01*
X0552720Y0175064D01*
X0553105Y0175058D01*
X0553489Y0175043D01*
X0553872Y0175018D01*
X0554255Y0174985D01*
X0554637Y0174941D01*
X0555018Y0174889D01*
X0555397Y0174828D01*
X0555775Y0174757D01*
X0556151Y0174677D01*
X0556524Y0174588D01*
X0556896Y0174490D01*
X0557265Y0174383D01*
X0557632Y0174267D01*
X0557995Y0174143D01*
X0558355Y0174009D01*
X0558712Y0173867D01*
X0559066Y0173716D01*
X0559416Y0173557D01*
X0559761Y0173389D01*
X0560103Y0173213D01*
X0560440Y0173028D01*
X0560773Y0172836D01*
X0561101Y0172635D01*
X0561423Y0172427D01*
X0561741Y0172211D01*
X0562054Y0171987D01*
X0562361Y0171756D01*
X0562303Y0171682D01*
X0561998Y0171911D01*
X0561687Y0172134D01*
X0561371Y0172349D01*
X0561050Y0172556D01*
X0560724Y0172755D01*
X0560394Y0172946D01*
X0560059Y0173130D01*
X0559719Y0173305D01*
X0559375Y0173472D01*
X0559028Y0173630D01*
X0558677Y0173780D01*
X0558322Y0173921D01*
X0557963Y0174054D01*
X0557602Y0174178D01*
X0557238Y0174293D01*
X0556871Y0174400D01*
X0556502Y0174497D01*
X0556130Y0174585D01*
X0555756Y0174665D01*
X0555381Y0174735D01*
X0555004Y0174796D01*
X0554625Y0174848D01*
X0554246Y0174891D01*
X0553865Y0174925D01*
X0553484Y0174949D01*
X0553102Y0174964D01*
X0552720Y0174970D01*
X0552720Y0174876D01*
X0553100Y0174870D01*
X0553479Y0174855D01*
X0553858Y0174831D01*
X0554237Y0174797D01*
X0554614Y0174755D01*
X0554990Y0174703D01*
X0555365Y0174642D01*
X0555738Y0174573D01*
X0556109Y0174494D01*
X0556479Y0174406D01*
X0556846Y0174309D01*
X0557211Y0174203D01*
X0557573Y0174089D01*
X0557932Y0173965D01*
X0558288Y0173834D01*
X0558641Y0173693D01*
X0558990Y0173544D01*
X0559335Y0173387D01*
X0559677Y0173221D01*
X0560014Y0173047D01*
X0560348Y0172865D01*
X0560676Y0172674D01*
X0561000Y0172476D01*
X0561319Y0172271D01*
X0561633Y0172057D01*
X0561942Y0171836D01*
X0562245Y0171607D01*
X0562187Y0171533D01*
X0561886Y0171760D01*
X0561579Y0171980D01*
X0561267Y0172192D01*
X0560950Y0172397D01*
X0560628Y0172594D01*
X0560301Y0172783D01*
X0559970Y0172964D01*
X0559635Y0173137D01*
X0559295Y0173302D01*
X0558952Y0173458D01*
X0558605Y0173606D01*
X0558254Y0173746D01*
X0557900Y0173877D01*
X0557543Y0173999D01*
X0557183Y0174113D01*
X0556821Y0174218D01*
X0556456Y0174315D01*
X0556089Y0174402D01*
X0555720Y0174480D01*
X0555349Y0174550D01*
X0554976Y0174610D01*
X0554602Y0174662D01*
X0554227Y0174704D01*
X0553851Y0174737D01*
X0553475Y0174761D01*
X0553098Y0174776D01*
X0552720Y0174782D01*
X0552621Y0175564D02*
X0552621Y0174664D01*
X0552620Y0174665D02*
X0552248Y0174659D01*
X0551877Y0174645D01*
X0551505Y0174621D01*
X0551135Y0174589D01*
X0550765Y0174548D01*
X0550397Y0174498D01*
X0550029Y0174439D01*
X0549663Y0174372D01*
X0549299Y0174295D01*
X0548937Y0174210D01*
X0548577Y0174117D01*
X0548220Y0174015D01*
X0547865Y0173904D01*
X0547512Y0173785D01*
X0547163Y0173657D01*
X0546817Y0173521D01*
X0546474Y0173377D01*
X0546134Y0173225D01*
X0545799Y0173064D01*
X0545467Y0172896D01*
X0545139Y0172720D01*
X0544816Y0172536D01*
X0544497Y0172344D01*
X0544183Y0172145D01*
X0543874Y0171938D01*
X0543570Y0171724D01*
X0543271Y0171503D01*
X0542725Y0172218D01*
X0543041Y0172452D01*
X0543363Y0172679D01*
X0543690Y0172898D01*
X0544023Y0173109D01*
X0544360Y0173312D01*
X0544702Y0173507D01*
X0545049Y0173693D01*
X0545400Y0173871D01*
X0545755Y0174041D01*
X0546114Y0174202D01*
X0546477Y0174355D01*
X0546844Y0174499D01*
X0547214Y0174634D01*
X0547587Y0174760D01*
X0547962Y0174877D01*
X0548341Y0174985D01*
X0548722Y0175084D01*
X0549105Y0175174D01*
X0549491Y0175255D01*
X0549878Y0175326D01*
X0550267Y0175388D01*
X0550657Y0175441D01*
X0551048Y0175485D01*
X0551440Y0175519D01*
X0551833Y0175544D01*
X0552226Y0175559D01*
X0552620Y0175565D01*
X0552620Y0175471D01*
X0552229Y0175465D01*
X0551838Y0175450D01*
X0551447Y0175425D01*
X0551057Y0175391D01*
X0550668Y0175348D01*
X0550280Y0175295D01*
X0549894Y0175234D01*
X0549509Y0175163D01*
X0549126Y0175082D01*
X0548744Y0174993D01*
X0548366Y0174894D01*
X0547989Y0174787D01*
X0547616Y0174670D01*
X0547245Y0174545D01*
X0546877Y0174411D01*
X0546513Y0174268D01*
X0546152Y0174116D01*
X0545795Y0173956D01*
X0545442Y0173787D01*
X0545093Y0173610D01*
X0544748Y0173424D01*
X0544408Y0173231D01*
X0544072Y0173029D01*
X0543742Y0172819D01*
X0543416Y0172602D01*
X0543096Y0172376D01*
X0542782Y0172143D01*
X0542839Y0172069D01*
X0543152Y0172300D01*
X0543470Y0172524D01*
X0543793Y0172741D01*
X0544122Y0172949D01*
X0544455Y0173150D01*
X0544794Y0173342D01*
X0545136Y0173527D01*
X0545483Y0173703D01*
X0545834Y0173871D01*
X0546189Y0174030D01*
X0546548Y0174181D01*
X0546910Y0174323D01*
X0547276Y0174456D01*
X0547645Y0174581D01*
X0548016Y0174697D01*
X0548390Y0174804D01*
X0548767Y0174902D01*
X0549146Y0174991D01*
X0549527Y0175070D01*
X0549909Y0175141D01*
X0550294Y0175202D01*
X0550679Y0175255D01*
X0551066Y0175298D01*
X0551454Y0175331D01*
X0551842Y0175356D01*
X0552231Y0175371D01*
X0552620Y0175377D01*
X0552620Y0175283D01*
X0552233Y0175277D01*
X0551847Y0175262D01*
X0551461Y0175238D01*
X0551075Y0175204D01*
X0550691Y0175161D01*
X0550307Y0175109D01*
X0549925Y0175048D01*
X0549545Y0174978D01*
X0549166Y0174899D01*
X0548789Y0174810D01*
X0548415Y0174713D01*
X0548043Y0174607D01*
X0547674Y0174492D01*
X0547307Y0174368D01*
X0546944Y0174235D01*
X0546584Y0174094D01*
X0546227Y0173944D01*
X0545874Y0173785D01*
X0545525Y0173619D01*
X0545180Y0173443D01*
X0544839Y0173260D01*
X0544503Y0173069D01*
X0544171Y0172869D01*
X0543845Y0172662D01*
X0543523Y0172447D01*
X0543207Y0172224D01*
X0542896Y0171994D01*
X0542953Y0171919D01*
X0543262Y0172148D01*
X0543577Y0172370D01*
X0543896Y0172583D01*
X0544221Y0172789D01*
X0544551Y0172988D01*
X0544885Y0173178D01*
X0545224Y0173360D01*
X0545567Y0173534D01*
X0545914Y0173700D01*
X0546264Y0173858D01*
X0546619Y0174007D01*
X0546977Y0174147D01*
X0547338Y0174279D01*
X0547703Y0174402D01*
X0548070Y0174517D01*
X0548440Y0174622D01*
X0548812Y0174719D01*
X0549186Y0174807D01*
X0549563Y0174886D01*
X0549941Y0174956D01*
X0550321Y0175016D01*
X0550702Y0175068D01*
X0551084Y0175111D01*
X0551467Y0175144D01*
X0551851Y0175168D01*
X0552236Y0175183D01*
X0552620Y0175189D01*
X0552620Y0175095D01*
X0552238Y0175089D01*
X0551856Y0175074D01*
X0551474Y0175050D01*
X0551093Y0175017D01*
X0550713Y0174975D01*
X0550334Y0174923D01*
X0549957Y0174863D01*
X0549581Y0174794D01*
X0549207Y0174715D01*
X0548834Y0174628D01*
X0548464Y0174532D01*
X0548097Y0174427D01*
X0547732Y0174313D01*
X0547370Y0174190D01*
X0547010Y0174059D01*
X0546654Y0173920D01*
X0546302Y0173771D01*
X0545953Y0173615D01*
X0545608Y0173450D01*
X0545267Y0173277D01*
X0544931Y0173096D01*
X0544598Y0172907D01*
X0544271Y0172710D01*
X0543948Y0172505D01*
X0543630Y0172292D01*
X0543317Y0172072D01*
X0543010Y0171845D01*
X0543067Y0171770D01*
X0543373Y0171996D01*
X0543683Y0172215D01*
X0543999Y0172426D01*
X0544320Y0172630D01*
X0544646Y0172826D01*
X0544976Y0173014D01*
X0545311Y0173194D01*
X0545650Y0173366D01*
X0545993Y0173530D01*
X0546340Y0173685D01*
X0546690Y0173832D01*
X0547044Y0173971D01*
X0547401Y0174102D01*
X0547761Y0174223D01*
X0548124Y0174337D01*
X0548489Y0174441D01*
X0548857Y0174537D01*
X0549227Y0174623D01*
X0549599Y0174701D01*
X0549973Y0174770D01*
X0550348Y0174830D01*
X0550725Y0174881D01*
X0551102Y0174923D01*
X0551481Y0174956D01*
X0551860Y0174980D01*
X0552240Y0174995D01*
X0552620Y0175001D01*
X0552620Y0174907D01*
X0552242Y0174901D01*
X0551865Y0174886D01*
X0551488Y0174863D01*
X0551111Y0174830D01*
X0550736Y0174788D01*
X0550362Y0174737D01*
X0549988Y0174678D01*
X0549617Y0174609D01*
X0549247Y0174532D01*
X0548879Y0174445D01*
X0548514Y0174350D01*
X0548150Y0174246D01*
X0547790Y0174134D01*
X0547432Y0174013D01*
X0547077Y0173883D01*
X0546725Y0173745D01*
X0546377Y0173599D01*
X0546032Y0173444D01*
X0545691Y0173281D01*
X0545355Y0173110D01*
X0545022Y0172931D01*
X0544694Y0172745D01*
X0544370Y0172550D01*
X0544051Y0172347D01*
X0543737Y0172137D01*
X0543428Y0171920D01*
X0543124Y0171695D01*
X0543181Y0171621D01*
X0543483Y0171844D01*
X0543790Y0172060D01*
X0544102Y0172269D01*
X0544419Y0172470D01*
X0544741Y0172663D01*
X0545068Y0172849D01*
X0545398Y0173027D01*
X0545733Y0173197D01*
X0546072Y0173359D01*
X0546415Y0173513D01*
X0546761Y0173658D01*
X0547110Y0173796D01*
X0547463Y0173924D01*
X0547819Y0174045D01*
X0548177Y0174156D01*
X0548538Y0174260D01*
X0548902Y0174354D01*
X0549267Y0174440D01*
X0549635Y0174517D01*
X0550004Y0174585D01*
X0550375Y0174644D01*
X0550747Y0174695D01*
X0551120Y0174736D01*
X0551495Y0174769D01*
X0551869Y0174793D01*
X0552245Y0174807D01*
X0552620Y0174813D01*
X0552620Y0174719D01*
X0552247Y0174713D01*
X0551874Y0174699D01*
X0551501Y0174675D01*
X0551130Y0174643D01*
X0550759Y0174601D01*
X0550389Y0174551D01*
X0550020Y0174492D01*
X0549653Y0174425D01*
X0549288Y0174348D01*
X0548924Y0174263D01*
X0548563Y0174169D01*
X0548204Y0174066D01*
X0547848Y0173955D01*
X0547494Y0173836D01*
X0547144Y0173708D01*
X0546796Y0173571D01*
X0546452Y0173427D01*
X0546112Y0173274D01*
X0545775Y0173113D01*
X0545442Y0172944D01*
X0545113Y0172767D01*
X0544789Y0172582D01*
X0544469Y0172390D01*
X0544154Y0172190D01*
X0543844Y0171983D01*
X0543538Y0171768D01*
X0543238Y0171546D01*
X0599585Y0269151D02*
X0600295Y0268599D01*
X0600294Y0268599D02*
X0600068Y0268299D01*
X0599849Y0267993D01*
X0599638Y0267682D01*
X0599434Y0267366D01*
X0599238Y0267045D01*
X0599049Y0266720D01*
X0598869Y0266390D01*
X0598696Y0266056D01*
X0598532Y0265717D01*
X0598376Y0265375D01*
X0598229Y0265029D01*
X0598090Y0264680D01*
X0597959Y0264327D01*
X0597837Y0263971D01*
X0597723Y0263613D01*
X0597619Y0263252D01*
X0597523Y0262888D01*
X0597436Y0262522D01*
X0597358Y0262154D01*
X0597288Y0261785D01*
X0597228Y0261413D01*
X0597177Y0261041D01*
X0597135Y0260667D01*
X0597102Y0260292D01*
X0597078Y0259917D01*
X0597063Y0259541D01*
X0597057Y0259165D01*
X0596158Y0259165D01*
X0596157Y0259165D01*
X0596163Y0259563D01*
X0596179Y0259961D01*
X0596204Y0260359D01*
X0596239Y0260755D01*
X0596284Y0261151D01*
X0596338Y0261545D01*
X0596402Y0261938D01*
X0596475Y0262329D01*
X0596558Y0262719D01*
X0596650Y0263106D01*
X0596751Y0263491D01*
X0596862Y0263873D01*
X0596982Y0264253D01*
X0597111Y0264630D01*
X0597250Y0265003D01*
X0597397Y0265373D01*
X0597553Y0265739D01*
X0597718Y0266101D01*
X0597892Y0266459D01*
X0598075Y0266813D01*
X0598266Y0267162D01*
X0598465Y0267507D01*
X0598673Y0267847D01*
X0598889Y0268181D01*
X0599113Y0268510D01*
X0599344Y0268834D01*
X0599584Y0269152D01*
X0599658Y0269094D01*
X0599420Y0268778D01*
X0599190Y0268456D01*
X0598967Y0268129D01*
X0598752Y0267797D01*
X0598546Y0267459D01*
X0598347Y0267116D01*
X0598158Y0266769D01*
X0597976Y0266417D01*
X0597803Y0266061D01*
X0597639Y0265701D01*
X0597484Y0265337D01*
X0597337Y0264969D01*
X0597200Y0264598D01*
X0597071Y0264224D01*
X0596952Y0263846D01*
X0596842Y0263466D01*
X0596741Y0263083D01*
X0596649Y0262698D01*
X0596567Y0262311D01*
X0596494Y0261922D01*
X0596431Y0261531D01*
X0596377Y0261139D01*
X0596333Y0260746D01*
X0596298Y0260352D01*
X0596273Y0259957D01*
X0596257Y0259561D01*
X0596251Y0259165D01*
X0596345Y0259165D01*
X0596351Y0259559D01*
X0596367Y0259952D01*
X0596392Y0260345D01*
X0596426Y0260737D01*
X0596470Y0261128D01*
X0596524Y0261518D01*
X0596587Y0261906D01*
X0596659Y0262293D01*
X0596741Y0262678D01*
X0596832Y0263061D01*
X0596932Y0263441D01*
X0597042Y0263819D01*
X0597161Y0264194D01*
X0597288Y0264566D01*
X0597425Y0264935D01*
X0597571Y0265301D01*
X0597725Y0265663D01*
X0597888Y0266021D01*
X0598060Y0266375D01*
X0598240Y0266725D01*
X0598429Y0267070D01*
X0598626Y0267411D01*
X0598832Y0267746D01*
X0599045Y0268077D01*
X0599266Y0268402D01*
X0599496Y0268722D01*
X0599732Y0269036D01*
X0599807Y0268979D01*
X0599571Y0268666D01*
X0599343Y0268348D01*
X0599123Y0268025D01*
X0598911Y0267696D01*
X0598707Y0267362D01*
X0598511Y0267024D01*
X0598323Y0266681D01*
X0598144Y0266333D01*
X0597973Y0265981D01*
X0597811Y0265625D01*
X0597658Y0265265D01*
X0597513Y0264902D01*
X0597377Y0264535D01*
X0597250Y0264165D01*
X0597132Y0263792D01*
X0597023Y0263416D01*
X0596923Y0263038D01*
X0596833Y0262657D01*
X0596751Y0262275D01*
X0596680Y0261890D01*
X0596617Y0261504D01*
X0596564Y0261116D01*
X0596520Y0260728D01*
X0596485Y0260338D01*
X0596460Y0259947D01*
X0596445Y0259556D01*
X0596439Y0259165D01*
X0596533Y0259165D01*
X0596539Y0259554D01*
X0596554Y0259943D01*
X0596579Y0260331D01*
X0596613Y0260718D01*
X0596657Y0261105D01*
X0596710Y0261490D01*
X0596772Y0261874D01*
X0596844Y0262256D01*
X0596924Y0262637D01*
X0597014Y0263015D01*
X0597114Y0263391D01*
X0597222Y0263765D01*
X0597339Y0264135D01*
X0597465Y0264503D01*
X0597601Y0264868D01*
X0597744Y0265229D01*
X0597897Y0265587D01*
X0598058Y0265941D01*
X0598228Y0266291D01*
X0598406Y0266636D01*
X0598593Y0266978D01*
X0598788Y0267314D01*
X0598991Y0267646D01*
X0599202Y0267973D01*
X0599420Y0268294D01*
X0599647Y0268610D01*
X0599881Y0268921D01*
X0599955Y0268863D01*
X0599722Y0268555D01*
X0599497Y0268240D01*
X0599280Y0267921D01*
X0599070Y0267596D01*
X0598868Y0267266D01*
X0598675Y0266931D01*
X0598489Y0266592D01*
X0598312Y0266249D01*
X0598143Y0265901D01*
X0597983Y0265549D01*
X0597831Y0265193D01*
X0597688Y0264834D01*
X0597554Y0264472D01*
X0597428Y0264106D01*
X0597312Y0263737D01*
X0597204Y0263366D01*
X0597106Y0262992D01*
X0597016Y0262616D01*
X0596936Y0262238D01*
X0596865Y0261858D01*
X0596803Y0261476D01*
X0596750Y0261093D01*
X0596707Y0260709D01*
X0596673Y0260324D01*
X0596648Y0259938D01*
X0596633Y0259552D01*
X0596627Y0259165D01*
X0596721Y0259165D01*
X0596727Y0259550D01*
X0596742Y0259934D01*
X0596767Y0260317D01*
X0596800Y0260700D01*
X0596844Y0261082D01*
X0596896Y0261463D01*
X0596957Y0261842D01*
X0597028Y0262220D01*
X0597108Y0262596D01*
X0597197Y0262969D01*
X0597295Y0263341D01*
X0597402Y0263710D01*
X0597518Y0264077D01*
X0597642Y0264440D01*
X0597776Y0264800D01*
X0597918Y0265157D01*
X0598069Y0265511D01*
X0598228Y0265861D01*
X0598396Y0266206D01*
X0598572Y0266548D01*
X0598757Y0266885D01*
X0598949Y0267218D01*
X0599150Y0267546D01*
X0599358Y0267868D01*
X0599574Y0268186D01*
X0599798Y0268499D01*
X0600029Y0268806D01*
X0600103Y0268748D01*
X0599874Y0268443D01*
X0599651Y0268132D01*
X0599436Y0267816D01*
X0599229Y0267495D01*
X0599030Y0267169D01*
X0598839Y0266839D01*
X0598655Y0266504D01*
X0598480Y0266164D01*
X0598313Y0265820D01*
X0598155Y0265473D01*
X0598005Y0265122D01*
X0597864Y0264767D01*
X0597731Y0264408D01*
X0597607Y0264047D01*
X0597492Y0263683D01*
X0597385Y0263316D01*
X0597288Y0262947D01*
X0597200Y0262575D01*
X0597120Y0262201D01*
X0597050Y0261826D01*
X0596989Y0261449D01*
X0596937Y0261070D01*
X0596894Y0260691D01*
X0596860Y0260310D01*
X0596836Y0259929D01*
X0596821Y0259547D01*
X0596815Y0259165D01*
X0596909Y0259165D01*
X0596915Y0259545D01*
X0596930Y0259924D01*
X0596954Y0260303D01*
X0596988Y0260682D01*
X0597030Y0261059D01*
X0597082Y0261435D01*
X0597143Y0261810D01*
X0597212Y0262183D01*
X0597291Y0262554D01*
X0597379Y0262924D01*
X0597476Y0263291D01*
X0597582Y0263656D01*
X0597696Y0264018D01*
X0597820Y0264377D01*
X0597951Y0264733D01*
X0598092Y0265086D01*
X0598241Y0265435D01*
X0598398Y0265780D01*
X0598564Y0266122D01*
X0598738Y0266459D01*
X0598920Y0266793D01*
X0599111Y0267121D01*
X0599309Y0267445D01*
X0599514Y0267764D01*
X0599728Y0268078D01*
X0599949Y0268387D01*
X0600178Y0268690D01*
X0600252Y0268632D01*
X0600025Y0268331D01*
X0599805Y0268024D01*
X0599593Y0267712D01*
X0599388Y0267395D01*
X0599191Y0267073D01*
X0599002Y0266746D01*
X0598821Y0266415D01*
X0598648Y0266080D01*
X0598483Y0265740D01*
X0598327Y0265397D01*
X0598179Y0265050D01*
X0598039Y0264699D01*
X0597908Y0264345D01*
X0597786Y0263988D01*
X0597672Y0263628D01*
X0597567Y0263266D01*
X0597470Y0262901D01*
X0597383Y0262534D01*
X0597305Y0262165D01*
X0597235Y0261794D01*
X0597175Y0261421D01*
X0597123Y0261047D01*
X0597081Y0260672D01*
X0597048Y0260296D01*
X0597024Y0259920D01*
X0597009Y0259543D01*
X0597003Y0259165D01*
X0596221Y0259066D02*
X0597121Y0259066D01*
X0597120Y0259065D02*
X0597126Y0258693D01*
X0597140Y0258322D01*
X0597164Y0257950D01*
X0597196Y0257580D01*
X0597237Y0257210D01*
X0597287Y0256842D01*
X0597346Y0256474D01*
X0597413Y0256108D01*
X0597490Y0255744D01*
X0597575Y0255382D01*
X0597668Y0255022D01*
X0597770Y0254665D01*
X0597881Y0254310D01*
X0598000Y0253957D01*
X0598128Y0253608D01*
X0598264Y0253262D01*
X0598408Y0252919D01*
X0598560Y0252579D01*
X0598721Y0252244D01*
X0598889Y0251912D01*
X0599065Y0251584D01*
X0599249Y0251261D01*
X0599441Y0250942D01*
X0599640Y0250628D01*
X0599847Y0250319D01*
X0600061Y0250015D01*
X0600282Y0249716D01*
X0599567Y0249170D01*
X0599333Y0249486D01*
X0599106Y0249808D01*
X0598887Y0250135D01*
X0598676Y0250468D01*
X0598473Y0250805D01*
X0598278Y0251147D01*
X0598092Y0251494D01*
X0597914Y0251845D01*
X0597744Y0252200D01*
X0597583Y0252559D01*
X0597430Y0252922D01*
X0597286Y0253289D01*
X0597151Y0253659D01*
X0597025Y0254032D01*
X0596908Y0254407D01*
X0596800Y0254786D01*
X0596701Y0255167D01*
X0596611Y0255550D01*
X0596530Y0255936D01*
X0596459Y0256323D01*
X0596397Y0256712D01*
X0596344Y0257102D01*
X0596300Y0257493D01*
X0596266Y0257885D01*
X0596241Y0258278D01*
X0596226Y0258671D01*
X0596220Y0259065D01*
X0596314Y0259065D01*
X0596320Y0258674D01*
X0596335Y0258283D01*
X0596360Y0257892D01*
X0596394Y0257502D01*
X0596437Y0257113D01*
X0596490Y0256725D01*
X0596551Y0256339D01*
X0596622Y0255954D01*
X0596703Y0255571D01*
X0596792Y0255189D01*
X0596891Y0254811D01*
X0596998Y0254434D01*
X0597115Y0254061D01*
X0597240Y0253690D01*
X0597374Y0253322D01*
X0597517Y0252958D01*
X0597669Y0252597D01*
X0597829Y0252240D01*
X0597998Y0251887D01*
X0598175Y0251538D01*
X0598361Y0251193D01*
X0598554Y0250853D01*
X0598756Y0250517D01*
X0598966Y0250187D01*
X0599183Y0249861D01*
X0599409Y0249541D01*
X0599642Y0249227D01*
X0599716Y0249284D01*
X0599485Y0249597D01*
X0599261Y0249915D01*
X0599044Y0250238D01*
X0598836Y0250567D01*
X0598635Y0250900D01*
X0598443Y0251239D01*
X0598258Y0251581D01*
X0598082Y0251928D01*
X0597914Y0252279D01*
X0597755Y0252634D01*
X0597604Y0252993D01*
X0597462Y0253355D01*
X0597329Y0253721D01*
X0597204Y0254090D01*
X0597088Y0254461D01*
X0596981Y0254835D01*
X0596883Y0255212D01*
X0596794Y0255591D01*
X0596715Y0255972D01*
X0596644Y0256354D01*
X0596583Y0256739D01*
X0596530Y0257124D01*
X0596487Y0257511D01*
X0596454Y0257899D01*
X0596429Y0258287D01*
X0596414Y0258676D01*
X0596408Y0259065D01*
X0596502Y0259065D01*
X0596508Y0258678D01*
X0596523Y0258292D01*
X0596547Y0257906D01*
X0596581Y0257520D01*
X0596624Y0257136D01*
X0596676Y0256752D01*
X0596737Y0256370D01*
X0596807Y0255990D01*
X0596886Y0255611D01*
X0596975Y0255234D01*
X0597072Y0254860D01*
X0597178Y0254488D01*
X0597293Y0254119D01*
X0597417Y0253752D01*
X0597550Y0253389D01*
X0597691Y0253029D01*
X0597841Y0252672D01*
X0598000Y0252319D01*
X0598166Y0251970D01*
X0598342Y0251625D01*
X0598525Y0251284D01*
X0598716Y0250948D01*
X0598916Y0250616D01*
X0599123Y0250290D01*
X0599338Y0249968D01*
X0599561Y0249652D01*
X0599791Y0249341D01*
X0599866Y0249398D01*
X0599637Y0249707D01*
X0599415Y0250022D01*
X0599202Y0250341D01*
X0598996Y0250666D01*
X0598797Y0250996D01*
X0598607Y0251330D01*
X0598425Y0251669D01*
X0598251Y0252012D01*
X0598085Y0252359D01*
X0597927Y0252709D01*
X0597778Y0253064D01*
X0597638Y0253422D01*
X0597506Y0253783D01*
X0597383Y0254148D01*
X0597268Y0254515D01*
X0597163Y0254885D01*
X0597066Y0255257D01*
X0596978Y0255631D01*
X0596899Y0256008D01*
X0596829Y0256386D01*
X0596769Y0256766D01*
X0596717Y0257147D01*
X0596674Y0257529D01*
X0596641Y0257912D01*
X0596617Y0258296D01*
X0596602Y0258681D01*
X0596596Y0259065D01*
X0596690Y0259065D01*
X0596696Y0258683D01*
X0596711Y0258301D01*
X0596735Y0257919D01*
X0596768Y0257538D01*
X0596810Y0257158D01*
X0596862Y0256779D01*
X0596922Y0256402D01*
X0596991Y0256026D01*
X0597070Y0255652D01*
X0597157Y0255279D01*
X0597253Y0254909D01*
X0597358Y0254542D01*
X0597472Y0254177D01*
X0597595Y0253815D01*
X0597726Y0253455D01*
X0597865Y0253099D01*
X0598014Y0252747D01*
X0598170Y0252398D01*
X0598335Y0252053D01*
X0598508Y0251712D01*
X0598689Y0251376D01*
X0598878Y0251043D01*
X0599075Y0250716D01*
X0599280Y0250393D01*
X0599493Y0250075D01*
X0599713Y0249762D01*
X0599940Y0249455D01*
X0600015Y0249512D01*
X0599789Y0249818D01*
X0599570Y0250128D01*
X0599359Y0250444D01*
X0599155Y0250765D01*
X0598959Y0251091D01*
X0598771Y0251421D01*
X0598591Y0251756D01*
X0598419Y0252095D01*
X0598255Y0252438D01*
X0598100Y0252785D01*
X0597953Y0253135D01*
X0597814Y0253489D01*
X0597683Y0253846D01*
X0597562Y0254206D01*
X0597448Y0254569D01*
X0597344Y0254934D01*
X0597248Y0255302D01*
X0597162Y0255672D01*
X0597084Y0256044D01*
X0597015Y0256418D01*
X0596955Y0256793D01*
X0596904Y0257170D01*
X0596862Y0257547D01*
X0596829Y0257926D01*
X0596805Y0258305D01*
X0596790Y0258685D01*
X0596784Y0259065D01*
X0596878Y0259065D01*
X0596884Y0258687D01*
X0596899Y0258310D01*
X0596922Y0257933D01*
X0596955Y0257556D01*
X0596997Y0257181D01*
X0597048Y0256807D01*
X0597107Y0256433D01*
X0597176Y0256062D01*
X0597253Y0255692D01*
X0597340Y0255324D01*
X0597435Y0254959D01*
X0597539Y0254595D01*
X0597651Y0254235D01*
X0597772Y0253877D01*
X0597902Y0253522D01*
X0598040Y0253170D01*
X0598186Y0252822D01*
X0598341Y0252477D01*
X0598504Y0252136D01*
X0598675Y0251800D01*
X0598854Y0251467D01*
X0599040Y0251139D01*
X0599235Y0250815D01*
X0599438Y0250496D01*
X0599648Y0250182D01*
X0599865Y0249873D01*
X0600090Y0249569D01*
X0600164Y0249626D01*
X0599941Y0249928D01*
X0599725Y0250235D01*
X0599516Y0250547D01*
X0599315Y0250864D01*
X0599122Y0251186D01*
X0598936Y0251513D01*
X0598758Y0251843D01*
X0598588Y0252178D01*
X0598426Y0252517D01*
X0598272Y0252860D01*
X0598127Y0253206D01*
X0597989Y0253555D01*
X0597861Y0253908D01*
X0597740Y0254264D01*
X0597629Y0254622D01*
X0597525Y0254983D01*
X0597431Y0255347D01*
X0597345Y0255712D01*
X0597268Y0256080D01*
X0597200Y0256449D01*
X0597141Y0256820D01*
X0597090Y0257192D01*
X0597049Y0257565D01*
X0597016Y0257940D01*
X0596992Y0258314D01*
X0596978Y0258690D01*
X0596972Y0259065D01*
X0597066Y0259065D01*
X0597072Y0258692D01*
X0597086Y0258319D01*
X0597110Y0257946D01*
X0597142Y0257575D01*
X0597184Y0257204D01*
X0597234Y0256834D01*
X0597293Y0256465D01*
X0597360Y0256098D01*
X0597437Y0255733D01*
X0597522Y0255369D01*
X0597616Y0255008D01*
X0597719Y0254649D01*
X0597830Y0254293D01*
X0597949Y0253939D01*
X0598077Y0253589D01*
X0598214Y0253241D01*
X0598358Y0252897D01*
X0598511Y0252557D01*
X0598672Y0252220D01*
X0598841Y0251887D01*
X0599018Y0251558D01*
X0599203Y0251234D01*
X0599395Y0250914D01*
X0599595Y0250599D01*
X0599802Y0250289D01*
X0600017Y0249983D01*
X0600239Y0249683D01*
X0115754Y0079080D02*
X0115044Y0079632D01*
X0115045Y0079632D02*
X0115271Y0079932D01*
X0115490Y0080238D01*
X0115701Y0080549D01*
X0115905Y0080865D01*
X0116101Y0081186D01*
X0116290Y0081511D01*
X0116470Y0081841D01*
X0116643Y0082175D01*
X0116807Y0082514D01*
X0116963Y0082856D01*
X0117110Y0083202D01*
X0117249Y0083551D01*
X0117380Y0083904D01*
X0117502Y0084260D01*
X0117616Y0084618D01*
X0117720Y0084979D01*
X0117816Y0085343D01*
X0117903Y0085709D01*
X0117981Y0086077D01*
X0118051Y0086446D01*
X0118111Y0086818D01*
X0118162Y0087190D01*
X0118204Y0087564D01*
X0118237Y0087939D01*
X0118261Y0088314D01*
X0118276Y0088690D01*
X0118282Y0089066D01*
X0119181Y0089066D01*
X0119182Y0089066D01*
X0119176Y0088668D01*
X0119160Y0088270D01*
X0119135Y0087872D01*
X0119100Y0087476D01*
X0119055Y0087080D01*
X0119001Y0086686D01*
X0118937Y0086293D01*
X0118864Y0085902D01*
X0118781Y0085512D01*
X0118689Y0085125D01*
X0118588Y0084740D01*
X0118477Y0084358D01*
X0118357Y0083978D01*
X0118228Y0083601D01*
X0118089Y0083228D01*
X0117942Y0082858D01*
X0117786Y0082492D01*
X0117621Y0082130D01*
X0117447Y0081772D01*
X0117264Y0081418D01*
X0117073Y0081069D01*
X0116874Y0080724D01*
X0116666Y0080384D01*
X0116450Y0080050D01*
X0116226Y0079721D01*
X0115995Y0079397D01*
X0115755Y0079079D01*
X0115681Y0079137D01*
X0115919Y0079453D01*
X0116149Y0079775D01*
X0116372Y0080102D01*
X0116587Y0080434D01*
X0116793Y0080772D01*
X0116992Y0081115D01*
X0117181Y0081462D01*
X0117363Y0081814D01*
X0117536Y0082170D01*
X0117700Y0082530D01*
X0117855Y0082894D01*
X0118002Y0083262D01*
X0118139Y0083633D01*
X0118268Y0084007D01*
X0118387Y0084385D01*
X0118497Y0084765D01*
X0118598Y0085148D01*
X0118690Y0085533D01*
X0118772Y0085920D01*
X0118845Y0086309D01*
X0118908Y0086700D01*
X0118962Y0087092D01*
X0119006Y0087485D01*
X0119041Y0087879D01*
X0119066Y0088274D01*
X0119082Y0088670D01*
X0119088Y0089066D01*
X0118994Y0089066D01*
X0118988Y0088672D01*
X0118972Y0088279D01*
X0118947Y0087886D01*
X0118913Y0087494D01*
X0118869Y0087103D01*
X0118815Y0086713D01*
X0118752Y0086325D01*
X0118680Y0085938D01*
X0118598Y0085553D01*
X0118507Y0085170D01*
X0118407Y0084790D01*
X0118297Y0084412D01*
X0118178Y0084037D01*
X0118051Y0083665D01*
X0117914Y0083296D01*
X0117768Y0082930D01*
X0117614Y0082568D01*
X0117451Y0082210D01*
X0117279Y0081856D01*
X0117099Y0081506D01*
X0116910Y0081161D01*
X0116713Y0080820D01*
X0116507Y0080485D01*
X0116294Y0080154D01*
X0116073Y0079829D01*
X0115843Y0079509D01*
X0115607Y0079195D01*
X0115532Y0079252D01*
X0115768Y0079565D01*
X0115996Y0079883D01*
X0116216Y0080206D01*
X0116428Y0080535D01*
X0116632Y0080869D01*
X0116828Y0081207D01*
X0117016Y0081550D01*
X0117195Y0081898D01*
X0117366Y0082250D01*
X0117528Y0082606D01*
X0117681Y0082966D01*
X0117826Y0083329D01*
X0117962Y0083696D01*
X0118089Y0084066D01*
X0118207Y0084439D01*
X0118316Y0084815D01*
X0118416Y0085193D01*
X0118506Y0085574D01*
X0118588Y0085956D01*
X0118659Y0086341D01*
X0118722Y0086727D01*
X0118775Y0087115D01*
X0118819Y0087503D01*
X0118854Y0087893D01*
X0118879Y0088284D01*
X0118894Y0088675D01*
X0118900Y0089066D01*
X0118806Y0089066D01*
X0118800Y0088677D01*
X0118785Y0088288D01*
X0118760Y0087900D01*
X0118726Y0087513D01*
X0118682Y0087126D01*
X0118629Y0086741D01*
X0118567Y0086357D01*
X0118495Y0085975D01*
X0118415Y0085594D01*
X0118325Y0085216D01*
X0118225Y0084840D01*
X0118117Y0084466D01*
X0118000Y0084096D01*
X0117874Y0083728D01*
X0117738Y0083363D01*
X0117595Y0083002D01*
X0117442Y0082644D01*
X0117281Y0082290D01*
X0117111Y0081940D01*
X0116933Y0081595D01*
X0116746Y0081253D01*
X0116551Y0080917D01*
X0116348Y0080585D01*
X0116137Y0080258D01*
X0115919Y0079937D01*
X0115692Y0079621D01*
X0115458Y0079310D01*
X0115384Y0079368D01*
X0115617Y0079676D01*
X0115842Y0079991D01*
X0116059Y0080310D01*
X0116269Y0080635D01*
X0116471Y0080965D01*
X0116664Y0081300D01*
X0116850Y0081639D01*
X0117027Y0081982D01*
X0117196Y0082330D01*
X0117356Y0082682D01*
X0117508Y0083038D01*
X0117651Y0083397D01*
X0117785Y0083759D01*
X0117911Y0084125D01*
X0118027Y0084494D01*
X0118135Y0084865D01*
X0118233Y0085239D01*
X0118323Y0085615D01*
X0118403Y0085993D01*
X0118474Y0086373D01*
X0118536Y0086755D01*
X0118589Y0087138D01*
X0118632Y0087522D01*
X0118666Y0087907D01*
X0118691Y0088293D01*
X0118706Y0088679D01*
X0118712Y0089066D01*
X0118618Y0089066D01*
X0118612Y0088681D01*
X0118597Y0088297D01*
X0118572Y0087914D01*
X0118539Y0087531D01*
X0118495Y0087149D01*
X0118443Y0086768D01*
X0118382Y0086389D01*
X0118311Y0086011D01*
X0118231Y0085635D01*
X0118142Y0085262D01*
X0118044Y0084890D01*
X0117937Y0084521D01*
X0117821Y0084154D01*
X0117697Y0083791D01*
X0117563Y0083431D01*
X0117421Y0083074D01*
X0117270Y0082720D01*
X0117111Y0082370D01*
X0116943Y0082025D01*
X0116767Y0081683D01*
X0116582Y0081346D01*
X0116390Y0081013D01*
X0116189Y0080685D01*
X0115981Y0080363D01*
X0115765Y0080045D01*
X0115541Y0079732D01*
X0115310Y0079425D01*
X0115236Y0079483D01*
X0115465Y0079788D01*
X0115688Y0080099D01*
X0115903Y0080415D01*
X0116110Y0080736D01*
X0116309Y0081062D01*
X0116500Y0081392D01*
X0116684Y0081727D01*
X0116859Y0082067D01*
X0117026Y0082411D01*
X0117184Y0082758D01*
X0117334Y0083109D01*
X0117475Y0083464D01*
X0117608Y0083823D01*
X0117732Y0084184D01*
X0117847Y0084548D01*
X0117954Y0084915D01*
X0118051Y0085284D01*
X0118139Y0085656D01*
X0118219Y0086030D01*
X0118289Y0086405D01*
X0118350Y0086782D01*
X0118402Y0087161D01*
X0118445Y0087540D01*
X0118479Y0087921D01*
X0118503Y0088302D01*
X0118518Y0088684D01*
X0118524Y0089066D01*
X0118430Y0089066D01*
X0118424Y0088686D01*
X0118409Y0088307D01*
X0118385Y0087928D01*
X0118351Y0087549D01*
X0118309Y0087172D01*
X0118257Y0086796D01*
X0118196Y0086421D01*
X0118127Y0086048D01*
X0118048Y0085677D01*
X0117960Y0085307D01*
X0117863Y0084940D01*
X0117757Y0084575D01*
X0117643Y0084213D01*
X0117519Y0083854D01*
X0117388Y0083498D01*
X0117247Y0083145D01*
X0117098Y0082796D01*
X0116941Y0082451D01*
X0116775Y0082109D01*
X0116601Y0081772D01*
X0116419Y0081438D01*
X0116228Y0081110D01*
X0116030Y0080786D01*
X0115825Y0080467D01*
X0115611Y0080153D01*
X0115390Y0079844D01*
X0115161Y0079541D01*
X0115087Y0079599D01*
X0115314Y0079900D01*
X0115534Y0080207D01*
X0115746Y0080519D01*
X0115951Y0080836D01*
X0116148Y0081158D01*
X0116337Y0081485D01*
X0116518Y0081816D01*
X0116691Y0082151D01*
X0116856Y0082491D01*
X0117012Y0082834D01*
X0117160Y0083181D01*
X0117300Y0083532D01*
X0117431Y0083886D01*
X0117553Y0084243D01*
X0117667Y0084603D01*
X0117772Y0084965D01*
X0117869Y0085330D01*
X0117956Y0085697D01*
X0118034Y0086066D01*
X0118104Y0086437D01*
X0118164Y0086810D01*
X0118216Y0087184D01*
X0118258Y0087559D01*
X0118291Y0087935D01*
X0118315Y0088311D01*
X0118330Y0088688D01*
X0118336Y0089066D01*
X0119119Y0089164D02*
X0118219Y0089164D01*
X0118220Y0089165D02*
X0118214Y0089537D01*
X0118200Y0089908D01*
X0118176Y0090280D01*
X0118144Y0090650D01*
X0118103Y0091020D01*
X0118053Y0091388D01*
X0117994Y0091756D01*
X0117927Y0092122D01*
X0117850Y0092486D01*
X0117765Y0092848D01*
X0117672Y0093208D01*
X0117570Y0093565D01*
X0117459Y0093920D01*
X0117340Y0094273D01*
X0117212Y0094622D01*
X0117076Y0094968D01*
X0116932Y0095311D01*
X0116780Y0095651D01*
X0116619Y0095986D01*
X0116451Y0096318D01*
X0116275Y0096646D01*
X0116091Y0096969D01*
X0115899Y0097288D01*
X0115700Y0097602D01*
X0115493Y0097911D01*
X0115279Y0098215D01*
X0115058Y0098514D01*
X0115773Y0099060D01*
X0116007Y0098744D01*
X0116234Y0098422D01*
X0116453Y0098095D01*
X0116664Y0097762D01*
X0116867Y0097425D01*
X0117062Y0097083D01*
X0117248Y0096736D01*
X0117426Y0096385D01*
X0117596Y0096030D01*
X0117757Y0095671D01*
X0117910Y0095308D01*
X0118054Y0094941D01*
X0118189Y0094571D01*
X0118315Y0094198D01*
X0118432Y0093823D01*
X0118540Y0093444D01*
X0118639Y0093063D01*
X0118729Y0092680D01*
X0118810Y0092294D01*
X0118881Y0091907D01*
X0118943Y0091518D01*
X0118996Y0091128D01*
X0119040Y0090737D01*
X0119074Y0090345D01*
X0119099Y0089952D01*
X0119114Y0089559D01*
X0119120Y0089165D01*
X0119026Y0089165D01*
X0119020Y0089556D01*
X0119005Y0089947D01*
X0118980Y0090338D01*
X0118946Y0090728D01*
X0118903Y0091117D01*
X0118850Y0091505D01*
X0118789Y0091891D01*
X0118718Y0092276D01*
X0118637Y0092659D01*
X0118548Y0093041D01*
X0118449Y0093419D01*
X0118342Y0093796D01*
X0118225Y0094169D01*
X0118100Y0094540D01*
X0117966Y0094908D01*
X0117823Y0095272D01*
X0117671Y0095633D01*
X0117511Y0095990D01*
X0117342Y0096343D01*
X0117165Y0096692D01*
X0116979Y0097037D01*
X0116786Y0097377D01*
X0116584Y0097713D01*
X0116374Y0098043D01*
X0116157Y0098369D01*
X0115931Y0098689D01*
X0115698Y0099003D01*
X0115624Y0098946D01*
X0115855Y0098633D01*
X0116079Y0098315D01*
X0116296Y0097992D01*
X0116504Y0097663D01*
X0116705Y0097330D01*
X0116897Y0096991D01*
X0117082Y0096649D01*
X0117258Y0096302D01*
X0117426Y0095951D01*
X0117585Y0095596D01*
X0117736Y0095237D01*
X0117878Y0094875D01*
X0118011Y0094509D01*
X0118136Y0094140D01*
X0118252Y0093769D01*
X0118359Y0093395D01*
X0118457Y0093018D01*
X0118546Y0092639D01*
X0118625Y0092258D01*
X0118696Y0091876D01*
X0118757Y0091491D01*
X0118810Y0091106D01*
X0118853Y0090719D01*
X0118886Y0090331D01*
X0118911Y0089943D01*
X0118926Y0089554D01*
X0118932Y0089165D01*
X0118838Y0089165D01*
X0118832Y0089552D01*
X0118817Y0089938D01*
X0118793Y0090324D01*
X0118759Y0090710D01*
X0118716Y0091094D01*
X0118664Y0091478D01*
X0118603Y0091860D01*
X0118533Y0092240D01*
X0118454Y0092619D01*
X0118365Y0092996D01*
X0118268Y0093370D01*
X0118162Y0093742D01*
X0118047Y0094111D01*
X0117923Y0094478D01*
X0117790Y0094841D01*
X0117649Y0095201D01*
X0117499Y0095558D01*
X0117340Y0095911D01*
X0117174Y0096260D01*
X0116998Y0096605D01*
X0116815Y0096946D01*
X0116624Y0097282D01*
X0116424Y0097614D01*
X0116217Y0097940D01*
X0116002Y0098262D01*
X0115779Y0098578D01*
X0115549Y0098889D01*
X0115474Y0098832D01*
X0115703Y0098523D01*
X0115925Y0098208D01*
X0116138Y0097889D01*
X0116344Y0097564D01*
X0116543Y0097234D01*
X0116733Y0096900D01*
X0116915Y0096561D01*
X0117089Y0096218D01*
X0117255Y0095871D01*
X0117413Y0095521D01*
X0117562Y0095166D01*
X0117702Y0094808D01*
X0117834Y0094447D01*
X0117957Y0094082D01*
X0118072Y0093715D01*
X0118177Y0093345D01*
X0118274Y0092973D01*
X0118362Y0092599D01*
X0118441Y0092222D01*
X0118511Y0091844D01*
X0118571Y0091464D01*
X0118623Y0091083D01*
X0118666Y0090701D01*
X0118699Y0090318D01*
X0118723Y0089934D01*
X0118738Y0089549D01*
X0118744Y0089165D01*
X0118650Y0089165D01*
X0118644Y0089547D01*
X0118629Y0089929D01*
X0118605Y0090311D01*
X0118572Y0090692D01*
X0118530Y0091072D01*
X0118478Y0091451D01*
X0118418Y0091828D01*
X0118349Y0092204D01*
X0118270Y0092578D01*
X0118183Y0092951D01*
X0118087Y0093321D01*
X0117982Y0093688D01*
X0117868Y0094053D01*
X0117745Y0094415D01*
X0117614Y0094775D01*
X0117475Y0095131D01*
X0117326Y0095483D01*
X0117170Y0095832D01*
X0117005Y0096177D01*
X0116832Y0096518D01*
X0116651Y0096854D01*
X0116462Y0097187D01*
X0116265Y0097514D01*
X0116060Y0097837D01*
X0115847Y0098155D01*
X0115627Y0098468D01*
X0115400Y0098775D01*
X0115325Y0098718D01*
X0115551Y0098412D01*
X0115770Y0098102D01*
X0115981Y0097786D01*
X0116185Y0097465D01*
X0116381Y0097139D01*
X0116569Y0096809D01*
X0116749Y0096474D01*
X0116921Y0096135D01*
X0117085Y0095792D01*
X0117240Y0095445D01*
X0117387Y0095095D01*
X0117526Y0094741D01*
X0117657Y0094384D01*
X0117778Y0094024D01*
X0117892Y0093661D01*
X0117996Y0093296D01*
X0118092Y0092928D01*
X0118178Y0092558D01*
X0118256Y0092186D01*
X0118325Y0091812D01*
X0118385Y0091437D01*
X0118436Y0091060D01*
X0118478Y0090683D01*
X0118511Y0090304D01*
X0118535Y0089925D01*
X0118550Y0089545D01*
X0118556Y0089165D01*
X0118462Y0089165D01*
X0118456Y0089543D01*
X0118441Y0089920D01*
X0118418Y0090297D01*
X0118385Y0090674D01*
X0118343Y0091049D01*
X0118292Y0091423D01*
X0118233Y0091797D01*
X0118164Y0092168D01*
X0118087Y0092538D01*
X0118000Y0092906D01*
X0117905Y0093271D01*
X0117801Y0093635D01*
X0117689Y0093995D01*
X0117568Y0094353D01*
X0117438Y0094708D01*
X0117300Y0095060D01*
X0117154Y0095408D01*
X0116999Y0095753D01*
X0116836Y0096094D01*
X0116665Y0096430D01*
X0116486Y0096763D01*
X0116300Y0097091D01*
X0116105Y0097415D01*
X0115902Y0097734D01*
X0115692Y0098048D01*
X0115475Y0098357D01*
X0115250Y0098661D01*
X0115176Y0098604D01*
X0115399Y0098302D01*
X0115615Y0097995D01*
X0115824Y0097683D01*
X0116025Y0097366D01*
X0116218Y0097044D01*
X0116404Y0096717D01*
X0116582Y0096387D01*
X0116752Y0096052D01*
X0116914Y0095713D01*
X0117068Y0095370D01*
X0117213Y0095024D01*
X0117351Y0094675D01*
X0117479Y0094322D01*
X0117600Y0093966D01*
X0117711Y0093608D01*
X0117815Y0093247D01*
X0117909Y0092883D01*
X0117995Y0092518D01*
X0118072Y0092150D01*
X0118140Y0091781D01*
X0118199Y0091410D01*
X0118250Y0091038D01*
X0118291Y0090665D01*
X0118324Y0090290D01*
X0118348Y0089916D01*
X0118362Y0089540D01*
X0118368Y0089165D01*
X0118274Y0089165D01*
X0118268Y0089538D01*
X0118254Y0089911D01*
X0118230Y0090284D01*
X0118198Y0090655D01*
X0118156Y0091026D01*
X0118106Y0091396D01*
X0118047Y0091765D01*
X0117980Y0092132D01*
X0117903Y0092497D01*
X0117818Y0092861D01*
X0117724Y0093222D01*
X0117621Y0093581D01*
X0117510Y0093937D01*
X0117391Y0094291D01*
X0117263Y0094641D01*
X0117126Y0094989D01*
X0116982Y0095333D01*
X0116829Y0095673D01*
X0116668Y0096010D01*
X0116499Y0096343D01*
X0116322Y0096672D01*
X0116137Y0096996D01*
X0115945Y0097316D01*
X0115745Y0097631D01*
X0115538Y0097941D01*
X0115323Y0098247D01*
X0115101Y0098547D01*
D14*
X0082670Y0149115D02*
X0182670Y0149115D01*
X0182670Y0359115D01*
X0082670Y0359115D01*
X0082670Y0149115D01*
M02*
